M48
; DRILL file {KiCad (5.1.9)-1} date 10/25/21 22:56:32
; FORMAT={-:-/ absolute / metric / decimal}
; #@! TF.CreationDate,2021-10-25T22:56:32-04:00
; #@! TF.GenerationSoftware,Kicad,Pcbnew,(5.1.9)-1
; #@! TF.FileFunction,Plated,1,2,PTH
FMAT,2
METRIC
T1C0.200
T2C0.400
T3C0.970
T4C1.040
T5C1.100
%
G90
G05
T1
X11.25Y-84.57
X11.25Y-85.84
X11.25Y-87.11
X11.25Y-88.38
X11.25Y-89.65
X11.25Y-90.92
X12.52Y-84.57
X12.52Y-85.84
X12.52Y-87.11
X12.52Y-88.38
X12.52Y-89.65
X12.52Y-90.92
X13.79Y-84.57
X13.79Y-85.84
X13.79Y-87.11
X13.79Y-88.38
X13.79Y-89.65
X13.79Y-90.92
X15.5Y-84.57
X15.5Y-85.84
X15.5Y-87.11
X15.5Y-88.38
X15.5Y-89.65
X15.5Y-90.92
X16.77Y-84.57
X16.77Y-85.84
X16.77Y-87.11
X16.77Y-88.38
X16.77Y-89.65
X16.77Y-90.92
X17.75Y-8.82
X17.75Y-10.09
X17.75Y-11.36
X17.75Y-12.63
X17.75Y-13.9
X17.75Y-15.17
X18.04Y-84.57
X18.04Y-85.84
X18.04Y-87.11
X18.04Y-88.38
X18.04Y-89.65
X18.04Y-90.92
X19.02Y-8.82
X19.02Y-10.09
X19.02Y-11.36
X19.02Y-12.63
X19.02Y-13.9
X19.02Y-15.17
X20.29Y-8.82
X20.29Y-10.09
X20.29Y-11.36
X20.29Y-12.63
X20.29Y-13.9
X20.29Y-15.17
X28.321Y-67.31
X28.321Y-70.104
X44.4Y-65.7
X44.6Y-73.3
X80.75Y-8.57
X80.75Y-9.84
X80.75Y-11.11
X80.75Y-12.38
X80.75Y-13.65
X80.75Y-14.92
X82.0Y-85.07
X82.0Y-86.34
X82.0Y-87.61
X82.0Y-88.88
X82.0Y-90.15
X82.0Y-91.42
X82.02Y-8.57
X82.02Y-9.84
X82.02Y-11.11
X82.02Y-12.38
X82.02Y-13.65
X82.02Y-14.92
X83.27Y-85.07
X83.27Y-86.34
X83.27Y-87.61
X83.27Y-88.88
X83.27Y-90.15
X83.27Y-91.42
X83.29Y-8.57
X83.29Y-9.84
X83.29Y-11.11
X83.29Y-12.38
X83.29Y-13.65
X83.29Y-14.92
X84.54Y-85.07
X84.54Y-86.34
X84.54Y-87.61
X84.54Y-88.88
X84.54Y-90.15
X84.54Y-91.42
X86.25Y-85.07
X86.25Y-86.34
X86.25Y-87.61
X86.25Y-88.88
X86.25Y-90.15
X86.25Y-91.42
X87.52Y-85.07
X87.52Y-86.34
X87.52Y-87.61
X87.52Y-88.88
X87.52Y-90.15
X87.52Y-91.42
X88.79Y-85.07
X88.79Y-86.34
X88.79Y-87.61
X88.79Y-88.88
X88.79Y-90.15
X88.79Y-91.42
T2
X77.089Y-52.197
X77.216Y-65.151
T3
X13.73Y-25.87
X13.73Y-28.41
X13.73Y-30.95
X13.73Y-33.49
X13.73Y-36.03
X13.73Y-38.57
X13.73Y-41.11
X13.73Y-43.65
X13.73Y-46.19
X13.73Y-48.73
X13.73Y-51.27
X13.73Y-53.81
X13.73Y-56.35
X13.73Y-58.89
X13.73Y-61.43
X13.73Y-63.97
X13.73Y-66.51
X13.73Y-69.05
X13.73Y-71.59
X13.73Y-74.13
X16.27Y-25.87
X16.27Y-28.41
X16.27Y-30.95
X16.27Y-33.49
X16.27Y-36.03
X16.27Y-38.57
X16.27Y-41.11
X16.27Y-43.65
X16.27Y-46.19
X16.27Y-48.73
X16.27Y-51.27
X16.27Y-53.81
X16.27Y-56.35
X16.27Y-58.89
X16.27Y-61.43
X16.27Y-63.97
X16.27Y-66.51
X16.27Y-69.05
X16.27Y-71.59
X16.27Y-74.13
X83.73Y-25.87
X83.73Y-28.41
X83.73Y-30.95
X83.73Y-33.49
X83.73Y-36.03
X83.73Y-38.57
X83.73Y-41.11
X83.73Y-43.65
X83.73Y-46.19
X83.73Y-48.73
X83.73Y-51.27
X83.73Y-53.81
X83.73Y-56.35
X83.73Y-58.89
X83.73Y-61.43
X83.73Y-63.97
X83.73Y-66.51
X83.73Y-69.05
X83.73Y-71.59
X83.73Y-74.13
X86.27Y-25.87
X86.27Y-28.41
X86.27Y-30.95
X86.27Y-33.49
X86.27Y-36.03
X86.27Y-38.57
X86.27Y-41.11
X86.27Y-43.65
X86.27Y-46.19
X86.27Y-48.73
X86.27Y-51.27
X86.27Y-53.81
X86.27Y-56.35
X86.27Y-58.89
X86.27Y-61.43
X86.27Y-63.97
X86.27Y-66.51
X86.27Y-69.05
X86.27Y-71.59
X86.27Y-74.13
T4
X37.3Y-1.54
X37.3Y-4.08
X37.3Y-6.62
X37.3Y-9.16
X37.3Y-11.7
X37.3Y-14.24
X37.3Y-16.78
X37.3Y-19.32
X37.3Y-21.86
X37.3Y-24.4
X37.3Y-26.94
X37.3Y-29.48
X37.3Y-32.02
X37.3Y-34.56
X37.3Y-37.1
X37.3Y-39.64
X37.3Y-42.18
X37.3Y-44.72
X37.3Y-47.26
X62.7Y-1.54
X62.7Y-4.08
X62.7Y-6.62
X62.7Y-9.16
X62.7Y-11.7
X62.7Y-14.24
X62.7Y-16.78
X62.7Y-19.32
X62.7Y-21.86
X62.7Y-24.4
X62.7Y-26.94
X62.7Y-29.48
X62.7Y-32.02
X62.7Y-34.56
X62.7Y-37.1
X62.7Y-39.64
X62.7Y-42.18
X62.7Y-44.72
X62.7Y-47.26
T5
X42.5Y-95.5
X47.58Y-95.5
X52.66Y-95.5
X57.74Y-95.5
T0
M30
