%TF.GenerationSoftware,KiCad,Pcbnew,(5.1.9)-1*%
%TF.CreationDate,2021-10-25T22:56:29-04:00*%
%TF.ProjectId,ESP backpack,45535020-6261-4636-9b70-61636b2e6b69,rev?*%
%TF.SameCoordinates,Original*%
%TF.FileFunction,Soldermask,Bot*%
%TF.FilePolarity,Negative*%
%FSLAX46Y46*%
G04 Gerber Fmt 4.6, Leading zero omitted, Abs format (unit mm)*
G04 Created by KiCad (PCBNEW (5.1.9)-1) date 2021-10-25 22:56:29*
%MOMM*%
%LPD*%
G01*
G04 APERTURE LIST*
%ADD10R,1.560000X1.560000*%
%ADD11C,1.600000*%
%ADD12C,1.651000*%
%ADD13R,1.650000X1.650000*%
%ADD14C,1.650000*%
G04 APERTURE END LIST*
D10*
%TO.C,U1*%
X62700000Y-47260000D03*
D11*
X62700000Y-44720000D03*
X62700000Y-1540000D03*
X62700000Y-42180000D03*
X62700000Y-39640000D03*
X62700000Y-37100000D03*
X62700000Y-34560000D03*
X62700000Y-32020000D03*
X62700000Y-29480000D03*
X62700000Y-26940000D03*
X62700000Y-24400000D03*
X62700000Y-21860000D03*
X62700000Y-19320000D03*
X62700000Y-16780000D03*
X62700000Y-14240000D03*
X62700000Y-11700000D03*
X62700000Y-9160000D03*
X62700000Y-6620000D03*
X62700000Y-4080000D03*
X37300000Y-47260000D03*
X37300000Y-44720000D03*
X37300000Y-42180000D03*
X37300000Y-39640000D03*
X37300000Y-37100000D03*
X37300000Y-34560000D03*
X37300000Y-32020000D03*
X37300000Y-29480000D03*
X37300000Y-26940000D03*
X37300000Y-24400000D03*
X37300000Y-21860000D03*
X37300000Y-19320000D03*
X37300000Y-16780000D03*
X37300000Y-14240000D03*
X37300000Y-11700000D03*
X37300000Y-9160000D03*
X37300000Y-6620000D03*
X37300000Y-4080000D03*
X37300000Y-1540000D03*
%TD*%
D12*
%TO.C,J1*%
X16270000Y-74130000D03*
X13730000Y-74130000D03*
X16270000Y-71590000D03*
X13730000Y-71590000D03*
X16270000Y-69050000D03*
X13730000Y-69050000D03*
X16270000Y-66510000D03*
X13730000Y-66510000D03*
X16270000Y-63970000D03*
X13730000Y-63970000D03*
X16270000Y-61430000D03*
X13730000Y-61430000D03*
X16270000Y-58890000D03*
X13730000Y-58890000D03*
X16270000Y-56350000D03*
X13730000Y-56350000D03*
X16270000Y-53810000D03*
X13730000Y-53810000D03*
X16270000Y-51270000D03*
X13730000Y-51270000D03*
X16270000Y-48730000D03*
X13730000Y-48730000D03*
X16270000Y-46190000D03*
X13730000Y-46190000D03*
X16270000Y-43650000D03*
X13730000Y-43650000D03*
X16270000Y-41110000D03*
X13730000Y-41110000D03*
X16270000Y-38570000D03*
X13730000Y-38570000D03*
X16270000Y-36030000D03*
X13730000Y-36030000D03*
X16270000Y-33490000D03*
X13730000Y-33490000D03*
X16270000Y-30950000D03*
X13730000Y-30950000D03*
X16270000Y-28410000D03*
X13730000Y-28410000D03*
X16270000Y-25870000D03*
X13730000Y-25870000D03*
%TD*%
%TO.C,J2*%
X83730000Y-25870000D03*
X86270000Y-25870000D03*
X83730000Y-28410000D03*
X86270000Y-28410000D03*
X83730000Y-30950000D03*
X86270000Y-30950000D03*
X83730000Y-33490000D03*
X86270000Y-33490000D03*
X83730000Y-36030000D03*
X86270000Y-36030000D03*
X83730000Y-38570000D03*
X86270000Y-38570000D03*
X83730000Y-41110000D03*
X86270000Y-41110000D03*
X83730000Y-43650000D03*
X86270000Y-43650000D03*
X83730000Y-46190000D03*
X86270000Y-46190000D03*
X83730000Y-48730000D03*
X86270000Y-48730000D03*
X83730000Y-51270000D03*
X86270000Y-51270000D03*
X83730000Y-53810000D03*
X86270000Y-53810000D03*
X83730000Y-56350000D03*
X86270000Y-56350000D03*
X83730000Y-58890000D03*
X86270000Y-58890000D03*
X83730000Y-61430000D03*
X86270000Y-61430000D03*
X83730000Y-63970000D03*
X86270000Y-63970000D03*
X83730000Y-66510000D03*
X86270000Y-66510000D03*
X83730000Y-69050000D03*
X86270000Y-69050000D03*
X83730000Y-71590000D03*
X86270000Y-71590000D03*
X83730000Y-74130000D03*
X86270000Y-74130000D03*
%TD*%
D13*
%TO.C,5VDC_IN1*%
X42500000Y-95500000D03*
D14*
X47580000Y-95500000D03*
X52660000Y-95500000D03*
X57740000Y-95500000D03*
%TD*%
M02*
