%TF.GenerationSoftware,KiCad,Pcbnew,(5.1.9)-1*%
%TF.CreationDate,2021-10-25T22:56:29-04:00*%
%TF.ProjectId,ESP backpack,45535020-6261-4636-9b70-61636b2e6b69,rev?*%
%TF.SameCoordinates,Original*%
%TF.FileFunction,Other,User*%
%FSLAX46Y46*%
G04 Gerber Fmt 4.6, Leading zero omitted, Abs format (unit mm)*
G04 Created by KiCad (PCBNEW (5.1.9)-1) date 2021-10-25 22:56:29*
%MOMM*%
%LPD*%
G01*
G04 APERTURE LIST*
%ADD10C,0.127000*%
%ADD11C,0.050000*%
G04 APERTURE END LIST*
D10*
%TO.C,S1*%
G36*
X76082000Y-52034000D02*
G01*
X76082000Y-60234000D01*
X67632000Y-60234000D01*
X67632000Y-52034000D01*
X76082000Y-52034000D01*
G37*
X76082000Y-52034000D02*
X76082000Y-60234000D01*
X67632000Y-60234000D01*
X67632000Y-52034000D01*
X76082000Y-52034000D01*
D11*
%TO.C,D1*%
X69956000Y-22181000D02*
X69956000Y-16681000D01*
X76856000Y-22181000D02*
X69956000Y-22181000D01*
X76856000Y-16681000D02*
X76856000Y-22181000D01*
X69956000Y-16681000D02*
X76856000Y-16681000D01*
%TO.C,U1*%
X64200000Y-54900000D02*
X35800000Y-54900000D01*
X35800000Y-54900000D02*
X35800000Y0D01*
X35800000Y0D02*
X64200000Y0D01*
X64200000Y0D02*
X64200000Y-54900000D01*
%TO.C,J1*%
X18810000Y-75650000D02*
X11190000Y-75650000D01*
X11190000Y-75650000D02*
X11190000Y-24350000D01*
X11190000Y-24350000D02*
X18810000Y-24350000D01*
X18810000Y-24350000D02*
X18810000Y-75650000D01*
%TO.C,J2*%
X88810000Y-75650000D02*
X81190000Y-75650000D01*
X81190000Y-75650000D02*
X81190000Y-24350000D01*
X81190000Y-24350000D02*
X88810000Y-24350000D01*
X88810000Y-24350000D02*
X88810000Y-75650000D01*
%TO.C,5VDC_IN1*%
X39710000Y-91150000D02*
X60530000Y-91150000D01*
X60530000Y-91150000D02*
X60530000Y-99850000D01*
X39710000Y-99850000D02*
X39710000Y-91150000D01*
X60530000Y-99850000D02*
X39710000Y-99850000D01*
%TO.C,C6*%
X8050000Y-7750000D02*
X8050000Y-5250000D01*
X9300000Y-7750000D02*
X8050000Y-7750000D01*
X9300000Y-9975000D02*
X9300000Y-7750000D01*
X11225000Y-11900000D02*
X9300000Y-9975000D01*
X20100000Y-11900000D02*
X11225000Y-11900000D01*
X20100000Y-7750000D02*
X20100000Y-11900000D01*
X21350000Y-7750000D02*
X20100000Y-7750000D01*
X21350000Y-5250000D02*
X21350000Y-7750000D01*
X20100000Y-5250000D02*
X21350000Y-5250000D01*
X20100000Y-1100000D02*
X20100000Y-5250000D01*
X11225000Y-1100000D02*
X20100000Y-1100000D01*
X9300000Y-3025000D02*
X11225000Y-1100000D01*
X9300000Y-5250000D02*
X9300000Y-3025000D01*
X8050000Y-5250000D02*
X9300000Y-5250000D01*
%TO.C,C1*%
X47230000Y-74770000D02*
X47230000Y-76230000D01*
X47230000Y-76230000D02*
X44270000Y-76230000D01*
X44270000Y-76230000D02*
X44270000Y-74770000D01*
X44270000Y-74770000D02*
X47230000Y-74770000D01*
%TO.C,C2*%
X47450000Y-76770000D02*
X47450000Y-78730000D01*
X47450000Y-78730000D02*
X44050000Y-78730000D01*
X44050000Y-78730000D02*
X44050000Y-76770000D01*
X44050000Y-76770000D02*
X47450000Y-76770000D01*
%TO.C,C3*%
X71850000Y-83750000D02*
X71850000Y-81250000D01*
X73100000Y-83750000D02*
X71850000Y-83750000D01*
X73100000Y-85975000D02*
X73100000Y-83750000D01*
X75025000Y-87900000D02*
X73100000Y-85975000D01*
X83900000Y-87900000D02*
X75025000Y-87900000D01*
X83900000Y-83750000D02*
X83900000Y-87900000D01*
X85150000Y-83750000D02*
X83900000Y-83750000D01*
X85150000Y-81250000D02*
X85150000Y-83750000D01*
X83900000Y-81250000D02*
X85150000Y-81250000D01*
X83900000Y-77100000D02*
X83900000Y-81250000D01*
X75025000Y-77100000D02*
X83900000Y-77100000D01*
X73100000Y-79025000D02*
X75025000Y-77100000D01*
X73100000Y-81250000D02*
X73100000Y-79025000D01*
X71850000Y-81250000D02*
X73100000Y-81250000D01*
%TO.C,C4*%
X93050000Y-18950000D02*
X91800000Y-18950000D01*
X91800000Y-18950000D02*
X91800000Y-21175000D01*
X91800000Y-21175000D02*
X89875000Y-23100000D01*
X89875000Y-23100000D02*
X81000000Y-23100000D01*
X81000000Y-23100000D02*
X81000000Y-18950000D01*
X81000000Y-18950000D02*
X79750000Y-18950000D01*
X79750000Y-18950000D02*
X79750000Y-16450000D01*
X79750000Y-16450000D02*
X81000000Y-16450000D01*
X81000000Y-16450000D02*
X81000000Y-12300000D01*
X81000000Y-12300000D02*
X89875000Y-12300000D01*
X89875000Y-12300000D02*
X91800000Y-14225000D01*
X91800000Y-14225000D02*
X91800000Y-16450000D01*
X91800000Y-16450000D02*
X93050000Y-16450000D01*
X93050000Y-16450000D02*
X93050000Y-18950000D01*
%TO.C,C5*%
X8050000Y-19250000D02*
X8050000Y-16750000D01*
X9300000Y-19250000D02*
X8050000Y-19250000D01*
X9300000Y-21475000D02*
X9300000Y-19250000D01*
X11225000Y-23400000D02*
X9300000Y-21475000D01*
X20100000Y-23400000D02*
X11225000Y-23400000D01*
X20100000Y-19250000D02*
X20100000Y-23400000D01*
X21350000Y-19250000D02*
X20100000Y-19250000D01*
X21350000Y-16750000D02*
X21350000Y-19250000D01*
X20100000Y-16750000D02*
X21350000Y-16750000D01*
X20100000Y-12600000D02*
X20100000Y-16750000D01*
X11225000Y-12600000D02*
X20100000Y-12600000D01*
X9300000Y-14525000D02*
X11225000Y-12600000D01*
X9300000Y-16750000D02*
X9300000Y-14525000D01*
X8050000Y-16750000D02*
X9300000Y-16750000D01*
%TO.C,C7*%
X1350000Y-83250000D02*
X1350000Y-80750000D01*
X2600000Y-83250000D02*
X1350000Y-83250000D01*
X2600000Y-85475000D02*
X2600000Y-83250000D01*
X4525000Y-87400000D02*
X2600000Y-85475000D01*
X13400000Y-87400000D02*
X4525000Y-87400000D01*
X13400000Y-83250000D02*
X13400000Y-87400000D01*
X14650000Y-83250000D02*
X13400000Y-83250000D01*
X14650000Y-80750000D02*
X14650000Y-83250000D01*
X13400000Y-80750000D02*
X14650000Y-80750000D01*
X13400000Y-76600000D02*
X13400000Y-80750000D01*
X4525000Y-76600000D02*
X13400000Y-76600000D01*
X2600000Y-78525000D02*
X4525000Y-76600000D01*
X2600000Y-80750000D02*
X2600000Y-78525000D01*
X1350000Y-80750000D02*
X2600000Y-80750000D01*
%TO.C,C8*%
X98650000Y-83750000D02*
X97400000Y-83750000D01*
X97400000Y-83750000D02*
X97400000Y-85975000D01*
X97400000Y-85975000D02*
X95475000Y-87900000D01*
X95475000Y-87900000D02*
X86600000Y-87900000D01*
X86600000Y-87900000D02*
X86600000Y-83750000D01*
X86600000Y-83750000D02*
X85350000Y-83750000D01*
X85350000Y-83750000D02*
X85350000Y-81250000D01*
X85350000Y-81250000D02*
X86600000Y-81250000D01*
X86600000Y-81250000D02*
X86600000Y-77100000D01*
X86600000Y-77100000D02*
X95475000Y-77100000D01*
X95475000Y-77100000D02*
X97400000Y-79025000D01*
X97400000Y-79025000D02*
X97400000Y-81250000D01*
X97400000Y-81250000D02*
X98650000Y-81250000D01*
X98650000Y-81250000D02*
X98650000Y-83750000D01*
%TO.C,C9*%
X28150000Y-80750000D02*
X28150000Y-83250000D01*
X26900000Y-80750000D02*
X28150000Y-80750000D01*
X26900000Y-78525000D02*
X26900000Y-80750000D01*
X24975000Y-76600000D02*
X26900000Y-78525000D01*
X16100000Y-76600000D02*
X24975000Y-76600000D01*
X16100000Y-80750000D02*
X16100000Y-76600000D01*
X14850000Y-80750000D02*
X16100000Y-80750000D01*
X14850000Y-83250000D02*
X14850000Y-80750000D01*
X16100000Y-83250000D02*
X14850000Y-83250000D01*
X16100000Y-87400000D02*
X16100000Y-83250000D01*
X24975000Y-87400000D02*
X16100000Y-87400000D01*
X26900000Y-85475000D02*
X24975000Y-87400000D01*
X26900000Y-83250000D02*
X26900000Y-85475000D01*
X28150000Y-83250000D02*
X26900000Y-83250000D01*
%TO.C,C10*%
X1350000Y-92250000D02*
X2600000Y-92250000D01*
X2600000Y-92250000D02*
X2600000Y-90025000D01*
X2600000Y-90025000D02*
X4525000Y-88100000D01*
X4525000Y-88100000D02*
X13400000Y-88100000D01*
X13400000Y-88100000D02*
X13400000Y-92250000D01*
X13400000Y-92250000D02*
X14650000Y-92250000D01*
X14650000Y-92250000D02*
X14650000Y-94750000D01*
X14650000Y-94750000D02*
X13400000Y-94750000D01*
X13400000Y-94750000D02*
X13400000Y-98900000D01*
X13400000Y-98900000D02*
X4525000Y-98900000D01*
X4525000Y-98900000D02*
X2600000Y-96975000D01*
X2600000Y-96975000D02*
X2600000Y-94750000D01*
X2600000Y-94750000D02*
X1350000Y-94750000D01*
X1350000Y-94750000D02*
X1350000Y-92250000D01*
%TO.C,C11*%
X98650000Y-92750000D02*
X98650000Y-95250000D01*
X97400000Y-92750000D02*
X98650000Y-92750000D01*
X97400000Y-90525000D02*
X97400000Y-92750000D01*
X95475000Y-88600000D02*
X97400000Y-90525000D01*
X86600000Y-88600000D02*
X95475000Y-88600000D01*
X86600000Y-92750000D02*
X86600000Y-88600000D01*
X85350000Y-92750000D02*
X86600000Y-92750000D01*
X85350000Y-95250000D02*
X85350000Y-92750000D01*
X86600000Y-95250000D02*
X85350000Y-95250000D01*
X86600000Y-99400000D02*
X86600000Y-95250000D01*
X95475000Y-99400000D02*
X86600000Y-99400000D01*
X97400000Y-97475000D02*
X95475000Y-99400000D01*
X97400000Y-95250000D02*
X97400000Y-97475000D01*
X98650000Y-95250000D02*
X97400000Y-95250000D01*
%TO.C,C12*%
X93050000Y-7450000D02*
X91800000Y-7450000D01*
X91800000Y-7450000D02*
X91800000Y-9675000D01*
X91800000Y-9675000D02*
X89875000Y-11600000D01*
X89875000Y-11600000D02*
X81000000Y-11600000D01*
X81000000Y-11600000D02*
X81000000Y-7450000D01*
X81000000Y-7450000D02*
X79750000Y-7450000D01*
X79750000Y-7450000D02*
X79750000Y-4950000D01*
X79750000Y-4950000D02*
X81000000Y-4950000D01*
X81000000Y-4950000D02*
X81000000Y-800000D01*
X81000000Y-800000D02*
X89875000Y-800000D01*
X89875000Y-800000D02*
X91800000Y-2725000D01*
X91800000Y-2725000D02*
X91800000Y-4950000D01*
X91800000Y-4950000D02*
X93050000Y-4950000D01*
X93050000Y-4950000D02*
X93050000Y-7450000D01*
%TO.C,ExtPower1*%
X68620000Y-2770000D02*
X71580000Y-2770000D01*
X68620000Y-4230000D02*
X68620000Y-2770000D01*
X71580000Y-4230000D02*
X68620000Y-4230000D01*
X71580000Y-2770000D02*
X71580000Y-4230000D01*
%TO.C,R2*%
X32980000Y-41520000D02*
X32980000Y-42980000D01*
X32980000Y-42980000D02*
X30020000Y-42980000D01*
X30020000Y-42980000D02*
X30020000Y-41520000D01*
X30020000Y-41520000D02*
X32980000Y-41520000D01*
%TO.C,R7*%
X72020000Y-39730000D02*
X72020000Y-38270000D01*
X72020000Y-38270000D02*
X74980000Y-38270000D01*
X74980000Y-38270000D02*
X74980000Y-39730000D01*
X74980000Y-39730000D02*
X72020000Y-39730000D01*
%TO.C,R6*%
X74980000Y-37230000D02*
X72020000Y-37230000D01*
X74980000Y-35770000D02*
X74980000Y-37230000D01*
X72020000Y-35770000D02*
X74980000Y-35770000D01*
X72020000Y-37230000D02*
X72020000Y-35770000D01*
%TO.C,R1*%
X30020000Y-33770000D02*
X32980000Y-33770000D01*
X30020000Y-35230000D02*
X30020000Y-33770000D01*
X32980000Y-35230000D02*
X30020000Y-35230000D01*
X32980000Y-33770000D02*
X32980000Y-35230000D01*
%TO.C,R5*%
X74980000Y-34730000D02*
X72020000Y-34730000D01*
X74980000Y-33270000D02*
X74980000Y-34730000D01*
X72020000Y-33270000D02*
X74980000Y-33270000D01*
X72020000Y-34730000D02*
X72020000Y-33270000D01*
%TO.C,R4*%
X72020000Y-32730000D02*
X72020000Y-31270000D01*
X72020000Y-31270000D02*
X74980000Y-31270000D01*
X74980000Y-31270000D02*
X74980000Y-32730000D01*
X74980000Y-32730000D02*
X72020000Y-32730000D01*
%TO.C,R3*%
X72020000Y-30730000D02*
X72020000Y-29270000D01*
X72020000Y-29270000D02*
X74980000Y-29270000D01*
X74980000Y-29270000D02*
X74980000Y-30730000D01*
X74980000Y-30730000D02*
X72020000Y-30730000D01*
%TO.C,SCL1*%
X37480000Y-68030000D02*
X34520000Y-68030000D01*
X37480000Y-66570000D02*
X37480000Y-68030000D01*
X34520000Y-66570000D02*
X37480000Y-66570000D01*
X34520000Y-68030000D02*
X34520000Y-66570000D01*
%TO.C,SCL_EXT1*%
X32480000Y-68030000D02*
X29520000Y-68030000D01*
X32480000Y-66570000D02*
X32480000Y-68030000D01*
X29520000Y-66570000D02*
X32480000Y-66570000D01*
X29520000Y-68030000D02*
X29520000Y-66570000D01*
%TO.C,SDA1*%
X34520000Y-70730000D02*
X34520000Y-69270000D01*
X34520000Y-69270000D02*
X37480000Y-69270000D01*
X37480000Y-69270000D02*
X37480000Y-70730000D01*
X37480000Y-70730000D02*
X34520000Y-70730000D01*
%TO.C,SDA_EXT1*%
X29520000Y-70730000D02*
X29520000Y-69270000D01*
X29520000Y-69270000D02*
X32480000Y-69270000D01*
X32480000Y-69270000D02*
X32480000Y-70730000D01*
X32480000Y-70730000D02*
X29520000Y-70730000D01*
%TO.C,U2*%
X42175000Y-67475000D02*
X47025000Y-67475000D01*
X47025000Y-67475000D02*
X47025000Y-72325000D01*
X47025000Y-72325000D02*
X42175000Y-72325000D01*
X42175000Y-72325000D02*
X42175000Y-67475000D01*
%TO.C,C13*%
X28150000Y-94750000D02*
X26900000Y-94750000D01*
X26900000Y-94750000D02*
X26900000Y-96975000D01*
X26900000Y-96975000D02*
X24975000Y-98900000D01*
X24975000Y-98900000D02*
X16100000Y-98900000D01*
X16100000Y-98900000D02*
X16100000Y-94750000D01*
X16100000Y-94750000D02*
X14850000Y-94750000D01*
X14850000Y-94750000D02*
X14850000Y-92250000D01*
X14850000Y-92250000D02*
X16100000Y-92250000D01*
X16100000Y-92250000D02*
X16100000Y-88100000D01*
X16100000Y-88100000D02*
X24975000Y-88100000D01*
X24975000Y-88100000D02*
X26900000Y-90025000D01*
X26900000Y-90025000D02*
X26900000Y-92250000D01*
X26900000Y-92250000D02*
X28150000Y-92250000D01*
X28150000Y-92250000D02*
X28150000Y-94750000D01*
%TO.C,C14*%
X71850000Y-95250000D02*
X71850000Y-92750000D01*
X73100000Y-95250000D02*
X71850000Y-95250000D01*
X73100000Y-97475000D02*
X73100000Y-95250000D01*
X75025000Y-99400000D02*
X73100000Y-97475000D01*
X83900000Y-99400000D02*
X75025000Y-99400000D01*
X83900000Y-95250000D02*
X83900000Y-99400000D01*
X85150000Y-95250000D02*
X83900000Y-95250000D01*
X85150000Y-92750000D02*
X85150000Y-95250000D01*
X83900000Y-92750000D02*
X85150000Y-92750000D01*
X83900000Y-88600000D02*
X83900000Y-92750000D01*
X75025000Y-88600000D02*
X83900000Y-88600000D01*
X73100000Y-90525000D02*
X75025000Y-88600000D01*
X73100000Y-92750000D02*
X73100000Y-90525000D01*
X71850000Y-92750000D02*
X73100000Y-92750000D01*
%TO.C,R8*%
X74466000Y-51022000D02*
X74466000Y-49562000D01*
X74466000Y-49562000D02*
X77426000Y-49562000D01*
X77426000Y-49562000D02*
X77426000Y-51022000D01*
X77426000Y-51022000D02*
X74466000Y-51022000D01*
%TO.C,R9*%
X77680000Y-63976000D02*
X74720000Y-63976000D01*
X77680000Y-62516000D02*
X77680000Y-63976000D01*
X74720000Y-62516000D02*
X77680000Y-62516000D01*
X74720000Y-63976000D02*
X74720000Y-62516000D01*
%TO.C,R10*%
X72053000Y-28797000D02*
X72053000Y-27337000D01*
X72053000Y-27337000D02*
X75013000Y-27337000D01*
X75013000Y-27337000D02*
X75013000Y-28797000D01*
X75013000Y-28797000D02*
X72053000Y-28797000D01*
D10*
%TO.C,S2*%
G36*
X76336000Y-64607000D02*
G01*
X76336000Y-72807000D01*
X67886000Y-72807000D01*
X67886000Y-64607000D01*
X76336000Y-64607000D01*
G37*
X76336000Y-64607000D02*
X76336000Y-72807000D01*
X67886000Y-72807000D01*
X67886000Y-64607000D01*
X76336000Y-64607000D01*
%TD*%
M02*
