%TF.GenerationSoftware,KiCad,Pcbnew,(5.1.9)-1*%
%TF.CreationDate,2021-10-25T22:56:29-04:00*%
%TF.ProjectId,ESP backpack,45535020-6261-4636-9b70-61636b2e6b69,rev?*%
%TF.SameCoordinates,Original*%
%TF.FileFunction,Legend,Bot*%
%TF.FilePolarity,Positive*%
%FSLAX46Y46*%
G04 Gerber Fmt 4.6, Leading zero omitted, Abs format (unit mm)*
G04 Created by KiCad (PCBNEW (5.1.9)-1) date 2021-10-25 22:56:29*
%MOMM*%
%LPD*%
G01*
G04 APERTURE LIST*
%ADD10C,0.150000*%
G04 APERTURE END LIST*
D10*
X9814595Y-68540380D02*
X9195547Y-68540380D01*
X9528880Y-68921333D01*
X9386023Y-68921333D01*
X9290785Y-68968952D01*
X9243166Y-69016571D01*
X9195547Y-69111809D01*
X9195547Y-69349904D01*
X9243166Y-69445142D01*
X9290785Y-69492761D01*
X9386023Y-69540380D01*
X9671738Y-69540380D01*
X9766976Y-69492761D01*
X9814595Y-69445142D01*
X8909833Y-68540380D02*
X8576500Y-69540380D01*
X8243166Y-68540380D01*
X8005071Y-68540380D02*
X7386023Y-68540380D01*
X7719357Y-68921333D01*
X7576500Y-68921333D01*
X7481261Y-68968952D01*
X7433642Y-69016571D01*
X7386023Y-69111809D01*
X7386023Y-69349904D01*
X7433642Y-69445142D01*
X7481261Y-69492761D01*
X7576500Y-69540380D01*
X7862214Y-69540380D01*
X7957452Y-69492761D01*
X8005071Y-69445142D01*
X9873857Y-72032761D02*
X9731000Y-72080380D01*
X9492904Y-72080380D01*
X9397666Y-72032761D01*
X9350047Y-71985142D01*
X9302428Y-71889904D01*
X9302428Y-71794666D01*
X9350047Y-71699428D01*
X9397666Y-71651809D01*
X9492904Y-71604190D01*
X9683380Y-71556571D01*
X9778619Y-71508952D01*
X9826238Y-71461333D01*
X9873857Y-71366095D01*
X9873857Y-71270857D01*
X9826238Y-71175619D01*
X9778619Y-71128000D01*
X9683380Y-71080380D01*
X9445285Y-71080380D01*
X9302428Y-71128000D01*
X8873857Y-72080380D02*
X8873857Y-71080380D01*
X8635761Y-71080380D01*
X8492904Y-71128000D01*
X8397666Y-71223238D01*
X8350047Y-71318476D01*
X8302428Y-71508952D01*
X8302428Y-71651809D01*
X8350047Y-71842285D01*
X8397666Y-71937523D01*
X8492904Y-72032761D01*
X8635761Y-72080380D01*
X8873857Y-72080380D01*
X7921476Y-71794666D02*
X7445285Y-71794666D01*
X8016714Y-72080380D02*
X7683380Y-71080380D01*
X7350047Y-72080380D01*
X7016714Y-71699428D02*
X6254809Y-71699428D01*
X5778619Y-71556571D02*
X5445285Y-71556571D01*
X5302428Y-72080380D02*
X5778619Y-72080380D01*
X5778619Y-71080380D01*
X5302428Y-71080380D01*
X4969095Y-71080380D02*
X4302428Y-72080380D01*
X4302428Y-71080380D02*
X4969095Y-72080380D01*
X4064333Y-71080380D02*
X3492904Y-71080380D01*
X3778619Y-72080380D02*
X3778619Y-71080380D01*
X9850047Y-74572761D02*
X9707190Y-74620380D01*
X9469095Y-74620380D01*
X9373857Y-74572761D01*
X9326238Y-74525142D01*
X9278619Y-74429904D01*
X9278619Y-74334666D01*
X9326238Y-74239428D01*
X9373857Y-74191809D01*
X9469095Y-74144190D01*
X9659571Y-74096571D01*
X9754809Y-74048952D01*
X9802428Y-74001333D01*
X9850047Y-73906095D01*
X9850047Y-73810857D01*
X9802428Y-73715619D01*
X9754809Y-73668000D01*
X9659571Y-73620380D01*
X9421476Y-73620380D01*
X9278619Y-73668000D01*
X8278619Y-74525142D02*
X8326238Y-74572761D01*
X8469095Y-74620380D01*
X8564333Y-74620380D01*
X8707190Y-74572761D01*
X8802428Y-74477523D01*
X8850047Y-74382285D01*
X8897666Y-74191809D01*
X8897666Y-74048952D01*
X8850047Y-73858476D01*
X8802428Y-73763238D01*
X8707190Y-73668000D01*
X8564333Y-73620380D01*
X8469095Y-73620380D01*
X8326238Y-73668000D01*
X8278619Y-73715619D01*
X7373857Y-74620380D02*
X7850047Y-74620380D01*
X7850047Y-73620380D01*
X7040523Y-74239428D02*
X6278619Y-74239428D01*
X5802428Y-74096571D02*
X5469095Y-74096571D01*
X5326238Y-74620380D02*
X5802428Y-74620380D01*
X5802428Y-73620380D01*
X5326238Y-73620380D01*
X4992904Y-73620380D02*
X4326238Y-74620380D01*
X4326238Y-73620380D02*
X4992904Y-74620380D01*
X4088142Y-73620380D02*
X3516714Y-73620380D01*
X3802428Y-74620380D02*
X3802428Y-73620380D01*
X21784404Y-73541000D02*
X21879642Y-73493380D01*
X22022500Y-73493380D01*
X22165357Y-73541000D01*
X22260595Y-73636238D01*
X22308214Y-73731476D01*
X22355833Y-73921952D01*
X22355833Y-74064809D01*
X22308214Y-74255285D01*
X22260595Y-74350523D01*
X22165357Y-74445761D01*
X22022500Y-74493380D01*
X21927261Y-74493380D01*
X21784404Y-74445761D01*
X21736785Y-74398142D01*
X21736785Y-74064809D01*
X21927261Y-74064809D01*
X21308214Y-74493380D02*
X21308214Y-73493380D01*
X20736785Y-74493380D01*
X20736785Y-73493380D01*
X20260595Y-74493380D02*
X20260595Y-73493380D01*
X20022500Y-73493380D01*
X19879642Y-73541000D01*
X19784404Y-73636238D01*
X19736785Y-73731476D01*
X19689166Y-73921952D01*
X19689166Y-74064809D01*
X19736785Y-74255285D01*
X19784404Y-74350523D01*
X19879642Y-74445761D01*
X20022500Y-74493380D01*
X20260595Y-74493380D01*
X92328904Y-40648000D02*
X92424142Y-40600380D01*
X92567000Y-40600380D01*
X92709857Y-40648000D01*
X92805095Y-40743238D01*
X92852714Y-40838476D01*
X92900333Y-41028952D01*
X92900333Y-41171809D01*
X92852714Y-41362285D01*
X92805095Y-41457523D01*
X92709857Y-41552761D01*
X92567000Y-41600380D01*
X92471761Y-41600380D01*
X92328904Y-41552761D01*
X92281285Y-41505142D01*
X92281285Y-41171809D01*
X92471761Y-41171809D01*
X91852714Y-41600380D02*
X91852714Y-40600380D01*
X91281285Y-41600380D01*
X91281285Y-40600380D01*
X90805095Y-41600380D02*
X90805095Y-40600380D01*
X90567000Y-40600380D01*
X90424142Y-40648000D01*
X90328904Y-40743238D01*
X90281285Y-40838476D01*
X90233666Y-41028952D01*
X90233666Y-41171809D01*
X90281285Y-41362285D01*
X90328904Y-41457523D01*
X90424142Y-41552761D01*
X90567000Y-41600380D01*
X90805095Y-41600380D01*
X92328904Y-35568000D02*
X92424142Y-35520380D01*
X92567000Y-35520380D01*
X92709857Y-35568000D01*
X92805095Y-35663238D01*
X92852714Y-35758476D01*
X92900333Y-35948952D01*
X92900333Y-36091809D01*
X92852714Y-36282285D01*
X92805095Y-36377523D01*
X92709857Y-36472761D01*
X92567000Y-36520380D01*
X92471761Y-36520380D01*
X92328904Y-36472761D01*
X92281285Y-36425142D01*
X92281285Y-36091809D01*
X92471761Y-36091809D01*
X91852714Y-36520380D02*
X91852714Y-35520380D01*
X91281285Y-36520380D01*
X91281285Y-35520380D01*
X90805095Y-36520380D02*
X90805095Y-35520380D01*
X90567000Y-35520380D01*
X90424142Y-35568000D01*
X90328904Y-35663238D01*
X90281285Y-35758476D01*
X90233666Y-35948952D01*
X90233666Y-36091809D01*
X90281285Y-36282285D01*
X90328904Y-36377523D01*
X90424142Y-36472761D01*
X90567000Y-36520380D01*
X90805095Y-36520380D01*
X92328904Y-25281000D02*
X92424142Y-25233380D01*
X92567000Y-25233380D01*
X92709857Y-25281000D01*
X92805095Y-25376238D01*
X92852714Y-25471476D01*
X92900333Y-25661952D01*
X92900333Y-25804809D01*
X92852714Y-25995285D01*
X92805095Y-26090523D01*
X92709857Y-26185761D01*
X92567000Y-26233380D01*
X92471761Y-26233380D01*
X92328904Y-26185761D01*
X92281285Y-26138142D01*
X92281285Y-25804809D01*
X92471761Y-25804809D01*
X91852714Y-26233380D02*
X91852714Y-25233380D01*
X91281285Y-26233380D01*
X91281285Y-25233380D01*
X90805095Y-26233380D02*
X90805095Y-25233380D01*
X90567000Y-25233380D01*
X90424142Y-25281000D01*
X90328904Y-25376238D01*
X90281285Y-25471476D01*
X90233666Y-25661952D01*
X90233666Y-25804809D01*
X90281285Y-25995285D01*
X90328904Y-26090523D01*
X90424142Y-26185761D01*
X90567000Y-26233380D01*
X90805095Y-26233380D01*
X92328904Y-30488000D02*
X92424142Y-30440380D01*
X92567000Y-30440380D01*
X92709857Y-30488000D01*
X92805095Y-30583238D01*
X92852714Y-30678476D01*
X92900333Y-30868952D01*
X92900333Y-31011809D01*
X92852714Y-31202285D01*
X92805095Y-31297523D01*
X92709857Y-31392761D01*
X92567000Y-31440380D01*
X92471761Y-31440380D01*
X92328904Y-31392761D01*
X92281285Y-31345142D01*
X92281285Y-31011809D01*
X92471761Y-31011809D01*
X91852714Y-31440380D02*
X91852714Y-30440380D01*
X91281285Y-31440380D01*
X91281285Y-30440380D01*
X90805095Y-31440380D02*
X90805095Y-30440380D01*
X90567000Y-30440380D01*
X90424142Y-30488000D01*
X90328904Y-30583238D01*
X90281285Y-30678476D01*
X90233666Y-30868952D01*
X90233666Y-31011809D01*
X90281285Y-31202285D01*
X90328904Y-31297523D01*
X90424142Y-31392761D01*
X90567000Y-31440380D01*
X90805095Y-31440380D01*
X92328904Y-45728000D02*
X92424142Y-45680380D01*
X92567000Y-45680380D01*
X92709857Y-45728000D01*
X92805095Y-45823238D01*
X92852714Y-45918476D01*
X92900333Y-46108952D01*
X92900333Y-46251809D01*
X92852714Y-46442285D01*
X92805095Y-46537523D01*
X92709857Y-46632761D01*
X92567000Y-46680380D01*
X92471761Y-46680380D01*
X92328904Y-46632761D01*
X92281285Y-46585142D01*
X92281285Y-46251809D01*
X92471761Y-46251809D01*
X91852714Y-46680380D02*
X91852714Y-45680380D01*
X91281285Y-46680380D01*
X91281285Y-45680380D01*
X90805095Y-46680380D02*
X90805095Y-45680380D01*
X90567000Y-45680380D01*
X90424142Y-45728000D01*
X90328904Y-45823238D01*
X90281285Y-45918476D01*
X90233666Y-46108952D01*
X90233666Y-46251809D01*
X90281285Y-46442285D01*
X90328904Y-46537523D01*
X90424142Y-46632761D01*
X90567000Y-46680380D01*
X90805095Y-46680380D01*
X92328904Y-50935000D02*
X92424142Y-50887380D01*
X92567000Y-50887380D01*
X92709857Y-50935000D01*
X92805095Y-51030238D01*
X92852714Y-51125476D01*
X92900333Y-51315952D01*
X92900333Y-51458809D01*
X92852714Y-51649285D01*
X92805095Y-51744523D01*
X92709857Y-51839761D01*
X92567000Y-51887380D01*
X92471761Y-51887380D01*
X92328904Y-51839761D01*
X92281285Y-51792142D01*
X92281285Y-51458809D01*
X92471761Y-51458809D01*
X91852714Y-51887380D02*
X91852714Y-50887380D01*
X91281285Y-51887380D01*
X91281285Y-50887380D01*
X90805095Y-51887380D02*
X90805095Y-50887380D01*
X90567000Y-50887380D01*
X90424142Y-50935000D01*
X90328904Y-51030238D01*
X90281285Y-51125476D01*
X90233666Y-51315952D01*
X90233666Y-51458809D01*
X90281285Y-51649285D01*
X90328904Y-51744523D01*
X90424142Y-51839761D01*
X90567000Y-51887380D01*
X90805095Y-51887380D01*
X91098714Y-53579238D02*
X91384428Y-52817333D01*
X91670142Y-53579238D01*
X91384428Y-54055428D02*
X91384428Y-54817333D01*
X91384428Y-55293523D02*
X91384428Y-56055428D01*
X91384428Y-56531619D02*
X91384428Y-57293523D01*
X91384428Y-57769714D02*
X91384428Y-58531619D01*
X91384428Y-59007809D02*
X91384428Y-59769714D01*
X91384428Y-60245904D02*
X91384428Y-61007809D01*
X91384428Y-61484000D02*
X91384428Y-62245904D01*
X91384428Y-62722095D02*
X91384428Y-63484000D01*
X91384428Y-63960190D02*
X91384428Y-64722095D01*
X91384428Y-65198285D02*
X91384428Y-65960190D01*
X91384428Y-66436380D02*
X91384428Y-67198285D01*
X91384428Y-67674476D02*
X91384428Y-68436380D01*
X91384428Y-68912571D02*
X91384428Y-69674476D01*
X91384428Y-70150666D02*
X91384428Y-70912571D01*
X91098714Y-71388761D02*
X91384428Y-72150666D01*
X91670142Y-71388761D01*
X91947904Y-73541000D02*
X92043142Y-73493380D01*
X92186000Y-73493380D01*
X92328857Y-73541000D01*
X92424095Y-73636238D01*
X92471714Y-73731476D01*
X92519333Y-73921952D01*
X92519333Y-74064809D01*
X92471714Y-74255285D01*
X92424095Y-74350523D01*
X92328857Y-74445761D01*
X92186000Y-74493380D01*
X92090761Y-74493380D01*
X91947904Y-74445761D01*
X91900285Y-74398142D01*
X91900285Y-74064809D01*
X92090761Y-74064809D01*
X91471714Y-74493380D02*
X91471714Y-73493380D01*
X90900285Y-74493380D01*
X90900285Y-73493380D01*
X90424095Y-74493380D02*
X90424095Y-73493380D01*
X90186000Y-73493380D01*
X90043142Y-73541000D01*
X89947904Y-73636238D01*
X89900285Y-73731476D01*
X89852666Y-73921952D01*
X89852666Y-74064809D01*
X89900285Y-74255285D01*
X89947904Y-74350523D01*
X90043142Y-74445761D01*
X90186000Y-74493380D01*
X90424095Y-74493380D01*
X80140976Y-25233380D02*
X80617166Y-25233380D01*
X80664785Y-25709571D01*
X80617166Y-25661952D01*
X80521928Y-25614333D01*
X80283833Y-25614333D01*
X80188595Y-25661952D01*
X80140976Y-25709571D01*
X80093357Y-25804809D01*
X80093357Y-26042904D01*
X80140976Y-26138142D01*
X80188595Y-26185761D01*
X80283833Y-26233380D01*
X80521928Y-26233380D01*
X80617166Y-26185761D01*
X80664785Y-26138142D01*
X79807642Y-25233380D02*
X79474309Y-26233380D01*
X79140976Y-25233380D01*
X80140976Y-73620380D02*
X80617166Y-73620380D01*
X80664785Y-74096571D01*
X80617166Y-74048952D01*
X80521928Y-74001333D01*
X80283833Y-74001333D01*
X80188595Y-74048952D01*
X80140976Y-74096571D01*
X80093357Y-74191809D01*
X80093357Y-74429904D01*
X80140976Y-74525142D01*
X80188595Y-74572761D01*
X80283833Y-74620380D01*
X80521928Y-74620380D01*
X80617166Y-74572761D01*
X80664785Y-74525142D01*
X79807642Y-73620380D02*
X79474309Y-74620380D01*
X79140976Y-73620380D01*
X20486714Y-28498285D02*
X20772428Y-27736380D01*
X21058142Y-28498285D01*
X20772428Y-28974476D02*
X20772428Y-29736380D01*
X20772428Y-30212571D02*
X20772428Y-30974476D01*
X20772428Y-31450666D02*
X20772428Y-32212571D01*
X20772428Y-32688761D02*
X20772428Y-33450666D01*
X20772428Y-33926857D02*
X20772428Y-34688761D01*
X20772428Y-35164952D02*
X20772428Y-35926857D01*
X20772428Y-36403047D02*
X20772428Y-37164952D01*
X20772428Y-37641142D02*
X20772428Y-38403047D01*
X20772428Y-38879238D02*
X20772428Y-39641142D01*
X20772428Y-40117333D02*
X20772428Y-40879238D01*
X20772428Y-41355428D02*
X20772428Y-42117333D01*
X20772428Y-42593523D02*
X20772428Y-43355428D01*
X20772428Y-43831619D02*
X20772428Y-44593523D01*
X20772428Y-45069714D02*
X20772428Y-45831619D01*
X20772428Y-46307809D02*
X20772428Y-47069714D01*
X20772428Y-47545904D02*
X20772428Y-48307809D01*
X20772428Y-48784000D02*
X20772428Y-49545904D01*
X20772428Y-50022095D02*
X20772428Y-50784000D01*
X20772428Y-51260190D02*
X20772428Y-52022095D01*
X20772428Y-52498285D02*
X20772428Y-53260190D01*
X20772428Y-53736380D02*
X20772428Y-54498285D01*
X20772428Y-54974476D02*
X20772428Y-55736380D01*
X20772428Y-56212571D02*
X20772428Y-56974476D01*
X20772428Y-57450666D02*
X20772428Y-58212571D01*
X20772428Y-58688761D02*
X20772428Y-59450666D01*
X20772428Y-59926857D02*
X20772428Y-60688761D01*
X20772428Y-61164952D02*
X20772428Y-61926857D01*
X20772428Y-62403047D02*
X20772428Y-63164952D01*
X20772428Y-63641142D02*
X20772428Y-64403047D01*
X20772428Y-64879238D02*
X20772428Y-65641142D01*
X20772428Y-66117333D02*
X20772428Y-66879238D01*
X20772428Y-67355428D02*
X20772428Y-68117333D01*
X20772428Y-68593523D02*
X20772428Y-69355428D01*
X20772428Y-69831619D02*
X20772428Y-70593523D01*
X20486714Y-71069714D02*
X20772428Y-71831619D01*
X21058142Y-71069714D01*
X21085976Y-25360380D02*
X21562166Y-25360380D01*
X21609785Y-25836571D01*
X21562166Y-25788952D01*
X21466928Y-25741333D01*
X21228833Y-25741333D01*
X21133595Y-25788952D01*
X21085976Y-25836571D01*
X21038357Y-25931809D01*
X21038357Y-26169904D01*
X21085976Y-26265142D01*
X21133595Y-26312761D01*
X21228833Y-26360380D01*
X21466928Y-26360380D01*
X21562166Y-26312761D01*
X21609785Y-26265142D01*
X20752642Y-25360380D02*
X20419309Y-26360380D01*
X20085976Y-25360380D01*
X10096476Y-25614380D02*
X10572666Y-25614380D01*
X10620285Y-26090571D01*
X10572666Y-26042952D01*
X10477428Y-25995333D01*
X10239333Y-25995333D01*
X10144095Y-26042952D01*
X10096476Y-26090571D01*
X10048857Y-26185809D01*
X10048857Y-26423904D01*
X10096476Y-26519142D01*
X10144095Y-26566761D01*
X10239333Y-26614380D01*
X10477428Y-26614380D01*
X10572666Y-26566761D01*
X10620285Y-26519142D01*
X9763142Y-25614380D02*
X9429809Y-26614380D01*
X9096476Y-25614380D01*
X9437714Y-28037523D02*
X9723428Y-27275619D01*
X10009142Y-28037523D01*
X9723428Y-28513714D02*
X9723428Y-29275619D01*
X9723428Y-29751809D02*
X9723428Y-30513714D01*
X9723428Y-30989904D02*
X9723428Y-31751809D01*
X9723428Y-32228000D02*
X9723428Y-32989904D01*
X9723428Y-33466095D02*
X9723428Y-34228000D01*
X9723428Y-34704190D02*
X9723428Y-35466095D01*
X9723428Y-35942285D02*
X9723428Y-36704190D01*
X9723428Y-37180380D02*
X9723428Y-37942285D01*
X9723428Y-38418476D02*
X9723428Y-39180380D01*
X9723428Y-39656571D02*
X9723428Y-40418476D01*
X9723428Y-40894666D02*
X9723428Y-41656571D01*
X9723428Y-42132761D02*
X9723428Y-42894666D01*
X9723428Y-43370857D02*
X9723428Y-44132761D01*
X9723428Y-44608952D02*
X9723428Y-45370857D01*
X9723428Y-45847047D02*
X9723428Y-46608952D01*
X9723428Y-47085142D02*
X9723428Y-47847047D01*
X9723428Y-48323238D02*
X9723428Y-49085142D01*
X9723428Y-49561333D02*
X9723428Y-50323238D01*
X9723428Y-50799428D02*
X9723428Y-51561333D01*
X9723428Y-52037523D02*
X9723428Y-52799428D01*
X9723428Y-53275619D02*
X9723428Y-54037523D01*
X9723428Y-54513714D02*
X9723428Y-55275619D01*
X9723428Y-55751809D02*
X9723428Y-56513714D01*
X9723428Y-56989904D02*
X9723428Y-57751809D01*
X9723428Y-58228000D02*
X9723428Y-58989904D01*
X9723428Y-59466095D02*
X9723428Y-60228000D01*
X9723428Y-60704190D02*
X9723428Y-61466095D01*
X9723428Y-61942285D02*
X9723428Y-62704190D01*
X9723428Y-63180380D02*
X9723428Y-63942285D01*
X9437714Y-64418476D02*
X9723428Y-65180380D01*
X10009142Y-64418476D01*
X9274976Y-66000380D02*
X9751166Y-66000380D01*
X9798785Y-66476571D01*
X9751166Y-66428952D01*
X9655928Y-66381333D01*
X9417833Y-66381333D01*
X9322595Y-66428952D01*
X9274976Y-66476571D01*
X9227357Y-66571809D01*
X9227357Y-66809904D01*
X9274976Y-66905142D01*
X9322595Y-66952761D01*
X9417833Y-67000380D01*
X9655928Y-67000380D01*
X9751166Y-66952761D01*
X9798785Y-66905142D01*
X8941642Y-66000380D02*
X8608309Y-67000380D01*
X8274976Y-66000380D01*
X59266666Y-74185714D02*
X60028571Y-74471428D01*
X59266666Y-74757142D01*
X58790476Y-74471428D02*
X58028571Y-74471428D01*
X57552380Y-74471428D02*
X56790476Y-74471428D01*
X56314285Y-74471428D02*
X55552380Y-74471428D01*
X54409523Y-73852380D02*
X53742857Y-73852380D01*
X54171428Y-74852380D01*
X53171428Y-73852380D02*
X53076190Y-73852380D01*
X52980952Y-73900000D01*
X52933333Y-73947619D01*
X52885714Y-74042857D01*
X52838095Y-74233333D01*
X52838095Y-74471428D01*
X52885714Y-74661904D01*
X52933333Y-74757142D01*
X52980952Y-74804761D01*
X53076190Y-74852380D01*
X53171428Y-74852380D01*
X53266666Y-74804761D01*
X53314285Y-74757142D01*
X53361904Y-74661904D01*
X53409523Y-74471428D01*
X53409523Y-74233333D01*
X53361904Y-74042857D01*
X53314285Y-73947619D01*
X53266666Y-73900000D01*
X53171428Y-73852380D01*
X50885714Y-74852380D02*
X50885714Y-74185714D01*
X50885714Y-74280952D02*
X50838095Y-74233333D01*
X50742857Y-74185714D01*
X50600000Y-74185714D01*
X50504761Y-74233333D01*
X50457142Y-74328571D01*
X50457142Y-74852380D01*
X50457142Y-74328571D02*
X50409523Y-74233333D01*
X50314285Y-74185714D01*
X50171428Y-74185714D01*
X50076190Y-74233333D01*
X50028571Y-74328571D01*
X50028571Y-74852380D01*
X49552380Y-74852380D02*
X49552380Y-74185714D01*
X49552380Y-74280952D02*
X49504761Y-74233333D01*
X49409523Y-74185714D01*
X49266666Y-74185714D01*
X49171428Y-74233333D01*
X49123809Y-74328571D01*
X49123809Y-74852380D01*
X49123809Y-74328571D02*
X49076190Y-74233333D01*
X48980952Y-74185714D01*
X48838095Y-74185714D01*
X48742857Y-74233333D01*
X48695238Y-74328571D01*
X48695238Y-74852380D01*
X47266666Y-73852380D02*
X47076190Y-73852380D01*
X46980952Y-73900000D01*
X46885714Y-73995238D01*
X46838095Y-74185714D01*
X46838095Y-74519047D01*
X46885714Y-74709523D01*
X46980952Y-74804761D01*
X47076190Y-74852380D01*
X47266666Y-74852380D01*
X47361904Y-74804761D01*
X47457142Y-74709523D01*
X47504761Y-74519047D01*
X47504761Y-74185714D01*
X47457142Y-73995238D01*
X47361904Y-73900000D01*
X47266666Y-73852380D01*
X45838095Y-74757142D02*
X45885714Y-74804761D01*
X46028571Y-74852380D01*
X46123809Y-74852380D01*
X46266666Y-74804761D01*
X46361904Y-74709523D01*
X46409523Y-74614285D01*
X46457142Y-74423809D01*
X46457142Y-74280952D01*
X46409523Y-74090476D01*
X46361904Y-73995238D01*
X46266666Y-73900000D01*
X46123809Y-73852380D01*
X46028571Y-73852380D01*
X45885714Y-73900000D01*
X45838095Y-73947619D01*
X44647619Y-74471428D02*
X43885714Y-74471428D01*
X43409523Y-74471428D02*
X42647619Y-74471428D01*
X42171428Y-74471428D02*
X41409523Y-74471428D01*
X40933333Y-74185714D02*
X40171428Y-74471428D01*
X40933333Y-74757142D01*
X43261904Y-89300000D02*
X43357142Y-89252380D01*
X43500000Y-89252380D01*
X43642857Y-89300000D01*
X43738095Y-89395238D01*
X43785714Y-89490476D01*
X43833333Y-89680952D01*
X43833333Y-89823809D01*
X43785714Y-90014285D01*
X43738095Y-90109523D01*
X43642857Y-90204761D01*
X43500000Y-90252380D01*
X43404761Y-90252380D01*
X43261904Y-90204761D01*
X43214285Y-90157142D01*
X43214285Y-89823809D01*
X43404761Y-89823809D01*
X42785714Y-90252380D02*
X42785714Y-89252380D01*
X42214285Y-90252380D01*
X42214285Y-89252380D01*
X41738095Y-90252380D02*
X41738095Y-89252380D01*
X41500000Y-89252380D01*
X41357142Y-89300000D01*
X41261904Y-89395238D01*
X41214285Y-89490476D01*
X41166666Y-89680952D01*
X41166666Y-89823809D01*
X41214285Y-90014285D01*
X41261904Y-90109523D01*
X41357142Y-90204761D01*
X41500000Y-90252380D01*
X41738095Y-90252380D01*
X48261904Y-89300000D02*
X48357142Y-89252380D01*
X48500000Y-89252380D01*
X48642857Y-89300000D01*
X48738095Y-89395238D01*
X48785714Y-89490476D01*
X48833333Y-89680952D01*
X48833333Y-89823809D01*
X48785714Y-90014285D01*
X48738095Y-90109523D01*
X48642857Y-90204761D01*
X48500000Y-90252380D01*
X48404761Y-90252380D01*
X48261904Y-90204761D01*
X48214285Y-90157142D01*
X48214285Y-89823809D01*
X48404761Y-89823809D01*
X47785714Y-90252380D02*
X47785714Y-89252380D01*
X47214285Y-90252380D01*
X47214285Y-89252380D01*
X46738095Y-90252380D02*
X46738095Y-89252380D01*
X46500000Y-89252380D01*
X46357142Y-89300000D01*
X46261904Y-89395238D01*
X46214285Y-89490476D01*
X46166666Y-89680952D01*
X46166666Y-89823809D01*
X46214285Y-90014285D01*
X46261904Y-90109523D01*
X46357142Y-90204761D01*
X46500000Y-90252380D01*
X46738095Y-90252380D01*
X52890476Y-89252380D02*
X53366666Y-89252380D01*
X53414285Y-89728571D01*
X53366666Y-89680952D01*
X53271428Y-89633333D01*
X53033333Y-89633333D01*
X52938095Y-89680952D01*
X52890476Y-89728571D01*
X52842857Y-89823809D01*
X52842857Y-90061904D01*
X52890476Y-90157142D01*
X52938095Y-90204761D01*
X53033333Y-90252380D01*
X53271428Y-90252380D01*
X53366666Y-90204761D01*
X53414285Y-90157142D01*
X52557142Y-89252380D02*
X52223809Y-90252380D01*
X51890476Y-89252380D01*
X57990476Y-89452380D02*
X58466666Y-89452380D01*
X58514285Y-89928571D01*
X58466666Y-89880952D01*
X58371428Y-89833333D01*
X58133333Y-89833333D01*
X58038095Y-89880952D01*
X57990476Y-89928571D01*
X57942857Y-90023809D01*
X57942857Y-90261904D01*
X57990476Y-90357142D01*
X58038095Y-90404761D01*
X58133333Y-90452380D01*
X58371428Y-90452380D01*
X58466666Y-90404761D01*
X58514285Y-90357142D01*
X57657142Y-89452380D02*
X57323809Y-90452380D01*
X56990476Y-89452380D01*
X91995571Y-49152380D02*
X92328904Y-48676190D01*
X92567000Y-49152380D02*
X92567000Y-48152380D01*
X92186047Y-48152380D01*
X92090809Y-48200000D01*
X92043190Y-48247619D01*
X91995571Y-48342857D01*
X91995571Y-48485714D01*
X92043190Y-48580952D01*
X92090809Y-48628571D01*
X92186047Y-48676190D01*
X92567000Y-48676190D01*
X91186047Y-49104761D02*
X91281285Y-49152380D01*
X91471762Y-49152380D01*
X91567000Y-49104761D01*
X91614619Y-49009523D01*
X91614619Y-48628571D01*
X91567000Y-48533333D01*
X91471762Y-48485714D01*
X91281285Y-48485714D01*
X91186047Y-48533333D01*
X91138428Y-48628571D01*
X91138428Y-48723809D01*
X91614619Y-48819047D01*
X90281285Y-49152380D02*
X90281285Y-48152380D01*
X90281285Y-49104761D02*
X90376523Y-49152380D01*
X90567000Y-49152380D01*
X90662238Y-49104761D01*
X90709857Y-49057142D01*
X90757476Y-48961904D01*
X90757476Y-48676190D01*
X90709857Y-48580952D01*
X90662238Y-48533333D01*
X90567000Y-48485714D01*
X90376523Y-48485714D01*
X90281285Y-48533333D01*
X92757476Y-43628571D02*
X92614619Y-43676190D01*
X92567000Y-43723809D01*
X92519381Y-43819047D01*
X92519381Y-43961904D01*
X92567000Y-44057142D01*
X92614619Y-44104761D01*
X92709857Y-44152380D01*
X93090809Y-44152380D01*
X93090809Y-43152380D01*
X92757476Y-43152380D01*
X92662238Y-43200000D01*
X92614619Y-43247619D01*
X92567000Y-43342857D01*
X92567000Y-43438095D01*
X92614619Y-43533333D01*
X92662238Y-43580952D01*
X92757476Y-43628571D01*
X93090809Y-43628571D01*
X91947952Y-44152380D02*
X92043190Y-44104761D01*
X92090809Y-44009523D01*
X92090809Y-43152380D01*
X91138428Y-43485714D02*
X91138428Y-44152380D01*
X91567000Y-43485714D02*
X91567000Y-44009523D01*
X91519381Y-44104761D01*
X91424143Y-44152380D01*
X91281286Y-44152380D01*
X91186048Y-44104761D01*
X91138428Y-44057142D01*
X90281286Y-44104761D02*
X90376524Y-44152380D01*
X90567000Y-44152380D01*
X90662238Y-44104761D01*
X90709857Y-44009523D01*
X90709857Y-43628571D01*
X90662238Y-43533333D01*
X90567000Y-43485714D01*
X90376524Y-43485714D01*
X90281286Y-43533333D01*
X90233667Y-43628571D01*
X90233667Y-43723809D01*
X90709857Y-43819047D01*
X93519380Y-38000000D02*
X93614618Y-37952380D01*
X93757476Y-37952380D01*
X93900333Y-38000000D01*
X93995571Y-38095238D01*
X94043190Y-38190476D01*
X94090809Y-38380952D01*
X94090809Y-38523809D01*
X94043190Y-38714285D01*
X93995571Y-38809523D01*
X93900333Y-38904761D01*
X93757476Y-38952380D01*
X93662238Y-38952380D01*
X93519380Y-38904761D01*
X93471761Y-38857142D01*
X93471761Y-38523809D01*
X93662238Y-38523809D01*
X93043190Y-38952380D02*
X93043190Y-38285714D01*
X93043190Y-38476190D02*
X92995571Y-38380952D01*
X92947952Y-38333333D01*
X92852714Y-38285714D01*
X92757476Y-38285714D01*
X92043190Y-38904761D02*
X92138428Y-38952380D01*
X92328904Y-38952380D01*
X92424142Y-38904761D01*
X92471761Y-38809523D01*
X92471761Y-38428571D01*
X92424142Y-38333333D01*
X92328904Y-38285714D01*
X92138428Y-38285714D01*
X92043190Y-38333333D01*
X91995571Y-38428571D01*
X91995571Y-38523809D01*
X92471761Y-38619047D01*
X91186047Y-38904761D02*
X91281285Y-38952380D01*
X91471761Y-38952380D01*
X91566999Y-38904761D01*
X91614618Y-38809523D01*
X91614618Y-38428571D01*
X91566999Y-38333333D01*
X91471761Y-38285714D01*
X91281285Y-38285714D01*
X91186047Y-38333333D01*
X91138428Y-38428571D01*
X91138428Y-38523809D01*
X91614618Y-38619047D01*
X90709857Y-38285714D02*
X90709857Y-38952380D01*
X90709857Y-38380952D02*
X90662238Y-38333333D01*
X90566999Y-38285714D01*
X90424142Y-38285714D01*
X90328904Y-38333333D01*
X90281285Y-38428571D01*
X90281285Y-38952380D01*
X94328905Y-33576190D02*
X94328905Y-34052380D01*
X94662238Y-33052380D02*
X94328905Y-33576190D01*
X93995572Y-33052380D01*
X93281286Y-34004761D02*
X93376524Y-34052380D01*
X93567000Y-34052380D01*
X93662238Y-34004761D01*
X93709857Y-33909523D01*
X93709857Y-33528571D01*
X93662238Y-33433333D01*
X93567000Y-33385714D01*
X93376524Y-33385714D01*
X93281286Y-33433333D01*
X93233667Y-33528571D01*
X93233667Y-33623809D01*
X93709857Y-33719047D01*
X92662238Y-34052380D02*
X92757476Y-34004761D01*
X92805095Y-33909523D01*
X92805095Y-33052380D01*
X92138429Y-34052380D02*
X92233667Y-34004761D01*
X92281286Y-33909523D01*
X92281286Y-33052380D01*
X91614619Y-34052380D02*
X91709857Y-34004761D01*
X91757476Y-33957142D01*
X91805095Y-33861904D01*
X91805095Y-33576190D01*
X91757476Y-33480952D01*
X91709857Y-33433333D01*
X91614619Y-33385714D01*
X91471762Y-33385714D01*
X91376524Y-33433333D01*
X91328905Y-33480952D01*
X91281286Y-33576190D01*
X91281286Y-33861904D01*
X91328905Y-33957142D01*
X91376524Y-34004761D01*
X91471762Y-34052380D01*
X91614619Y-34052380D01*
X90947953Y-33385714D02*
X90757476Y-34052380D01*
X90567000Y-33576190D01*
X90376524Y-34052380D01*
X90186048Y-33385714D01*
X94852714Y-27852380D02*
X94662238Y-27852380D01*
X94566999Y-27900000D01*
X94471761Y-27995238D01*
X94424142Y-28185714D01*
X94424142Y-28519047D01*
X94471761Y-28709523D01*
X94566999Y-28804761D01*
X94662238Y-28852380D01*
X94852714Y-28852380D01*
X94947952Y-28804761D01*
X95043190Y-28709523D01*
X95090809Y-28519047D01*
X95090809Y-28185714D01*
X95043190Y-27995238D01*
X94947952Y-27900000D01*
X94852714Y-27852380D01*
X93995571Y-28852380D02*
X93995571Y-28185714D01*
X93995571Y-28376190D02*
X93947952Y-28280952D01*
X93900333Y-28233333D01*
X93805095Y-28185714D01*
X93709857Y-28185714D01*
X92947952Y-28852380D02*
X92947952Y-28328571D01*
X92995571Y-28233333D01*
X93090809Y-28185714D01*
X93281285Y-28185714D01*
X93376523Y-28233333D01*
X92947952Y-28804761D02*
X93043190Y-28852380D01*
X93281285Y-28852380D01*
X93376523Y-28804761D01*
X93424142Y-28709523D01*
X93424142Y-28614285D01*
X93376523Y-28519047D01*
X93281285Y-28471428D01*
X93043190Y-28471428D01*
X92947952Y-28423809D01*
X92471761Y-28185714D02*
X92471761Y-28852380D01*
X92471761Y-28280952D02*
X92424142Y-28233333D01*
X92328904Y-28185714D01*
X92186047Y-28185714D01*
X92090809Y-28233333D01*
X92043190Y-28328571D01*
X92043190Y-28852380D01*
X91138428Y-28185714D02*
X91138428Y-28995238D01*
X91186047Y-29090476D01*
X91233666Y-29138095D01*
X91328904Y-29185714D01*
X91471761Y-29185714D01*
X91566999Y-29138095D01*
X91138428Y-28804761D02*
X91233666Y-28852380D01*
X91424142Y-28852380D01*
X91519380Y-28804761D01*
X91566999Y-28757142D01*
X91614618Y-28661904D01*
X91614618Y-28376190D01*
X91566999Y-28280952D01*
X91519380Y-28233333D01*
X91424142Y-28185714D01*
X91233666Y-28185714D01*
X91138428Y-28233333D01*
X90281285Y-28804761D02*
X90376523Y-28852380D01*
X90566999Y-28852380D01*
X90662238Y-28804761D01*
X90709857Y-28709523D01*
X90709857Y-28328571D01*
X90662238Y-28233333D01*
X90566999Y-28185714D01*
X90376523Y-28185714D01*
X90281285Y-28233333D01*
X90233666Y-28328571D01*
X90233666Y-28423809D01*
X90709857Y-28519047D01*
M02*
