%TF.GenerationSoftware,KiCad,Pcbnew,(5.1.9)-1*%
%TF.CreationDate,2021-10-25T22:56:29-04:00*%
%TF.ProjectId,ESP backpack,45535020-6261-4636-9b70-61636b2e6b69,rev?*%
%TF.SameCoordinates,Original*%
%TF.FileFunction,Copper,L2,Bot*%
%TF.FilePolarity,Positive*%
%FSLAX46Y46*%
G04 Gerber Fmt 4.6, Leading zero omitted, Abs format (unit mm)*
G04 Created by KiCad (PCBNEW (5.1.9)-1) date 2021-10-25 22:56:29*
%MOMM*%
%LPD*%
G01*
G04 APERTURE LIST*
%TA.AperFunction,ComponentPad*%
%ADD10R,1.560000X1.560000*%
%TD*%
%TA.AperFunction,ComponentPad*%
%ADD11C,1.600000*%
%TD*%
%TA.AperFunction,ComponentPad*%
%ADD12C,1.651000*%
%TD*%
%TA.AperFunction,ComponentPad*%
%ADD13R,1.650000X1.650000*%
%TD*%
%TA.AperFunction,ComponentPad*%
%ADD14C,1.650000*%
%TD*%
%TA.AperFunction,ViaPad*%
%ADD15C,0.400000*%
%TD*%
%TA.AperFunction,ViaPad*%
%ADD16C,0.800000*%
%TD*%
%TA.AperFunction,Conductor*%
%ADD17C,0.254000*%
%TD*%
%TA.AperFunction,Conductor*%
%ADD18C,0.203200*%
%TD*%
%TA.AperFunction,Conductor*%
%ADD19C,0.100000*%
%TD*%
G04 APERTURE END LIST*
D10*
%TO.P,U1,1*%
%TO.N,+3V3*%
X62700000Y-47260000D03*
D11*
%TO.P,U1,2*%
%TO.N,Net-(U1-Pad2)*%
X62700000Y-44720000D03*
%TO.P,U1,19*%
%TO.N,Net-(ExtPower1-Pad2)*%
X62700000Y-1540000D03*
%TO.P,U1,3*%
%TO.N,Net-(R8-Pad1)*%
X62700000Y-42180000D03*
%TO.P,U1,4*%
%TO.N,Net-(R9-Pad1)*%
X62700000Y-39640000D03*
%TO.P,U1,5*%
%TO.N,Net-(R7-Pad1)*%
X62700000Y-37100000D03*
%TO.P,U1,6*%
%TO.N,Net-(R6-Pad1)*%
X62700000Y-34560000D03*
%TO.P,U1,7*%
%TO.N,Net-(R5-Pad1)*%
X62700000Y-32020000D03*
%TO.P,U1,8*%
%TO.N,Net-(R4-Pad1)*%
X62700000Y-29480000D03*
%TO.P,U1,9*%
%TO.N,Net-(R3-Pad1)*%
X62700000Y-26940000D03*
%TO.P,U1,10*%
%TO.N,Net-(R10-Pad1)*%
X62700000Y-24400000D03*
%TO.P,U1,11*%
%TO.N,Net-(U1-Pad11)*%
X62700000Y-21860000D03*
%TO.P,U1,12*%
%TO.N,Net-(U1-Pad12)*%
X62700000Y-19320000D03*
%TO.P,U1,13*%
%TO.N,Net-(U1-Pad13)*%
X62700000Y-16780000D03*
%TO.P,U1,14*%
%TO.N,GND*%
X62700000Y-14240000D03*
%TO.P,U1,15*%
%TO.N,Net-(U1-Pad15)*%
X62700000Y-11700000D03*
%TO.P,U1,16*%
%TO.N,Net-(U1-Pad16)*%
X62700000Y-9160000D03*
%TO.P,U1,17*%
%TO.N,Net-(U1-Pad17)*%
X62700000Y-6620000D03*
%TO.P,U1,18*%
%TO.N,Net-(U1-Pad18)*%
X62700000Y-4080000D03*
%TO.P,U1,20*%
%TO.N,GND*%
X37300000Y-47260000D03*
%TO.P,U1,21*%
%TO.N,Net-(U1-Pad21)*%
X37300000Y-44720000D03*
%TO.P,U1,22*%
%TO.N,/SCL*%
X37300000Y-42180000D03*
%TO.P,U1,23*%
%TO.N,Net-(U1-Pad23)*%
X37300000Y-39640000D03*
%TO.P,U1,24*%
%TO.N,Net-(U1-Pad24)*%
X37300000Y-37100000D03*
%TO.P,U1,25*%
%TO.N,/SDA*%
X37300000Y-34560000D03*
%TO.P,U1,26*%
%TO.N,GND*%
X37300000Y-32020000D03*
%TO.P,U1,27*%
%TO.N,Net-(U1-Pad27)*%
X37300000Y-29480000D03*
%TO.P,U1,28*%
%TO.N,Net-(U1-Pad28)*%
X37300000Y-26940000D03*
%TO.P,U1,29*%
%TO.N,Net-(U1-Pad29)*%
X37300000Y-24400000D03*
%TO.P,U1,30*%
%TO.N,Net-(U1-Pad30)*%
X37300000Y-21860000D03*
%TO.P,U1,31*%
%TO.N,Net-(U1-Pad31)*%
X37300000Y-19320000D03*
%TO.P,U1,32*%
%TO.N,Net-(U1-Pad32)*%
X37300000Y-16780000D03*
%TO.P,U1,33*%
%TO.N,Net-(U1-Pad33)*%
X37300000Y-14240000D03*
%TO.P,U1,34*%
%TO.N,Net-(U1-Pad34)*%
X37300000Y-11700000D03*
%TO.P,U1,35*%
%TO.N,Net-(U1-Pad35)*%
X37300000Y-9160000D03*
%TO.P,U1,36*%
%TO.N,Net-(U1-Pad36)*%
X37300000Y-6620000D03*
%TO.P,U1,37*%
%TO.N,Net-(U1-Pad37)*%
X37300000Y-4080000D03*
%TO.P,U1,38*%
%TO.N,Net-(U1-Pad38)*%
X37300000Y-1540000D03*
%TD*%
D12*
%TO.P,J1,40*%
%TO.N,GND*%
X16270000Y-74130000D03*
%TO.P,J1,39*%
%TO.N,Net-(J1-Pad39)*%
X13730000Y-74130000D03*
%TO.P,J1,38*%
%TO.N,GND*%
X16270000Y-71590000D03*
%TO.P,J1,37*%
%TO.N,Net-(J1-Pad37)*%
X13730000Y-71590000D03*
%TO.P,J1,36*%
%TO.N,GND*%
X16270000Y-69050000D03*
%TO.P,J1,35*%
%TO.N,+3V3*%
X13730000Y-69050000D03*
%TO.P,J1,34*%
%TO.N,GND*%
X16270000Y-66510000D03*
%TO.P,J1,33*%
%TO.N,+5V*%
X13730000Y-66510000D03*
%TO.P,J1,32*%
%TO.N,GND*%
X16270000Y-63970000D03*
%TO.P,J1,31*%
%TO.N,+5V*%
X13730000Y-63970000D03*
%TO.P,J1,30*%
%TO.N,GND*%
X16270000Y-61430000D03*
%TO.P,J1,29*%
%TO.N,+5V*%
X13730000Y-61430000D03*
%TO.P,J1,28*%
%TO.N,GND*%
X16270000Y-58890000D03*
%TO.P,J1,27*%
%TO.N,+5V*%
X13730000Y-58890000D03*
%TO.P,J1,26*%
%TO.N,GND*%
X16270000Y-56350000D03*
%TO.P,J1,25*%
%TO.N,+5V*%
X13730000Y-56350000D03*
%TO.P,J1,24*%
%TO.N,GND*%
X16270000Y-53810000D03*
%TO.P,J1,23*%
%TO.N,+5V*%
X13730000Y-53810000D03*
%TO.P,J1,22*%
%TO.N,GND*%
X16270000Y-51270000D03*
%TO.P,J1,21*%
%TO.N,+5V*%
X13730000Y-51270000D03*
%TO.P,J1,20*%
%TO.N,GND*%
X16270000Y-48730000D03*
%TO.P,J1,19*%
%TO.N,+5V*%
X13730000Y-48730000D03*
%TO.P,J1,18*%
%TO.N,GND*%
X16270000Y-46190000D03*
%TO.P,J1,17*%
%TO.N,+5V*%
X13730000Y-46190000D03*
%TO.P,J1,16*%
%TO.N,GND*%
X16270000Y-43650000D03*
%TO.P,J1,15*%
%TO.N,+5V*%
X13730000Y-43650000D03*
%TO.P,J1,14*%
%TO.N,GND*%
X16270000Y-41110000D03*
%TO.P,J1,13*%
%TO.N,+5V*%
X13730000Y-41110000D03*
%TO.P,J1,12*%
%TO.N,GND*%
X16270000Y-38570000D03*
%TO.P,J1,11*%
%TO.N,+5V*%
X13730000Y-38570000D03*
%TO.P,J1,10*%
%TO.N,GND*%
X16270000Y-36030000D03*
%TO.P,J1,09*%
%TO.N,+5V*%
X13730000Y-36030000D03*
%TO.P,J1,08*%
%TO.N,GND*%
X16270000Y-33490000D03*
%TO.P,J1,07*%
%TO.N,+5V*%
X13730000Y-33490000D03*
%TO.P,J1,06*%
%TO.N,GND*%
X16270000Y-30950000D03*
%TO.P,J1,05*%
%TO.N,+5V*%
X13730000Y-30950000D03*
%TO.P,J1,04*%
%TO.N,GND*%
X16270000Y-28410000D03*
%TO.P,J1,03*%
%TO.N,+5V*%
X13730000Y-28410000D03*
%TO.P,J1,02*%
%TO.N,GND*%
X16270000Y-25870000D03*
%TO.P,J1,01*%
%TO.N,+5V*%
X13730000Y-25870000D03*
%TD*%
%TO.P,J2,01*%
%TO.N,+5V*%
X83730000Y-25870000D03*
%TO.P,J2,02*%
%TO.N,GND*%
X86270000Y-25870000D03*
%TO.P,J2,03*%
%TO.N,+5V*%
X83730000Y-28410000D03*
%TO.P,J2,04*%
%TO.N,/OrangeLine*%
X86270000Y-28410000D03*
%TO.P,J2,05*%
%TO.N,+5V*%
X83730000Y-30950000D03*
%TO.P,J2,06*%
%TO.N,GND*%
X86270000Y-30950000D03*
%TO.P,J2,07*%
%TO.N,+5V*%
X83730000Y-33490000D03*
%TO.P,J2,08*%
%TO.N,/YellowLine*%
X86270000Y-33490000D03*
%TO.P,J2,09*%
%TO.N,+5V*%
X83730000Y-36030000D03*
%TO.P,J2,10*%
%TO.N,GND*%
X86270000Y-36030000D03*
%TO.P,J2,11*%
%TO.N,+5V*%
X83730000Y-38570000D03*
%TO.P,J2,12*%
%TO.N,/GreenLine*%
X86270000Y-38570000D03*
%TO.P,J2,13*%
%TO.N,+5V*%
X83730000Y-41110000D03*
%TO.P,J2,14*%
%TO.N,GND*%
X86270000Y-41110000D03*
%TO.P,J2,15*%
%TO.N,+5V*%
X83730000Y-43650000D03*
%TO.P,J2,16*%
%TO.N,/BlueLine*%
X86270000Y-43650000D03*
%TO.P,J2,17*%
%TO.N,+5V*%
X83730000Y-46190000D03*
%TO.P,J2,18*%
%TO.N,GND*%
X86270000Y-46190000D03*
%TO.P,J2,19*%
%TO.N,+5V*%
X83730000Y-48730000D03*
%TO.P,J2,20*%
%TO.N,/RedLine*%
X86270000Y-48730000D03*
%TO.P,J2,21*%
%TO.N,+5V*%
X83730000Y-51270000D03*
%TO.P,J2,22*%
%TO.N,GND*%
X86270000Y-51270000D03*
%TO.P,J2,23*%
%TO.N,+5V*%
X83730000Y-53810000D03*
%TO.P,J2,24*%
%TO.N,GND*%
X86270000Y-53810000D03*
%TO.P,J2,25*%
%TO.N,+5V*%
X83730000Y-56350000D03*
%TO.P,J2,26*%
%TO.N,GND*%
X86270000Y-56350000D03*
%TO.P,J2,27*%
%TO.N,+5V*%
X83730000Y-58890000D03*
%TO.P,J2,28*%
%TO.N,GND*%
X86270000Y-58890000D03*
%TO.P,J2,29*%
%TO.N,+5V*%
X83730000Y-61430000D03*
%TO.P,J2,30*%
%TO.N,Net-(J2-Pad30)*%
X86270000Y-61430000D03*
%TO.P,J2,31*%
%TO.N,+5V*%
X83730000Y-63970000D03*
%TO.P,J2,32*%
%TO.N,GND*%
X86270000Y-63970000D03*
%TO.P,J2,33*%
%TO.N,+5V*%
X83730000Y-66510000D03*
%TO.P,J2,34*%
%TO.N,GND*%
X86270000Y-66510000D03*
%TO.P,J2,35*%
%TO.N,+5V*%
X83730000Y-69050000D03*
%TO.P,J2,36*%
%TO.N,GND*%
X86270000Y-69050000D03*
%TO.P,J2,37*%
%TO.N,+5V*%
X83730000Y-71590000D03*
%TO.P,J2,38*%
%TO.N,GND*%
X86270000Y-71590000D03*
%TO.P,J2,39*%
%TO.N,+5V*%
X83730000Y-74130000D03*
%TO.P,J2,40*%
%TO.N,GND*%
X86270000Y-74130000D03*
%TD*%
D13*
%TO.P,5VDC_IN1,1*%
%TO.N,GND*%
X42500000Y-95500000D03*
D14*
%TO.P,5VDC_IN1,2*%
X47580000Y-95500000D03*
%TO.P,5VDC_IN1,3*%
%TO.N,+5V*%
X52660000Y-95500000D03*
%TO.P,5VDC_IN1,4*%
X57740000Y-95500000D03*
%TD*%
D15*
%TO.N,GND*%
X82000000Y-86340000D03*
X82000000Y-90150000D03*
X82000000Y-88880000D03*
X84540000Y-88880000D03*
X83270000Y-87610000D03*
X83270000Y-90150000D03*
X83270000Y-88880000D03*
X84540000Y-87610000D03*
X83270000Y-86340000D03*
X84540000Y-86340000D03*
X82000000Y-87610000D03*
X83270000Y-91420000D03*
X82000000Y-91420000D03*
X84540000Y-91420000D03*
X84540000Y-90150000D03*
X84540000Y-85070000D03*
X82000000Y-85070000D03*
X83270000Y-85070000D03*
X86250000Y-86340000D03*
X86250000Y-90150000D03*
X86250000Y-88880000D03*
X88790000Y-88880000D03*
X87520000Y-87610000D03*
X87520000Y-90150000D03*
X87520000Y-88880000D03*
X88790000Y-87610000D03*
X87520000Y-86340000D03*
X88790000Y-86340000D03*
X86250000Y-87610000D03*
X87520000Y-91420000D03*
X86250000Y-91420000D03*
X88790000Y-91420000D03*
X88790000Y-90150000D03*
X88790000Y-85070000D03*
X86250000Y-85070000D03*
X87520000Y-85070000D03*
X15500000Y-85840000D03*
X15500000Y-89650000D03*
X16770000Y-85840000D03*
X16770000Y-90920000D03*
X18040000Y-89650000D03*
X18040000Y-90920000D03*
X16770000Y-87110000D03*
X16770000Y-88380000D03*
X16770000Y-84570000D03*
X15500000Y-87110000D03*
X18040000Y-87110000D03*
X15500000Y-84570000D03*
X16770000Y-89650000D03*
X15500000Y-88380000D03*
X18040000Y-88380000D03*
X18040000Y-85840000D03*
X15500000Y-90920000D03*
X18040000Y-84570000D03*
X11250000Y-89650000D03*
X12520000Y-88380000D03*
X11250000Y-85840000D03*
X13790000Y-89650000D03*
X11250000Y-88380000D03*
X13790000Y-88380000D03*
X11250000Y-90920000D03*
X12520000Y-90920000D03*
X12520000Y-89650000D03*
X13790000Y-84570000D03*
X11250000Y-87110000D03*
X12520000Y-85840000D03*
X13790000Y-90920000D03*
X12520000Y-87110000D03*
X11250000Y-84570000D03*
X13790000Y-87110000D03*
X12520000Y-84570000D03*
X13790000Y-85840000D03*
X17750000Y-10090000D03*
X17750000Y-13900000D03*
X17750000Y-12630000D03*
X20290000Y-12630000D03*
X19020000Y-12630000D03*
X17750000Y-11360000D03*
X19020000Y-15170000D03*
X17750000Y-15170000D03*
X20290000Y-15170000D03*
X20290000Y-8820000D03*
X17750000Y-8820000D03*
X19020000Y-8820000D03*
X80750000Y-14920000D03*
X82020000Y-14920000D03*
X83290000Y-14920000D03*
X80750000Y-13650000D03*
X82020000Y-13650000D03*
X83290000Y-13650000D03*
X80750000Y-12380000D03*
X82020000Y-12380000D03*
X83290000Y-12380000D03*
X80750000Y-11110000D03*
X82020000Y-11110000D03*
X83290000Y-11110000D03*
X80750000Y-9840000D03*
X82020000Y-9840000D03*
X83290000Y-9840000D03*
X80750000Y-8570000D03*
X82020000Y-8570000D03*
X83290000Y-8570000D03*
X44400000Y-65700000D03*
X44600000Y-73300000D03*
D16*
X77089000Y-52197000D03*
X77216000Y-65151000D03*
D15*
X19020000Y-11360000D03*
X20290000Y-11360000D03*
X19020000Y-10090000D03*
X20290000Y-10090000D03*
X19020000Y-13900000D03*
X20290000Y-13900000D03*
%TO.N,Net-(J1-Pad39)*%
X28321000Y-67310000D03*
%TO.N,Net-(J1-Pad37)*%
X28321000Y-70104000D03*
%TD*%
D17*
%TO.N,GND*%
X17600000Y-66700000D02*
X17410000Y-66510000D01*
X17410000Y-66510000D02*
X16270000Y-66510000D01*
%TO.N,Net-(J1-Pad39)*%
X13730000Y-74130000D02*
X13730000Y-75833000D01*
X13730000Y-75833000D02*
X13970000Y-76073000D01*
X13970000Y-76073000D02*
X23622000Y-76073000D01*
X23622000Y-76073000D02*
X27432000Y-72263000D01*
X27432000Y-68199000D02*
X28321000Y-67310000D01*
X27432000Y-72263000D02*
X27432000Y-68199000D01*
%TO.N,Net-(J1-Pad37)*%
X28321000Y-72390000D02*
X28321000Y-70104000D01*
X11938000Y-76708000D02*
X24003000Y-76708000D01*
X24003000Y-76708000D02*
X28321000Y-72390000D01*
X10668000Y-75438000D02*
X11938000Y-76708000D01*
X10668000Y-72136000D02*
X10668000Y-75438000D01*
X11214000Y-71590000D02*
X10668000Y-72136000D01*
X13730000Y-71590000D02*
X11214000Y-71590000D01*
%TD*%
D18*
%TO.N,GND*%
X99398400Y-99398400D02*
X351600Y-99398400D01*
X351600Y-95389040D01*
X51533400Y-95389040D01*
X51533400Y-95610960D01*
X51576695Y-95828617D01*
X51661620Y-96033645D01*
X51784913Y-96218166D01*
X51941834Y-96375087D01*
X52126355Y-96498380D01*
X52331383Y-96583305D01*
X52549040Y-96626600D01*
X52770960Y-96626600D01*
X52988617Y-96583305D01*
X53193645Y-96498380D01*
X53378166Y-96375087D01*
X53535087Y-96218166D01*
X53658380Y-96033645D01*
X53743305Y-95828617D01*
X53786600Y-95610960D01*
X53786600Y-95389040D01*
X56613400Y-95389040D01*
X56613400Y-95610960D01*
X56656695Y-95828617D01*
X56741620Y-96033645D01*
X56864913Y-96218166D01*
X57021834Y-96375087D01*
X57206355Y-96498380D01*
X57411383Y-96583305D01*
X57629040Y-96626600D01*
X57850960Y-96626600D01*
X58068617Y-96583305D01*
X58273645Y-96498380D01*
X58458166Y-96375087D01*
X58615087Y-96218166D01*
X58738380Y-96033645D01*
X58823305Y-95828617D01*
X58866600Y-95610960D01*
X58866600Y-95389040D01*
X58823305Y-95171383D01*
X58738380Y-94966355D01*
X58615087Y-94781834D01*
X58458166Y-94624913D01*
X58273645Y-94501620D01*
X58068617Y-94416695D01*
X57850960Y-94373400D01*
X57629040Y-94373400D01*
X57411383Y-94416695D01*
X57206355Y-94501620D01*
X57021834Y-94624913D01*
X56864913Y-94781834D01*
X56741620Y-94966355D01*
X56656695Y-95171383D01*
X56613400Y-95389040D01*
X53786600Y-95389040D01*
X53743305Y-95171383D01*
X53658380Y-94966355D01*
X53535087Y-94781834D01*
X53378166Y-94624913D01*
X53193645Y-94501620D01*
X52988617Y-94416695D01*
X52770960Y-94373400D01*
X52549040Y-94373400D01*
X52331383Y-94416695D01*
X52126355Y-94501620D01*
X51941834Y-94624913D01*
X51784913Y-94781834D01*
X51661620Y-94966355D01*
X51576695Y-95171383D01*
X51533400Y-95389040D01*
X351600Y-95389040D01*
X351600Y-72136000D01*
X10237327Y-72136000D01*
X10239400Y-72157048D01*
X10239401Y-75416942D01*
X10237327Y-75438000D01*
X10245602Y-75522020D01*
X10270111Y-75602811D01*
X10309909Y-75677269D01*
X10363469Y-75742532D01*
X10379820Y-75755951D01*
X11620045Y-76996176D01*
X11633468Y-77012532D01*
X11698731Y-77066092D01*
X11773189Y-77105890D01*
X11853980Y-77130398D01*
X11916952Y-77136600D01*
X11916953Y-77136600D01*
X11937999Y-77138673D01*
X11959045Y-77136600D01*
X23981952Y-77136600D01*
X24003000Y-77138673D01*
X24024048Y-77136600D01*
X24087020Y-77130398D01*
X24167811Y-77105890D01*
X24242269Y-77066092D01*
X24307532Y-77012532D01*
X24320955Y-76996176D01*
X27298141Y-74018990D01*
X82602900Y-74018990D01*
X82602900Y-74241010D01*
X82646213Y-74458763D01*
X82731177Y-74663882D01*
X82854524Y-74848485D01*
X83011515Y-75005476D01*
X83196118Y-75128823D01*
X83401237Y-75213787D01*
X83618990Y-75257100D01*
X83841010Y-75257100D01*
X84058763Y-75213787D01*
X84263882Y-75128823D01*
X84448485Y-75005476D01*
X84605476Y-74848485D01*
X84728823Y-74663882D01*
X84813787Y-74458763D01*
X84857100Y-74241010D01*
X84857100Y-74018990D01*
X84813787Y-73801237D01*
X84728823Y-73596118D01*
X84605476Y-73411515D01*
X84448485Y-73254524D01*
X84263882Y-73131177D01*
X84058763Y-73046213D01*
X83841010Y-73002900D01*
X83618990Y-73002900D01*
X83401237Y-73046213D01*
X83196118Y-73131177D01*
X83011515Y-73254524D01*
X82854524Y-73411515D01*
X82731177Y-73596118D01*
X82646213Y-73801237D01*
X82602900Y-74018990D01*
X27298141Y-74018990D01*
X28609183Y-72707949D01*
X28625532Y-72694532D01*
X28679092Y-72629269D01*
X28718890Y-72554811D01*
X28743398Y-72474020D01*
X28749600Y-72411048D01*
X28749600Y-72411047D01*
X28751673Y-72390001D01*
X28749600Y-72368955D01*
X28749600Y-71478990D01*
X82602900Y-71478990D01*
X82602900Y-71701010D01*
X82646213Y-71918763D01*
X82731177Y-72123882D01*
X82854524Y-72308485D01*
X83011515Y-72465476D01*
X83196118Y-72588823D01*
X83401237Y-72673787D01*
X83618990Y-72717100D01*
X83841010Y-72717100D01*
X84058763Y-72673787D01*
X84263882Y-72588823D01*
X84448485Y-72465476D01*
X84605476Y-72308485D01*
X84728823Y-72123882D01*
X84813787Y-71918763D01*
X84857100Y-71701010D01*
X84857100Y-71478990D01*
X84813787Y-71261237D01*
X84728823Y-71056118D01*
X84605476Y-70871515D01*
X84448485Y-70714524D01*
X84263882Y-70591177D01*
X84058763Y-70506213D01*
X83841010Y-70462900D01*
X83618990Y-70462900D01*
X83401237Y-70506213D01*
X83196118Y-70591177D01*
X83011515Y-70714524D01*
X82854524Y-70871515D01*
X82731177Y-71056118D01*
X82646213Y-71261237D01*
X82602900Y-71478990D01*
X28749600Y-71478990D01*
X28749600Y-70365411D01*
X28765512Y-70341597D01*
X28803324Y-70250311D01*
X28822600Y-70153403D01*
X28822600Y-70054597D01*
X28803324Y-69957689D01*
X28765512Y-69866403D01*
X28710618Y-69784249D01*
X28640751Y-69714382D01*
X28558597Y-69659488D01*
X28467311Y-69621676D01*
X28370403Y-69602400D01*
X28271597Y-69602400D01*
X28174689Y-69621676D01*
X28083403Y-69659488D01*
X28001249Y-69714382D01*
X27931382Y-69784249D01*
X27876488Y-69866403D01*
X27860600Y-69904760D01*
X27860600Y-68938990D01*
X82602900Y-68938990D01*
X82602900Y-69161010D01*
X82646213Y-69378763D01*
X82731177Y-69583882D01*
X82854524Y-69768485D01*
X83011515Y-69925476D01*
X83196118Y-70048823D01*
X83401237Y-70133787D01*
X83618990Y-70177100D01*
X83841010Y-70177100D01*
X84058763Y-70133787D01*
X84263882Y-70048823D01*
X84448485Y-69925476D01*
X84605476Y-69768485D01*
X84728823Y-69583882D01*
X84813787Y-69378763D01*
X84857100Y-69161010D01*
X84857100Y-68938990D01*
X84813787Y-68721237D01*
X84728823Y-68516118D01*
X84605476Y-68331515D01*
X84448485Y-68174524D01*
X84263882Y-68051177D01*
X84058763Y-67966213D01*
X83841010Y-67922900D01*
X83618990Y-67922900D01*
X83401237Y-67966213D01*
X83196118Y-68051177D01*
X83011515Y-68174524D01*
X82854524Y-68331515D01*
X82731177Y-68516118D01*
X82646213Y-68721237D01*
X82602900Y-68938990D01*
X27860600Y-68938990D01*
X27860600Y-68376531D01*
X28439220Y-67797912D01*
X28467311Y-67792324D01*
X28558597Y-67754512D01*
X28640751Y-67699618D01*
X28710618Y-67629751D01*
X28765512Y-67547597D01*
X28803324Y-67456311D01*
X28822600Y-67359403D01*
X28822600Y-67260597D01*
X28803324Y-67163689D01*
X28765512Y-67072403D01*
X28710618Y-66990249D01*
X28640751Y-66920382D01*
X28558597Y-66865488D01*
X28467311Y-66827676D01*
X28370403Y-66808400D01*
X28271597Y-66808400D01*
X28174689Y-66827676D01*
X28083403Y-66865488D01*
X28001249Y-66920382D01*
X27931382Y-66990249D01*
X27876488Y-67072403D01*
X27838676Y-67163689D01*
X27833088Y-67191780D01*
X27143819Y-67881050D01*
X27127469Y-67894468D01*
X27073909Y-67959731D01*
X27034111Y-68034189D01*
X27009602Y-68114980D01*
X27001327Y-68199000D01*
X27003401Y-68220058D01*
X27003400Y-72085468D01*
X23444469Y-75644400D01*
X14158600Y-75644400D01*
X14158600Y-75172433D01*
X14263882Y-75128823D01*
X14448485Y-75005476D01*
X14605476Y-74848485D01*
X14728823Y-74663882D01*
X14813787Y-74458763D01*
X14857100Y-74241010D01*
X14857100Y-74018990D01*
X14813787Y-73801237D01*
X14728823Y-73596118D01*
X14605476Y-73411515D01*
X14448485Y-73254524D01*
X14263882Y-73131177D01*
X14058763Y-73046213D01*
X13841010Y-73002900D01*
X13618990Y-73002900D01*
X13401237Y-73046213D01*
X13196118Y-73131177D01*
X13011515Y-73254524D01*
X12854524Y-73411515D01*
X12731177Y-73596118D01*
X12646213Y-73801237D01*
X12602900Y-74018990D01*
X12602900Y-74241010D01*
X12646213Y-74458763D01*
X12731177Y-74663882D01*
X12854524Y-74848485D01*
X13011515Y-75005476D01*
X13196118Y-75128823D01*
X13301401Y-75172433D01*
X13301401Y-75811942D01*
X13299327Y-75833000D01*
X13307602Y-75917020D01*
X13329432Y-75988979D01*
X13332111Y-75997811D01*
X13371909Y-76072269D01*
X13425469Y-76137532D01*
X13441820Y-76150951D01*
X13570270Y-76279400D01*
X12115531Y-76279400D01*
X11096600Y-75260469D01*
X11096600Y-72313531D01*
X11391532Y-72018600D01*
X12687567Y-72018600D01*
X12731177Y-72123882D01*
X12854524Y-72308485D01*
X13011515Y-72465476D01*
X13196118Y-72588823D01*
X13401237Y-72673787D01*
X13618990Y-72717100D01*
X13841010Y-72717100D01*
X14058763Y-72673787D01*
X14263882Y-72588823D01*
X14448485Y-72465476D01*
X14605476Y-72308485D01*
X14728823Y-72123882D01*
X14813787Y-71918763D01*
X14857100Y-71701010D01*
X14857100Y-71478990D01*
X14813787Y-71261237D01*
X14728823Y-71056118D01*
X14605476Y-70871515D01*
X14448485Y-70714524D01*
X14263882Y-70591177D01*
X14058763Y-70506213D01*
X13841010Y-70462900D01*
X13618990Y-70462900D01*
X13401237Y-70506213D01*
X13196118Y-70591177D01*
X13011515Y-70714524D01*
X12854524Y-70871515D01*
X12731177Y-71056118D01*
X12687567Y-71161400D01*
X11235048Y-71161400D01*
X11214000Y-71159327D01*
X11129979Y-71167602D01*
X11105471Y-71175037D01*
X11049189Y-71192110D01*
X10974731Y-71231908D01*
X10909468Y-71285468D01*
X10896049Y-71301819D01*
X10379824Y-71818045D01*
X10363468Y-71831468D01*
X10309908Y-71896732D01*
X10270110Y-71971190D01*
X10263764Y-71992111D01*
X10245602Y-72051980D01*
X10237327Y-72136000D01*
X351600Y-72136000D01*
X351600Y-68938990D01*
X12602900Y-68938990D01*
X12602900Y-69161010D01*
X12646213Y-69378763D01*
X12731177Y-69583882D01*
X12854524Y-69768485D01*
X13011515Y-69925476D01*
X13196118Y-70048823D01*
X13401237Y-70133787D01*
X13618990Y-70177100D01*
X13841010Y-70177100D01*
X14058763Y-70133787D01*
X14263882Y-70048823D01*
X14448485Y-69925476D01*
X14605476Y-69768485D01*
X14728823Y-69583882D01*
X14813787Y-69378763D01*
X14857100Y-69161010D01*
X14857100Y-68938990D01*
X14813787Y-68721237D01*
X14728823Y-68516118D01*
X14605476Y-68331515D01*
X14448485Y-68174524D01*
X14263882Y-68051177D01*
X14058763Y-67966213D01*
X13841010Y-67922900D01*
X13618990Y-67922900D01*
X13401237Y-67966213D01*
X13196118Y-68051177D01*
X13011515Y-68174524D01*
X12854524Y-68331515D01*
X12731177Y-68516118D01*
X12646213Y-68721237D01*
X12602900Y-68938990D01*
X351600Y-68938990D01*
X351600Y-66398990D01*
X12602900Y-66398990D01*
X12602900Y-66621010D01*
X12646213Y-66838763D01*
X12731177Y-67043882D01*
X12854524Y-67228485D01*
X13011515Y-67385476D01*
X13196118Y-67508823D01*
X13401237Y-67593787D01*
X13618990Y-67637100D01*
X13841010Y-67637100D01*
X14058763Y-67593787D01*
X14263882Y-67508823D01*
X14448485Y-67385476D01*
X14605476Y-67228485D01*
X14728823Y-67043882D01*
X14813787Y-66838763D01*
X14857100Y-66621010D01*
X14857100Y-66398990D01*
X82602900Y-66398990D01*
X82602900Y-66621010D01*
X82646213Y-66838763D01*
X82731177Y-67043882D01*
X82854524Y-67228485D01*
X83011515Y-67385476D01*
X83196118Y-67508823D01*
X83401237Y-67593787D01*
X83618990Y-67637100D01*
X83841010Y-67637100D01*
X84058763Y-67593787D01*
X84263882Y-67508823D01*
X84448485Y-67385476D01*
X84605476Y-67228485D01*
X84728823Y-67043882D01*
X84813787Y-66838763D01*
X84857100Y-66621010D01*
X84857100Y-66398990D01*
X84813787Y-66181237D01*
X84728823Y-65976118D01*
X84605476Y-65791515D01*
X84448485Y-65634524D01*
X84263882Y-65511177D01*
X84058763Y-65426213D01*
X83841010Y-65382900D01*
X83618990Y-65382900D01*
X83401237Y-65426213D01*
X83196118Y-65511177D01*
X83011515Y-65634524D01*
X82854524Y-65791515D01*
X82731177Y-65976118D01*
X82646213Y-66181237D01*
X82602900Y-66398990D01*
X14857100Y-66398990D01*
X14813787Y-66181237D01*
X14728823Y-65976118D01*
X14605476Y-65791515D01*
X14448485Y-65634524D01*
X14263882Y-65511177D01*
X14058763Y-65426213D01*
X13841010Y-65382900D01*
X13618990Y-65382900D01*
X13401237Y-65426213D01*
X13196118Y-65511177D01*
X13011515Y-65634524D01*
X12854524Y-65791515D01*
X12731177Y-65976118D01*
X12646213Y-66181237D01*
X12602900Y-66398990D01*
X351600Y-66398990D01*
X351600Y-63858990D01*
X12602900Y-63858990D01*
X12602900Y-64081010D01*
X12646213Y-64298763D01*
X12731177Y-64503882D01*
X12854524Y-64688485D01*
X13011515Y-64845476D01*
X13196118Y-64968823D01*
X13401237Y-65053787D01*
X13618990Y-65097100D01*
X13841010Y-65097100D01*
X14058763Y-65053787D01*
X14263882Y-64968823D01*
X14448485Y-64845476D01*
X14605476Y-64688485D01*
X14728823Y-64503882D01*
X14813787Y-64298763D01*
X14857100Y-64081010D01*
X14857100Y-63858990D01*
X82602900Y-63858990D01*
X82602900Y-64081010D01*
X82646213Y-64298763D01*
X82731177Y-64503882D01*
X82854524Y-64688485D01*
X83011515Y-64845476D01*
X83196118Y-64968823D01*
X83401237Y-65053787D01*
X83618990Y-65097100D01*
X83841010Y-65097100D01*
X84058763Y-65053787D01*
X84263882Y-64968823D01*
X84448485Y-64845476D01*
X84605476Y-64688485D01*
X84728823Y-64503882D01*
X84813787Y-64298763D01*
X84857100Y-64081010D01*
X84857100Y-63858990D01*
X84813787Y-63641237D01*
X84728823Y-63436118D01*
X84605476Y-63251515D01*
X84448485Y-63094524D01*
X84263882Y-62971177D01*
X84058763Y-62886213D01*
X83841010Y-62842900D01*
X83618990Y-62842900D01*
X83401237Y-62886213D01*
X83196118Y-62971177D01*
X83011515Y-63094524D01*
X82854524Y-63251515D01*
X82731177Y-63436118D01*
X82646213Y-63641237D01*
X82602900Y-63858990D01*
X14857100Y-63858990D01*
X14813787Y-63641237D01*
X14728823Y-63436118D01*
X14605476Y-63251515D01*
X14448485Y-63094524D01*
X14263882Y-62971177D01*
X14058763Y-62886213D01*
X13841010Y-62842900D01*
X13618990Y-62842900D01*
X13401237Y-62886213D01*
X13196118Y-62971177D01*
X13011515Y-63094524D01*
X12854524Y-63251515D01*
X12731177Y-63436118D01*
X12646213Y-63641237D01*
X12602900Y-63858990D01*
X351600Y-63858990D01*
X351600Y-61318990D01*
X12602900Y-61318990D01*
X12602900Y-61541010D01*
X12646213Y-61758763D01*
X12731177Y-61963882D01*
X12854524Y-62148485D01*
X13011515Y-62305476D01*
X13196118Y-62428823D01*
X13401237Y-62513787D01*
X13618990Y-62557100D01*
X13841010Y-62557100D01*
X14058763Y-62513787D01*
X14263882Y-62428823D01*
X14448485Y-62305476D01*
X14605476Y-62148485D01*
X14728823Y-61963882D01*
X14813787Y-61758763D01*
X14857100Y-61541010D01*
X14857100Y-61318990D01*
X14813787Y-61101237D01*
X14728823Y-60896118D01*
X14605476Y-60711515D01*
X14448485Y-60554524D01*
X14263882Y-60431177D01*
X14058763Y-60346213D01*
X13841010Y-60302900D01*
X13618990Y-60302900D01*
X13401237Y-60346213D01*
X13196118Y-60431177D01*
X13011515Y-60554524D01*
X12854524Y-60711515D01*
X12731177Y-60896118D01*
X12646213Y-61101237D01*
X12602900Y-61318990D01*
X351600Y-61318990D01*
X351600Y-58778990D01*
X12602900Y-58778990D01*
X12602900Y-59001010D01*
X12646213Y-59218763D01*
X12731177Y-59423882D01*
X12854524Y-59608485D01*
X13011515Y-59765476D01*
X13196118Y-59888823D01*
X13401237Y-59973787D01*
X13618990Y-60017100D01*
X13841010Y-60017100D01*
X14058763Y-59973787D01*
X14263882Y-59888823D01*
X14448485Y-59765476D01*
X14605476Y-59608485D01*
X14728823Y-59423882D01*
X14813787Y-59218763D01*
X14857100Y-59001010D01*
X14857100Y-58778990D01*
X14813787Y-58561237D01*
X14728823Y-58356118D01*
X14605476Y-58171515D01*
X14448485Y-58014524D01*
X14263882Y-57891177D01*
X14058763Y-57806213D01*
X13841010Y-57762900D01*
X13618990Y-57762900D01*
X13401237Y-57806213D01*
X13196118Y-57891177D01*
X13011515Y-58014524D01*
X12854524Y-58171515D01*
X12731177Y-58356118D01*
X12646213Y-58561237D01*
X12602900Y-58778990D01*
X351600Y-58778990D01*
X351600Y-56238990D01*
X12602900Y-56238990D01*
X12602900Y-56461010D01*
X12646213Y-56678763D01*
X12731177Y-56883882D01*
X12854524Y-57068485D01*
X13011515Y-57225476D01*
X13196118Y-57348823D01*
X13401237Y-57433787D01*
X13618990Y-57477100D01*
X13841010Y-57477100D01*
X14058763Y-57433787D01*
X14263882Y-57348823D01*
X14448485Y-57225476D01*
X14605476Y-57068485D01*
X14728823Y-56883882D01*
X14813787Y-56678763D01*
X14857100Y-56461010D01*
X14857100Y-56238990D01*
X14813787Y-56021237D01*
X14728823Y-55816118D01*
X14605476Y-55631515D01*
X14448485Y-55474524D01*
X14263882Y-55351177D01*
X14058763Y-55266213D01*
X13841010Y-55222900D01*
X13618990Y-55222900D01*
X13401237Y-55266213D01*
X13196118Y-55351177D01*
X13011515Y-55474524D01*
X12854524Y-55631515D01*
X12731177Y-55816118D01*
X12646213Y-56021237D01*
X12602900Y-56238990D01*
X351600Y-56238990D01*
X351600Y-53698990D01*
X12602900Y-53698990D01*
X12602900Y-53921010D01*
X12646213Y-54138763D01*
X12731177Y-54343882D01*
X12854524Y-54528485D01*
X13011515Y-54685476D01*
X13196118Y-54808823D01*
X13401237Y-54893787D01*
X13618990Y-54937100D01*
X13841010Y-54937100D01*
X14058763Y-54893787D01*
X14263882Y-54808823D01*
X14448485Y-54685476D01*
X14605476Y-54528485D01*
X14728823Y-54343882D01*
X14813787Y-54138763D01*
X14857100Y-53921010D01*
X14857100Y-53698990D01*
X14813787Y-53481237D01*
X14728823Y-53276118D01*
X14605476Y-53091515D01*
X14448485Y-52934524D01*
X14263882Y-52811177D01*
X14058763Y-52726213D01*
X13841010Y-52682900D01*
X13618990Y-52682900D01*
X13401237Y-52726213D01*
X13196118Y-52811177D01*
X13011515Y-52934524D01*
X12854524Y-53091515D01*
X12731177Y-53276118D01*
X12646213Y-53481237D01*
X12602900Y-53698990D01*
X351600Y-53698990D01*
X351600Y-51158990D01*
X12602900Y-51158990D01*
X12602900Y-51381010D01*
X12646213Y-51598763D01*
X12731177Y-51803882D01*
X12854524Y-51988485D01*
X13011515Y-52145476D01*
X13196118Y-52268823D01*
X13401237Y-52353787D01*
X13618990Y-52397100D01*
X13841010Y-52397100D01*
X14058763Y-52353787D01*
X14263882Y-52268823D01*
X14448485Y-52145476D01*
X14605476Y-51988485D01*
X14728823Y-51803882D01*
X14813787Y-51598763D01*
X14857100Y-51381010D01*
X14857100Y-51158990D01*
X14813787Y-50941237D01*
X14728823Y-50736118D01*
X14605476Y-50551515D01*
X14448485Y-50394524D01*
X14263882Y-50271177D01*
X14058763Y-50186213D01*
X13841010Y-50142900D01*
X13618990Y-50142900D01*
X13401237Y-50186213D01*
X13196118Y-50271177D01*
X13011515Y-50394524D01*
X12854524Y-50551515D01*
X12731177Y-50736118D01*
X12646213Y-50941237D01*
X12602900Y-51158990D01*
X351600Y-51158990D01*
X351600Y-48618990D01*
X12602900Y-48618990D01*
X12602900Y-48841010D01*
X12646213Y-49058763D01*
X12731177Y-49263882D01*
X12854524Y-49448485D01*
X13011515Y-49605476D01*
X13196118Y-49728823D01*
X13401237Y-49813787D01*
X13618990Y-49857100D01*
X13841010Y-49857100D01*
X14058763Y-49813787D01*
X14263882Y-49728823D01*
X14448485Y-49605476D01*
X14605476Y-49448485D01*
X14728823Y-49263882D01*
X14813787Y-49058763D01*
X14857100Y-48841010D01*
X14857100Y-48618990D01*
X14813787Y-48401237D01*
X14728823Y-48196118D01*
X14605476Y-48011515D01*
X14448485Y-47854524D01*
X14263882Y-47731177D01*
X14058763Y-47646213D01*
X13841010Y-47602900D01*
X13618990Y-47602900D01*
X13401237Y-47646213D01*
X13196118Y-47731177D01*
X13011515Y-47854524D01*
X12854524Y-48011515D01*
X12731177Y-48196118D01*
X12646213Y-48401237D01*
X12602900Y-48618990D01*
X351600Y-48618990D01*
X351600Y-46078990D01*
X12602900Y-46078990D01*
X12602900Y-46301010D01*
X12646213Y-46518763D01*
X12731177Y-46723882D01*
X12854524Y-46908485D01*
X13011515Y-47065476D01*
X13196118Y-47188823D01*
X13401237Y-47273787D01*
X13618990Y-47317100D01*
X13841010Y-47317100D01*
X14058763Y-47273787D01*
X14263882Y-47188823D01*
X14448485Y-47065476D01*
X14605476Y-46908485D01*
X14728823Y-46723882D01*
X14813787Y-46518763D01*
X14857100Y-46301010D01*
X14857100Y-46078990D01*
X14813787Y-45861237D01*
X14728823Y-45656118D01*
X14605476Y-45471515D01*
X14448485Y-45314524D01*
X14263882Y-45191177D01*
X14058763Y-45106213D01*
X13841010Y-45062900D01*
X13618990Y-45062900D01*
X13401237Y-45106213D01*
X13196118Y-45191177D01*
X13011515Y-45314524D01*
X12854524Y-45471515D01*
X12731177Y-45656118D01*
X12646213Y-45861237D01*
X12602900Y-46078990D01*
X351600Y-46078990D01*
X351600Y-43538990D01*
X12602900Y-43538990D01*
X12602900Y-43761010D01*
X12646213Y-43978763D01*
X12731177Y-44183882D01*
X12854524Y-44368485D01*
X13011515Y-44525476D01*
X13196118Y-44648823D01*
X13401237Y-44733787D01*
X13618990Y-44777100D01*
X13841010Y-44777100D01*
X14058763Y-44733787D01*
X14263882Y-44648823D01*
X14448485Y-44525476D01*
X14605476Y-44368485D01*
X14728823Y-44183882D01*
X14813787Y-43978763D01*
X14857100Y-43761010D01*
X14857100Y-43538990D01*
X14813787Y-43321237D01*
X14728823Y-43116118D01*
X14605476Y-42931515D01*
X14448485Y-42774524D01*
X14263882Y-42651177D01*
X14058763Y-42566213D01*
X13841010Y-42522900D01*
X13618990Y-42522900D01*
X13401237Y-42566213D01*
X13196118Y-42651177D01*
X13011515Y-42774524D01*
X12854524Y-42931515D01*
X12731177Y-43116118D01*
X12646213Y-43321237D01*
X12602900Y-43538990D01*
X351600Y-43538990D01*
X351600Y-40998990D01*
X12602900Y-40998990D01*
X12602900Y-41221010D01*
X12646213Y-41438763D01*
X12731177Y-41643882D01*
X12854524Y-41828485D01*
X13011515Y-41985476D01*
X13196118Y-42108823D01*
X13401237Y-42193787D01*
X13618990Y-42237100D01*
X13841010Y-42237100D01*
X14058763Y-42193787D01*
X14263882Y-42108823D01*
X14319737Y-42071502D01*
X36198400Y-42071502D01*
X36198400Y-42288498D01*
X36240734Y-42501325D01*
X36323775Y-42701803D01*
X36444332Y-42882229D01*
X36597771Y-43035668D01*
X36778197Y-43156225D01*
X36978675Y-43239266D01*
X37191502Y-43281600D01*
X37408498Y-43281600D01*
X37621325Y-43239266D01*
X37821803Y-43156225D01*
X38002229Y-43035668D01*
X38155668Y-42882229D01*
X38276225Y-42701803D01*
X38359266Y-42501325D01*
X38398400Y-42304585D01*
X38398400Y-44595415D01*
X38359266Y-44398675D01*
X38276225Y-44198197D01*
X38155668Y-44017771D01*
X38002229Y-43864332D01*
X37821803Y-43743775D01*
X37621325Y-43660734D01*
X37408498Y-43618400D01*
X37191502Y-43618400D01*
X36978675Y-43660734D01*
X36778197Y-43743775D01*
X36597771Y-43864332D01*
X36444332Y-44017771D01*
X36323775Y-44198197D01*
X36240734Y-44398675D01*
X36198400Y-44611502D01*
X36198400Y-44828498D01*
X36240734Y-45041325D01*
X36323775Y-45241803D01*
X36444332Y-45422229D01*
X36597771Y-45575668D01*
X36778197Y-45696225D01*
X36978675Y-45779266D01*
X37191502Y-45821600D01*
X37408498Y-45821600D01*
X37621325Y-45779266D01*
X37821803Y-45696225D01*
X38002229Y-45575668D01*
X38155668Y-45422229D01*
X38276225Y-45241803D01*
X38359266Y-45041325D01*
X38398400Y-44844585D01*
X38398400Y-63750000D01*
X38400352Y-63769821D01*
X38406134Y-63788881D01*
X38415523Y-63806446D01*
X38428158Y-63821842D01*
X38443554Y-63834477D01*
X38461119Y-63843866D01*
X38480179Y-63849648D01*
X38500000Y-63851600D01*
X61500000Y-63851600D01*
X61519821Y-63849648D01*
X61538881Y-63843866D01*
X61556446Y-63834477D01*
X61571842Y-63821842D01*
X61584477Y-63806446D01*
X61593866Y-63788881D01*
X61599648Y-63769821D01*
X61601600Y-63750000D01*
X61601600Y-61318990D01*
X82602900Y-61318990D01*
X82602900Y-61541010D01*
X82646213Y-61758763D01*
X82731177Y-61963882D01*
X82854524Y-62148485D01*
X83011515Y-62305476D01*
X83196118Y-62428823D01*
X83401237Y-62513787D01*
X83618990Y-62557100D01*
X83841010Y-62557100D01*
X84058763Y-62513787D01*
X84263882Y-62428823D01*
X84448485Y-62305476D01*
X84605476Y-62148485D01*
X84728823Y-61963882D01*
X84813787Y-61758763D01*
X84857100Y-61541010D01*
X84857100Y-61318990D01*
X85142900Y-61318990D01*
X85142900Y-61541010D01*
X85186213Y-61758763D01*
X85271177Y-61963882D01*
X85394524Y-62148485D01*
X85551515Y-62305476D01*
X85736118Y-62428823D01*
X85941237Y-62513787D01*
X86158990Y-62557100D01*
X86381010Y-62557100D01*
X86598763Y-62513787D01*
X86803882Y-62428823D01*
X86988485Y-62305476D01*
X87145476Y-62148485D01*
X87268823Y-61963882D01*
X87353787Y-61758763D01*
X87397100Y-61541010D01*
X87397100Y-61318990D01*
X87353787Y-61101237D01*
X87268823Y-60896118D01*
X87145476Y-60711515D01*
X86988485Y-60554524D01*
X86803882Y-60431177D01*
X86598763Y-60346213D01*
X86381010Y-60302900D01*
X86158990Y-60302900D01*
X85941237Y-60346213D01*
X85736118Y-60431177D01*
X85551515Y-60554524D01*
X85394524Y-60711515D01*
X85271177Y-60896118D01*
X85186213Y-61101237D01*
X85142900Y-61318990D01*
X84857100Y-61318990D01*
X84813787Y-61101237D01*
X84728823Y-60896118D01*
X84605476Y-60711515D01*
X84448485Y-60554524D01*
X84263882Y-60431177D01*
X84058763Y-60346213D01*
X83841010Y-60302900D01*
X83618990Y-60302900D01*
X83401237Y-60346213D01*
X83196118Y-60431177D01*
X83011515Y-60554524D01*
X82854524Y-60711515D01*
X82731177Y-60896118D01*
X82646213Y-61101237D01*
X82602900Y-61318990D01*
X61601600Y-61318990D01*
X61601600Y-58778990D01*
X82602900Y-58778990D01*
X82602900Y-59001010D01*
X82646213Y-59218763D01*
X82731177Y-59423882D01*
X82854524Y-59608485D01*
X83011515Y-59765476D01*
X83196118Y-59888823D01*
X83401237Y-59973787D01*
X83618990Y-60017100D01*
X83841010Y-60017100D01*
X84058763Y-59973787D01*
X84263882Y-59888823D01*
X84448485Y-59765476D01*
X84605476Y-59608485D01*
X84728823Y-59423882D01*
X84813787Y-59218763D01*
X84857100Y-59001010D01*
X84857100Y-58778990D01*
X84813787Y-58561237D01*
X84728823Y-58356118D01*
X84605476Y-58171515D01*
X84448485Y-58014524D01*
X84263882Y-57891177D01*
X84058763Y-57806213D01*
X83841010Y-57762900D01*
X83618990Y-57762900D01*
X83401237Y-57806213D01*
X83196118Y-57891177D01*
X83011515Y-58014524D01*
X82854524Y-58171515D01*
X82731177Y-58356118D01*
X82646213Y-58561237D01*
X82602900Y-58778990D01*
X61601600Y-58778990D01*
X61601600Y-56238990D01*
X82602900Y-56238990D01*
X82602900Y-56461010D01*
X82646213Y-56678763D01*
X82731177Y-56883882D01*
X82854524Y-57068485D01*
X83011515Y-57225476D01*
X83196118Y-57348823D01*
X83401237Y-57433787D01*
X83618990Y-57477100D01*
X83841010Y-57477100D01*
X84058763Y-57433787D01*
X84263882Y-57348823D01*
X84448485Y-57225476D01*
X84605476Y-57068485D01*
X84728823Y-56883882D01*
X84813787Y-56678763D01*
X84857100Y-56461010D01*
X84857100Y-56238990D01*
X84813787Y-56021237D01*
X84728823Y-55816118D01*
X84605476Y-55631515D01*
X84448485Y-55474524D01*
X84263882Y-55351177D01*
X84058763Y-55266213D01*
X83841010Y-55222900D01*
X83618990Y-55222900D01*
X83401237Y-55266213D01*
X83196118Y-55351177D01*
X83011515Y-55474524D01*
X82854524Y-55631515D01*
X82731177Y-55816118D01*
X82646213Y-56021237D01*
X82602900Y-56238990D01*
X61601600Y-56238990D01*
X61601600Y-53698990D01*
X82602900Y-53698990D01*
X82602900Y-53921010D01*
X82646213Y-54138763D01*
X82731177Y-54343882D01*
X82854524Y-54528485D01*
X83011515Y-54685476D01*
X83196118Y-54808823D01*
X83401237Y-54893787D01*
X83618990Y-54937100D01*
X83841010Y-54937100D01*
X84058763Y-54893787D01*
X84263882Y-54808823D01*
X84448485Y-54685476D01*
X84605476Y-54528485D01*
X84728823Y-54343882D01*
X84813787Y-54138763D01*
X84857100Y-53921010D01*
X84857100Y-53698990D01*
X84813787Y-53481237D01*
X84728823Y-53276118D01*
X84605476Y-53091515D01*
X84448485Y-52934524D01*
X84263882Y-52811177D01*
X84058763Y-52726213D01*
X83841010Y-52682900D01*
X83618990Y-52682900D01*
X83401237Y-52726213D01*
X83196118Y-52811177D01*
X83011515Y-52934524D01*
X82854524Y-53091515D01*
X82731177Y-53276118D01*
X82646213Y-53481237D01*
X82602900Y-53698990D01*
X61601600Y-53698990D01*
X61601600Y-51158990D01*
X82602900Y-51158990D01*
X82602900Y-51381010D01*
X82646213Y-51598763D01*
X82731177Y-51803882D01*
X82854524Y-51988485D01*
X83011515Y-52145476D01*
X83196118Y-52268823D01*
X83401237Y-52353787D01*
X83618990Y-52397100D01*
X83841010Y-52397100D01*
X84058763Y-52353787D01*
X84263882Y-52268823D01*
X84448485Y-52145476D01*
X84605476Y-51988485D01*
X84728823Y-51803882D01*
X84813787Y-51598763D01*
X84857100Y-51381010D01*
X84857100Y-51158990D01*
X84813787Y-50941237D01*
X84728823Y-50736118D01*
X84605476Y-50551515D01*
X84448485Y-50394524D01*
X84263882Y-50271177D01*
X84058763Y-50186213D01*
X83841010Y-50142900D01*
X83618990Y-50142900D01*
X83401237Y-50186213D01*
X83196118Y-50271177D01*
X83011515Y-50394524D01*
X82854524Y-50551515D01*
X82731177Y-50736118D01*
X82646213Y-50941237D01*
X82602900Y-51158990D01*
X61601600Y-51158990D01*
X61601600Y-48618990D01*
X82602900Y-48618990D01*
X82602900Y-48841010D01*
X82646213Y-49058763D01*
X82731177Y-49263882D01*
X82854524Y-49448485D01*
X83011515Y-49605476D01*
X83196118Y-49728823D01*
X83401237Y-49813787D01*
X83618990Y-49857100D01*
X83841010Y-49857100D01*
X84058763Y-49813787D01*
X84263882Y-49728823D01*
X84448485Y-49605476D01*
X84605476Y-49448485D01*
X84728823Y-49263882D01*
X84813787Y-49058763D01*
X84857100Y-48841010D01*
X84857100Y-48618990D01*
X85142900Y-48618990D01*
X85142900Y-48841010D01*
X85186213Y-49058763D01*
X85271177Y-49263882D01*
X85394524Y-49448485D01*
X85551515Y-49605476D01*
X85736118Y-49728823D01*
X85941237Y-49813787D01*
X86158990Y-49857100D01*
X86381010Y-49857100D01*
X86598763Y-49813787D01*
X86803882Y-49728823D01*
X86988485Y-49605476D01*
X87145476Y-49448485D01*
X87268823Y-49263882D01*
X87353787Y-49058763D01*
X87397100Y-48841010D01*
X87397100Y-48618990D01*
X87353787Y-48401237D01*
X87268823Y-48196118D01*
X87145476Y-48011515D01*
X86988485Y-47854524D01*
X86803882Y-47731177D01*
X86598763Y-47646213D01*
X86381010Y-47602900D01*
X86158990Y-47602900D01*
X85941237Y-47646213D01*
X85736118Y-47731177D01*
X85551515Y-47854524D01*
X85394524Y-48011515D01*
X85271177Y-48196118D01*
X85186213Y-48401237D01*
X85142900Y-48618990D01*
X84857100Y-48618990D01*
X84813787Y-48401237D01*
X84728823Y-48196118D01*
X84605476Y-48011515D01*
X84448485Y-47854524D01*
X84263882Y-47731177D01*
X84058763Y-47646213D01*
X83841010Y-47602900D01*
X83618990Y-47602900D01*
X83401237Y-47646213D01*
X83196118Y-47731177D01*
X83011515Y-47854524D01*
X82854524Y-48011515D01*
X82731177Y-48196118D01*
X82646213Y-48401237D01*
X82602900Y-48618990D01*
X61601600Y-48618990D01*
X61601600Y-46480000D01*
X61616941Y-46480000D01*
X61616941Y-48040000D01*
X61622764Y-48099124D01*
X61640010Y-48155976D01*
X61668016Y-48208371D01*
X61705705Y-48254295D01*
X61751629Y-48291984D01*
X61804024Y-48319990D01*
X61860876Y-48337236D01*
X61920000Y-48343059D01*
X63480000Y-48343059D01*
X63539124Y-48337236D01*
X63595976Y-48319990D01*
X63648371Y-48291984D01*
X63694295Y-48254295D01*
X63731984Y-48208371D01*
X63759990Y-48155976D01*
X63777236Y-48099124D01*
X63783059Y-48040000D01*
X63783059Y-46480000D01*
X63777236Y-46420876D01*
X63759990Y-46364024D01*
X63731984Y-46311629D01*
X63694295Y-46265705D01*
X63648371Y-46228016D01*
X63595976Y-46200010D01*
X63539124Y-46182764D01*
X63480000Y-46176941D01*
X61920000Y-46176941D01*
X61860876Y-46182764D01*
X61804024Y-46200010D01*
X61751629Y-46228016D01*
X61705705Y-46265705D01*
X61668016Y-46311629D01*
X61640010Y-46364024D01*
X61622764Y-46420876D01*
X61616941Y-46480000D01*
X61601600Y-46480000D01*
X61601600Y-46078990D01*
X82602900Y-46078990D01*
X82602900Y-46301010D01*
X82646213Y-46518763D01*
X82731177Y-46723882D01*
X82854524Y-46908485D01*
X83011515Y-47065476D01*
X83196118Y-47188823D01*
X83401237Y-47273787D01*
X83618990Y-47317100D01*
X83841010Y-47317100D01*
X84058763Y-47273787D01*
X84263882Y-47188823D01*
X84448485Y-47065476D01*
X84605476Y-46908485D01*
X84728823Y-46723882D01*
X84813787Y-46518763D01*
X84857100Y-46301010D01*
X84857100Y-46078990D01*
X84813787Y-45861237D01*
X84728823Y-45656118D01*
X84605476Y-45471515D01*
X84448485Y-45314524D01*
X84263882Y-45191177D01*
X84058763Y-45106213D01*
X83841010Y-45062900D01*
X83618990Y-45062900D01*
X83401237Y-45106213D01*
X83196118Y-45191177D01*
X83011515Y-45314524D01*
X82854524Y-45471515D01*
X82731177Y-45656118D01*
X82646213Y-45861237D01*
X82602900Y-46078990D01*
X61601600Y-46078990D01*
X61601600Y-44844585D01*
X61640734Y-45041325D01*
X61723775Y-45241803D01*
X61844332Y-45422229D01*
X61997771Y-45575668D01*
X62178197Y-45696225D01*
X62378675Y-45779266D01*
X62591502Y-45821600D01*
X62808498Y-45821600D01*
X63021325Y-45779266D01*
X63221803Y-45696225D01*
X63402229Y-45575668D01*
X63555668Y-45422229D01*
X63676225Y-45241803D01*
X63759266Y-45041325D01*
X63801600Y-44828498D01*
X63801600Y-44611502D01*
X63759266Y-44398675D01*
X63676225Y-44198197D01*
X63555668Y-44017771D01*
X63402229Y-43864332D01*
X63221803Y-43743775D01*
X63021325Y-43660734D01*
X62808498Y-43618400D01*
X62591502Y-43618400D01*
X62378675Y-43660734D01*
X62178197Y-43743775D01*
X61997771Y-43864332D01*
X61844332Y-44017771D01*
X61723775Y-44198197D01*
X61640734Y-44398675D01*
X61601600Y-44595415D01*
X61601600Y-43538990D01*
X82602900Y-43538990D01*
X82602900Y-43761010D01*
X82646213Y-43978763D01*
X82731177Y-44183882D01*
X82854524Y-44368485D01*
X83011515Y-44525476D01*
X83196118Y-44648823D01*
X83401237Y-44733787D01*
X83618990Y-44777100D01*
X83841010Y-44777100D01*
X84058763Y-44733787D01*
X84263882Y-44648823D01*
X84448485Y-44525476D01*
X84605476Y-44368485D01*
X84728823Y-44183882D01*
X84813787Y-43978763D01*
X84857100Y-43761010D01*
X84857100Y-43538990D01*
X85142900Y-43538990D01*
X85142900Y-43761010D01*
X85186213Y-43978763D01*
X85271177Y-44183882D01*
X85394524Y-44368485D01*
X85551515Y-44525476D01*
X85736118Y-44648823D01*
X85941237Y-44733787D01*
X86158990Y-44777100D01*
X86381010Y-44777100D01*
X86598763Y-44733787D01*
X86803882Y-44648823D01*
X86988485Y-44525476D01*
X87145476Y-44368485D01*
X87268823Y-44183882D01*
X87353787Y-43978763D01*
X87397100Y-43761010D01*
X87397100Y-43538990D01*
X87353787Y-43321237D01*
X87268823Y-43116118D01*
X87145476Y-42931515D01*
X86988485Y-42774524D01*
X86803882Y-42651177D01*
X86598763Y-42566213D01*
X86381010Y-42522900D01*
X86158990Y-42522900D01*
X85941237Y-42566213D01*
X85736118Y-42651177D01*
X85551515Y-42774524D01*
X85394524Y-42931515D01*
X85271177Y-43116118D01*
X85186213Y-43321237D01*
X85142900Y-43538990D01*
X84857100Y-43538990D01*
X84813787Y-43321237D01*
X84728823Y-43116118D01*
X84605476Y-42931515D01*
X84448485Y-42774524D01*
X84263882Y-42651177D01*
X84058763Y-42566213D01*
X83841010Y-42522900D01*
X83618990Y-42522900D01*
X83401237Y-42566213D01*
X83196118Y-42651177D01*
X83011515Y-42774524D01*
X82854524Y-42931515D01*
X82731177Y-43116118D01*
X82646213Y-43321237D01*
X82602900Y-43538990D01*
X61601600Y-43538990D01*
X61601600Y-42304585D01*
X61640734Y-42501325D01*
X61723775Y-42701803D01*
X61844332Y-42882229D01*
X61997771Y-43035668D01*
X62178197Y-43156225D01*
X62378675Y-43239266D01*
X62591502Y-43281600D01*
X62808498Y-43281600D01*
X63021325Y-43239266D01*
X63221803Y-43156225D01*
X63402229Y-43035668D01*
X63555668Y-42882229D01*
X63676225Y-42701803D01*
X63759266Y-42501325D01*
X63801600Y-42288498D01*
X63801600Y-42071502D01*
X63759266Y-41858675D01*
X63676225Y-41658197D01*
X63555668Y-41477771D01*
X63402229Y-41324332D01*
X63221803Y-41203775D01*
X63021325Y-41120734D01*
X62808498Y-41078400D01*
X62591502Y-41078400D01*
X62378675Y-41120734D01*
X62178197Y-41203775D01*
X61997771Y-41324332D01*
X61844332Y-41477771D01*
X61723775Y-41658197D01*
X61640734Y-41858675D01*
X61601600Y-42055415D01*
X61601600Y-40998990D01*
X82602900Y-40998990D01*
X82602900Y-41221010D01*
X82646213Y-41438763D01*
X82731177Y-41643882D01*
X82854524Y-41828485D01*
X83011515Y-41985476D01*
X83196118Y-42108823D01*
X83401237Y-42193787D01*
X83618990Y-42237100D01*
X83841010Y-42237100D01*
X84058763Y-42193787D01*
X84263882Y-42108823D01*
X84448485Y-41985476D01*
X84605476Y-41828485D01*
X84728823Y-41643882D01*
X84813787Y-41438763D01*
X84857100Y-41221010D01*
X84857100Y-40998990D01*
X84813787Y-40781237D01*
X84728823Y-40576118D01*
X84605476Y-40391515D01*
X84448485Y-40234524D01*
X84263882Y-40111177D01*
X84058763Y-40026213D01*
X83841010Y-39982900D01*
X83618990Y-39982900D01*
X83401237Y-40026213D01*
X83196118Y-40111177D01*
X83011515Y-40234524D01*
X82854524Y-40391515D01*
X82731177Y-40576118D01*
X82646213Y-40781237D01*
X82602900Y-40998990D01*
X61601600Y-40998990D01*
X61601600Y-40750000D01*
X61599648Y-40730179D01*
X61593866Y-40711119D01*
X61584477Y-40693554D01*
X61571842Y-40678158D01*
X61556446Y-40665523D01*
X61538881Y-40656134D01*
X61519821Y-40650352D01*
X61500000Y-40648400D01*
X38500000Y-40648400D01*
X38480179Y-40650352D01*
X38461119Y-40656134D01*
X38443554Y-40665523D01*
X38428158Y-40678158D01*
X38415523Y-40693554D01*
X38406134Y-40711119D01*
X38400352Y-40730179D01*
X38398400Y-40750000D01*
X38398400Y-42055415D01*
X38359266Y-41858675D01*
X38276225Y-41658197D01*
X38155668Y-41477771D01*
X38002229Y-41324332D01*
X37821803Y-41203775D01*
X37621325Y-41120734D01*
X37408498Y-41078400D01*
X37191502Y-41078400D01*
X36978675Y-41120734D01*
X36778197Y-41203775D01*
X36597771Y-41324332D01*
X36444332Y-41477771D01*
X36323775Y-41658197D01*
X36240734Y-41858675D01*
X36198400Y-42071502D01*
X14319737Y-42071502D01*
X14448485Y-41985476D01*
X14605476Y-41828485D01*
X14728823Y-41643882D01*
X14813787Y-41438763D01*
X14857100Y-41221010D01*
X14857100Y-40998990D01*
X14813787Y-40781237D01*
X14728823Y-40576118D01*
X14605476Y-40391515D01*
X14448485Y-40234524D01*
X14263882Y-40111177D01*
X14058763Y-40026213D01*
X13841010Y-39982900D01*
X13618990Y-39982900D01*
X13401237Y-40026213D01*
X13196118Y-40111177D01*
X13011515Y-40234524D01*
X12854524Y-40391515D01*
X12731177Y-40576118D01*
X12646213Y-40781237D01*
X12602900Y-40998990D01*
X351600Y-40998990D01*
X351600Y-38458990D01*
X12602900Y-38458990D01*
X12602900Y-38681010D01*
X12646213Y-38898763D01*
X12731177Y-39103882D01*
X12854524Y-39288485D01*
X13011515Y-39445476D01*
X13196118Y-39568823D01*
X13401237Y-39653787D01*
X13618990Y-39697100D01*
X13841010Y-39697100D01*
X14058763Y-39653787D01*
X14263882Y-39568823D01*
X14319737Y-39531502D01*
X36198400Y-39531502D01*
X36198400Y-39748498D01*
X36240734Y-39961325D01*
X36323775Y-40161803D01*
X36444332Y-40342229D01*
X36597771Y-40495668D01*
X36778197Y-40616225D01*
X36978675Y-40699266D01*
X37191502Y-40741600D01*
X37408498Y-40741600D01*
X37621325Y-40699266D01*
X37821803Y-40616225D01*
X38002229Y-40495668D01*
X38155668Y-40342229D01*
X38276225Y-40161803D01*
X38359266Y-39961325D01*
X38401600Y-39748498D01*
X38401600Y-39531502D01*
X61598400Y-39531502D01*
X61598400Y-39748498D01*
X61640734Y-39961325D01*
X61723775Y-40161803D01*
X61844332Y-40342229D01*
X61997771Y-40495668D01*
X62178197Y-40616225D01*
X62378675Y-40699266D01*
X62591502Y-40741600D01*
X62808498Y-40741600D01*
X63021325Y-40699266D01*
X63221803Y-40616225D01*
X63402229Y-40495668D01*
X63555668Y-40342229D01*
X63676225Y-40161803D01*
X63759266Y-39961325D01*
X63801600Y-39748498D01*
X63801600Y-39531502D01*
X63759266Y-39318675D01*
X63676225Y-39118197D01*
X63555668Y-38937771D01*
X63402229Y-38784332D01*
X63221803Y-38663775D01*
X63021325Y-38580734D01*
X62808498Y-38538400D01*
X62591502Y-38538400D01*
X62378675Y-38580734D01*
X62178197Y-38663775D01*
X61997771Y-38784332D01*
X61844332Y-38937771D01*
X61723775Y-39118197D01*
X61640734Y-39318675D01*
X61598400Y-39531502D01*
X38401600Y-39531502D01*
X38359266Y-39318675D01*
X38276225Y-39118197D01*
X38155668Y-38937771D01*
X38002229Y-38784332D01*
X37821803Y-38663775D01*
X37621325Y-38580734D01*
X37408498Y-38538400D01*
X37191502Y-38538400D01*
X36978675Y-38580734D01*
X36778197Y-38663775D01*
X36597771Y-38784332D01*
X36444332Y-38937771D01*
X36323775Y-39118197D01*
X36240734Y-39318675D01*
X36198400Y-39531502D01*
X14319737Y-39531502D01*
X14448485Y-39445476D01*
X14605476Y-39288485D01*
X14728823Y-39103882D01*
X14813787Y-38898763D01*
X14857100Y-38681010D01*
X14857100Y-38458990D01*
X82602900Y-38458990D01*
X82602900Y-38681010D01*
X82646213Y-38898763D01*
X82731177Y-39103882D01*
X82854524Y-39288485D01*
X83011515Y-39445476D01*
X83196118Y-39568823D01*
X83401237Y-39653787D01*
X83618990Y-39697100D01*
X83841010Y-39697100D01*
X84058763Y-39653787D01*
X84263882Y-39568823D01*
X84448485Y-39445476D01*
X84605476Y-39288485D01*
X84728823Y-39103882D01*
X84813787Y-38898763D01*
X84857100Y-38681010D01*
X84857100Y-38458990D01*
X85142900Y-38458990D01*
X85142900Y-38681010D01*
X85186213Y-38898763D01*
X85271177Y-39103882D01*
X85394524Y-39288485D01*
X85551515Y-39445476D01*
X85736118Y-39568823D01*
X85941237Y-39653787D01*
X86158990Y-39697100D01*
X86381010Y-39697100D01*
X86598763Y-39653787D01*
X86803882Y-39568823D01*
X86988485Y-39445476D01*
X87145476Y-39288485D01*
X87268823Y-39103882D01*
X87353787Y-38898763D01*
X87397100Y-38681010D01*
X87397100Y-38458990D01*
X87353787Y-38241237D01*
X87268823Y-38036118D01*
X87145476Y-37851515D01*
X86988485Y-37694524D01*
X86803882Y-37571177D01*
X86598763Y-37486213D01*
X86381010Y-37442900D01*
X86158990Y-37442900D01*
X85941237Y-37486213D01*
X85736118Y-37571177D01*
X85551515Y-37694524D01*
X85394524Y-37851515D01*
X85271177Y-38036118D01*
X85186213Y-38241237D01*
X85142900Y-38458990D01*
X84857100Y-38458990D01*
X84813787Y-38241237D01*
X84728823Y-38036118D01*
X84605476Y-37851515D01*
X84448485Y-37694524D01*
X84263882Y-37571177D01*
X84058763Y-37486213D01*
X83841010Y-37442900D01*
X83618990Y-37442900D01*
X83401237Y-37486213D01*
X83196118Y-37571177D01*
X83011515Y-37694524D01*
X82854524Y-37851515D01*
X82731177Y-38036118D01*
X82646213Y-38241237D01*
X82602900Y-38458990D01*
X14857100Y-38458990D01*
X14813787Y-38241237D01*
X14728823Y-38036118D01*
X14605476Y-37851515D01*
X14448485Y-37694524D01*
X14263882Y-37571177D01*
X14058763Y-37486213D01*
X13841010Y-37442900D01*
X13618990Y-37442900D01*
X13401237Y-37486213D01*
X13196118Y-37571177D01*
X13011515Y-37694524D01*
X12854524Y-37851515D01*
X12731177Y-38036118D01*
X12646213Y-38241237D01*
X12602900Y-38458990D01*
X351600Y-38458990D01*
X351600Y-35918990D01*
X12602900Y-35918990D01*
X12602900Y-36141010D01*
X12646213Y-36358763D01*
X12731177Y-36563882D01*
X12854524Y-36748485D01*
X13011515Y-36905476D01*
X13196118Y-37028823D01*
X13401237Y-37113787D01*
X13618990Y-37157100D01*
X13841010Y-37157100D01*
X14058763Y-37113787D01*
X14263882Y-37028823D01*
X14319737Y-36991502D01*
X36198400Y-36991502D01*
X36198400Y-37208498D01*
X36240734Y-37421325D01*
X36323775Y-37621803D01*
X36444332Y-37802229D01*
X36597771Y-37955668D01*
X36778197Y-38076225D01*
X36978675Y-38159266D01*
X37191502Y-38201600D01*
X37408498Y-38201600D01*
X37621325Y-38159266D01*
X37821803Y-38076225D01*
X38002229Y-37955668D01*
X38155668Y-37802229D01*
X38276225Y-37621803D01*
X38359266Y-37421325D01*
X38401600Y-37208498D01*
X38401600Y-36991502D01*
X61598400Y-36991502D01*
X61598400Y-37208498D01*
X61640734Y-37421325D01*
X61723775Y-37621803D01*
X61844332Y-37802229D01*
X61997771Y-37955668D01*
X62178197Y-38076225D01*
X62378675Y-38159266D01*
X62591502Y-38201600D01*
X62808498Y-38201600D01*
X63021325Y-38159266D01*
X63221803Y-38076225D01*
X63402229Y-37955668D01*
X63555668Y-37802229D01*
X63676225Y-37621803D01*
X63759266Y-37421325D01*
X63801600Y-37208498D01*
X63801600Y-36991502D01*
X63759266Y-36778675D01*
X63676225Y-36578197D01*
X63555668Y-36397771D01*
X63402229Y-36244332D01*
X63221803Y-36123775D01*
X63021325Y-36040734D01*
X62808498Y-35998400D01*
X62591502Y-35998400D01*
X62378675Y-36040734D01*
X62178197Y-36123775D01*
X61997771Y-36244332D01*
X61844332Y-36397771D01*
X61723775Y-36578197D01*
X61640734Y-36778675D01*
X61598400Y-36991502D01*
X38401600Y-36991502D01*
X38359266Y-36778675D01*
X38276225Y-36578197D01*
X38155668Y-36397771D01*
X38002229Y-36244332D01*
X37821803Y-36123775D01*
X37621325Y-36040734D01*
X37408498Y-35998400D01*
X37191502Y-35998400D01*
X36978675Y-36040734D01*
X36778197Y-36123775D01*
X36597771Y-36244332D01*
X36444332Y-36397771D01*
X36323775Y-36578197D01*
X36240734Y-36778675D01*
X36198400Y-36991502D01*
X14319737Y-36991502D01*
X14448485Y-36905476D01*
X14605476Y-36748485D01*
X14728823Y-36563882D01*
X14813787Y-36358763D01*
X14857100Y-36141010D01*
X14857100Y-35918990D01*
X82602900Y-35918990D01*
X82602900Y-36141010D01*
X82646213Y-36358763D01*
X82731177Y-36563882D01*
X82854524Y-36748485D01*
X83011515Y-36905476D01*
X83196118Y-37028823D01*
X83401237Y-37113787D01*
X83618990Y-37157100D01*
X83841010Y-37157100D01*
X84058763Y-37113787D01*
X84263882Y-37028823D01*
X84448485Y-36905476D01*
X84605476Y-36748485D01*
X84728823Y-36563882D01*
X84813787Y-36358763D01*
X84857100Y-36141010D01*
X84857100Y-35918990D01*
X84813787Y-35701237D01*
X84728823Y-35496118D01*
X84605476Y-35311515D01*
X84448485Y-35154524D01*
X84263882Y-35031177D01*
X84058763Y-34946213D01*
X83841010Y-34902900D01*
X83618990Y-34902900D01*
X83401237Y-34946213D01*
X83196118Y-35031177D01*
X83011515Y-35154524D01*
X82854524Y-35311515D01*
X82731177Y-35496118D01*
X82646213Y-35701237D01*
X82602900Y-35918990D01*
X14857100Y-35918990D01*
X14813787Y-35701237D01*
X14728823Y-35496118D01*
X14605476Y-35311515D01*
X14448485Y-35154524D01*
X14263882Y-35031177D01*
X14058763Y-34946213D01*
X13841010Y-34902900D01*
X13618990Y-34902900D01*
X13401237Y-34946213D01*
X13196118Y-35031177D01*
X13011515Y-35154524D01*
X12854524Y-35311515D01*
X12731177Y-35496118D01*
X12646213Y-35701237D01*
X12602900Y-35918990D01*
X351600Y-35918990D01*
X351600Y-33378990D01*
X12602900Y-33378990D01*
X12602900Y-33601010D01*
X12646213Y-33818763D01*
X12731177Y-34023882D01*
X12854524Y-34208485D01*
X13011515Y-34365476D01*
X13196118Y-34488823D01*
X13401237Y-34573787D01*
X13618990Y-34617100D01*
X13841010Y-34617100D01*
X14058763Y-34573787D01*
X14263882Y-34488823D01*
X14319737Y-34451502D01*
X36198400Y-34451502D01*
X36198400Y-34668498D01*
X36240734Y-34881325D01*
X36323775Y-35081803D01*
X36444332Y-35262229D01*
X36597771Y-35415668D01*
X36778197Y-35536225D01*
X36978675Y-35619266D01*
X37191502Y-35661600D01*
X37408498Y-35661600D01*
X37621325Y-35619266D01*
X37821803Y-35536225D01*
X38002229Y-35415668D01*
X38155668Y-35262229D01*
X38276225Y-35081803D01*
X38359266Y-34881325D01*
X38401600Y-34668498D01*
X38401600Y-34451502D01*
X61598400Y-34451502D01*
X61598400Y-34668498D01*
X61640734Y-34881325D01*
X61723775Y-35081803D01*
X61844332Y-35262229D01*
X61997771Y-35415668D01*
X62178197Y-35536225D01*
X62378675Y-35619266D01*
X62591502Y-35661600D01*
X62808498Y-35661600D01*
X63021325Y-35619266D01*
X63221803Y-35536225D01*
X63402229Y-35415668D01*
X63555668Y-35262229D01*
X63676225Y-35081803D01*
X63759266Y-34881325D01*
X63801600Y-34668498D01*
X63801600Y-34451502D01*
X63759266Y-34238675D01*
X63676225Y-34038197D01*
X63555668Y-33857771D01*
X63402229Y-33704332D01*
X63221803Y-33583775D01*
X63021325Y-33500734D01*
X62808498Y-33458400D01*
X62591502Y-33458400D01*
X62378675Y-33500734D01*
X62178197Y-33583775D01*
X61997771Y-33704332D01*
X61844332Y-33857771D01*
X61723775Y-34038197D01*
X61640734Y-34238675D01*
X61598400Y-34451502D01*
X38401600Y-34451502D01*
X38359266Y-34238675D01*
X38276225Y-34038197D01*
X38155668Y-33857771D01*
X38002229Y-33704332D01*
X37821803Y-33583775D01*
X37621325Y-33500734D01*
X37408498Y-33458400D01*
X37191502Y-33458400D01*
X36978675Y-33500734D01*
X36778197Y-33583775D01*
X36597771Y-33704332D01*
X36444332Y-33857771D01*
X36323775Y-34038197D01*
X36240734Y-34238675D01*
X36198400Y-34451502D01*
X14319737Y-34451502D01*
X14448485Y-34365476D01*
X14605476Y-34208485D01*
X14728823Y-34023882D01*
X14813787Y-33818763D01*
X14857100Y-33601010D01*
X14857100Y-33378990D01*
X82602900Y-33378990D01*
X82602900Y-33601010D01*
X82646213Y-33818763D01*
X82731177Y-34023882D01*
X82854524Y-34208485D01*
X83011515Y-34365476D01*
X83196118Y-34488823D01*
X83401237Y-34573787D01*
X83618990Y-34617100D01*
X83841010Y-34617100D01*
X84058763Y-34573787D01*
X84263882Y-34488823D01*
X84448485Y-34365476D01*
X84605476Y-34208485D01*
X84728823Y-34023882D01*
X84813787Y-33818763D01*
X84857100Y-33601010D01*
X84857100Y-33378990D01*
X85142900Y-33378990D01*
X85142900Y-33601010D01*
X85186213Y-33818763D01*
X85271177Y-34023882D01*
X85394524Y-34208485D01*
X85551515Y-34365476D01*
X85736118Y-34488823D01*
X85941237Y-34573787D01*
X86158990Y-34617100D01*
X86381010Y-34617100D01*
X86598763Y-34573787D01*
X86803882Y-34488823D01*
X86988485Y-34365476D01*
X87145476Y-34208485D01*
X87268823Y-34023882D01*
X87353787Y-33818763D01*
X87397100Y-33601010D01*
X87397100Y-33378990D01*
X87353787Y-33161237D01*
X87268823Y-32956118D01*
X87145476Y-32771515D01*
X86988485Y-32614524D01*
X86803882Y-32491177D01*
X86598763Y-32406213D01*
X86381010Y-32362900D01*
X86158990Y-32362900D01*
X85941237Y-32406213D01*
X85736118Y-32491177D01*
X85551515Y-32614524D01*
X85394524Y-32771515D01*
X85271177Y-32956118D01*
X85186213Y-33161237D01*
X85142900Y-33378990D01*
X84857100Y-33378990D01*
X84813787Y-33161237D01*
X84728823Y-32956118D01*
X84605476Y-32771515D01*
X84448485Y-32614524D01*
X84263882Y-32491177D01*
X84058763Y-32406213D01*
X83841010Y-32362900D01*
X83618990Y-32362900D01*
X83401237Y-32406213D01*
X83196118Y-32491177D01*
X83011515Y-32614524D01*
X82854524Y-32771515D01*
X82731177Y-32956118D01*
X82646213Y-33161237D01*
X82602900Y-33378990D01*
X14857100Y-33378990D01*
X14813787Y-33161237D01*
X14728823Y-32956118D01*
X14605476Y-32771515D01*
X14448485Y-32614524D01*
X14263882Y-32491177D01*
X14058763Y-32406213D01*
X13841010Y-32362900D01*
X13618990Y-32362900D01*
X13401237Y-32406213D01*
X13196118Y-32491177D01*
X13011515Y-32614524D01*
X12854524Y-32771515D01*
X12731177Y-32956118D01*
X12646213Y-33161237D01*
X12602900Y-33378990D01*
X351600Y-33378990D01*
X351600Y-30838990D01*
X12602900Y-30838990D01*
X12602900Y-31061010D01*
X12646213Y-31278763D01*
X12731177Y-31483882D01*
X12854524Y-31668485D01*
X13011515Y-31825476D01*
X13196118Y-31948823D01*
X13401237Y-32033787D01*
X13618990Y-32077100D01*
X13841010Y-32077100D01*
X14058763Y-32033787D01*
X14263882Y-31948823D01*
X14319737Y-31911502D01*
X61598400Y-31911502D01*
X61598400Y-32128498D01*
X61640734Y-32341325D01*
X61723775Y-32541803D01*
X61844332Y-32722229D01*
X61997771Y-32875668D01*
X62178197Y-32996225D01*
X62378675Y-33079266D01*
X62591502Y-33121600D01*
X62808498Y-33121600D01*
X63021325Y-33079266D01*
X63221803Y-32996225D01*
X63402229Y-32875668D01*
X63555668Y-32722229D01*
X63676225Y-32541803D01*
X63759266Y-32341325D01*
X63801600Y-32128498D01*
X63801600Y-31911502D01*
X63759266Y-31698675D01*
X63676225Y-31498197D01*
X63555668Y-31317771D01*
X63402229Y-31164332D01*
X63221803Y-31043775D01*
X63021325Y-30960734D01*
X62808498Y-30918400D01*
X62591502Y-30918400D01*
X62378675Y-30960734D01*
X62178197Y-31043775D01*
X61997771Y-31164332D01*
X61844332Y-31317771D01*
X61723775Y-31498197D01*
X61640734Y-31698675D01*
X61598400Y-31911502D01*
X14319737Y-31911502D01*
X14448485Y-31825476D01*
X14605476Y-31668485D01*
X14728823Y-31483882D01*
X14813787Y-31278763D01*
X14857100Y-31061010D01*
X14857100Y-30838990D01*
X82602900Y-30838990D01*
X82602900Y-31061010D01*
X82646213Y-31278763D01*
X82731177Y-31483882D01*
X82854524Y-31668485D01*
X83011515Y-31825476D01*
X83196118Y-31948823D01*
X83401237Y-32033787D01*
X83618990Y-32077100D01*
X83841010Y-32077100D01*
X84058763Y-32033787D01*
X84263882Y-31948823D01*
X84448485Y-31825476D01*
X84605476Y-31668485D01*
X84728823Y-31483882D01*
X84813787Y-31278763D01*
X84857100Y-31061010D01*
X84857100Y-30838990D01*
X84813787Y-30621237D01*
X84728823Y-30416118D01*
X84605476Y-30231515D01*
X84448485Y-30074524D01*
X84263882Y-29951177D01*
X84058763Y-29866213D01*
X83841010Y-29822900D01*
X83618990Y-29822900D01*
X83401237Y-29866213D01*
X83196118Y-29951177D01*
X83011515Y-30074524D01*
X82854524Y-30231515D01*
X82731177Y-30416118D01*
X82646213Y-30621237D01*
X82602900Y-30838990D01*
X14857100Y-30838990D01*
X14813787Y-30621237D01*
X14728823Y-30416118D01*
X14605476Y-30231515D01*
X14448485Y-30074524D01*
X14263882Y-29951177D01*
X14058763Y-29866213D01*
X13841010Y-29822900D01*
X13618990Y-29822900D01*
X13401237Y-29866213D01*
X13196118Y-29951177D01*
X13011515Y-30074524D01*
X12854524Y-30231515D01*
X12731177Y-30416118D01*
X12646213Y-30621237D01*
X12602900Y-30838990D01*
X351600Y-30838990D01*
X351600Y-28298990D01*
X12602900Y-28298990D01*
X12602900Y-28521010D01*
X12646213Y-28738763D01*
X12731177Y-28943882D01*
X12854524Y-29128485D01*
X13011515Y-29285476D01*
X13196118Y-29408823D01*
X13401237Y-29493787D01*
X13618990Y-29537100D01*
X13841010Y-29537100D01*
X14058763Y-29493787D01*
X14263882Y-29408823D01*
X14319737Y-29371502D01*
X36198400Y-29371502D01*
X36198400Y-29588498D01*
X36240734Y-29801325D01*
X36323775Y-30001803D01*
X36444332Y-30182229D01*
X36597771Y-30335668D01*
X36778197Y-30456225D01*
X36978675Y-30539266D01*
X37191502Y-30581600D01*
X37408498Y-30581600D01*
X37621325Y-30539266D01*
X37821803Y-30456225D01*
X38002229Y-30335668D01*
X38155668Y-30182229D01*
X38276225Y-30001803D01*
X38359266Y-29801325D01*
X38401600Y-29588498D01*
X38401600Y-29371502D01*
X61598400Y-29371502D01*
X61598400Y-29588498D01*
X61640734Y-29801325D01*
X61723775Y-30001803D01*
X61844332Y-30182229D01*
X61997771Y-30335668D01*
X62178197Y-30456225D01*
X62378675Y-30539266D01*
X62591502Y-30581600D01*
X62808498Y-30581600D01*
X63021325Y-30539266D01*
X63221803Y-30456225D01*
X63402229Y-30335668D01*
X63555668Y-30182229D01*
X63676225Y-30001803D01*
X63759266Y-29801325D01*
X63801600Y-29588498D01*
X63801600Y-29371502D01*
X63759266Y-29158675D01*
X63676225Y-28958197D01*
X63555668Y-28777771D01*
X63402229Y-28624332D01*
X63221803Y-28503775D01*
X63021325Y-28420734D01*
X62808498Y-28378400D01*
X62591502Y-28378400D01*
X62378675Y-28420734D01*
X62178197Y-28503775D01*
X61997771Y-28624332D01*
X61844332Y-28777771D01*
X61723775Y-28958197D01*
X61640734Y-29158675D01*
X61598400Y-29371502D01*
X38401600Y-29371502D01*
X38359266Y-29158675D01*
X38276225Y-28958197D01*
X38155668Y-28777771D01*
X38002229Y-28624332D01*
X37821803Y-28503775D01*
X37621325Y-28420734D01*
X37408498Y-28378400D01*
X37191502Y-28378400D01*
X36978675Y-28420734D01*
X36778197Y-28503775D01*
X36597771Y-28624332D01*
X36444332Y-28777771D01*
X36323775Y-28958197D01*
X36240734Y-29158675D01*
X36198400Y-29371502D01*
X14319737Y-29371502D01*
X14448485Y-29285476D01*
X14605476Y-29128485D01*
X14728823Y-28943882D01*
X14813787Y-28738763D01*
X14857100Y-28521010D01*
X14857100Y-28298990D01*
X82602900Y-28298990D01*
X82602900Y-28521010D01*
X82646213Y-28738763D01*
X82731177Y-28943882D01*
X82854524Y-29128485D01*
X83011515Y-29285476D01*
X83196118Y-29408823D01*
X83401237Y-29493787D01*
X83618990Y-29537100D01*
X83841010Y-29537100D01*
X84058763Y-29493787D01*
X84263882Y-29408823D01*
X84448485Y-29285476D01*
X84605476Y-29128485D01*
X84728823Y-28943882D01*
X84813787Y-28738763D01*
X84857100Y-28521010D01*
X84857100Y-28298990D01*
X85142900Y-28298990D01*
X85142900Y-28521010D01*
X85186213Y-28738763D01*
X85271177Y-28943882D01*
X85394524Y-29128485D01*
X85551515Y-29285476D01*
X85736118Y-29408823D01*
X85941237Y-29493787D01*
X86158990Y-29537100D01*
X86381010Y-29537100D01*
X86598763Y-29493787D01*
X86803882Y-29408823D01*
X86988485Y-29285476D01*
X87145476Y-29128485D01*
X87268823Y-28943882D01*
X87353787Y-28738763D01*
X87397100Y-28521010D01*
X87397100Y-28298990D01*
X87353787Y-28081237D01*
X87268823Y-27876118D01*
X87145476Y-27691515D01*
X86988485Y-27534524D01*
X86803882Y-27411177D01*
X86598763Y-27326213D01*
X86381010Y-27282900D01*
X86158990Y-27282900D01*
X85941237Y-27326213D01*
X85736118Y-27411177D01*
X85551515Y-27534524D01*
X85394524Y-27691515D01*
X85271177Y-27876118D01*
X85186213Y-28081237D01*
X85142900Y-28298990D01*
X84857100Y-28298990D01*
X84813787Y-28081237D01*
X84728823Y-27876118D01*
X84605476Y-27691515D01*
X84448485Y-27534524D01*
X84263882Y-27411177D01*
X84058763Y-27326213D01*
X83841010Y-27282900D01*
X83618990Y-27282900D01*
X83401237Y-27326213D01*
X83196118Y-27411177D01*
X83011515Y-27534524D01*
X82854524Y-27691515D01*
X82731177Y-27876118D01*
X82646213Y-28081237D01*
X82602900Y-28298990D01*
X14857100Y-28298990D01*
X14813787Y-28081237D01*
X14728823Y-27876118D01*
X14605476Y-27691515D01*
X14448485Y-27534524D01*
X14263882Y-27411177D01*
X14058763Y-27326213D01*
X13841010Y-27282900D01*
X13618990Y-27282900D01*
X13401237Y-27326213D01*
X13196118Y-27411177D01*
X13011515Y-27534524D01*
X12854524Y-27691515D01*
X12731177Y-27876118D01*
X12646213Y-28081237D01*
X12602900Y-28298990D01*
X351600Y-28298990D01*
X351600Y-25758990D01*
X12602900Y-25758990D01*
X12602900Y-25981010D01*
X12646213Y-26198763D01*
X12731177Y-26403882D01*
X12854524Y-26588485D01*
X13011515Y-26745476D01*
X13196118Y-26868823D01*
X13401237Y-26953787D01*
X13618990Y-26997100D01*
X13841010Y-26997100D01*
X14058763Y-26953787D01*
X14263882Y-26868823D01*
X14319737Y-26831502D01*
X36198400Y-26831502D01*
X36198400Y-27048498D01*
X36240734Y-27261325D01*
X36323775Y-27461803D01*
X36444332Y-27642229D01*
X36597771Y-27795668D01*
X36778197Y-27916225D01*
X36978675Y-27999266D01*
X37191502Y-28041600D01*
X37408498Y-28041600D01*
X37621325Y-27999266D01*
X37821803Y-27916225D01*
X38002229Y-27795668D01*
X38155668Y-27642229D01*
X38276225Y-27461803D01*
X38359266Y-27261325D01*
X38401600Y-27048498D01*
X38401600Y-26831502D01*
X61598400Y-26831502D01*
X61598400Y-27048498D01*
X61640734Y-27261325D01*
X61723775Y-27461803D01*
X61844332Y-27642229D01*
X61997771Y-27795668D01*
X62178197Y-27916225D01*
X62378675Y-27999266D01*
X62591502Y-28041600D01*
X62808498Y-28041600D01*
X63021325Y-27999266D01*
X63221803Y-27916225D01*
X63402229Y-27795668D01*
X63555668Y-27642229D01*
X63676225Y-27461803D01*
X63759266Y-27261325D01*
X63801600Y-27048498D01*
X63801600Y-26831502D01*
X63759266Y-26618675D01*
X63676225Y-26418197D01*
X63555668Y-26237771D01*
X63402229Y-26084332D01*
X63221803Y-25963775D01*
X63021325Y-25880734D01*
X62808498Y-25838400D01*
X62591502Y-25838400D01*
X62378675Y-25880734D01*
X62178197Y-25963775D01*
X61997771Y-26084332D01*
X61844332Y-26237771D01*
X61723775Y-26418197D01*
X61640734Y-26618675D01*
X61598400Y-26831502D01*
X38401600Y-26831502D01*
X38359266Y-26618675D01*
X38276225Y-26418197D01*
X38155668Y-26237771D01*
X38002229Y-26084332D01*
X37821803Y-25963775D01*
X37621325Y-25880734D01*
X37408498Y-25838400D01*
X37191502Y-25838400D01*
X36978675Y-25880734D01*
X36778197Y-25963775D01*
X36597771Y-26084332D01*
X36444332Y-26237771D01*
X36323775Y-26418197D01*
X36240734Y-26618675D01*
X36198400Y-26831502D01*
X14319737Y-26831502D01*
X14448485Y-26745476D01*
X14605476Y-26588485D01*
X14728823Y-26403882D01*
X14813787Y-26198763D01*
X14857100Y-25981010D01*
X14857100Y-25758990D01*
X82602900Y-25758990D01*
X82602900Y-25981010D01*
X82646213Y-26198763D01*
X82731177Y-26403882D01*
X82854524Y-26588485D01*
X83011515Y-26745476D01*
X83196118Y-26868823D01*
X83401237Y-26953787D01*
X83618990Y-26997100D01*
X83841010Y-26997100D01*
X84058763Y-26953787D01*
X84263882Y-26868823D01*
X84448485Y-26745476D01*
X84605476Y-26588485D01*
X84728823Y-26403882D01*
X84813787Y-26198763D01*
X84857100Y-25981010D01*
X84857100Y-25758990D01*
X84813787Y-25541237D01*
X84728823Y-25336118D01*
X84605476Y-25151515D01*
X84448485Y-24994524D01*
X84263882Y-24871177D01*
X84058763Y-24786213D01*
X83841010Y-24742900D01*
X83618990Y-24742900D01*
X83401237Y-24786213D01*
X83196118Y-24871177D01*
X83011515Y-24994524D01*
X82854524Y-25151515D01*
X82731177Y-25336118D01*
X82646213Y-25541237D01*
X82602900Y-25758990D01*
X14857100Y-25758990D01*
X14813787Y-25541237D01*
X14728823Y-25336118D01*
X14605476Y-25151515D01*
X14448485Y-24994524D01*
X14263882Y-24871177D01*
X14058763Y-24786213D01*
X13841010Y-24742900D01*
X13618990Y-24742900D01*
X13401237Y-24786213D01*
X13196118Y-24871177D01*
X13011515Y-24994524D01*
X12854524Y-25151515D01*
X12731177Y-25336118D01*
X12646213Y-25541237D01*
X12602900Y-25758990D01*
X351600Y-25758990D01*
X351600Y-24291502D01*
X36198400Y-24291502D01*
X36198400Y-24508498D01*
X36240734Y-24721325D01*
X36323775Y-24921803D01*
X36444332Y-25102229D01*
X36597771Y-25255668D01*
X36778197Y-25376225D01*
X36978675Y-25459266D01*
X37191502Y-25501600D01*
X37408498Y-25501600D01*
X37621325Y-25459266D01*
X37821803Y-25376225D01*
X38002229Y-25255668D01*
X38155668Y-25102229D01*
X38276225Y-24921803D01*
X38359266Y-24721325D01*
X38401600Y-24508498D01*
X38401600Y-24291502D01*
X61598400Y-24291502D01*
X61598400Y-24508498D01*
X61640734Y-24721325D01*
X61723775Y-24921803D01*
X61844332Y-25102229D01*
X61997771Y-25255668D01*
X62178197Y-25376225D01*
X62378675Y-25459266D01*
X62591502Y-25501600D01*
X62808498Y-25501600D01*
X63021325Y-25459266D01*
X63221803Y-25376225D01*
X63402229Y-25255668D01*
X63555668Y-25102229D01*
X63676225Y-24921803D01*
X63759266Y-24721325D01*
X63801600Y-24508498D01*
X63801600Y-24291502D01*
X63759266Y-24078675D01*
X63676225Y-23878197D01*
X63555668Y-23697771D01*
X63402229Y-23544332D01*
X63221803Y-23423775D01*
X63021325Y-23340734D01*
X62808498Y-23298400D01*
X62591502Y-23298400D01*
X62378675Y-23340734D01*
X62178197Y-23423775D01*
X61997771Y-23544332D01*
X61844332Y-23697771D01*
X61723775Y-23878197D01*
X61640734Y-24078675D01*
X61598400Y-24291502D01*
X38401600Y-24291502D01*
X38359266Y-24078675D01*
X38276225Y-23878197D01*
X38155668Y-23697771D01*
X38002229Y-23544332D01*
X37821803Y-23423775D01*
X37621325Y-23340734D01*
X37408498Y-23298400D01*
X37191502Y-23298400D01*
X36978675Y-23340734D01*
X36778197Y-23423775D01*
X36597771Y-23544332D01*
X36444332Y-23697771D01*
X36323775Y-23878197D01*
X36240734Y-24078675D01*
X36198400Y-24291502D01*
X351600Y-24291502D01*
X351600Y-21751502D01*
X36198400Y-21751502D01*
X36198400Y-21968498D01*
X36240734Y-22181325D01*
X36323775Y-22381803D01*
X36444332Y-22562229D01*
X36597771Y-22715668D01*
X36778197Y-22836225D01*
X36978675Y-22919266D01*
X37191502Y-22961600D01*
X37408498Y-22961600D01*
X37621325Y-22919266D01*
X37821803Y-22836225D01*
X38002229Y-22715668D01*
X38155668Y-22562229D01*
X38276225Y-22381803D01*
X38359266Y-22181325D01*
X38401600Y-21968498D01*
X38401600Y-21751502D01*
X61598400Y-21751502D01*
X61598400Y-21968498D01*
X61640734Y-22181325D01*
X61723775Y-22381803D01*
X61844332Y-22562229D01*
X61997771Y-22715668D01*
X62178197Y-22836225D01*
X62378675Y-22919266D01*
X62591502Y-22961600D01*
X62808498Y-22961600D01*
X63021325Y-22919266D01*
X63221803Y-22836225D01*
X63402229Y-22715668D01*
X63555668Y-22562229D01*
X63676225Y-22381803D01*
X63759266Y-22181325D01*
X63801600Y-21968498D01*
X63801600Y-21751502D01*
X63759266Y-21538675D01*
X63676225Y-21338197D01*
X63555668Y-21157771D01*
X63402229Y-21004332D01*
X63221803Y-20883775D01*
X63021325Y-20800734D01*
X62808498Y-20758400D01*
X62591502Y-20758400D01*
X62378675Y-20800734D01*
X62178197Y-20883775D01*
X61997771Y-21004332D01*
X61844332Y-21157771D01*
X61723775Y-21338197D01*
X61640734Y-21538675D01*
X61598400Y-21751502D01*
X38401600Y-21751502D01*
X38359266Y-21538675D01*
X38276225Y-21338197D01*
X38155668Y-21157771D01*
X38002229Y-21004332D01*
X37821803Y-20883775D01*
X37621325Y-20800734D01*
X37408498Y-20758400D01*
X37191502Y-20758400D01*
X36978675Y-20800734D01*
X36778197Y-20883775D01*
X36597771Y-21004332D01*
X36444332Y-21157771D01*
X36323775Y-21338197D01*
X36240734Y-21538675D01*
X36198400Y-21751502D01*
X351600Y-21751502D01*
X351600Y-19211502D01*
X36198400Y-19211502D01*
X36198400Y-19428498D01*
X36240734Y-19641325D01*
X36323775Y-19841803D01*
X36444332Y-20022229D01*
X36597771Y-20175668D01*
X36778197Y-20296225D01*
X36978675Y-20379266D01*
X37191502Y-20421600D01*
X37408498Y-20421600D01*
X37621325Y-20379266D01*
X37821803Y-20296225D01*
X38002229Y-20175668D01*
X38155668Y-20022229D01*
X38276225Y-19841803D01*
X38359266Y-19641325D01*
X38401600Y-19428498D01*
X38401600Y-19211502D01*
X61598400Y-19211502D01*
X61598400Y-19428498D01*
X61640734Y-19641325D01*
X61723775Y-19841803D01*
X61844332Y-20022229D01*
X61997771Y-20175668D01*
X62178197Y-20296225D01*
X62378675Y-20379266D01*
X62591502Y-20421600D01*
X62808498Y-20421600D01*
X63021325Y-20379266D01*
X63221803Y-20296225D01*
X63402229Y-20175668D01*
X63555668Y-20022229D01*
X63676225Y-19841803D01*
X63759266Y-19641325D01*
X63801600Y-19428498D01*
X63801600Y-19211502D01*
X63759266Y-18998675D01*
X63676225Y-18798197D01*
X63555668Y-18617771D01*
X63402229Y-18464332D01*
X63221803Y-18343775D01*
X63021325Y-18260734D01*
X62808498Y-18218400D01*
X62591502Y-18218400D01*
X62378675Y-18260734D01*
X62178197Y-18343775D01*
X61997771Y-18464332D01*
X61844332Y-18617771D01*
X61723775Y-18798197D01*
X61640734Y-18998675D01*
X61598400Y-19211502D01*
X38401600Y-19211502D01*
X38359266Y-18998675D01*
X38276225Y-18798197D01*
X38155668Y-18617771D01*
X38002229Y-18464332D01*
X37821803Y-18343775D01*
X37621325Y-18260734D01*
X37408498Y-18218400D01*
X37191502Y-18218400D01*
X36978675Y-18260734D01*
X36778197Y-18343775D01*
X36597771Y-18464332D01*
X36444332Y-18617771D01*
X36323775Y-18798197D01*
X36240734Y-18998675D01*
X36198400Y-19211502D01*
X351600Y-19211502D01*
X351600Y-16671502D01*
X36198400Y-16671502D01*
X36198400Y-16888498D01*
X36240734Y-17101325D01*
X36323775Y-17301803D01*
X36444332Y-17482229D01*
X36597771Y-17635668D01*
X36778197Y-17756225D01*
X36978675Y-17839266D01*
X37191502Y-17881600D01*
X37408498Y-17881600D01*
X37621325Y-17839266D01*
X37821803Y-17756225D01*
X38002229Y-17635668D01*
X38155668Y-17482229D01*
X38276225Y-17301803D01*
X38359266Y-17101325D01*
X38401600Y-16888498D01*
X38401600Y-16671502D01*
X61598400Y-16671502D01*
X61598400Y-16888498D01*
X61640734Y-17101325D01*
X61723775Y-17301803D01*
X61844332Y-17482229D01*
X61997771Y-17635668D01*
X62178197Y-17756225D01*
X62378675Y-17839266D01*
X62591502Y-17881600D01*
X62808498Y-17881600D01*
X63021325Y-17839266D01*
X63221803Y-17756225D01*
X63402229Y-17635668D01*
X63555668Y-17482229D01*
X63676225Y-17301803D01*
X63759266Y-17101325D01*
X63801600Y-16888498D01*
X63801600Y-16671502D01*
X63759266Y-16458675D01*
X63676225Y-16258197D01*
X63555668Y-16077771D01*
X63402229Y-15924332D01*
X63221803Y-15803775D01*
X63021325Y-15720734D01*
X62808498Y-15678400D01*
X62591502Y-15678400D01*
X62378675Y-15720734D01*
X62178197Y-15803775D01*
X61997771Y-15924332D01*
X61844332Y-16077771D01*
X61723775Y-16258197D01*
X61640734Y-16458675D01*
X61598400Y-16671502D01*
X38401600Y-16671502D01*
X38359266Y-16458675D01*
X38276225Y-16258197D01*
X38155668Y-16077771D01*
X38002229Y-15924332D01*
X37821803Y-15803775D01*
X37621325Y-15720734D01*
X37408498Y-15678400D01*
X37191502Y-15678400D01*
X36978675Y-15720734D01*
X36778197Y-15803775D01*
X36597771Y-15924332D01*
X36444332Y-16077771D01*
X36323775Y-16258197D01*
X36240734Y-16458675D01*
X36198400Y-16671502D01*
X351600Y-16671502D01*
X351600Y-14131502D01*
X36198400Y-14131502D01*
X36198400Y-14348498D01*
X36240734Y-14561325D01*
X36323775Y-14761803D01*
X36444332Y-14942229D01*
X36597771Y-15095668D01*
X36778197Y-15216225D01*
X36978675Y-15299266D01*
X37191502Y-15341600D01*
X37408498Y-15341600D01*
X37621325Y-15299266D01*
X37821803Y-15216225D01*
X38002229Y-15095668D01*
X38155668Y-14942229D01*
X38276225Y-14761803D01*
X38359266Y-14561325D01*
X38401600Y-14348498D01*
X38401600Y-14131502D01*
X38359266Y-13918675D01*
X38276225Y-13718197D01*
X38155668Y-13537771D01*
X38002229Y-13384332D01*
X37821803Y-13263775D01*
X37621325Y-13180734D01*
X37408498Y-13138400D01*
X37191502Y-13138400D01*
X36978675Y-13180734D01*
X36778197Y-13263775D01*
X36597771Y-13384332D01*
X36444332Y-13537771D01*
X36323775Y-13718197D01*
X36240734Y-13918675D01*
X36198400Y-14131502D01*
X351600Y-14131502D01*
X351600Y-11591502D01*
X36198400Y-11591502D01*
X36198400Y-11808498D01*
X36240734Y-12021325D01*
X36323775Y-12221803D01*
X36444332Y-12402229D01*
X36597771Y-12555668D01*
X36778197Y-12676225D01*
X36978675Y-12759266D01*
X37191502Y-12801600D01*
X37408498Y-12801600D01*
X37621325Y-12759266D01*
X37821803Y-12676225D01*
X38002229Y-12555668D01*
X38155668Y-12402229D01*
X38276225Y-12221803D01*
X38359266Y-12021325D01*
X38401600Y-11808498D01*
X38401600Y-11591502D01*
X61598400Y-11591502D01*
X61598400Y-11808498D01*
X61640734Y-12021325D01*
X61723775Y-12221803D01*
X61844332Y-12402229D01*
X61997771Y-12555668D01*
X62178197Y-12676225D01*
X62378675Y-12759266D01*
X62591502Y-12801600D01*
X62808498Y-12801600D01*
X63021325Y-12759266D01*
X63221803Y-12676225D01*
X63402229Y-12555668D01*
X63555668Y-12402229D01*
X63676225Y-12221803D01*
X63759266Y-12021325D01*
X63801600Y-11808498D01*
X63801600Y-11591502D01*
X63759266Y-11378675D01*
X63676225Y-11178197D01*
X63555668Y-10997771D01*
X63402229Y-10844332D01*
X63221803Y-10723775D01*
X63021325Y-10640734D01*
X62808498Y-10598400D01*
X62591502Y-10598400D01*
X62378675Y-10640734D01*
X62178197Y-10723775D01*
X61997771Y-10844332D01*
X61844332Y-10997771D01*
X61723775Y-11178197D01*
X61640734Y-11378675D01*
X61598400Y-11591502D01*
X38401600Y-11591502D01*
X38359266Y-11378675D01*
X38276225Y-11178197D01*
X38155668Y-10997771D01*
X38002229Y-10844332D01*
X37821803Y-10723775D01*
X37621325Y-10640734D01*
X37408498Y-10598400D01*
X37191502Y-10598400D01*
X36978675Y-10640734D01*
X36778197Y-10723775D01*
X36597771Y-10844332D01*
X36444332Y-10997771D01*
X36323775Y-11178197D01*
X36240734Y-11378675D01*
X36198400Y-11591502D01*
X351600Y-11591502D01*
X351600Y-9051502D01*
X36198400Y-9051502D01*
X36198400Y-9268498D01*
X36240734Y-9481325D01*
X36323775Y-9681803D01*
X36444332Y-9862229D01*
X36597771Y-10015668D01*
X36778197Y-10136225D01*
X36978675Y-10219266D01*
X37191502Y-10261600D01*
X37408498Y-10261600D01*
X37621325Y-10219266D01*
X37821803Y-10136225D01*
X38002229Y-10015668D01*
X38155668Y-9862229D01*
X38276225Y-9681803D01*
X38359266Y-9481325D01*
X38401600Y-9268498D01*
X38401600Y-9051502D01*
X61598400Y-9051502D01*
X61598400Y-9268498D01*
X61640734Y-9481325D01*
X61723775Y-9681803D01*
X61844332Y-9862229D01*
X61997771Y-10015668D01*
X62178197Y-10136225D01*
X62378675Y-10219266D01*
X62591502Y-10261600D01*
X62808498Y-10261600D01*
X63021325Y-10219266D01*
X63221803Y-10136225D01*
X63402229Y-10015668D01*
X63555668Y-9862229D01*
X63676225Y-9681803D01*
X63759266Y-9481325D01*
X63801600Y-9268498D01*
X63801600Y-9051502D01*
X63759266Y-8838675D01*
X63676225Y-8638197D01*
X63555668Y-8457771D01*
X63402229Y-8304332D01*
X63221803Y-8183775D01*
X63021325Y-8100734D01*
X62808498Y-8058400D01*
X62591502Y-8058400D01*
X62378675Y-8100734D01*
X62178197Y-8183775D01*
X61997771Y-8304332D01*
X61844332Y-8457771D01*
X61723775Y-8638197D01*
X61640734Y-8838675D01*
X61598400Y-9051502D01*
X38401600Y-9051502D01*
X38359266Y-8838675D01*
X38276225Y-8638197D01*
X38155668Y-8457771D01*
X38002229Y-8304332D01*
X37821803Y-8183775D01*
X37621325Y-8100734D01*
X37408498Y-8058400D01*
X37191502Y-8058400D01*
X36978675Y-8100734D01*
X36778197Y-8183775D01*
X36597771Y-8304332D01*
X36444332Y-8457771D01*
X36323775Y-8638197D01*
X36240734Y-8838675D01*
X36198400Y-9051502D01*
X351600Y-9051502D01*
X351600Y-6511502D01*
X36198400Y-6511502D01*
X36198400Y-6728498D01*
X36240734Y-6941325D01*
X36323775Y-7141803D01*
X36444332Y-7322229D01*
X36597771Y-7475668D01*
X36778197Y-7596225D01*
X36978675Y-7679266D01*
X37191502Y-7721600D01*
X37408498Y-7721600D01*
X37621325Y-7679266D01*
X37821803Y-7596225D01*
X38002229Y-7475668D01*
X38155668Y-7322229D01*
X38276225Y-7141803D01*
X38359266Y-6941325D01*
X38401600Y-6728498D01*
X38401600Y-6511502D01*
X61598400Y-6511502D01*
X61598400Y-6728498D01*
X61640734Y-6941325D01*
X61723775Y-7141803D01*
X61844332Y-7322229D01*
X61997771Y-7475668D01*
X62178197Y-7596225D01*
X62378675Y-7679266D01*
X62591502Y-7721600D01*
X62808498Y-7721600D01*
X63021325Y-7679266D01*
X63221803Y-7596225D01*
X63402229Y-7475668D01*
X63555668Y-7322229D01*
X63676225Y-7141803D01*
X63759266Y-6941325D01*
X63801600Y-6728498D01*
X63801600Y-6511502D01*
X63759266Y-6298675D01*
X63676225Y-6098197D01*
X63555668Y-5917771D01*
X63402229Y-5764332D01*
X63221803Y-5643775D01*
X63021325Y-5560734D01*
X62808498Y-5518400D01*
X62591502Y-5518400D01*
X62378675Y-5560734D01*
X62178197Y-5643775D01*
X61997771Y-5764332D01*
X61844332Y-5917771D01*
X61723775Y-6098197D01*
X61640734Y-6298675D01*
X61598400Y-6511502D01*
X38401600Y-6511502D01*
X38359266Y-6298675D01*
X38276225Y-6098197D01*
X38155668Y-5917771D01*
X38002229Y-5764332D01*
X37821803Y-5643775D01*
X37621325Y-5560734D01*
X37408498Y-5518400D01*
X37191502Y-5518400D01*
X36978675Y-5560734D01*
X36778197Y-5643775D01*
X36597771Y-5764332D01*
X36444332Y-5917771D01*
X36323775Y-6098197D01*
X36240734Y-6298675D01*
X36198400Y-6511502D01*
X351600Y-6511502D01*
X351600Y-3971502D01*
X36198400Y-3971502D01*
X36198400Y-4188498D01*
X36240734Y-4401325D01*
X36323775Y-4601803D01*
X36444332Y-4782229D01*
X36597771Y-4935668D01*
X36778197Y-5056225D01*
X36978675Y-5139266D01*
X37191502Y-5181600D01*
X37408498Y-5181600D01*
X37621325Y-5139266D01*
X37821803Y-5056225D01*
X38002229Y-4935668D01*
X38155668Y-4782229D01*
X38276225Y-4601803D01*
X38359266Y-4401325D01*
X38401600Y-4188498D01*
X38401600Y-3971502D01*
X61598400Y-3971502D01*
X61598400Y-4188498D01*
X61640734Y-4401325D01*
X61723775Y-4601803D01*
X61844332Y-4782229D01*
X61997771Y-4935668D01*
X62178197Y-5056225D01*
X62378675Y-5139266D01*
X62591502Y-5181600D01*
X62808498Y-5181600D01*
X63021325Y-5139266D01*
X63221803Y-5056225D01*
X63402229Y-4935668D01*
X63555668Y-4782229D01*
X63676225Y-4601803D01*
X63759266Y-4401325D01*
X63801600Y-4188498D01*
X63801600Y-3971502D01*
X63759266Y-3758675D01*
X63676225Y-3558197D01*
X63555668Y-3377771D01*
X63402229Y-3224332D01*
X63221803Y-3103775D01*
X63021325Y-3020734D01*
X62808498Y-2978400D01*
X62591502Y-2978400D01*
X62378675Y-3020734D01*
X62178197Y-3103775D01*
X61997771Y-3224332D01*
X61844332Y-3377771D01*
X61723775Y-3558197D01*
X61640734Y-3758675D01*
X61598400Y-3971502D01*
X38401600Y-3971502D01*
X38359266Y-3758675D01*
X38276225Y-3558197D01*
X38155668Y-3377771D01*
X38002229Y-3224332D01*
X37821803Y-3103775D01*
X37621325Y-3020734D01*
X37408498Y-2978400D01*
X37191502Y-2978400D01*
X36978675Y-3020734D01*
X36778197Y-3103775D01*
X36597771Y-3224332D01*
X36444332Y-3377771D01*
X36323775Y-3558197D01*
X36240734Y-3758675D01*
X36198400Y-3971502D01*
X351600Y-3971502D01*
X351600Y-1431502D01*
X36198400Y-1431502D01*
X36198400Y-1648498D01*
X36240734Y-1861325D01*
X36323775Y-2061803D01*
X36444332Y-2242229D01*
X36597771Y-2395668D01*
X36778197Y-2516225D01*
X36978675Y-2599266D01*
X37191502Y-2641600D01*
X37408498Y-2641600D01*
X37621325Y-2599266D01*
X37821803Y-2516225D01*
X38002229Y-2395668D01*
X38155668Y-2242229D01*
X38276225Y-2061803D01*
X38359266Y-1861325D01*
X38401600Y-1648498D01*
X38401600Y-1431502D01*
X61598400Y-1431502D01*
X61598400Y-1648498D01*
X61640734Y-1861325D01*
X61723775Y-2061803D01*
X61844332Y-2242229D01*
X61997771Y-2395668D01*
X62178197Y-2516225D01*
X62378675Y-2599266D01*
X62591502Y-2641600D01*
X62808498Y-2641600D01*
X63021325Y-2599266D01*
X63221803Y-2516225D01*
X63402229Y-2395668D01*
X63555668Y-2242229D01*
X63676225Y-2061803D01*
X63759266Y-1861325D01*
X63801600Y-1648498D01*
X63801600Y-1431502D01*
X63759266Y-1218675D01*
X63676225Y-1018197D01*
X63555668Y-837771D01*
X63402229Y-684332D01*
X63221803Y-563775D01*
X63021325Y-480734D01*
X62808498Y-438400D01*
X62591502Y-438400D01*
X62378675Y-480734D01*
X62178197Y-563775D01*
X61997771Y-684332D01*
X61844332Y-837771D01*
X61723775Y-1018197D01*
X61640734Y-1218675D01*
X61598400Y-1431502D01*
X38401600Y-1431502D01*
X38359266Y-1218675D01*
X38276225Y-1018197D01*
X38155668Y-837771D01*
X38002229Y-684332D01*
X37821803Y-563775D01*
X37621325Y-480734D01*
X37408498Y-438400D01*
X37191502Y-438400D01*
X36978675Y-480734D01*
X36778197Y-563775D01*
X36597771Y-684332D01*
X36444332Y-837771D01*
X36323775Y-1018197D01*
X36240734Y-1218675D01*
X36198400Y-1431502D01*
X351600Y-1431502D01*
X351600Y-351600D01*
X99398400Y-351600D01*
X99398400Y-99398400D01*
%TA.AperFunction,Conductor*%
D19*
G36*
X99398400Y-99398400D02*
G01*
X351600Y-99398400D01*
X351600Y-95389040D01*
X51533400Y-95389040D01*
X51533400Y-95610960D01*
X51576695Y-95828617D01*
X51661620Y-96033645D01*
X51784913Y-96218166D01*
X51941834Y-96375087D01*
X52126355Y-96498380D01*
X52331383Y-96583305D01*
X52549040Y-96626600D01*
X52770960Y-96626600D01*
X52988617Y-96583305D01*
X53193645Y-96498380D01*
X53378166Y-96375087D01*
X53535087Y-96218166D01*
X53658380Y-96033645D01*
X53743305Y-95828617D01*
X53786600Y-95610960D01*
X53786600Y-95389040D01*
X56613400Y-95389040D01*
X56613400Y-95610960D01*
X56656695Y-95828617D01*
X56741620Y-96033645D01*
X56864913Y-96218166D01*
X57021834Y-96375087D01*
X57206355Y-96498380D01*
X57411383Y-96583305D01*
X57629040Y-96626600D01*
X57850960Y-96626600D01*
X58068617Y-96583305D01*
X58273645Y-96498380D01*
X58458166Y-96375087D01*
X58615087Y-96218166D01*
X58738380Y-96033645D01*
X58823305Y-95828617D01*
X58866600Y-95610960D01*
X58866600Y-95389040D01*
X58823305Y-95171383D01*
X58738380Y-94966355D01*
X58615087Y-94781834D01*
X58458166Y-94624913D01*
X58273645Y-94501620D01*
X58068617Y-94416695D01*
X57850960Y-94373400D01*
X57629040Y-94373400D01*
X57411383Y-94416695D01*
X57206355Y-94501620D01*
X57021834Y-94624913D01*
X56864913Y-94781834D01*
X56741620Y-94966355D01*
X56656695Y-95171383D01*
X56613400Y-95389040D01*
X53786600Y-95389040D01*
X53743305Y-95171383D01*
X53658380Y-94966355D01*
X53535087Y-94781834D01*
X53378166Y-94624913D01*
X53193645Y-94501620D01*
X52988617Y-94416695D01*
X52770960Y-94373400D01*
X52549040Y-94373400D01*
X52331383Y-94416695D01*
X52126355Y-94501620D01*
X51941834Y-94624913D01*
X51784913Y-94781834D01*
X51661620Y-94966355D01*
X51576695Y-95171383D01*
X51533400Y-95389040D01*
X351600Y-95389040D01*
X351600Y-72136000D01*
X10237327Y-72136000D01*
X10239400Y-72157048D01*
X10239401Y-75416942D01*
X10237327Y-75438000D01*
X10245602Y-75522020D01*
X10270111Y-75602811D01*
X10309909Y-75677269D01*
X10363469Y-75742532D01*
X10379820Y-75755951D01*
X11620045Y-76996176D01*
X11633468Y-77012532D01*
X11698731Y-77066092D01*
X11773189Y-77105890D01*
X11853980Y-77130398D01*
X11916952Y-77136600D01*
X11916953Y-77136600D01*
X11937999Y-77138673D01*
X11959045Y-77136600D01*
X23981952Y-77136600D01*
X24003000Y-77138673D01*
X24024048Y-77136600D01*
X24087020Y-77130398D01*
X24167811Y-77105890D01*
X24242269Y-77066092D01*
X24307532Y-77012532D01*
X24320955Y-76996176D01*
X27298141Y-74018990D01*
X82602900Y-74018990D01*
X82602900Y-74241010D01*
X82646213Y-74458763D01*
X82731177Y-74663882D01*
X82854524Y-74848485D01*
X83011515Y-75005476D01*
X83196118Y-75128823D01*
X83401237Y-75213787D01*
X83618990Y-75257100D01*
X83841010Y-75257100D01*
X84058763Y-75213787D01*
X84263882Y-75128823D01*
X84448485Y-75005476D01*
X84605476Y-74848485D01*
X84728823Y-74663882D01*
X84813787Y-74458763D01*
X84857100Y-74241010D01*
X84857100Y-74018990D01*
X84813787Y-73801237D01*
X84728823Y-73596118D01*
X84605476Y-73411515D01*
X84448485Y-73254524D01*
X84263882Y-73131177D01*
X84058763Y-73046213D01*
X83841010Y-73002900D01*
X83618990Y-73002900D01*
X83401237Y-73046213D01*
X83196118Y-73131177D01*
X83011515Y-73254524D01*
X82854524Y-73411515D01*
X82731177Y-73596118D01*
X82646213Y-73801237D01*
X82602900Y-74018990D01*
X27298141Y-74018990D01*
X28609183Y-72707949D01*
X28625532Y-72694532D01*
X28679092Y-72629269D01*
X28718890Y-72554811D01*
X28743398Y-72474020D01*
X28749600Y-72411048D01*
X28749600Y-72411047D01*
X28751673Y-72390001D01*
X28749600Y-72368955D01*
X28749600Y-71478990D01*
X82602900Y-71478990D01*
X82602900Y-71701010D01*
X82646213Y-71918763D01*
X82731177Y-72123882D01*
X82854524Y-72308485D01*
X83011515Y-72465476D01*
X83196118Y-72588823D01*
X83401237Y-72673787D01*
X83618990Y-72717100D01*
X83841010Y-72717100D01*
X84058763Y-72673787D01*
X84263882Y-72588823D01*
X84448485Y-72465476D01*
X84605476Y-72308485D01*
X84728823Y-72123882D01*
X84813787Y-71918763D01*
X84857100Y-71701010D01*
X84857100Y-71478990D01*
X84813787Y-71261237D01*
X84728823Y-71056118D01*
X84605476Y-70871515D01*
X84448485Y-70714524D01*
X84263882Y-70591177D01*
X84058763Y-70506213D01*
X83841010Y-70462900D01*
X83618990Y-70462900D01*
X83401237Y-70506213D01*
X83196118Y-70591177D01*
X83011515Y-70714524D01*
X82854524Y-70871515D01*
X82731177Y-71056118D01*
X82646213Y-71261237D01*
X82602900Y-71478990D01*
X28749600Y-71478990D01*
X28749600Y-70365411D01*
X28765512Y-70341597D01*
X28803324Y-70250311D01*
X28822600Y-70153403D01*
X28822600Y-70054597D01*
X28803324Y-69957689D01*
X28765512Y-69866403D01*
X28710618Y-69784249D01*
X28640751Y-69714382D01*
X28558597Y-69659488D01*
X28467311Y-69621676D01*
X28370403Y-69602400D01*
X28271597Y-69602400D01*
X28174689Y-69621676D01*
X28083403Y-69659488D01*
X28001249Y-69714382D01*
X27931382Y-69784249D01*
X27876488Y-69866403D01*
X27860600Y-69904760D01*
X27860600Y-68938990D01*
X82602900Y-68938990D01*
X82602900Y-69161010D01*
X82646213Y-69378763D01*
X82731177Y-69583882D01*
X82854524Y-69768485D01*
X83011515Y-69925476D01*
X83196118Y-70048823D01*
X83401237Y-70133787D01*
X83618990Y-70177100D01*
X83841010Y-70177100D01*
X84058763Y-70133787D01*
X84263882Y-70048823D01*
X84448485Y-69925476D01*
X84605476Y-69768485D01*
X84728823Y-69583882D01*
X84813787Y-69378763D01*
X84857100Y-69161010D01*
X84857100Y-68938990D01*
X84813787Y-68721237D01*
X84728823Y-68516118D01*
X84605476Y-68331515D01*
X84448485Y-68174524D01*
X84263882Y-68051177D01*
X84058763Y-67966213D01*
X83841010Y-67922900D01*
X83618990Y-67922900D01*
X83401237Y-67966213D01*
X83196118Y-68051177D01*
X83011515Y-68174524D01*
X82854524Y-68331515D01*
X82731177Y-68516118D01*
X82646213Y-68721237D01*
X82602900Y-68938990D01*
X27860600Y-68938990D01*
X27860600Y-68376531D01*
X28439220Y-67797912D01*
X28467311Y-67792324D01*
X28558597Y-67754512D01*
X28640751Y-67699618D01*
X28710618Y-67629751D01*
X28765512Y-67547597D01*
X28803324Y-67456311D01*
X28822600Y-67359403D01*
X28822600Y-67260597D01*
X28803324Y-67163689D01*
X28765512Y-67072403D01*
X28710618Y-66990249D01*
X28640751Y-66920382D01*
X28558597Y-66865488D01*
X28467311Y-66827676D01*
X28370403Y-66808400D01*
X28271597Y-66808400D01*
X28174689Y-66827676D01*
X28083403Y-66865488D01*
X28001249Y-66920382D01*
X27931382Y-66990249D01*
X27876488Y-67072403D01*
X27838676Y-67163689D01*
X27833088Y-67191780D01*
X27143819Y-67881050D01*
X27127469Y-67894468D01*
X27073909Y-67959731D01*
X27034111Y-68034189D01*
X27009602Y-68114980D01*
X27001327Y-68199000D01*
X27003401Y-68220058D01*
X27003400Y-72085468D01*
X23444469Y-75644400D01*
X14158600Y-75644400D01*
X14158600Y-75172433D01*
X14263882Y-75128823D01*
X14448485Y-75005476D01*
X14605476Y-74848485D01*
X14728823Y-74663882D01*
X14813787Y-74458763D01*
X14857100Y-74241010D01*
X14857100Y-74018990D01*
X14813787Y-73801237D01*
X14728823Y-73596118D01*
X14605476Y-73411515D01*
X14448485Y-73254524D01*
X14263882Y-73131177D01*
X14058763Y-73046213D01*
X13841010Y-73002900D01*
X13618990Y-73002900D01*
X13401237Y-73046213D01*
X13196118Y-73131177D01*
X13011515Y-73254524D01*
X12854524Y-73411515D01*
X12731177Y-73596118D01*
X12646213Y-73801237D01*
X12602900Y-74018990D01*
X12602900Y-74241010D01*
X12646213Y-74458763D01*
X12731177Y-74663882D01*
X12854524Y-74848485D01*
X13011515Y-75005476D01*
X13196118Y-75128823D01*
X13301401Y-75172433D01*
X13301401Y-75811942D01*
X13299327Y-75833000D01*
X13307602Y-75917020D01*
X13329432Y-75988979D01*
X13332111Y-75997811D01*
X13371909Y-76072269D01*
X13425469Y-76137532D01*
X13441820Y-76150951D01*
X13570270Y-76279400D01*
X12115531Y-76279400D01*
X11096600Y-75260469D01*
X11096600Y-72313531D01*
X11391532Y-72018600D01*
X12687567Y-72018600D01*
X12731177Y-72123882D01*
X12854524Y-72308485D01*
X13011515Y-72465476D01*
X13196118Y-72588823D01*
X13401237Y-72673787D01*
X13618990Y-72717100D01*
X13841010Y-72717100D01*
X14058763Y-72673787D01*
X14263882Y-72588823D01*
X14448485Y-72465476D01*
X14605476Y-72308485D01*
X14728823Y-72123882D01*
X14813787Y-71918763D01*
X14857100Y-71701010D01*
X14857100Y-71478990D01*
X14813787Y-71261237D01*
X14728823Y-71056118D01*
X14605476Y-70871515D01*
X14448485Y-70714524D01*
X14263882Y-70591177D01*
X14058763Y-70506213D01*
X13841010Y-70462900D01*
X13618990Y-70462900D01*
X13401237Y-70506213D01*
X13196118Y-70591177D01*
X13011515Y-70714524D01*
X12854524Y-70871515D01*
X12731177Y-71056118D01*
X12687567Y-71161400D01*
X11235048Y-71161400D01*
X11214000Y-71159327D01*
X11129979Y-71167602D01*
X11105471Y-71175037D01*
X11049189Y-71192110D01*
X10974731Y-71231908D01*
X10909468Y-71285468D01*
X10896049Y-71301819D01*
X10379824Y-71818045D01*
X10363468Y-71831468D01*
X10309908Y-71896732D01*
X10270110Y-71971190D01*
X10263764Y-71992111D01*
X10245602Y-72051980D01*
X10237327Y-72136000D01*
X351600Y-72136000D01*
X351600Y-68938990D01*
X12602900Y-68938990D01*
X12602900Y-69161010D01*
X12646213Y-69378763D01*
X12731177Y-69583882D01*
X12854524Y-69768485D01*
X13011515Y-69925476D01*
X13196118Y-70048823D01*
X13401237Y-70133787D01*
X13618990Y-70177100D01*
X13841010Y-70177100D01*
X14058763Y-70133787D01*
X14263882Y-70048823D01*
X14448485Y-69925476D01*
X14605476Y-69768485D01*
X14728823Y-69583882D01*
X14813787Y-69378763D01*
X14857100Y-69161010D01*
X14857100Y-68938990D01*
X14813787Y-68721237D01*
X14728823Y-68516118D01*
X14605476Y-68331515D01*
X14448485Y-68174524D01*
X14263882Y-68051177D01*
X14058763Y-67966213D01*
X13841010Y-67922900D01*
X13618990Y-67922900D01*
X13401237Y-67966213D01*
X13196118Y-68051177D01*
X13011515Y-68174524D01*
X12854524Y-68331515D01*
X12731177Y-68516118D01*
X12646213Y-68721237D01*
X12602900Y-68938990D01*
X351600Y-68938990D01*
X351600Y-66398990D01*
X12602900Y-66398990D01*
X12602900Y-66621010D01*
X12646213Y-66838763D01*
X12731177Y-67043882D01*
X12854524Y-67228485D01*
X13011515Y-67385476D01*
X13196118Y-67508823D01*
X13401237Y-67593787D01*
X13618990Y-67637100D01*
X13841010Y-67637100D01*
X14058763Y-67593787D01*
X14263882Y-67508823D01*
X14448485Y-67385476D01*
X14605476Y-67228485D01*
X14728823Y-67043882D01*
X14813787Y-66838763D01*
X14857100Y-66621010D01*
X14857100Y-66398990D01*
X82602900Y-66398990D01*
X82602900Y-66621010D01*
X82646213Y-66838763D01*
X82731177Y-67043882D01*
X82854524Y-67228485D01*
X83011515Y-67385476D01*
X83196118Y-67508823D01*
X83401237Y-67593787D01*
X83618990Y-67637100D01*
X83841010Y-67637100D01*
X84058763Y-67593787D01*
X84263882Y-67508823D01*
X84448485Y-67385476D01*
X84605476Y-67228485D01*
X84728823Y-67043882D01*
X84813787Y-66838763D01*
X84857100Y-66621010D01*
X84857100Y-66398990D01*
X84813787Y-66181237D01*
X84728823Y-65976118D01*
X84605476Y-65791515D01*
X84448485Y-65634524D01*
X84263882Y-65511177D01*
X84058763Y-65426213D01*
X83841010Y-65382900D01*
X83618990Y-65382900D01*
X83401237Y-65426213D01*
X83196118Y-65511177D01*
X83011515Y-65634524D01*
X82854524Y-65791515D01*
X82731177Y-65976118D01*
X82646213Y-66181237D01*
X82602900Y-66398990D01*
X14857100Y-66398990D01*
X14813787Y-66181237D01*
X14728823Y-65976118D01*
X14605476Y-65791515D01*
X14448485Y-65634524D01*
X14263882Y-65511177D01*
X14058763Y-65426213D01*
X13841010Y-65382900D01*
X13618990Y-65382900D01*
X13401237Y-65426213D01*
X13196118Y-65511177D01*
X13011515Y-65634524D01*
X12854524Y-65791515D01*
X12731177Y-65976118D01*
X12646213Y-66181237D01*
X12602900Y-66398990D01*
X351600Y-66398990D01*
X351600Y-63858990D01*
X12602900Y-63858990D01*
X12602900Y-64081010D01*
X12646213Y-64298763D01*
X12731177Y-64503882D01*
X12854524Y-64688485D01*
X13011515Y-64845476D01*
X13196118Y-64968823D01*
X13401237Y-65053787D01*
X13618990Y-65097100D01*
X13841010Y-65097100D01*
X14058763Y-65053787D01*
X14263882Y-64968823D01*
X14448485Y-64845476D01*
X14605476Y-64688485D01*
X14728823Y-64503882D01*
X14813787Y-64298763D01*
X14857100Y-64081010D01*
X14857100Y-63858990D01*
X82602900Y-63858990D01*
X82602900Y-64081010D01*
X82646213Y-64298763D01*
X82731177Y-64503882D01*
X82854524Y-64688485D01*
X83011515Y-64845476D01*
X83196118Y-64968823D01*
X83401237Y-65053787D01*
X83618990Y-65097100D01*
X83841010Y-65097100D01*
X84058763Y-65053787D01*
X84263882Y-64968823D01*
X84448485Y-64845476D01*
X84605476Y-64688485D01*
X84728823Y-64503882D01*
X84813787Y-64298763D01*
X84857100Y-64081010D01*
X84857100Y-63858990D01*
X84813787Y-63641237D01*
X84728823Y-63436118D01*
X84605476Y-63251515D01*
X84448485Y-63094524D01*
X84263882Y-62971177D01*
X84058763Y-62886213D01*
X83841010Y-62842900D01*
X83618990Y-62842900D01*
X83401237Y-62886213D01*
X83196118Y-62971177D01*
X83011515Y-63094524D01*
X82854524Y-63251515D01*
X82731177Y-63436118D01*
X82646213Y-63641237D01*
X82602900Y-63858990D01*
X14857100Y-63858990D01*
X14813787Y-63641237D01*
X14728823Y-63436118D01*
X14605476Y-63251515D01*
X14448485Y-63094524D01*
X14263882Y-62971177D01*
X14058763Y-62886213D01*
X13841010Y-62842900D01*
X13618990Y-62842900D01*
X13401237Y-62886213D01*
X13196118Y-62971177D01*
X13011515Y-63094524D01*
X12854524Y-63251515D01*
X12731177Y-63436118D01*
X12646213Y-63641237D01*
X12602900Y-63858990D01*
X351600Y-63858990D01*
X351600Y-61318990D01*
X12602900Y-61318990D01*
X12602900Y-61541010D01*
X12646213Y-61758763D01*
X12731177Y-61963882D01*
X12854524Y-62148485D01*
X13011515Y-62305476D01*
X13196118Y-62428823D01*
X13401237Y-62513787D01*
X13618990Y-62557100D01*
X13841010Y-62557100D01*
X14058763Y-62513787D01*
X14263882Y-62428823D01*
X14448485Y-62305476D01*
X14605476Y-62148485D01*
X14728823Y-61963882D01*
X14813787Y-61758763D01*
X14857100Y-61541010D01*
X14857100Y-61318990D01*
X14813787Y-61101237D01*
X14728823Y-60896118D01*
X14605476Y-60711515D01*
X14448485Y-60554524D01*
X14263882Y-60431177D01*
X14058763Y-60346213D01*
X13841010Y-60302900D01*
X13618990Y-60302900D01*
X13401237Y-60346213D01*
X13196118Y-60431177D01*
X13011515Y-60554524D01*
X12854524Y-60711515D01*
X12731177Y-60896118D01*
X12646213Y-61101237D01*
X12602900Y-61318990D01*
X351600Y-61318990D01*
X351600Y-58778990D01*
X12602900Y-58778990D01*
X12602900Y-59001010D01*
X12646213Y-59218763D01*
X12731177Y-59423882D01*
X12854524Y-59608485D01*
X13011515Y-59765476D01*
X13196118Y-59888823D01*
X13401237Y-59973787D01*
X13618990Y-60017100D01*
X13841010Y-60017100D01*
X14058763Y-59973787D01*
X14263882Y-59888823D01*
X14448485Y-59765476D01*
X14605476Y-59608485D01*
X14728823Y-59423882D01*
X14813787Y-59218763D01*
X14857100Y-59001010D01*
X14857100Y-58778990D01*
X14813787Y-58561237D01*
X14728823Y-58356118D01*
X14605476Y-58171515D01*
X14448485Y-58014524D01*
X14263882Y-57891177D01*
X14058763Y-57806213D01*
X13841010Y-57762900D01*
X13618990Y-57762900D01*
X13401237Y-57806213D01*
X13196118Y-57891177D01*
X13011515Y-58014524D01*
X12854524Y-58171515D01*
X12731177Y-58356118D01*
X12646213Y-58561237D01*
X12602900Y-58778990D01*
X351600Y-58778990D01*
X351600Y-56238990D01*
X12602900Y-56238990D01*
X12602900Y-56461010D01*
X12646213Y-56678763D01*
X12731177Y-56883882D01*
X12854524Y-57068485D01*
X13011515Y-57225476D01*
X13196118Y-57348823D01*
X13401237Y-57433787D01*
X13618990Y-57477100D01*
X13841010Y-57477100D01*
X14058763Y-57433787D01*
X14263882Y-57348823D01*
X14448485Y-57225476D01*
X14605476Y-57068485D01*
X14728823Y-56883882D01*
X14813787Y-56678763D01*
X14857100Y-56461010D01*
X14857100Y-56238990D01*
X14813787Y-56021237D01*
X14728823Y-55816118D01*
X14605476Y-55631515D01*
X14448485Y-55474524D01*
X14263882Y-55351177D01*
X14058763Y-55266213D01*
X13841010Y-55222900D01*
X13618990Y-55222900D01*
X13401237Y-55266213D01*
X13196118Y-55351177D01*
X13011515Y-55474524D01*
X12854524Y-55631515D01*
X12731177Y-55816118D01*
X12646213Y-56021237D01*
X12602900Y-56238990D01*
X351600Y-56238990D01*
X351600Y-53698990D01*
X12602900Y-53698990D01*
X12602900Y-53921010D01*
X12646213Y-54138763D01*
X12731177Y-54343882D01*
X12854524Y-54528485D01*
X13011515Y-54685476D01*
X13196118Y-54808823D01*
X13401237Y-54893787D01*
X13618990Y-54937100D01*
X13841010Y-54937100D01*
X14058763Y-54893787D01*
X14263882Y-54808823D01*
X14448485Y-54685476D01*
X14605476Y-54528485D01*
X14728823Y-54343882D01*
X14813787Y-54138763D01*
X14857100Y-53921010D01*
X14857100Y-53698990D01*
X14813787Y-53481237D01*
X14728823Y-53276118D01*
X14605476Y-53091515D01*
X14448485Y-52934524D01*
X14263882Y-52811177D01*
X14058763Y-52726213D01*
X13841010Y-52682900D01*
X13618990Y-52682900D01*
X13401237Y-52726213D01*
X13196118Y-52811177D01*
X13011515Y-52934524D01*
X12854524Y-53091515D01*
X12731177Y-53276118D01*
X12646213Y-53481237D01*
X12602900Y-53698990D01*
X351600Y-53698990D01*
X351600Y-51158990D01*
X12602900Y-51158990D01*
X12602900Y-51381010D01*
X12646213Y-51598763D01*
X12731177Y-51803882D01*
X12854524Y-51988485D01*
X13011515Y-52145476D01*
X13196118Y-52268823D01*
X13401237Y-52353787D01*
X13618990Y-52397100D01*
X13841010Y-52397100D01*
X14058763Y-52353787D01*
X14263882Y-52268823D01*
X14448485Y-52145476D01*
X14605476Y-51988485D01*
X14728823Y-51803882D01*
X14813787Y-51598763D01*
X14857100Y-51381010D01*
X14857100Y-51158990D01*
X14813787Y-50941237D01*
X14728823Y-50736118D01*
X14605476Y-50551515D01*
X14448485Y-50394524D01*
X14263882Y-50271177D01*
X14058763Y-50186213D01*
X13841010Y-50142900D01*
X13618990Y-50142900D01*
X13401237Y-50186213D01*
X13196118Y-50271177D01*
X13011515Y-50394524D01*
X12854524Y-50551515D01*
X12731177Y-50736118D01*
X12646213Y-50941237D01*
X12602900Y-51158990D01*
X351600Y-51158990D01*
X351600Y-48618990D01*
X12602900Y-48618990D01*
X12602900Y-48841010D01*
X12646213Y-49058763D01*
X12731177Y-49263882D01*
X12854524Y-49448485D01*
X13011515Y-49605476D01*
X13196118Y-49728823D01*
X13401237Y-49813787D01*
X13618990Y-49857100D01*
X13841010Y-49857100D01*
X14058763Y-49813787D01*
X14263882Y-49728823D01*
X14448485Y-49605476D01*
X14605476Y-49448485D01*
X14728823Y-49263882D01*
X14813787Y-49058763D01*
X14857100Y-48841010D01*
X14857100Y-48618990D01*
X14813787Y-48401237D01*
X14728823Y-48196118D01*
X14605476Y-48011515D01*
X14448485Y-47854524D01*
X14263882Y-47731177D01*
X14058763Y-47646213D01*
X13841010Y-47602900D01*
X13618990Y-47602900D01*
X13401237Y-47646213D01*
X13196118Y-47731177D01*
X13011515Y-47854524D01*
X12854524Y-48011515D01*
X12731177Y-48196118D01*
X12646213Y-48401237D01*
X12602900Y-48618990D01*
X351600Y-48618990D01*
X351600Y-46078990D01*
X12602900Y-46078990D01*
X12602900Y-46301010D01*
X12646213Y-46518763D01*
X12731177Y-46723882D01*
X12854524Y-46908485D01*
X13011515Y-47065476D01*
X13196118Y-47188823D01*
X13401237Y-47273787D01*
X13618990Y-47317100D01*
X13841010Y-47317100D01*
X14058763Y-47273787D01*
X14263882Y-47188823D01*
X14448485Y-47065476D01*
X14605476Y-46908485D01*
X14728823Y-46723882D01*
X14813787Y-46518763D01*
X14857100Y-46301010D01*
X14857100Y-46078990D01*
X14813787Y-45861237D01*
X14728823Y-45656118D01*
X14605476Y-45471515D01*
X14448485Y-45314524D01*
X14263882Y-45191177D01*
X14058763Y-45106213D01*
X13841010Y-45062900D01*
X13618990Y-45062900D01*
X13401237Y-45106213D01*
X13196118Y-45191177D01*
X13011515Y-45314524D01*
X12854524Y-45471515D01*
X12731177Y-45656118D01*
X12646213Y-45861237D01*
X12602900Y-46078990D01*
X351600Y-46078990D01*
X351600Y-43538990D01*
X12602900Y-43538990D01*
X12602900Y-43761010D01*
X12646213Y-43978763D01*
X12731177Y-44183882D01*
X12854524Y-44368485D01*
X13011515Y-44525476D01*
X13196118Y-44648823D01*
X13401237Y-44733787D01*
X13618990Y-44777100D01*
X13841010Y-44777100D01*
X14058763Y-44733787D01*
X14263882Y-44648823D01*
X14448485Y-44525476D01*
X14605476Y-44368485D01*
X14728823Y-44183882D01*
X14813787Y-43978763D01*
X14857100Y-43761010D01*
X14857100Y-43538990D01*
X14813787Y-43321237D01*
X14728823Y-43116118D01*
X14605476Y-42931515D01*
X14448485Y-42774524D01*
X14263882Y-42651177D01*
X14058763Y-42566213D01*
X13841010Y-42522900D01*
X13618990Y-42522900D01*
X13401237Y-42566213D01*
X13196118Y-42651177D01*
X13011515Y-42774524D01*
X12854524Y-42931515D01*
X12731177Y-43116118D01*
X12646213Y-43321237D01*
X12602900Y-43538990D01*
X351600Y-43538990D01*
X351600Y-40998990D01*
X12602900Y-40998990D01*
X12602900Y-41221010D01*
X12646213Y-41438763D01*
X12731177Y-41643882D01*
X12854524Y-41828485D01*
X13011515Y-41985476D01*
X13196118Y-42108823D01*
X13401237Y-42193787D01*
X13618990Y-42237100D01*
X13841010Y-42237100D01*
X14058763Y-42193787D01*
X14263882Y-42108823D01*
X14319737Y-42071502D01*
X36198400Y-42071502D01*
X36198400Y-42288498D01*
X36240734Y-42501325D01*
X36323775Y-42701803D01*
X36444332Y-42882229D01*
X36597771Y-43035668D01*
X36778197Y-43156225D01*
X36978675Y-43239266D01*
X37191502Y-43281600D01*
X37408498Y-43281600D01*
X37621325Y-43239266D01*
X37821803Y-43156225D01*
X38002229Y-43035668D01*
X38155668Y-42882229D01*
X38276225Y-42701803D01*
X38359266Y-42501325D01*
X38398400Y-42304585D01*
X38398400Y-44595415D01*
X38359266Y-44398675D01*
X38276225Y-44198197D01*
X38155668Y-44017771D01*
X38002229Y-43864332D01*
X37821803Y-43743775D01*
X37621325Y-43660734D01*
X37408498Y-43618400D01*
X37191502Y-43618400D01*
X36978675Y-43660734D01*
X36778197Y-43743775D01*
X36597771Y-43864332D01*
X36444332Y-44017771D01*
X36323775Y-44198197D01*
X36240734Y-44398675D01*
X36198400Y-44611502D01*
X36198400Y-44828498D01*
X36240734Y-45041325D01*
X36323775Y-45241803D01*
X36444332Y-45422229D01*
X36597771Y-45575668D01*
X36778197Y-45696225D01*
X36978675Y-45779266D01*
X37191502Y-45821600D01*
X37408498Y-45821600D01*
X37621325Y-45779266D01*
X37821803Y-45696225D01*
X38002229Y-45575668D01*
X38155668Y-45422229D01*
X38276225Y-45241803D01*
X38359266Y-45041325D01*
X38398400Y-44844585D01*
X38398400Y-63750000D01*
X38400352Y-63769821D01*
X38406134Y-63788881D01*
X38415523Y-63806446D01*
X38428158Y-63821842D01*
X38443554Y-63834477D01*
X38461119Y-63843866D01*
X38480179Y-63849648D01*
X38500000Y-63851600D01*
X61500000Y-63851600D01*
X61519821Y-63849648D01*
X61538881Y-63843866D01*
X61556446Y-63834477D01*
X61571842Y-63821842D01*
X61584477Y-63806446D01*
X61593866Y-63788881D01*
X61599648Y-63769821D01*
X61601600Y-63750000D01*
X61601600Y-61318990D01*
X82602900Y-61318990D01*
X82602900Y-61541010D01*
X82646213Y-61758763D01*
X82731177Y-61963882D01*
X82854524Y-62148485D01*
X83011515Y-62305476D01*
X83196118Y-62428823D01*
X83401237Y-62513787D01*
X83618990Y-62557100D01*
X83841010Y-62557100D01*
X84058763Y-62513787D01*
X84263882Y-62428823D01*
X84448485Y-62305476D01*
X84605476Y-62148485D01*
X84728823Y-61963882D01*
X84813787Y-61758763D01*
X84857100Y-61541010D01*
X84857100Y-61318990D01*
X85142900Y-61318990D01*
X85142900Y-61541010D01*
X85186213Y-61758763D01*
X85271177Y-61963882D01*
X85394524Y-62148485D01*
X85551515Y-62305476D01*
X85736118Y-62428823D01*
X85941237Y-62513787D01*
X86158990Y-62557100D01*
X86381010Y-62557100D01*
X86598763Y-62513787D01*
X86803882Y-62428823D01*
X86988485Y-62305476D01*
X87145476Y-62148485D01*
X87268823Y-61963882D01*
X87353787Y-61758763D01*
X87397100Y-61541010D01*
X87397100Y-61318990D01*
X87353787Y-61101237D01*
X87268823Y-60896118D01*
X87145476Y-60711515D01*
X86988485Y-60554524D01*
X86803882Y-60431177D01*
X86598763Y-60346213D01*
X86381010Y-60302900D01*
X86158990Y-60302900D01*
X85941237Y-60346213D01*
X85736118Y-60431177D01*
X85551515Y-60554524D01*
X85394524Y-60711515D01*
X85271177Y-60896118D01*
X85186213Y-61101237D01*
X85142900Y-61318990D01*
X84857100Y-61318990D01*
X84813787Y-61101237D01*
X84728823Y-60896118D01*
X84605476Y-60711515D01*
X84448485Y-60554524D01*
X84263882Y-60431177D01*
X84058763Y-60346213D01*
X83841010Y-60302900D01*
X83618990Y-60302900D01*
X83401237Y-60346213D01*
X83196118Y-60431177D01*
X83011515Y-60554524D01*
X82854524Y-60711515D01*
X82731177Y-60896118D01*
X82646213Y-61101237D01*
X82602900Y-61318990D01*
X61601600Y-61318990D01*
X61601600Y-58778990D01*
X82602900Y-58778990D01*
X82602900Y-59001010D01*
X82646213Y-59218763D01*
X82731177Y-59423882D01*
X82854524Y-59608485D01*
X83011515Y-59765476D01*
X83196118Y-59888823D01*
X83401237Y-59973787D01*
X83618990Y-60017100D01*
X83841010Y-60017100D01*
X84058763Y-59973787D01*
X84263882Y-59888823D01*
X84448485Y-59765476D01*
X84605476Y-59608485D01*
X84728823Y-59423882D01*
X84813787Y-59218763D01*
X84857100Y-59001010D01*
X84857100Y-58778990D01*
X84813787Y-58561237D01*
X84728823Y-58356118D01*
X84605476Y-58171515D01*
X84448485Y-58014524D01*
X84263882Y-57891177D01*
X84058763Y-57806213D01*
X83841010Y-57762900D01*
X83618990Y-57762900D01*
X83401237Y-57806213D01*
X83196118Y-57891177D01*
X83011515Y-58014524D01*
X82854524Y-58171515D01*
X82731177Y-58356118D01*
X82646213Y-58561237D01*
X82602900Y-58778990D01*
X61601600Y-58778990D01*
X61601600Y-56238990D01*
X82602900Y-56238990D01*
X82602900Y-56461010D01*
X82646213Y-56678763D01*
X82731177Y-56883882D01*
X82854524Y-57068485D01*
X83011515Y-57225476D01*
X83196118Y-57348823D01*
X83401237Y-57433787D01*
X83618990Y-57477100D01*
X83841010Y-57477100D01*
X84058763Y-57433787D01*
X84263882Y-57348823D01*
X84448485Y-57225476D01*
X84605476Y-57068485D01*
X84728823Y-56883882D01*
X84813787Y-56678763D01*
X84857100Y-56461010D01*
X84857100Y-56238990D01*
X84813787Y-56021237D01*
X84728823Y-55816118D01*
X84605476Y-55631515D01*
X84448485Y-55474524D01*
X84263882Y-55351177D01*
X84058763Y-55266213D01*
X83841010Y-55222900D01*
X83618990Y-55222900D01*
X83401237Y-55266213D01*
X83196118Y-55351177D01*
X83011515Y-55474524D01*
X82854524Y-55631515D01*
X82731177Y-55816118D01*
X82646213Y-56021237D01*
X82602900Y-56238990D01*
X61601600Y-56238990D01*
X61601600Y-53698990D01*
X82602900Y-53698990D01*
X82602900Y-53921010D01*
X82646213Y-54138763D01*
X82731177Y-54343882D01*
X82854524Y-54528485D01*
X83011515Y-54685476D01*
X83196118Y-54808823D01*
X83401237Y-54893787D01*
X83618990Y-54937100D01*
X83841010Y-54937100D01*
X84058763Y-54893787D01*
X84263882Y-54808823D01*
X84448485Y-54685476D01*
X84605476Y-54528485D01*
X84728823Y-54343882D01*
X84813787Y-54138763D01*
X84857100Y-53921010D01*
X84857100Y-53698990D01*
X84813787Y-53481237D01*
X84728823Y-53276118D01*
X84605476Y-53091515D01*
X84448485Y-52934524D01*
X84263882Y-52811177D01*
X84058763Y-52726213D01*
X83841010Y-52682900D01*
X83618990Y-52682900D01*
X83401237Y-52726213D01*
X83196118Y-52811177D01*
X83011515Y-52934524D01*
X82854524Y-53091515D01*
X82731177Y-53276118D01*
X82646213Y-53481237D01*
X82602900Y-53698990D01*
X61601600Y-53698990D01*
X61601600Y-51158990D01*
X82602900Y-51158990D01*
X82602900Y-51381010D01*
X82646213Y-51598763D01*
X82731177Y-51803882D01*
X82854524Y-51988485D01*
X83011515Y-52145476D01*
X83196118Y-52268823D01*
X83401237Y-52353787D01*
X83618990Y-52397100D01*
X83841010Y-52397100D01*
X84058763Y-52353787D01*
X84263882Y-52268823D01*
X84448485Y-52145476D01*
X84605476Y-51988485D01*
X84728823Y-51803882D01*
X84813787Y-51598763D01*
X84857100Y-51381010D01*
X84857100Y-51158990D01*
X84813787Y-50941237D01*
X84728823Y-50736118D01*
X84605476Y-50551515D01*
X84448485Y-50394524D01*
X84263882Y-50271177D01*
X84058763Y-50186213D01*
X83841010Y-50142900D01*
X83618990Y-50142900D01*
X83401237Y-50186213D01*
X83196118Y-50271177D01*
X83011515Y-50394524D01*
X82854524Y-50551515D01*
X82731177Y-50736118D01*
X82646213Y-50941237D01*
X82602900Y-51158990D01*
X61601600Y-51158990D01*
X61601600Y-48618990D01*
X82602900Y-48618990D01*
X82602900Y-48841010D01*
X82646213Y-49058763D01*
X82731177Y-49263882D01*
X82854524Y-49448485D01*
X83011515Y-49605476D01*
X83196118Y-49728823D01*
X83401237Y-49813787D01*
X83618990Y-49857100D01*
X83841010Y-49857100D01*
X84058763Y-49813787D01*
X84263882Y-49728823D01*
X84448485Y-49605476D01*
X84605476Y-49448485D01*
X84728823Y-49263882D01*
X84813787Y-49058763D01*
X84857100Y-48841010D01*
X84857100Y-48618990D01*
X85142900Y-48618990D01*
X85142900Y-48841010D01*
X85186213Y-49058763D01*
X85271177Y-49263882D01*
X85394524Y-49448485D01*
X85551515Y-49605476D01*
X85736118Y-49728823D01*
X85941237Y-49813787D01*
X86158990Y-49857100D01*
X86381010Y-49857100D01*
X86598763Y-49813787D01*
X86803882Y-49728823D01*
X86988485Y-49605476D01*
X87145476Y-49448485D01*
X87268823Y-49263882D01*
X87353787Y-49058763D01*
X87397100Y-48841010D01*
X87397100Y-48618990D01*
X87353787Y-48401237D01*
X87268823Y-48196118D01*
X87145476Y-48011515D01*
X86988485Y-47854524D01*
X86803882Y-47731177D01*
X86598763Y-47646213D01*
X86381010Y-47602900D01*
X86158990Y-47602900D01*
X85941237Y-47646213D01*
X85736118Y-47731177D01*
X85551515Y-47854524D01*
X85394524Y-48011515D01*
X85271177Y-48196118D01*
X85186213Y-48401237D01*
X85142900Y-48618990D01*
X84857100Y-48618990D01*
X84813787Y-48401237D01*
X84728823Y-48196118D01*
X84605476Y-48011515D01*
X84448485Y-47854524D01*
X84263882Y-47731177D01*
X84058763Y-47646213D01*
X83841010Y-47602900D01*
X83618990Y-47602900D01*
X83401237Y-47646213D01*
X83196118Y-47731177D01*
X83011515Y-47854524D01*
X82854524Y-48011515D01*
X82731177Y-48196118D01*
X82646213Y-48401237D01*
X82602900Y-48618990D01*
X61601600Y-48618990D01*
X61601600Y-46480000D01*
X61616941Y-46480000D01*
X61616941Y-48040000D01*
X61622764Y-48099124D01*
X61640010Y-48155976D01*
X61668016Y-48208371D01*
X61705705Y-48254295D01*
X61751629Y-48291984D01*
X61804024Y-48319990D01*
X61860876Y-48337236D01*
X61920000Y-48343059D01*
X63480000Y-48343059D01*
X63539124Y-48337236D01*
X63595976Y-48319990D01*
X63648371Y-48291984D01*
X63694295Y-48254295D01*
X63731984Y-48208371D01*
X63759990Y-48155976D01*
X63777236Y-48099124D01*
X63783059Y-48040000D01*
X63783059Y-46480000D01*
X63777236Y-46420876D01*
X63759990Y-46364024D01*
X63731984Y-46311629D01*
X63694295Y-46265705D01*
X63648371Y-46228016D01*
X63595976Y-46200010D01*
X63539124Y-46182764D01*
X63480000Y-46176941D01*
X61920000Y-46176941D01*
X61860876Y-46182764D01*
X61804024Y-46200010D01*
X61751629Y-46228016D01*
X61705705Y-46265705D01*
X61668016Y-46311629D01*
X61640010Y-46364024D01*
X61622764Y-46420876D01*
X61616941Y-46480000D01*
X61601600Y-46480000D01*
X61601600Y-46078990D01*
X82602900Y-46078990D01*
X82602900Y-46301010D01*
X82646213Y-46518763D01*
X82731177Y-46723882D01*
X82854524Y-46908485D01*
X83011515Y-47065476D01*
X83196118Y-47188823D01*
X83401237Y-47273787D01*
X83618990Y-47317100D01*
X83841010Y-47317100D01*
X84058763Y-47273787D01*
X84263882Y-47188823D01*
X84448485Y-47065476D01*
X84605476Y-46908485D01*
X84728823Y-46723882D01*
X84813787Y-46518763D01*
X84857100Y-46301010D01*
X84857100Y-46078990D01*
X84813787Y-45861237D01*
X84728823Y-45656118D01*
X84605476Y-45471515D01*
X84448485Y-45314524D01*
X84263882Y-45191177D01*
X84058763Y-45106213D01*
X83841010Y-45062900D01*
X83618990Y-45062900D01*
X83401237Y-45106213D01*
X83196118Y-45191177D01*
X83011515Y-45314524D01*
X82854524Y-45471515D01*
X82731177Y-45656118D01*
X82646213Y-45861237D01*
X82602900Y-46078990D01*
X61601600Y-46078990D01*
X61601600Y-44844585D01*
X61640734Y-45041325D01*
X61723775Y-45241803D01*
X61844332Y-45422229D01*
X61997771Y-45575668D01*
X62178197Y-45696225D01*
X62378675Y-45779266D01*
X62591502Y-45821600D01*
X62808498Y-45821600D01*
X63021325Y-45779266D01*
X63221803Y-45696225D01*
X63402229Y-45575668D01*
X63555668Y-45422229D01*
X63676225Y-45241803D01*
X63759266Y-45041325D01*
X63801600Y-44828498D01*
X63801600Y-44611502D01*
X63759266Y-44398675D01*
X63676225Y-44198197D01*
X63555668Y-44017771D01*
X63402229Y-43864332D01*
X63221803Y-43743775D01*
X63021325Y-43660734D01*
X62808498Y-43618400D01*
X62591502Y-43618400D01*
X62378675Y-43660734D01*
X62178197Y-43743775D01*
X61997771Y-43864332D01*
X61844332Y-44017771D01*
X61723775Y-44198197D01*
X61640734Y-44398675D01*
X61601600Y-44595415D01*
X61601600Y-43538990D01*
X82602900Y-43538990D01*
X82602900Y-43761010D01*
X82646213Y-43978763D01*
X82731177Y-44183882D01*
X82854524Y-44368485D01*
X83011515Y-44525476D01*
X83196118Y-44648823D01*
X83401237Y-44733787D01*
X83618990Y-44777100D01*
X83841010Y-44777100D01*
X84058763Y-44733787D01*
X84263882Y-44648823D01*
X84448485Y-44525476D01*
X84605476Y-44368485D01*
X84728823Y-44183882D01*
X84813787Y-43978763D01*
X84857100Y-43761010D01*
X84857100Y-43538990D01*
X85142900Y-43538990D01*
X85142900Y-43761010D01*
X85186213Y-43978763D01*
X85271177Y-44183882D01*
X85394524Y-44368485D01*
X85551515Y-44525476D01*
X85736118Y-44648823D01*
X85941237Y-44733787D01*
X86158990Y-44777100D01*
X86381010Y-44777100D01*
X86598763Y-44733787D01*
X86803882Y-44648823D01*
X86988485Y-44525476D01*
X87145476Y-44368485D01*
X87268823Y-44183882D01*
X87353787Y-43978763D01*
X87397100Y-43761010D01*
X87397100Y-43538990D01*
X87353787Y-43321237D01*
X87268823Y-43116118D01*
X87145476Y-42931515D01*
X86988485Y-42774524D01*
X86803882Y-42651177D01*
X86598763Y-42566213D01*
X86381010Y-42522900D01*
X86158990Y-42522900D01*
X85941237Y-42566213D01*
X85736118Y-42651177D01*
X85551515Y-42774524D01*
X85394524Y-42931515D01*
X85271177Y-43116118D01*
X85186213Y-43321237D01*
X85142900Y-43538990D01*
X84857100Y-43538990D01*
X84813787Y-43321237D01*
X84728823Y-43116118D01*
X84605476Y-42931515D01*
X84448485Y-42774524D01*
X84263882Y-42651177D01*
X84058763Y-42566213D01*
X83841010Y-42522900D01*
X83618990Y-42522900D01*
X83401237Y-42566213D01*
X83196118Y-42651177D01*
X83011515Y-42774524D01*
X82854524Y-42931515D01*
X82731177Y-43116118D01*
X82646213Y-43321237D01*
X82602900Y-43538990D01*
X61601600Y-43538990D01*
X61601600Y-42304585D01*
X61640734Y-42501325D01*
X61723775Y-42701803D01*
X61844332Y-42882229D01*
X61997771Y-43035668D01*
X62178197Y-43156225D01*
X62378675Y-43239266D01*
X62591502Y-43281600D01*
X62808498Y-43281600D01*
X63021325Y-43239266D01*
X63221803Y-43156225D01*
X63402229Y-43035668D01*
X63555668Y-42882229D01*
X63676225Y-42701803D01*
X63759266Y-42501325D01*
X63801600Y-42288498D01*
X63801600Y-42071502D01*
X63759266Y-41858675D01*
X63676225Y-41658197D01*
X63555668Y-41477771D01*
X63402229Y-41324332D01*
X63221803Y-41203775D01*
X63021325Y-41120734D01*
X62808498Y-41078400D01*
X62591502Y-41078400D01*
X62378675Y-41120734D01*
X62178197Y-41203775D01*
X61997771Y-41324332D01*
X61844332Y-41477771D01*
X61723775Y-41658197D01*
X61640734Y-41858675D01*
X61601600Y-42055415D01*
X61601600Y-40998990D01*
X82602900Y-40998990D01*
X82602900Y-41221010D01*
X82646213Y-41438763D01*
X82731177Y-41643882D01*
X82854524Y-41828485D01*
X83011515Y-41985476D01*
X83196118Y-42108823D01*
X83401237Y-42193787D01*
X83618990Y-42237100D01*
X83841010Y-42237100D01*
X84058763Y-42193787D01*
X84263882Y-42108823D01*
X84448485Y-41985476D01*
X84605476Y-41828485D01*
X84728823Y-41643882D01*
X84813787Y-41438763D01*
X84857100Y-41221010D01*
X84857100Y-40998990D01*
X84813787Y-40781237D01*
X84728823Y-40576118D01*
X84605476Y-40391515D01*
X84448485Y-40234524D01*
X84263882Y-40111177D01*
X84058763Y-40026213D01*
X83841010Y-39982900D01*
X83618990Y-39982900D01*
X83401237Y-40026213D01*
X83196118Y-40111177D01*
X83011515Y-40234524D01*
X82854524Y-40391515D01*
X82731177Y-40576118D01*
X82646213Y-40781237D01*
X82602900Y-40998990D01*
X61601600Y-40998990D01*
X61601600Y-40750000D01*
X61599648Y-40730179D01*
X61593866Y-40711119D01*
X61584477Y-40693554D01*
X61571842Y-40678158D01*
X61556446Y-40665523D01*
X61538881Y-40656134D01*
X61519821Y-40650352D01*
X61500000Y-40648400D01*
X38500000Y-40648400D01*
X38480179Y-40650352D01*
X38461119Y-40656134D01*
X38443554Y-40665523D01*
X38428158Y-40678158D01*
X38415523Y-40693554D01*
X38406134Y-40711119D01*
X38400352Y-40730179D01*
X38398400Y-40750000D01*
X38398400Y-42055415D01*
X38359266Y-41858675D01*
X38276225Y-41658197D01*
X38155668Y-41477771D01*
X38002229Y-41324332D01*
X37821803Y-41203775D01*
X37621325Y-41120734D01*
X37408498Y-41078400D01*
X37191502Y-41078400D01*
X36978675Y-41120734D01*
X36778197Y-41203775D01*
X36597771Y-41324332D01*
X36444332Y-41477771D01*
X36323775Y-41658197D01*
X36240734Y-41858675D01*
X36198400Y-42071502D01*
X14319737Y-42071502D01*
X14448485Y-41985476D01*
X14605476Y-41828485D01*
X14728823Y-41643882D01*
X14813787Y-41438763D01*
X14857100Y-41221010D01*
X14857100Y-40998990D01*
X14813787Y-40781237D01*
X14728823Y-40576118D01*
X14605476Y-40391515D01*
X14448485Y-40234524D01*
X14263882Y-40111177D01*
X14058763Y-40026213D01*
X13841010Y-39982900D01*
X13618990Y-39982900D01*
X13401237Y-40026213D01*
X13196118Y-40111177D01*
X13011515Y-40234524D01*
X12854524Y-40391515D01*
X12731177Y-40576118D01*
X12646213Y-40781237D01*
X12602900Y-40998990D01*
X351600Y-40998990D01*
X351600Y-38458990D01*
X12602900Y-38458990D01*
X12602900Y-38681010D01*
X12646213Y-38898763D01*
X12731177Y-39103882D01*
X12854524Y-39288485D01*
X13011515Y-39445476D01*
X13196118Y-39568823D01*
X13401237Y-39653787D01*
X13618990Y-39697100D01*
X13841010Y-39697100D01*
X14058763Y-39653787D01*
X14263882Y-39568823D01*
X14319737Y-39531502D01*
X36198400Y-39531502D01*
X36198400Y-39748498D01*
X36240734Y-39961325D01*
X36323775Y-40161803D01*
X36444332Y-40342229D01*
X36597771Y-40495668D01*
X36778197Y-40616225D01*
X36978675Y-40699266D01*
X37191502Y-40741600D01*
X37408498Y-40741600D01*
X37621325Y-40699266D01*
X37821803Y-40616225D01*
X38002229Y-40495668D01*
X38155668Y-40342229D01*
X38276225Y-40161803D01*
X38359266Y-39961325D01*
X38401600Y-39748498D01*
X38401600Y-39531502D01*
X61598400Y-39531502D01*
X61598400Y-39748498D01*
X61640734Y-39961325D01*
X61723775Y-40161803D01*
X61844332Y-40342229D01*
X61997771Y-40495668D01*
X62178197Y-40616225D01*
X62378675Y-40699266D01*
X62591502Y-40741600D01*
X62808498Y-40741600D01*
X63021325Y-40699266D01*
X63221803Y-40616225D01*
X63402229Y-40495668D01*
X63555668Y-40342229D01*
X63676225Y-40161803D01*
X63759266Y-39961325D01*
X63801600Y-39748498D01*
X63801600Y-39531502D01*
X63759266Y-39318675D01*
X63676225Y-39118197D01*
X63555668Y-38937771D01*
X63402229Y-38784332D01*
X63221803Y-38663775D01*
X63021325Y-38580734D01*
X62808498Y-38538400D01*
X62591502Y-38538400D01*
X62378675Y-38580734D01*
X62178197Y-38663775D01*
X61997771Y-38784332D01*
X61844332Y-38937771D01*
X61723775Y-39118197D01*
X61640734Y-39318675D01*
X61598400Y-39531502D01*
X38401600Y-39531502D01*
X38359266Y-39318675D01*
X38276225Y-39118197D01*
X38155668Y-38937771D01*
X38002229Y-38784332D01*
X37821803Y-38663775D01*
X37621325Y-38580734D01*
X37408498Y-38538400D01*
X37191502Y-38538400D01*
X36978675Y-38580734D01*
X36778197Y-38663775D01*
X36597771Y-38784332D01*
X36444332Y-38937771D01*
X36323775Y-39118197D01*
X36240734Y-39318675D01*
X36198400Y-39531502D01*
X14319737Y-39531502D01*
X14448485Y-39445476D01*
X14605476Y-39288485D01*
X14728823Y-39103882D01*
X14813787Y-38898763D01*
X14857100Y-38681010D01*
X14857100Y-38458990D01*
X82602900Y-38458990D01*
X82602900Y-38681010D01*
X82646213Y-38898763D01*
X82731177Y-39103882D01*
X82854524Y-39288485D01*
X83011515Y-39445476D01*
X83196118Y-39568823D01*
X83401237Y-39653787D01*
X83618990Y-39697100D01*
X83841010Y-39697100D01*
X84058763Y-39653787D01*
X84263882Y-39568823D01*
X84448485Y-39445476D01*
X84605476Y-39288485D01*
X84728823Y-39103882D01*
X84813787Y-38898763D01*
X84857100Y-38681010D01*
X84857100Y-38458990D01*
X85142900Y-38458990D01*
X85142900Y-38681010D01*
X85186213Y-38898763D01*
X85271177Y-39103882D01*
X85394524Y-39288485D01*
X85551515Y-39445476D01*
X85736118Y-39568823D01*
X85941237Y-39653787D01*
X86158990Y-39697100D01*
X86381010Y-39697100D01*
X86598763Y-39653787D01*
X86803882Y-39568823D01*
X86988485Y-39445476D01*
X87145476Y-39288485D01*
X87268823Y-39103882D01*
X87353787Y-38898763D01*
X87397100Y-38681010D01*
X87397100Y-38458990D01*
X87353787Y-38241237D01*
X87268823Y-38036118D01*
X87145476Y-37851515D01*
X86988485Y-37694524D01*
X86803882Y-37571177D01*
X86598763Y-37486213D01*
X86381010Y-37442900D01*
X86158990Y-37442900D01*
X85941237Y-37486213D01*
X85736118Y-37571177D01*
X85551515Y-37694524D01*
X85394524Y-37851515D01*
X85271177Y-38036118D01*
X85186213Y-38241237D01*
X85142900Y-38458990D01*
X84857100Y-38458990D01*
X84813787Y-38241237D01*
X84728823Y-38036118D01*
X84605476Y-37851515D01*
X84448485Y-37694524D01*
X84263882Y-37571177D01*
X84058763Y-37486213D01*
X83841010Y-37442900D01*
X83618990Y-37442900D01*
X83401237Y-37486213D01*
X83196118Y-37571177D01*
X83011515Y-37694524D01*
X82854524Y-37851515D01*
X82731177Y-38036118D01*
X82646213Y-38241237D01*
X82602900Y-38458990D01*
X14857100Y-38458990D01*
X14813787Y-38241237D01*
X14728823Y-38036118D01*
X14605476Y-37851515D01*
X14448485Y-37694524D01*
X14263882Y-37571177D01*
X14058763Y-37486213D01*
X13841010Y-37442900D01*
X13618990Y-37442900D01*
X13401237Y-37486213D01*
X13196118Y-37571177D01*
X13011515Y-37694524D01*
X12854524Y-37851515D01*
X12731177Y-38036118D01*
X12646213Y-38241237D01*
X12602900Y-38458990D01*
X351600Y-38458990D01*
X351600Y-35918990D01*
X12602900Y-35918990D01*
X12602900Y-36141010D01*
X12646213Y-36358763D01*
X12731177Y-36563882D01*
X12854524Y-36748485D01*
X13011515Y-36905476D01*
X13196118Y-37028823D01*
X13401237Y-37113787D01*
X13618990Y-37157100D01*
X13841010Y-37157100D01*
X14058763Y-37113787D01*
X14263882Y-37028823D01*
X14319737Y-36991502D01*
X36198400Y-36991502D01*
X36198400Y-37208498D01*
X36240734Y-37421325D01*
X36323775Y-37621803D01*
X36444332Y-37802229D01*
X36597771Y-37955668D01*
X36778197Y-38076225D01*
X36978675Y-38159266D01*
X37191502Y-38201600D01*
X37408498Y-38201600D01*
X37621325Y-38159266D01*
X37821803Y-38076225D01*
X38002229Y-37955668D01*
X38155668Y-37802229D01*
X38276225Y-37621803D01*
X38359266Y-37421325D01*
X38401600Y-37208498D01*
X38401600Y-36991502D01*
X61598400Y-36991502D01*
X61598400Y-37208498D01*
X61640734Y-37421325D01*
X61723775Y-37621803D01*
X61844332Y-37802229D01*
X61997771Y-37955668D01*
X62178197Y-38076225D01*
X62378675Y-38159266D01*
X62591502Y-38201600D01*
X62808498Y-38201600D01*
X63021325Y-38159266D01*
X63221803Y-38076225D01*
X63402229Y-37955668D01*
X63555668Y-37802229D01*
X63676225Y-37621803D01*
X63759266Y-37421325D01*
X63801600Y-37208498D01*
X63801600Y-36991502D01*
X63759266Y-36778675D01*
X63676225Y-36578197D01*
X63555668Y-36397771D01*
X63402229Y-36244332D01*
X63221803Y-36123775D01*
X63021325Y-36040734D01*
X62808498Y-35998400D01*
X62591502Y-35998400D01*
X62378675Y-36040734D01*
X62178197Y-36123775D01*
X61997771Y-36244332D01*
X61844332Y-36397771D01*
X61723775Y-36578197D01*
X61640734Y-36778675D01*
X61598400Y-36991502D01*
X38401600Y-36991502D01*
X38359266Y-36778675D01*
X38276225Y-36578197D01*
X38155668Y-36397771D01*
X38002229Y-36244332D01*
X37821803Y-36123775D01*
X37621325Y-36040734D01*
X37408498Y-35998400D01*
X37191502Y-35998400D01*
X36978675Y-36040734D01*
X36778197Y-36123775D01*
X36597771Y-36244332D01*
X36444332Y-36397771D01*
X36323775Y-36578197D01*
X36240734Y-36778675D01*
X36198400Y-36991502D01*
X14319737Y-36991502D01*
X14448485Y-36905476D01*
X14605476Y-36748485D01*
X14728823Y-36563882D01*
X14813787Y-36358763D01*
X14857100Y-36141010D01*
X14857100Y-35918990D01*
X82602900Y-35918990D01*
X82602900Y-36141010D01*
X82646213Y-36358763D01*
X82731177Y-36563882D01*
X82854524Y-36748485D01*
X83011515Y-36905476D01*
X83196118Y-37028823D01*
X83401237Y-37113787D01*
X83618990Y-37157100D01*
X83841010Y-37157100D01*
X84058763Y-37113787D01*
X84263882Y-37028823D01*
X84448485Y-36905476D01*
X84605476Y-36748485D01*
X84728823Y-36563882D01*
X84813787Y-36358763D01*
X84857100Y-36141010D01*
X84857100Y-35918990D01*
X84813787Y-35701237D01*
X84728823Y-35496118D01*
X84605476Y-35311515D01*
X84448485Y-35154524D01*
X84263882Y-35031177D01*
X84058763Y-34946213D01*
X83841010Y-34902900D01*
X83618990Y-34902900D01*
X83401237Y-34946213D01*
X83196118Y-35031177D01*
X83011515Y-35154524D01*
X82854524Y-35311515D01*
X82731177Y-35496118D01*
X82646213Y-35701237D01*
X82602900Y-35918990D01*
X14857100Y-35918990D01*
X14813787Y-35701237D01*
X14728823Y-35496118D01*
X14605476Y-35311515D01*
X14448485Y-35154524D01*
X14263882Y-35031177D01*
X14058763Y-34946213D01*
X13841010Y-34902900D01*
X13618990Y-34902900D01*
X13401237Y-34946213D01*
X13196118Y-35031177D01*
X13011515Y-35154524D01*
X12854524Y-35311515D01*
X12731177Y-35496118D01*
X12646213Y-35701237D01*
X12602900Y-35918990D01*
X351600Y-35918990D01*
X351600Y-33378990D01*
X12602900Y-33378990D01*
X12602900Y-33601010D01*
X12646213Y-33818763D01*
X12731177Y-34023882D01*
X12854524Y-34208485D01*
X13011515Y-34365476D01*
X13196118Y-34488823D01*
X13401237Y-34573787D01*
X13618990Y-34617100D01*
X13841010Y-34617100D01*
X14058763Y-34573787D01*
X14263882Y-34488823D01*
X14319737Y-34451502D01*
X36198400Y-34451502D01*
X36198400Y-34668498D01*
X36240734Y-34881325D01*
X36323775Y-35081803D01*
X36444332Y-35262229D01*
X36597771Y-35415668D01*
X36778197Y-35536225D01*
X36978675Y-35619266D01*
X37191502Y-35661600D01*
X37408498Y-35661600D01*
X37621325Y-35619266D01*
X37821803Y-35536225D01*
X38002229Y-35415668D01*
X38155668Y-35262229D01*
X38276225Y-35081803D01*
X38359266Y-34881325D01*
X38401600Y-34668498D01*
X38401600Y-34451502D01*
X61598400Y-34451502D01*
X61598400Y-34668498D01*
X61640734Y-34881325D01*
X61723775Y-35081803D01*
X61844332Y-35262229D01*
X61997771Y-35415668D01*
X62178197Y-35536225D01*
X62378675Y-35619266D01*
X62591502Y-35661600D01*
X62808498Y-35661600D01*
X63021325Y-35619266D01*
X63221803Y-35536225D01*
X63402229Y-35415668D01*
X63555668Y-35262229D01*
X63676225Y-35081803D01*
X63759266Y-34881325D01*
X63801600Y-34668498D01*
X63801600Y-34451502D01*
X63759266Y-34238675D01*
X63676225Y-34038197D01*
X63555668Y-33857771D01*
X63402229Y-33704332D01*
X63221803Y-33583775D01*
X63021325Y-33500734D01*
X62808498Y-33458400D01*
X62591502Y-33458400D01*
X62378675Y-33500734D01*
X62178197Y-33583775D01*
X61997771Y-33704332D01*
X61844332Y-33857771D01*
X61723775Y-34038197D01*
X61640734Y-34238675D01*
X61598400Y-34451502D01*
X38401600Y-34451502D01*
X38359266Y-34238675D01*
X38276225Y-34038197D01*
X38155668Y-33857771D01*
X38002229Y-33704332D01*
X37821803Y-33583775D01*
X37621325Y-33500734D01*
X37408498Y-33458400D01*
X37191502Y-33458400D01*
X36978675Y-33500734D01*
X36778197Y-33583775D01*
X36597771Y-33704332D01*
X36444332Y-33857771D01*
X36323775Y-34038197D01*
X36240734Y-34238675D01*
X36198400Y-34451502D01*
X14319737Y-34451502D01*
X14448485Y-34365476D01*
X14605476Y-34208485D01*
X14728823Y-34023882D01*
X14813787Y-33818763D01*
X14857100Y-33601010D01*
X14857100Y-33378990D01*
X82602900Y-33378990D01*
X82602900Y-33601010D01*
X82646213Y-33818763D01*
X82731177Y-34023882D01*
X82854524Y-34208485D01*
X83011515Y-34365476D01*
X83196118Y-34488823D01*
X83401237Y-34573787D01*
X83618990Y-34617100D01*
X83841010Y-34617100D01*
X84058763Y-34573787D01*
X84263882Y-34488823D01*
X84448485Y-34365476D01*
X84605476Y-34208485D01*
X84728823Y-34023882D01*
X84813787Y-33818763D01*
X84857100Y-33601010D01*
X84857100Y-33378990D01*
X85142900Y-33378990D01*
X85142900Y-33601010D01*
X85186213Y-33818763D01*
X85271177Y-34023882D01*
X85394524Y-34208485D01*
X85551515Y-34365476D01*
X85736118Y-34488823D01*
X85941237Y-34573787D01*
X86158990Y-34617100D01*
X86381010Y-34617100D01*
X86598763Y-34573787D01*
X86803882Y-34488823D01*
X86988485Y-34365476D01*
X87145476Y-34208485D01*
X87268823Y-34023882D01*
X87353787Y-33818763D01*
X87397100Y-33601010D01*
X87397100Y-33378990D01*
X87353787Y-33161237D01*
X87268823Y-32956118D01*
X87145476Y-32771515D01*
X86988485Y-32614524D01*
X86803882Y-32491177D01*
X86598763Y-32406213D01*
X86381010Y-32362900D01*
X86158990Y-32362900D01*
X85941237Y-32406213D01*
X85736118Y-32491177D01*
X85551515Y-32614524D01*
X85394524Y-32771515D01*
X85271177Y-32956118D01*
X85186213Y-33161237D01*
X85142900Y-33378990D01*
X84857100Y-33378990D01*
X84813787Y-33161237D01*
X84728823Y-32956118D01*
X84605476Y-32771515D01*
X84448485Y-32614524D01*
X84263882Y-32491177D01*
X84058763Y-32406213D01*
X83841010Y-32362900D01*
X83618990Y-32362900D01*
X83401237Y-32406213D01*
X83196118Y-32491177D01*
X83011515Y-32614524D01*
X82854524Y-32771515D01*
X82731177Y-32956118D01*
X82646213Y-33161237D01*
X82602900Y-33378990D01*
X14857100Y-33378990D01*
X14813787Y-33161237D01*
X14728823Y-32956118D01*
X14605476Y-32771515D01*
X14448485Y-32614524D01*
X14263882Y-32491177D01*
X14058763Y-32406213D01*
X13841010Y-32362900D01*
X13618990Y-32362900D01*
X13401237Y-32406213D01*
X13196118Y-32491177D01*
X13011515Y-32614524D01*
X12854524Y-32771515D01*
X12731177Y-32956118D01*
X12646213Y-33161237D01*
X12602900Y-33378990D01*
X351600Y-33378990D01*
X351600Y-30838990D01*
X12602900Y-30838990D01*
X12602900Y-31061010D01*
X12646213Y-31278763D01*
X12731177Y-31483882D01*
X12854524Y-31668485D01*
X13011515Y-31825476D01*
X13196118Y-31948823D01*
X13401237Y-32033787D01*
X13618990Y-32077100D01*
X13841010Y-32077100D01*
X14058763Y-32033787D01*
X14263882Y-31948823D01*
X14319737Y-31911502D01*
X61598400Y-31911502D01*
X61598400Y-32128498D01*
X61640734Y-32341325D01*
X61723775Y-32541803D01*
X61844332Y-32722229D01*
X61997771Y-32875668D01*
X62178197Y-32996225D01*
X62378675Y-33079266D01*
X62591502Y-33121600D01*
X62808498Y-33121600D01*
X63021325Y-33079266D01*
X63221803Y-32996225D01*
X63402229Y-32875668D01*
X63555668Y-32722229D01*
X63676225Y-32541803D01*
X63759266Y-32341325D01*
X63801600Y-32128498D01*
X63801600Y-31911502D01*
X63759266Y-31698675D01*
X63676225Y-31498197D01*
X63555668Y-31317771D01*
X63402229Y-31164332D01*
X63221803Y-31043775D01*
X63021325Y-30960734D01*
X62808498Y-30918400D01*
X62591502Y-30918400D01*
X62378675Y-30960734D01*
X62178197Y-31043775D01*
X61997771Y-31164332D01*
X61844332Y-31317771D01*
X61723775Y-31498197D01*
X61640734Y-31698675D01*
X61598400Y-31911502D01*
X14319737Y-31911502D01*
X14448485Y-31825476D01*
X14605476Y-31668485D01*
X14728823Y-31483882D01*
X14813787Y-31278763D01*
X14857100Y-31061010D01*
X14857100Y-30838990D01*
X82602900Y-30838990D01*
X82602900Y-31061010D01*
X82646213Y-31278763D01*
X82731177Y-31483882D01*
X82854524Y-31668485D01*
X83011515Y-31825476D01*
X83196118Y-31948823D01*
X83401237Y-32033787D01*
X83618990Y-32077100D01*
X83841010Y-32077100D01*
X84058763Y-32033787D01*
X84263882Y-31948823D01*
X84448485Y-31825476D01*
X84605476Y-31668485D01*
X84728823Y-31483882D01*
X84813787Y-31278763D01*
X84857100Y-31061010D01*
X84857100Y-30838990D01*
X84813787Y-30621237D01*
X84728823Y-30416118D01*
X84605476Y-30231515D01*
X84448485Y-30074524D01*
X84263882Y-29951177D01*
X84058763Y-29866213D01*
X83841010Y-29822900D01*
X83618990Y-29822900D01*
X83401237Y-29866213D01*
X83196118Y-29951177D01*
X83011515Y-30074524D01*
X82854524Y-30231515D01*
X82731177Y-30416118D01*
X82646213Y-30621237D01*
X82602900Y-30838990D01*
X14857100Y-30838990D01*
X14813787Y-30621237D01*
X14728823Y-30416118D01*
X14605476Y-30231515D01*
X14448485Y-30074524D01*
X14263882Y-29951177D01*
X14058763Y-29866213D01*
X13841010Y-29822900D01*
X13618990Y-29822900D01*
X13401237Y-29866213D01*
X13196118Y-29951177D01*
X13011515Y-30074524D01*
X12854524Y-30231515D01*
X12731177Y-30416118D01*
X12646213Y-30621237D01*
X12602900Y-30838990D01*
X351600Y-30838990D01*
X351600Y-28298990D01*
X12602900Y-28298990D01*
X12602900Y-28521010D01*
X12646213Y-28738763D01*
X12731177Y-28943882D01*
X12854524Y-29128485D01*
X13011515Y-29285476D01*
X13196118Y-29408823D01*
X13401237Y-29493787D01*
X13618990Y-29537100D01*
X13841010Y-29537100D01*
X14058763Y-29493787D01*
X14263882Y-29408823D01*
X14319737Y-29371502D01*
X36198400Y-29371502D01*
X36198400Y-29588498D01*
X36240734Y-29801325D01*
X36323775Y-30001803D01*
X36444332Y-30182229D01*
X36597771Y-30335668D01*
X36778197Y-30456225D01*
X36978675Y-30539266D01*
X37191502Y-30581600D01*
X37408498Y-30581600D01*
X37621325Y-30539266D01*
X37821803Y-30456225D01*
X38002229Y-30335668D01*
X38155668Y-30182229D01*
X38276225Y-30001803D01*
X38359266Y-29801325D01*
X38401600Y-29588498D01*
X38401600Y-29371502D01*
X61598400Y-29371502D01*
X61598400Y-29588498D01*
X61640734Y-29801325D01*
X61723775Y-30001803D01*
X61844332Y-30182229D01*
X61997771Y-30335668D01*
X62178197Y-30456225D01*
X62378675Y-30539266D01*
X62591502Y-30581600D01*
X62808498Y-30581600D01*
X63021325Y-30539266D01*
X63221803Y-30456225D01*
X63402229Y-30335668D01*
X63555668Y-30182229D01*
X63676225Y-30001803D01*
X63759266Y-29801325D01*
X63801600Y-29588498D01*
X63801600Y-29371502D01*
X63759266Y-29158675D01*
X63676225Y-28958197D01*
X63555668Y-28777771D01*
X63402229Y-28624332D01*
X63221803Y-28503775D01*
X63021325Y-28420734D01*
X62808498Y-28378400D01*
X62591502Y-28378400D01*
X62378675Y-28420734D01*
X62178197Y-28503775D01*
X61997771Y-28624332D01*
X61844332Y-28777771D01*
X61723775Y-28958197D01*
X61640734Y-29158675D01*
X61598400Y-29371502D01*
X38401600Y-29371502D01*
X38359266Y-29158675D01*
X38276225Y-28958197D01*
X38155668Y-28777771D01*
X38002229Y-28624332D01*
X37821803Y-28503775D01*
X37621325Y-28420734D01*
X37408498Y-28378400D01*
X37191502Y-28378400D01*
X36978675Y-28420734D01*
X36778197Y-28503775D01*
X36597771Y-28624332D01*
X36444332Y-28777771D01*
X36323775Y-28958197D01*
X36240734Y-29158675D01*
X36198400Y-29371502D01*
X14319737Y-29371502D01*
X14448485Y-29285476D01*
X14605476Y-29128485D01*
X14728823Y-28943882D01*
X14813787Y-28738763D01*
X14857100Y-28521010D01*
X14857100Y-28298990D01*
X82602900Y-28298990D01*
X82602900Y-28521010D01*
X82646213Y-28738763D01*
X82731177Y-28943882D01*
X82854524Y-29128485D01*
X83011515Y-29285476D01*
X83196118Y-29408823D01*
X83401237Y-29493787D01*
X83618990Y-29537100D01*
X83841010Y-29537100D01*
X84058763Y-29493787D01*
X84263882Y-29408823D01*
X84448485Y-29285476D01*
X84605476Y-29128485D01*
X84728823Y-28943882D01*
X84813787Y-28738763D01*
X84857100Y-28521010D01*
X84857100Y-28298990D01*
X85142900Y-28298990D01*
X85142900Y-28521010D01*
X85186213Y-28738763D01*
X85271177Y-28943882D01*
X85394524Y-29128485D01*
X85551515Y-29285476D01*
X85736118Y-29408823D01*
X85941237Y-29493787D01*
X86158990Y-29537100D01*
X86381010Y-29537100D01*
X86598763Y-29493787D01*
X86803882Y-29408823D01*
X86988485Y-29285476D01*
X87145476Y-29128485D01*
X87268823Y-28943882D01*
X87353787Y-28738763D01*
X87397100Y-28521010D01*
X87397100Y-28298990D01*
X87353787Y-28081237D01*
X87268823Y-27876118D01*
X87145476Y-27691515D01*
X86988485Y-27534524D01*
X86803882Y-27411177D01*
X86598763Y-27326213D01*
X86381010Y-27282900D01*
X86158990Y-27282900D01*
X85941237Y-27326213D01*
X85736118Y-27411177D01*
X85551515Y-27534524D01*
X85394524Y-27691515D01*
X85271177Y-27876118D01*
X85186213Y-28081237D01*
X85142900Y-28298990D01*
X84857100Y-28298990D01*
X84813787Y-28081237D01*
X84728823Y-27876118D01*
X84605476Y-27691515D01*
X84448485Y-27534524D01*
X84263882Y-27411177D01*
X84058763Y-27326213D01*
X83841010Y-27282900D01*
X83618990Y-27282900D01*
X83401237Y-27326213D01*
X83196118Y-27411177D01*
X83011515Y-27534524D01*
X82854524Y-27691515D01*
X82731177Y-27876118D01*
X82646213Y-28081237D01*
X82602900Y-28298990D01*
X14857100Y-28298990D01*
X14813787Y-28081237D01*
X14728823Y-27876118D01*
X14605476Y-27691515D01*
X14448485Y-27534524D01*
X14263882Y-27411177D01*
X14058763Y-27326213D01*
X13841010Y-27282900D01*
X13618990Y-27282900D01*
X13401237Y-27326213D01*
X13196118Y-27411177D01*
X13011515Y-27534524D01*
X12854524Y-27691515D01*
X12731177Y-27876118D01*
X12646213Y-28081237D01*
X12602900Y-28298990D01*
X351600Y-28298990D01*
X351600Y-25758990D01*
X12602900Y-25758990D01*
X12602900Y-25981010D01*
X12646213Y-26198763D01*
X12731177Y-26403882D01*
X12854524Y-26588485D01*
X13011515Y-26745476D01*
X13196118Y-26868823D01*
X13401237Y-26953787D01*
X13618990Y-26997100D01*
X13841010Y-26997100D01*
X14058763Y-26953787D01*
X14263882Y-26868823D01*
X14319737Y-26831502D01*
X36198400Y-26831502D01*
X36198400Y-27048498D01*
X36240734Y-27261325D01*
X36323775Y-27461803D01*
X36444332Y-27642229D01*
X36597771Y-27795668D01*
X36778197Y-27916225D01*
X36978675Y-27999266D01*
X37191502Y-28041600D01*
X37408498Y-28041600D01*
X37621325Y-27999266D01*
X37821803Y-27916225D01*
X38002229Y-27795668D01*
X38155668Y-27642229D01*
X38276225Y-27461803D01*
X38359266Y-27261325D01*
X38401600Y-27048498D01*
X38401600Y-26831502D01*
X61598400Y-26831502D01*
X61598400Y-27048498D01*
X61640734Y-27261325D01*
X61723775Y-27461803D01*
X61844332Y-27642229D01*
X61997771Y-27795668D01*
X62178197Y-27916225D01*
X62378675Y-27999266D01*
X62591502Y-28041600D01*
X62808498Y-28041600D01*
X63021325Y-27999266D01*
X63221803Y-27916225D01*
X63402229Y-27795668D01*
X63555668Y-27642229D01*
X63676225Y-27461803D01*
X63759266Y-27261325D01*
X63801600Y-27048498D01*
X63801600Y-26831502D01*
X63759266Y-26618675D01*
X63676225Y-26418197D01*
X63555668Y-26237771D01*
X63402229Y-26084332D01*
X63221803Y-25963775D01*
X63021325Y-25880734D01*
X62808498Y-25838400D01*
X62591502Y-25838400D01*
X62378675Y-25880734D01*
X62178197Y-25963775D01*
X61997771Y-26084332D01*
X61844332Y-26237771D01*
X61723775Y-26418197D01*
X61640734Y-26618675D01*
X61598400Y-26831502D01*
X38401600Y-26831502D01*
X38359266Y-26618675D01*
X38276225Y-26418197D01*
X38155668Y-26237771D01*
X38002229Y-26084332D01*
X37821803Y-25963775D01*
X37621325Y-25880734D01*
X37408498Y-25838400D01*
X37191502Y-25838400D01*
X36978675Y-25880734D01*
X36778197Y-25963775D01*
X36597771Y-26084332D01*
X36444332Y-26237771D01*
X36323775Y-26418197D01*
X36240734Y-26618675D01*
X36198400Y-26831502D01*
X14319737Y-26831502D01*
X14448485Y-26745476D01*
X14605476Y-26588485D01*
X14728823Y-26403882D01*
X14813787Y-26198763D01*
X14857100Y-25981010D01*
X14857100Y-25758990D01*
X82602900Y-25758990D01*
X82602900Y-25981010D01*
X82646213Y-26198763D01*
X82731177Y-26403882D01*
X82854524Y-26588485D01*
X83011515Y-26745476D01*
X83196118Y-26868823D01*
X83401237Y-26953787D01*
X83618990Y-26997100D01*
X83841010Y-26997100D01*
X84058763Y-26953787D01*
X84263882Y-26868823D01*
X84448485Y-26745476D01*
X84605476Y-26588485D01*
X84728823Y-26403882D01*
X84813787Y-26198763D01*
X84857100Y-25981010D01*
X84857100Y-25758990D01*
X84813787Y-25541237D01*
X84728823Y-25336118D01*
X84605476Y-25151515D01*
X84448485Y-24994524D01*
X84263882Y-24871177D01*
X84058763Y-24786213D01*
X83841010Y-24742900D01*
X83618990Y-24742900D01*
X83401237Y-24786213D01*
X83196118Y-24871177D01*
X83011515Y-24994524D01*
X82854524Y-25151515D01*
X82731177Y-25336118D01*
X82646213Y-25541237D01*
X82602900Y-25758990D01*
X14857100Y-25758990D01*
X14813787Y-25541237D01*
X14728823Y-25336118D01*
X14605476Y-25151515D01*
X14448485Y-24994524D01*
X14263882Y-24871177D01*
X14058763Y-24786213D01*
X13841010Y-24742900D01*
X13618990Y-24742900D01*
X13401237Y-24786213D01*
X13196118Y-24871177D01*
X13011515Y-24994524D01*
X12854524Y-25151515D01*
X12731177Y-25336118D01*
X12646213Y-25541237D01*
X12602900Y-25758990D01*
X351600Y-25758990D01*
X351600Y-24291502D01*
X36198400Y-24291502D01*
X36198400Y-24508498D01*
X36240734Y-24721325D01*
X36323775Y-24921803D01*
X36444332Y-25102229D01*
X36597771Y-25255668D01*
X36778197Y-25376225D01*
X36978675Y-25459266D01*
X37191502Y-25501600D01*
X37408498Y-25501600D01*
X37621325Y-25459266D01*
X37821803Y-25376225D01*
X38002229Y-25255668D01*
X38155668Y-25102229D01*
X38276225Y-24921803D01*
X38359266Y-24721325D01*
X38401600Y-24508498D01*
X38401600Y-24291502D01*
X61598400Y-24291502D01*
X61598400Y-24508498D01*
X61640734Y-24721325D01*
X61723775Y-24921803D01*
X61844332Y-25102229D01*
X61997771Y-25255668D01*
X62178197Y-25376225D01*
X62378675Y-25459266D01*
X62591502Y-25501600D01*
X62808498Y-25501600D01*
X63021325Y-25459266D01*
X63221803Y-25376225D01*
X63402229Y-25255668D01*
X63555668Y-25102229D01*
X63676225Y-24921803D01*
X63759266Y-24721325D01*
X63801600Y-24508498D01*
X63801600Y-24291502D01*
X63759266Y-24078675D01*
X63676225Y-23878197D01*
X63555668Y-23697771D01*
X63402229Y-23544332D01*
X63221803Y-23423775D01*
X63021325Y-23340734D01*
X62808498Y-23298400D01*
X62591502Y-23298400D01*
X62378675Y-23340734D01*
X62178197Y-23423775D01*
X61997771Y-23544332D01*
X61844332Y-23697771D01*
X61723775Y-23878197D01*
X61640734Y-24078675D01*
X61598400Y-24291502D01*
X38401600Y-24291502D01*
X38359266Y-24078675D01*
X38276225Y-23878197D01*
X38155668Y-23697771D01*
X38002229Y-23544332D01*
X37821803Y-23423775D01*
X37621325Y-23340734D01*
X37408498Y-23298400D01*
X37191502Y-23298400D01*
X36978675Y-23340734D01*
X36778197Y-23423775D01*
X36597771Y-23544332D01*
X36444332Y-23697771D01*
X36323775Y-23878197D01*
X36240734Y-24078675D01*
X36198400Y-24291502D01*
X351600Y-24291502D01*
X351600Y-21751502D01*
X36198400Y-21751502D01*
X36198400Y-21968498D01*
X36240734Y-22181325D01*
X36323775Y-22381803D01*
X36444332Y-22562229D01*
X36597771Y-22715668D01*
X36778197Y-22836225D01*
X36978675Y-22919266D01*
X37191502Y-22961600D01*
X37408498Y-22961600D01*
X37621325Y-22919266D01*
X37821803Y-22836225D01*
X38002229Y-22715668D01*
X38155668Y-22562229D01*
X38276225Y-22381803D01*
X38359266Y-22181325D01*
X38401600Y-21968498D01*
X38401600Y-21751502D01*
X61598400Y-21751502D01*
X61598400Y-21968498D01*
X61640734Y-22181325D01*
X61723775Y-22381803D01*
X61844332Y-22562229D01*
X61997771Y-22715668D01*
X62178197Y-22836225D01*
X62378675Y-22919266D01*
X62591502Y-22961600D01*
X62808498Y-22961600D01*
X63021325Y-22919266D01*
X63221803Y-22836225D01*
X63402229Y-22715668D01*
X63555668Y-22562229D01*
X63676225Y-22381803D01*
X63759266Y-22181325D01*
X63801600Y-21968498D01*
X63801600Y-21751502D01*
X63759266Y-21538675D01*
X63676225Y-21338197D01*
X63555668Y-21157771D01*
X63402229Y-21004332D01*
X63221803Y-20883775D01*
X63021325Y-20800734D01*
X62808498Y-20758400D01*
X62591502Y-20758400D01*
X62378675Y-20800734D01*
X62178197Y-20883775D01*
X61997771Y-21004332D01*
X61844332Y-21157771D01*
X61723775Y-21338197D01*
X61640734Y-21538675D01*
X61598400Y-21751502D01*
X38401600Y-21751502D01*
X38359266Y-21538675D01*
X38276225Y-21338197D01*
X38155668Y-21157771D01*
X38002229Y-21004332D01*
X37821803Y-20883775D01*
X37621325Y-20800734D01*
X37408498Y-20758400D01*
X37191502Y-20758400D01*
X36978675Y-20800734D01*
X36778197Y-20883775D01*
X36597771Y-21004332D01*
X36444332Y-21157771D01*
X36323775Y-21338197D01*
X36240734Y-21538675D01*
X36198400Y-21751502D01*
X351600Y-21751502D01*
X351600Y-19211502D01*
X36198400Y-19211502D01*
X36198400Y-19428498D01*
X36240734Y-19641325D01*
X36323775Y-19841803D01*
X36444332Y-20022229D01*
X36597771Y-20175668D01*
X36778197Y-20296225D01*
X36978675Y-20379266D01*
X37191502Y-20421600D01*
X37408498Y-20421600D01*
X37621325Y-20379266D01*
X37821803Y-20296225D01*
X38002229Y-20175668D01*
X38155668Y-20022229D01*
X38276225Y-19841803D01*
X38359266Y-19641325D01*
X38401600Y-19428498D01*
X38401600Y-19211502D01*
X61598400Y-19211502D01*
X61598400Y-19428498D01*
X61640734Y-19641325D01*
X61723775Y-19841803D01*
X61844332Y-20022229D01*
X61997771Y-20175668D01*
X62178197Y-20296225D01*
X62378675Y-20379266D01*
X62591502Y-20421600D01*
X62808498Y-20421600D01*
X63021325Y-20379266D01*
X63221803Y-20296225D01*
X63402229Y-20175668D01*
X63555668Y-20022229D01*
X63676225Y-19841803D01*
X63759266Y-19641325D01*
X63801600Y-19428498D01*
X63801600Y-19211502D01*
X63759266Y-18998675D01*
X63676225Y-18798197D01*
X63555668Y-18617771D01*
X63402229Y-18464332D01*
X63221803Y-18343775D01*
X63021325Y-18260734D01*
X62808498Y-18218400D01*
X62591502Y-18218400D01*
X62378675Y-18260734D01*
X62178197Y-18343775D01*
X61997771Y-18464332D01*
X61844332Y-18617771D01*
X61723775Y-18798197D01*
X61640734Y-18998675D01*
X61598400Y-19211502D01*
X38401600Y-19211502D01*
X38359266Y-18998675D01*
X38276225Y-18798197D01*
X38155668Y-18617771D01*
X38002229Y-18464332D01*
X37821803Y-18343775D01*
X37621325Y-18260734D01*
X37408498Y-18218400D01*
X37191502Y-18218400D01*
X36978675Y-18260734D01*
X36778197Y-18343775D01*
X36597771Y-18464332D01*
X36444332Y-18617771D01*
X36323775Y-18798197D01*
X36240734Y-18998675D01*
X36198400Y-19211502D01*
X351600Y-19211502D01*
X351600Y-16671502D01*
X36198400Y-16671502D01*
X36198400Y-16888498D01*
X36240734Y-17101325D01*
X36323775Y-17301803D01*
X36444332Y-17482229D01*
X36597771Y-17635668D01*
X36778197Y-17756225D01*
X36978675Y-17839266D01*
X37191502Y-17881600D01*
X37408498Y-17881600D01*
X37621325Y-17839266D01*
X37821803Y-17756225D01*
X38002229Y-17635668D01*
X38155668Y-17482229D01*
X38276225Y-17301803D01*
X38359266Y-17101325D01*
X38401600Y-16888498D01*
X38401600Y-16671502D01*
X61598400Y-16671502D01*
X61598400Y-16888498D01*
X61640734Y-17101325D01*
X61723775Y-17301803D01*
X61844332Y-17482229D01*
X61997771Y-17635668D01*
X62178197Y-17756225D01*
X62378675Y-17839266D01*
X62591502Y-17881600D01*
X62808498Y-17881600D01*
X63021325Y-17839266D01*
X63221803Y-17756225D01*
X63402229Y-17635668D01*
X63555668Y-17482229D01*
X63676225Y-17301803D01*
X63759266Y-17101325D01*
X63801600Y-16888498D01*
X63801600Y-16671502D01*
X63759266Y-16458675D01*
X63676225Y-16258197D01*
X63555668Y-16077771D01*
X63402229Y-15924332D01*
X63221803Y-15803775D01*
X63021325Y-15720734D01*
X62808498Y-15678400D01*
X62591502Y-15678400D01*
X62378675Y-15720734D01*
X62178197Y-15803775D01*
X61997771Y-15924332D01*
X61844332Y-16077771D01*
X61723775Y-16258197D01*
X61640734Y-16458675D01*
X61598400Y-16671502D01*
X38401600Y-16671502D01*
X38359266Y-16458675D01*
X38276225Y-16258197D01*
X38155668Y-16077771D01*
X38002229Y-15924332D01*
X37821803Y-15803775D01*
X37621325Y-15720734D01*
X37408498Y-15678400D01*
X37191502Y-15678400D01*
X36978675Y-15720734D01*
X36778197Y-15803775D01*
X36597771Y-15924332D01*
X36444332Y-16077771D01*
X36323775Y-16258197D01*
X36240734Y-16458675D01*
X36198400Y-16671502D01*
X351600Y-16671502D01*
X351600Y-14131502D01*
X36198400Y-14131502D01*
X36198400Y-14348498D01*
X36240734Y-14561325D01*
X36323775Y-14761803D01*
X36444332Y-14942229D01*
X36597771Y-15095668D01*
X36778197Y-15216225D01*
X36978675Y-15299266D01*
X37191502Y-15341600D01*
X37408498Y-15341600D01*
X37621325Y-15299266D01*
X37821803Y-15216225D01*
X38002229Y-15095668D01*
X38155668Y-14942229D01*
X38276225Y-14761803D01*
X38359266Y-14561325D01*
X38401600Y-14348498D01*
X38401600Y-14131502D01*
X38359266Y-13918675D01*
X38276225Y-13718197D01*
X38155668Y-13537771D01*
X38002229Y-13384332D01*
X37821803Y-13263775D01*
X37621325Y-13180734D01*
X37408498Y-13138400D01*
X37191502Y-13138400D01*
X36978675Y-13180734D01*
X36778197Y-13263775D01*
X36597771Y-13384332D01*
X36444332Y-13537771D01*
X36323775Y-13718197D01*
X36240734Y-13918675D01*
X36198400Y-14131502D01*
X351600Y-14131502D01*
X351600Y-11591502D01*
X36198400Y-11591502D01*
X36198400Y-11808498D01*
X36240734Y-12021325D01*
X36323775Y-12221803D01*
X36444332Y-12402229D01*
X36597771Y-12555668D01*
X36778197Y-12676225D01*
X36978675Y-12759266D01*
X37191502Y-12801600D01*
X37408498Y-12801600D01*
X37621325Y-12759266D01*
X37821803Y-12676225D01*
X38002229Y-12555668D01*
X38155668Y-12402229D01*
X38276225Y-12221803D01*
X38359266Y-12021325D01*
X38401600Y-11808498D01*
X38401600Y-11591502D01*
X61598400Y-11591502D01*
X61598400Y-11808498D01*
X61640734Y-12021325D01*
X61723775Y-12221803D01*
X61844332Y-12402229D01*
X61997771Y-12555668D01*
X62178197Y-12676225D01*
X62378675Y-12759266D01*
X62591502Y-12801600D01*
X62808498Y-12801600D01*
X63021325Y-12759266D01*
X63221803Y-12676225D01*
X63402229Y-12555668D01*
X63555668Y-12402229D01*
X63676225Y-12221803D01*
X63759266Y-12021325D01*
X63801600Y-11808498D01*
X63801600Y-11591502D01*
X63759266Y-11378675D01*
X63676225Y-11178197D01*
X63555668Y-10997771D01*
X63402229Y-10844332D01*
X63221803Y-10723775D01*
X63021325Y-10640734D01*
X62808498Y-10598400D01*
X62591502Y-10598400D01*
X62378675Y-10640734D01*
X62178197Y-10723775D01*
X61997771Y-10844332D01*
X61844332Y-10997771D01*
X61723775Y-11178197D01*
X61640734Y-11378675D01*
X61598400Y-11591502D01*
X38401600Y-11591502D01*
X38359266Y-11378675D01*
X38276225Y-11178197D01*
X38155668Y-10997771D01*
X38002229Y-10844332D01*
X37821803Y-10723775D01*
X37621325Y-10640734D01*
X37408498Y-10598400D01*
X37191502Y-10598400D01*
X36978675Y-10640734D01*
X36778197Y-10723775D01*
X36597771Y-10844332D01*
X36444332Y-10997771D01*
X36323775Y-11178197D01*
X36240734Y-11378675D01*
X36198400Y-11591502D01*
X351600Y-11591502D01*
X351600Y-9051502D01*
X36198400Y-9051502D01*
X36198400Y-9268498D01*
X36240734Y-9481325D01*
X36323775Y-9681803D01*
X36444332Y-9862229D01*
X36597771Y-10015668D01*
X36778197Y-10136225D01*
X36978675Y-10219266D01*
X37191502Y-10261600D01*
X37408498Y-10261600D01*
X37621325Y-10219266D01*
X37821803Y-10136225D01*
X38002229Y-10015668D01*
X38155668Y-9862229D01*
X38276225Y-9681803D01*
X38359266Y-9481325D01*
X38401600Y-9268498D01*
X38401600Y-9051502D01*
X61598400Y-9051502D01*
X61598400Y-9268498D01*
X61640734Y-9481325D01*
X61723775Y-9681803D01*
X61844332Y-9862229D01*
X61997771Y-10015668D01*
X62178197Y-10136225D01*
X62378675Y-10219266D01*
X62591502Y-10261600D01*
X62808498Y-10261600D01*
X63021325Y-10219266D01*
X63221803Y-10136225D01*
X63402229Y-10015668D01*
X63555668Y-9862229D01*
X63676225Y-9681803D01*
X63759266Y-9481325D01*
X63801600Y-9268498D01*
X63801600Y-9051502D01*
X63759266Y-8838675D01*
X63676225Y-8638197D01*
X63555668Y-8457771D01*
X63402229Y-8304332D01*
X63221803Y-8183775D01*
X63021325Y-8100734D01*
X62808498Y-8058400D01*
X62591502Y-8058400D01*
X62378675Y-8100734D01*
X62178197Y-8183775D01*
X61997771Y-8304332D01*
X61844332Y-8457771D01*
X61723775Y-8638197D01*
X61640734Y-8838675D01*
X61598400Y-9051502D01*
X38401600Y-9051502D01*
X38359266Y-8838675D01*
X38276225Y-8638197D01*
X38155668Y-8457771D01*
X38002229Y-8304332D01*
X37821803Y-8183775D01*
X37621325Y-8100734D01*
X37408498Y-8058400D01*
X37191502Y-8058400D01*
X36978675Y-8100734D01*
X36778197Y-8183775D01*
X36597771Y-8304332D01*
X36444332Y-8457771D01*
X36323775Y-8638197D01*
X36240734Y-8838675D01*
X36198400Y-9051502D01*
X351600Y-9051502D01*
X351600Y-6511502D01*
X36198400Y-6511502D01*
X36198400Y-6728498D01*
X36240734Y-6941325D01*
X36323775Y-7141803D01*
X36444332Y-7322229D01*
X36597771Y-7475668D01*
X36778197Y-7596225D01*
X36978675Y-7679266D01*
X37191502Y-7721600D01*
X37408498Y-7721600D01*
X37621325Y-7679266D01*
X37821803Y-7596225D01*
X38002229Y-7475668D01*
X38155668Y-7322229D01*
X38276225Y-7141803D01*
X38359266Y-6941325D01*
X38401600Y-6728498D01*
X38401600Y-6511502D01*
X61598400Y-6511502D01*
X61598400Y-6728498D01*
X61640734Y-6941325D01*
X61723775Y-7141803D01*
X61844332Y-7322229D01*
X61997771Y-7475668D01*
X62178197Y-7596225D01*
X62378675Y-7679266D01*
X62591502Y-7721600D01*
X62808498Y-7721600D01*
X63021325Y-7679266D01*
X63221803Y-7596225D01*
X63402229Y-7475668D01*
X63555668Y-7322229D01*
X63676225Y-7141803D01*
X63759266Y-6941325D01*
X63801600Y-6728498D01*
X63801600Y-6511502D01*
X63759266Y-6298675D01*
X63676225Y-6098197D01*
X63555668Y-5917771D01*
X63402229Y-5764332D01*
X63221803Y-5643775D01*
X63021325Y-5560734D01*
X62808498Y-5518400D01*
X62591502Y-5518400D01*
X62378675Y-5560734D01*
X62178197Y-5643775D01*
X61997771Y-5764332D01*
X61844332Y-5917771D01*
X61723775Y-6098197D01*
X61640734Y-6298675D01*
X61598400Y-6511502D01*
X38401600Y-6511502D01*
X38359266Y-6298675D01*
X38276225Y-6098197D01*
X38155668Y-5917771D01*
X38002229Y-5764332D01*
X37821803Y-5643775D01*
X37621325Y-5560734D01*
X37408498Y-5518400D01*
X37191502Y-5518400D01*
X36978675Y-5560734D01*
X36778197Y-5643775D01*
X36597771Y-5764332D01*
X36444332Y-5917771D01*
X36323775Y-6098197D01*
X36240734Y-6298675D01*
X36198400Y-6511502D01*
X351600Y-6511502D01*
X351600Y-3971502D01*
X36198400Y-3971502D01*
X36198400Y-4188498D01*
X36240734Y-4401325D01*
X36323775Y-4601803D01*
X36444332Y-4782229D01*
X36597771Y-4935668D01*
X36778197Y-5056225D01*
X36978675Y-5139266D01*
X37191502Y-5181600D01*
X37408498Y-5181600D01*
X37621325Y-5139266D01*
X37821803Y-5056225D01*
X38002229Y-4935668D01*
X38155668Y-4782229D01*
X38276225Y-4601803D01*
X38359266Y-4401325D01*
X38401600Y-4188498D01*
X38401600Y-3971502D01*
X61598400Y-3971502D01*
X61598400Y-4188498D01*
X61640734Y-4401325D01*
X61723775Y-4601803D01*
X61844332Y-4782229D01*
X61997771Y-4935668D01*
X62178197Y-5056225D01*
X62378675Y-5139266D01*
X62591502Y-5181600D01*
X62808498Y-5181600D01*
X63021325Y-5139266D01*
X63221803Y-5056225D01*
X63402229Y-4935668D01*
X63555668Y-4782229D01*
X63676225Y-4601803D01*
X63759266Y-4401325D01*
X63801600Y-4188498D01*
X63801600Y-3971502D01*
X63759266Y-3758675D01*
X63676225Y-3558197D01*
X63555668Y-3377771D01*
X63402229Y-3224332D01*
X63221803Y-3103775D01*
X63021325Y-3020734D01*
X62808498Y-2978400D01*
X62591502Y-2978400D01*
X62378675Y-3020734D01*
X62178197Y-3103775D01*
X61997771Y-3224332D01*
X61844332Y-3377771D01*
X61723775Y-3558197D01*
X61640734Y-3758675D01*
X61598400Y-3971502D01*
X38401600Y-3971502D01*
X38359266Y-3758675D01*
X38276225Y-3558197D01*
X38155668Y-3377771D01*
X38002229Y-3224332D01*
X37821803Y-3103775D01*
X37621325Y-3020734D01*
X37408498Y-2978400D01*
X37191502Y-2978400D01*
X36978675Y-3020734D01*
X36778197Y-3103775D01*
X36597771Y-3224332D01*
X36444332Y-3377771D01*
X36323775Y-3558197D01*
X36240734Y-3758675D01*
X36198400Y-3971502D01*
X351600Y-3971502D01*
X351600Y-1431502D01*
X36198400Y-1431502D01*
X36198400Y-1648498D01*
X36240734Y-1861325D01*
X36323775Y-2061803D01*
X36444332Y-2242229D01*
X36597771Y-2395668D01*
X36778197Y-2516225D01*
X36978675Y-2599266D01*
X37191502Y-2641600D01*
X37408498Y-2641600D01*
X37621325Y-2599266D01*
X37821803Y-2516225D01*
X38002229Y-2395668D01*
X38155668Y-2242229D01*
X38276225Y-2061803D01*
X38359266Y-1861325D01*
X38401600Y-1648498D01*
X38401600Y-1431502D01*
X61598400Y-1431502D01*
X61598400Y-1648498D01*
X61640734Y-1861325D01*
X61723775Y-2061803D01*
X61844332Y-2242229D01*
X61997771Y-2395668D01*
X62178197Y-2516225D01*
X62378675Y-2599266D01*
X62591502Y-2641600D01*
X62808498Y-2641600D01*
X63021325Y-2599266D01*
X63221803Y-2516225D01*
X63402229Y-2395668D01*
X63555668Y-2242229D01*
X63676225Y-2061803D01*
X63759266Y-1861325D01*
X63801600Y-1648498D01*
X63801600Y-1431502D01*
X63759266Y-1218675D01*
X63676225Y-1018197D01*
X63555668Y-837771D01*
X63402229Y-684332D01*
X63221803Y-563775D01*
X63021325Y-480734D01*
X62808498Y-438400D01*
X62591502Y-438400D01*
X62378675Y-480734D01*
X62178197Y-563775D01*
X61997771Y-684332D01*
X61844332Y-837771D01*
X61723775Y-1018197D01*
X61640734Y-1218675D01*
X61598400Y-1431502D01*
X38401600Y-1431502D01*
X38359266Y-1218675D01*
X38276225Y-1018197D01*
X38155668Y-837771D01*
X38002229Y-684332D01*
X37821803Y-563775D01*
X37621325Y-480734D01*
X37408498Y-438400D01*
X37191502Y-438400D01*
X36978675Y-480734D01*
X36778197Y-563775D01*
X36597771Y-684332D01*
X36444332Y-837771D01*
X36323775Y-1018197D01*
X36240734Y-1218675D01*
X36198400Y-1431502D01*
X351600Y-1431502D01*
X351600Y-351600D01*
X99398400Y-351600D01*
X99398400Y-99398400D01*
G37*
%TD.AperFunction*%
%TD*%
M02*
