%TF.GenerationSoftware,KiCad,Pcbnew,(5.1.9)-1*%
%TF.CreationDate,2023-04-15T18:22:43-04:00*%
%TF.ProjectId,ESP backpack,45535020-6261-4636-9b70-61636b2e6b69,rev?*%
%TF.SameCoordinates,Original*%
%TF.FileFunction,Copper,L2,Bot*%
%TF.FilePolarity,Positive*%
%FSLAX46Y46*%
G04 Gerber Fmt 4.6, Leading zero omitted, Abs format (unit mm)*
G04 Created by KiCad (PCBNEW (5.1.9)-1) date 2023-04-15 18:22:43*
%MOMM*%
%LPD*%
G01*
G04 APERTURE LIST*
%TA.AperFunction,ComponentPad*%
%ADD10O,1.700000X1.700000*%
%TD*%
%TA.AperFunction,ComponentPad*%
%ADD11R,1.700000X1.700000*%
%TD*%
%TA.AperFunction,ComponentPad*%
%ADD12C,2.200000*%
%TD*%
%TA.AperFunction,ComponentPad*%
%ADD13R,1.650000X1.650000*%
%TD*%
%TA.AperFunction,ComponentPad*%
%ADD14C,1.650000*%
%TD*%
%TA.AperFunction,ComponentPad*%
%ADD15C,1.600000*%
%TD*%
%TA.AperFunction,ComponentPad*%
%ADD16R,1.560000X1.560000*%
%TD*%
%TA.AperFunction,ComponentPad*%
%ADD17C,1.651000*%
%TD*%
%TA.AperFunction,ViaPad*%
%ADD18C,0.400000*%
%TD*%
%TA.AperFunction,Conductor*%
%ADD19C,0.457200*%
%TD*%
%TA.AperFunction,Conductor*%
%ADD20C,0.254000*%
%TD*%
%TA.AperFunction,Conductor*%
%ADD21C,5.080000*%
%TD*%
%TA.AperFunction,Conductor*%
%ADD22C,0.203200*%
%TD*%
%TA.AperFunction,Conductor*%
%ADD23C,0.100000*%
%TD*%
G04 APERTURE END LIST*
D10*
%TO.P,JReset1,2*%
%TO.N,Net-(JReset1-Pad2)*%
X23408640Y-79689960D03*
D11*
%TO.P,JReset1,1*%
%TO.N,GND*%
X23408640Y-82229960D03*
%TD*%
%TO.P,J3,1*%
%TO.N,Net-(J3-Pad1)*%
X27185620Y-2560320D03*
%TD*%
D12*
%TO.P,F1,2*%
%TO.N,+5V*%
X62853780Y-85749100D03*
%TO.P,F1,1*%
%TO.N,Net-(5VDC_IN1-Pad2)*%
X62853780Y-95669100D03*
%TO.P,F1,2*%
%TO.N,+5V*%
X59453780Y-85749100D03*
%TO.P,F1,1*%
%TO.N,Net-(5VDC_IN1-Pad2)*%
X59453780Y-95669100D03*
%TD*%
D13*
%TO.P,5VDC_IN1,1*%
%TO.N,GND*%
X47599600Y-95656400D03*
D14*
%TO.P,5VDC_IN1,2*%
%TO.N,Net-(5VDC_IN1-Pad2)*%
X52679600Y-95656400D03*
%TD*%
D15*
%TO.P,U1,38*%
%TO.N,Net-(U1-Pad38)*%
X37300000Y-1540000D03*
%TO.P,U1,37*%
%TO.N,Net-(U1-Pad37)*%
X37300000Y-4080000D03*
%TO.P,U1,36*%
%TO.N,Net-(U1-Pad36)*%
X37300000Y-6620000D03*
%TO.P,U1,35*%
%TO.N,Net-(U1-Pad35)*%
X37300000Y-9160000D03*
%TO.P,U1,34*%
%TO.N,Net-(U1-Pad34)*%
X37300000Y-11700000D03*
%TO.P,U1,33*%
%TO.N,Net-(U1-Pad33)*%
X37300000Y-14240000D03*
%TO.P,U1,32*%
%TO.N,Net-(J3-Pad1)*%
X37300000Y-16780000D03*
%TO.P,U1,31*%
%TO.N,Net-(U1-Pad31)*%
X37300000Y-19320000D03*
%TO.P,U1,30*%
%TO.N,Net-(U1-Pad30)*%
X37300000Y-21860000D03*
%TO.P,U1,29*%
%TO.N,Net-(U1-Pad29)*%
X37300000Y-24400000D03*
%TO.P,U1,28*%
%TO.N,Net-(U1-Pad28)*%
X37300000Y-26940000D03*
%TO.P,U1,27*%
%TO.N,Net-(U1-Pad27)*%
X37300000Y-29480000D03*
%TO.P,U1,26*%
%TO.N,GND*%
X37300000Y-32020000D03*
%TO.P,U1,25*%
%TO.N,/SDA*%
X37300000Y-34560000D03*
%TO.P,U1,24*%
%TO.N,Net-(U1-Pad24)*%
X37300000Y-37100000D03*
%TO.P,U1,23*%
%TO.N,Net-(U1-Pad23)*%
X37300000Y-39640000D03*
%TO.P,U1,22*%
%TO.N,/SCL*%
X37300000Y-42180000D03*
%TO.P,U1,21*%
%TO.N,Net-(U1-Pad21)*%
X37300000Y-44720000D03*
%TO.P,U1,20*%
%TO.N,GND*%
X37300000Y-47260000D03*
%TO.P,U1,18*%
%TO.N,Net-(U1-Pad18)*%
X62700000Y-4080000D03*
%TO.P,U1,17*%
%TO.N,Net-(U1-Pad17)*%
X62700000Y-6620000D03*
%TO.P,U1,16*%
%TO.N,Net-(U1-Pad16)*%
X62700000Y-9160000D03*
%TO.P,U1,15*%
%TO.N,Net-(U1-Pad15)*%
X62700000Y-11700000D03*
%TO.P,U1,14*%
%TO.N,GND*%
X62700000Y-14240000D03*
%TO.P,U1,13*%
%TO.N,Net-(R10-Pad1)*%
X62700000Y-16780000D03*
%TO.P,U1,12*%
%TO.N,Net-(R3-Pad1)*%
X62700000Y-19320000D03*
%TO.P,U1,11*%
%TO.N,Net-(R4-Pad1)*%
X62700000Y-21860000D03*
%TO.P,U1,10*%
%TO.N,Net-(R5-Pad1)*%
X62700000Y-24400000D03*
%TO.P,U1,9*%
%TO.N,Net-(R6-Pad1)*%
X62700000Y-26940000D03*
%TO.P,U1,8*%
%TO.N,Net-(R7-Pad1)*%
X62700000Y-29480000D03*
%TO.P,U1,7*%
%TO.N,Net-(U1-Pad7)*%
X62700000Y-32020000D03*
%TO.P,U1,6*%
%TO.N,Net-(R9-Pad1)*%
X62700000Y-34560000D03*
%TO.P,U1,5*%
%TO.N,Net-(R8-Pad1)*%
X62700000Y-37100000D03*
%TO.P,U1,4*%
%TO.N,Net-(U1-Pad4)*%
X62700000Y-39640000D03*
%TO.P,U1,3*%
%TO.N,Net-(U1-Pad3)*%
X62700000Y-42180000D03*
%TO.P,U1,19*%
%TO.N,Net-(ExtPower1-Pad2)*%
X62700000Y-1540000D03*
%TO.P,U1,2*%
%TO.N,Net-(C11-Pad1)*%
X62700000Y-44720000D03*
D16*
%TO.P,U1,1*%
%TO.N,+3V3*%
X62700000Y-47260000D03*
%TD*%
D17*
%TO.P,J2,01*%
%TO.N,+5V*%
X83730000Y-25870000D03*
%TO.P,J2,02*%
%TO.N,GND*%
X86270000Y-25870000D03*
%TO.P,J2,03*%
%TO.N,+5V*%
X83730000Y-28410000D03*
%TO.P,J2,04*%
%TO.N,/OrangeLine*%
X86270000Y-28410000D03*
%TO.P,J2,05*%
%TO.N,+5V*%
X83730000Y-30950000D03*
%TO.P,J2,06*%
%TO.N,GND*%
X86270000Y-30950000D03*
%TO.P,J2,07*%
%TO.N,+5V*%
X83730000Y-33490000D03*
%TO.P,J2,08*%
%TO.N,/YellowLine*%
X86270000Y-33490000D03*
%TO.P,J2,09*%
%TO.N,+5V*%
X83730000Y-36030000D03*
%TO.P,J2,10*%
%TO.N,GND*%
X86270000Y-36030000D03*
%TO.P,J2,11*%
%TO.N,+5V*%
X83730000Y-38570000D03*
%TO.P,J2,12*%
%TO.N,/GreenLine*%
X86270000Y-38570000D03*
%TO.P,J2,13*%
%TO.N,+5V*%
X83730000Y-41110000D03*
%TO.P,J2,14*%
%TO.N,GND*%
X86270000Y-41110000D03*
%TO.P,J2,15*%
%TO.N,+5V*%
X83730000Y-43650000D03*
%TO.P,J2,16*%
%TO.N,/BlueLine*%
X86270000Y-43650000D03*
%TO.P,J2,17*%
%TO.N,+5V*%
X83730000Y-46190000D03*
%TO.P,J2,18*%
%TO.N,GND*%
X86270000Y-46190000D03*
%TO.P,J2,19*%
%TO.N,+5V*%
X83730000Y-48730000D03*
%TO.P,J2,20*%
%TO.N,/RedLine*%
X86270000Y-48730000D03*
%TO.P,J2,21*%
%TO.N,+5V*%
X83730000Y-51270000D03*
%TO.P,J2,22*%
%TO.N,GND*%
X86270000Y-51270000D03*
%TO.P,J2,23*%
%TO.N,+5V*%
X83730000Y-53810000D03*
%TO.P,J2,24*%
%TO.N,GND*%
X86270000Y-53810000D03*
%TO.P,J2,25*%
%TO.N,+5V*%
X83730000Y-56350000D03*
%TO.P,J2,26*%
%TO.N,GND*%
X86270000Y-56350000D03*
%TO.P,J2,27*%
%TO.N,+5V*%
X83730000Y-58890000D03*
%TO.P,J2,28*%
%TO.N,GND*%
X86270000Y-58890000D03*
%TO.P,J2,29*%
%TO.N,+5V*%
X83730000Y-61430000D03*
%TO.P,J2,30*%
%TO.N,GND*%
X86270000Y-61430000D03*
%TO.P,J2,31*%
%TO.N,+5V*%
X83730000Y-63970000D03*
%TO.P,J2,32*%
%TO.N,GND*%
X86270000Y-63970000D03*
%TO.P,J2,33*%
%TO.N,+5V*%
X83730000Y-66510000D03*
%TO.P,J2,34*%
%TO.N,GND*%
X86270000Y-66510000D03*
%TO.P,J2,35*%
%TO.N,+5V*%
X83730000Y-69050000D03*
%TO.P,J2,36*%
%TO.N,GND*%
X86270000Y-69050000D03*
%TO.P,J2,37*%
%TO.N,+5V*%
X83730000Y-71590000D03*
%TO.P,J2,38*%
%TO.N,GND*%
X86270000Y-71590000D03*
%TO.P,J2,39*%
%TO.N,+5V*%
X83730000Y-74130000D03*
%TO.P,J2,40*%
%TO.N,GND*%
X86270000Y-74130000D03*
%TD*%
%TO.P,J1,01*%
%TO.N,+5V*%
X13730000Y-25870000D03*
%TO.P,J1,02*%
%TO.N,GND*%
X16270000Y-25870000D03*
%TO.P,J1,03*%
%TO.N,+5V*%
X13730000Y-28410000D03*
%TO.P,J1,04*%
%TO.N,GND*%
X16270000Y-28410000D03*
%TO.P,J1,05*%
%TO.N,+5V*%
X13730000Y-30950000D03*
%TO.P,J1,06*%
%TO.N,GND*%
X16270000Y-30950000D03*
%TO.P,J1,07*%
%TO.N,+5V*%
X13730000Y-33490000D03*
%TO.P,J1,08*%
%TO.N,GND*%
X16270000Y-33490000D03*
%TO.P,J1,09*%
%TO.N,+5V*%
X13730000Y-36030000D03*
%TO.P,J1,10*%
%TO.N,GND*%
X16270000Y-36030000D03*
%TO.P,J1,11*%
%TO.N,+5V*%
X13730000Y-38570000D03*
%TO.P,J1,12*%
%TO.N,GND*%
X16270000Y-38570000D03*
%TO.P,J1,13*%
%TO.N,+5V*%
X13730000Y-41110000D03*
%TO.P,J1,14*%
%TO.N,GND*%
X16270000Y-41110000D03*
%TO.P,J1,15*%
%TO.N,+5V*%
X13730000Y-43650000D03*
%TO.P,J1,16*%
%TO.N,GND*%
X16270000Y-43650000D03*
%TO.P,J1,17*%
%TO.N,+5V*%
X13730000Y-46190000D03*
%TO.P,J1,18*%
%TO.N,GND*%
X16270000Y-46190000D03*
%TO.P,J1,19*%
%TO.N,+5V*%
X13730000Y-48730000D03*
%TO.P,J1,20*%
%TO.N,GND*%
X16270000Y-48730000D03*
%TO.P,J1,21*%
%TO.N,+5V*%
X13730000Y-51270000D03*
%TO.P,J1,22*%
%TO.N,GND*%
X16270000Y-51270000D03*
%TO.P,J1,23*%
%TO.N,+5V*%
X13730000Y-53810000D03*
%TO.P,J1,24*%
%TO.N,GND*%
X16270000Y-53810000D03*
%TO.P,J1,25*%
%TO.N,+5V*%
X13730000Y-56350000D03*
%TO.P,J1,26*%
%TO.N,GND*%
X16270000Y-56350000D03*
%TO.P,J1,27*%
%TO.N,+5V*%
X13730000Y-58890000D03*
%TO.P,J1,28*%
%TO.N,GND*%
X16270000Y-58890000D03*
%TO.P,J1,29*%
%TO.N,+5V*%
X13730000Y-61430000D03*
%TO.P,J1,30*%
%TO.N,Net-(J1-Pad30)*%
X16270000Y-61430000D03*
%TO.P,J1,31*%
%TO.N,+5V*%
X13730000Y-63970000D03*
%TO.P,J1,32*%
%TO.N,GND*%
X16270000Y-63970000D03*
%TO.P,J1,33*%
%TO.N,+5V*%
X13730000Y-66510000D03*
%TO.P,J1,34*%
%TO.N,Net-(J1-Pad34)*%
X16270000Y-66510000D03*
%TO.P,J1,35*%
%TO.N,+3V3*%
X13730000Y-69050000D03*
%TO.P,J1,36*%
%TO.N,GND*%
X16270000Y-69050000D03*
%TO.P,J1,37*%
%TO.N,Net-(J1-Pad37)*%
X13730000Y-71590000D03*
%TO.P,J1,38*%
%TO.N,Net-(J1-Pad38)*%
X16270000Y-71590000D03*
%TO.P,J1,39*%
%TO.N,Net-(J1-Pad39)*%
X13730000Y-74130000D03*
%TO.P,J1,40*%
%TO.N,GND*%
X16270000Y-74130000D03*
%TD*%
D18*
%TO.N,GND*%
X30784800Y-90454480D03*
X17887600Y-13754800D03*
X19157600Y-9944800D03*
X20427600Y-13754800D03*
X20427600Y-15024800D03*
X17887600Y-9944800D03*
X19157600Y-15024800D03*
X19157600Y-11214800D03*
X19157600Y-12484800D03*
X19157600Y-8674800D03*
X17887600Y-15024800D03*
X17887600Y-8674800D03*
X17887600Y-11214800D03*
X20427600Y-12484800D03*
X20427600Y-11214800D03*
X20427600Y-9944800D03*
X19157600Y-13754800D03*
X20427600Y-8674800D03*
X17887600Y-12484800D03*
X80117600Y-13754800D03*
X81387600Y-9944800D03*
X82657600Y-13754800D03*
X82657600Y-15024800D03*
X80117600Y-9944800D03*
X81387600Y-15024800D03*
X81387600Y-11214800D03*
X81387600Y-12484800D03*
X81387600Y-8674800D03*
X80117600Y-15024800D03*
X80117600Y-8674800D03*
X80117600Y-11214800D03*
X82657600Y-12484800D03*
X82657600Y-11214800D03*
X82657600Y-9944800D03*
X81387600Y-13754800D03*
X82657600Y-8674800D03*
X80117600Y-12484800D03*
X85977380Y-89794780D03*
X87247380Y-85984780D03*
X88517380Y-89794780D03*
X88517380Y-91064780D03*
X85977380Y-85984780D03*
X87247380Y-91064780D03*
X87247380Y-87254780D03*
X87247380Y-88524780D03*
X87247380Y-84714780D03*
X85977380Y-91064780D03*
X85977380Y-84714780D03*
X85977380Y-87254780D03*
X88517380Y-88524780D03*
X88517380Y-87254780D03*
X88517380Y-85984780D03*
X87247380Y-89794780D03*
X88517380Y-84714780D03*
X85977380Y-88524780D03*
X12180220Y-85822220D03*
X12180220Y-89632220D03*
X13450220Y-85822220D03*
X13450220Y-90902220D03*
X14720220Y-89632220D03*
X14720220Y-90902220D03*
X13450220Y-87092220D03*
X13450220Y-88362220D03*
X13450220Y-84552220D03*
X12180220Y-87092220D03*
X14720220Y-87092220D03*
X12180220Y-84552220D03*
X13450220Y-89632220D03*
X12180220Y-88362220D03*
X14720220Y-88362220D03*
X14720220Y-85822220D03*
X12180220Y-90902220D03*
X14720220Y-84552220D03*
X76962000Y-70205600D03*
X76809600Y-57099200D03*
X57757860Y-61204200D03*
X70596760Y-44676060D03*
X30576520Y-66273680D03*
X30480000Y-67909440D03*
X33324800Y-90454480D03*
X30784800Y-92994480D03*
X33324800Y-92994480D03*
X41549320Y-83014820D03*
%TO.N,+3V3*%
X65786000Y-69977000D03*
X59867800Y-74076560D03*
X29540200Y-73781920D03*
%TO.N,/OrangeLine*%
X76794360Y-30243780D03*
%TO.N,/YellowLine*%
X76987400Y-32214820D03*
%TO.N,/GreenLine*%
X76786740Y-34564320D03*
%TO.N,/BlueLine*%
X76875642Y-36959540D03*
%TO.N,/RedLine*%
X76454000Y-39014400D03*
%TO.N,Net-(J1-Pad39)*%
X41038780Y-62814200D03*
%TO.N,Net-(J1-Pad37)*%
X40980360Y-65608200D03*
%TD*%
D19*
%TO.N,+3V3*%
X59573160Y-73781920D02*
X29540200Y-73781920D01*
X59867800Y-74076560D02*
X59573160Y-73781920D01*
X64940940Y-47260000D02*
X62700000Y-47260000D01*
X65786000Y-48105060D02*
X64940940Y-47260000D01*
X65786000Y-69951600D02*
X65786000Y-48105060D01*
D20*
%TO.N,/OrangeLine*%
X85012800Y-29667200D02*
X77370940Y-29667200D01*
X86270000Y-28410000D02*
X85012800Y-29667200D01*
X77370940Y-29667200D02*
X76794360Y-30243780D01*
%TO.N,/YellowLine*%
X84987200Y-32207200D02*
X86270000Y-33490000D01*
X77012800Y-32207200D02*
X84987200Y-32207200D01*
X76995020Y-32207200D02*
X76987400Y-32214820D01*
X77012800Y-32207200D02*
X76995020Y-32207200D01*
%TO.N,/GreenLine*%
X84987200Y-37287200D02*
X86270000Y-38570000D01*
X80060800Y-37287200D02*
X84987200Y-37287200D01*
X77337920Y-34564320D02*
X80060800Y-37287200D01*
X76786740Y-34564320D02*
X77337920Y-34564320D01*
%TO.N,/BlueLine*%
X82283302Y-42367200D02*
X76875642Y-36959540D01*
X86270000Y-43650000D02*
X84987200Y-42367200D01*
X84987200Y-42367200D02*
X82283302Y-42367200D01*
%TO.N,/RedLine*%
X84936400Y-47396400D02*
X86270000Y-48730000D01*
X80822800Y-47396400D02*
X84936400Y-47396400D01*
X77165200Y-39725600D02*
X77165200Y-43738800D01*
X77165200Y-43738800D02*
X80822800Y-47396400D01*
X76454000Y-39014400D02*
X77165200Y-39725600D01*
%TO.N,Net-(J1-Pad39)*%
X13730000Y-75833000D02*
X13730000Y-74130000D01*
X13970000Y-76073000D02*
X13730000Y-75833000D01*
X23622000Y-76073000D02*
X13970000Y-76073000D01*
X29192220Y-70502780D02*
X23622000Y-76073000D01*
X29192220Y-70502780D02*
X29202380Y-70502780D01*
X36890960Y-62814200D02*
X41038780Y-62814200D01*
X29202380Y-70502780D02*
X36890960Y-62814200D01*
%TO.N,Net-(J1-Pad37)*%
X24003000Y-76708000D02*
X29921200Y-70789800D01*
X11938000Y-76708000D02*
X24003000Y-76708000D01*
X10668000Y-75438000D02*
X11938000Y-76708000D01*
X10668000Y-72136000D02*
X10668000Y-75438000D01*
X11214000Y-71590000D02*
X10668000Y-72136000D01*
X13730000Y-71590000D02*
X11214000Y-71590000D01*
X29921200Y-70789800D02*
X29921200Y-70779640D01*
X29921200Y-70789800D02*
X29921200Y-70782180D01*
X35095180Y-65608200D02*
X40980360Y-65608200D01*
X29921200Y-70782180D02*
X35095180Y-65608200D01*
D21*
%TO.N,Net-(5VDC_IN1-Pad2)*%
X62841080Y-95656400D02*
X62853780Y-95669100D01*
X52679600Y-95656400D02*
X62841080Y-95656400D01*
%TD*%
D22*
%TO.N,GND*%
X99398400Y-99398400D02*
X351600Y-99398400D01*
X351600Y-95656400D01*
X49821036Y-95656400D01*
X49875963Y-96214078D01*
X50038631Y-96750325D01*
X50302791Y-97244533D01*
X50658290Y-97677710D01*
X51091467Y-98033209D01*
X51585675Y-98297369D01*
X52121922Y-98460037D01*
X52539853Y-98501200D01*
X62585089Y-98501200D01*
X62853780Y-98527664D01*
X63411458Y-98472737D01*
X63947705Y-98310069D01*
X64441913Y-98045908D01*
X64875090Y-97690410D01*
X65230588Y-97257233D01*
X65494749Y-96763025D01*
X65657417Y-96226778D01*
X65712344Y-95669100D01*
X65657417Y-95111423D01*
X65494749Y-94575176D01*
X65230588Y-94080968D01*
X64964173Y-93756340D01*
X64951482Y-93743649D01*
X64862390Y-93635090D01*
X64429213Y-93279591D01*
X63935005Y-93015431D01*
X63398758Y-92852763D01*
X62980827Y-92811600D01*
X62841080Y-92797836D01*
X62701333Y-92811600D01*
X52539853Y-92811600D01*
X52121922Y-92852763D01*
X51585675Y-93015431D01*
X51091467Y-93279591D01*
X50658290Y-93635090D01*
X50302791Y-94068267D01*
X50038631Y-94562475D01*
X49875963Y-95098722D01*
X49821036Y-95656400D01*
X351600Y-95656400D01*
X351600Y-85610739D01*
X58048980Y-85610739D01*
X58048980Y-85887461D01*
X58102966Y-86158865D01*
X58208863Y-86414522D01*
X58362601Y-86644608D01*
X58558272Y-86840279D01*
X58788358Y-86994017D01*
X59044015Y-87099914D01*
X59315419Y-87153900D01*
X59592141Y-87153900D01*
X59863545Y-87099914D01*
X60119202Y-86994017D01*
X60349288Y-86840279D01*
X60544959Y-86644608D01*
X60698697Y-86414522D01*
X60804594Y-86158865D01*
X60858580Y-85887461D01*
X60858580Y-85610739D01*
X61448980Y-85610739D01*
X61448980Y-85887461D01*
X61502966Y-86158865D01*
X61608863Y-86414522D01*
X61762601Y-86644608D01*
X61958272Y-86840279D01*
X62188358Y-86994017D01*
X62444015Y-87099914D01*
X62715419Y-87153900D01*
X62992141Y-87153900D01*
X63263545Y-87099914D01*
X63519202Y-86994017D01*
X63749288Y-86840279D01*
X63944959Y-86644608D01*
X64098697Y-86414522D01*
X64204594Y-86158865D01*
X64258580Y-85887461D01*
X64258580Y-85610739D01*
X64204594Y-85339335D01*
X64098697Y-85083678D01*
X63944959Y-84853592D01*
X63749288Y-84657921D01*
X63519202Y-84504183D01*
X63263545Y-84398286D01*
X62992141Y-84344300D01*
X62715419Y-84344300D01*
X62444015Y-84398286D01*
X62188358Y-84504183D01*
X61958272Y-84657921D01*
X61762601Y-84853592D01*
X61608863Y-85083678D01*
X61502966Y-85339335D01*
X61448980Y-85610739D01*
X60858580Y-85610739D01*
X60804594Y-85339335D01*
X60698697Y-85083678D01*
X60544959Y-84853592D01*
X60349288Y-84657921D01*
X60119202Y-84504183D01*
X59863545Y-84398286D01*
X59592141Y-84344300D01*
X59315419Y-84344300D01*
X59044015Y-84398286D01*
X58788358Y-84504183D01*
X58558272Y-84657921D01*
X58362601Y-84853592D01*
X58208863Y-85083678D01*
X58102966Y-85339335D01*
X58048980Y-85610739D01*
X351600Y-85610739D01*
X351600Y-79576222D01*
X22253840Y-79576222D01*
X22253840Y-79803698D01*
X22298218Y-80026803D01*
X22385269Y-80236963D01*
X22511648Y-80426102D01*
X22672498Y-80586952D01*
X22861637Y-80713331D01*
X23071797Y-80800382D01*
X23294902Y-80844760D01*
X23522378Y-80844760D01*
X23745483Y-80800382D01*
X23955643Y-80713331D01*
X24144782Y-80586952D01*
X24305632Y-80426102D01*
X24432011Y-80236963D01*
X24519062Y-80026803D01*
X24563440Y-79803698D01*
X24563440Y-79576222D01*
X24519062Y-79353117D01*
X24432011Y-79142957D01*
X24305632Y-78953818D01*
X24144782Y-78792968D01*
X23955643Y-78666589D01*
X23745483Y-78579538D01*
X23522378Y-78535160D01*
X23294902Y-78535160D01*
X23071797Y-78579538D01*
X22861637Y-78666589D01*
X22672498Y-78792968D01*
X22511648Y-78953818D01*
X22385269Y-79142957D01*
X22298218Y-79353117D01*
X22253840Y-79576222D01*
X351600Y-79576222D01*
X351600Y-72136000D01*
X10234111Y-72136000D01*
X10236200Y-72157210D01*
X10236201Y-75416780D01*
X10234111Y-75438000D01*
X10242448Y-75522647D01*
X10263470Y-75591945D01*
X10267140Y-75604042D01*
X10307235Y-75679056D01*
X10361195Y-75744806D01*
X10377674Y-75758330D01*
X11617674Y-76998332D01*
X11631194Y-77014806D01*
X11696944Y-77068766D01*
X11771958Y-77108861D01*
X11853352Y-77133552D01*
X11937999Y-77141889D01*
X11959209Y-77139800D01*
X23981790Y-77139800D01*
X24003000Y-77141889D01*
X24024210Y-77139800D01*
X24087648Y-77133552D01*
X24169042Y-77108861D01*
X24244056Y-77068766D01*
X24309806Y-77014806D01*
X24323335Y-76998321D01*
X27539736Y-73781920D01*
X29004220Y-73781920D01*
X29014519Y-73886485D01*
X29045019Y-73987031D01*
X29094549Y-74079695D01*
X29161205Y-74160915D01*
X29242425Y-74227571D01*
X29335089Y-74277101D01*
X29435635Y-74307601D01*
X29514005Y-74315320D01*
X59352219Y-74315320D01*
X59509152Y-74472253D01*
X59570027Y-74522211D01*
X59662689Y-74571741D01*
X59763235Y-74602241D01*
X59867800Y-74612539D01*
X59972364Y-74602241D01*
X60072910Y-74571741D01*
X60165574Y-74522211D01*
X60246795Y-74455555D01*
X60313451Y-74374334D01*
X60362981Y-74281670D01*
X60393481Y-74181124D01*
X60403779Y-74076560D01*
X60398079Y-74018675D01*
X82599700Y-74018675D01*
X82599700Y-74241325D01*
X82643137Y-74459696D01*
X82728341Y-74665398D01*
X82852039Y-74850524D01*
X83009476Y-75007961D01*
X83194602Y-75131659D01*
X83400304Y-75216863D01*
X83618675Y-75260300D01*
X83841325Y-75260300D01*
X84059696Y-75216863D01*
X84265398Y-75131659D01*
X84450524Y-75007961D01*
X84607961Y-74850524D01*
X84731659Y-74665398D01*
X84816863Y-74459696D01*
X84860300Y-74241325D01*
X84860300Y-74018675D01*
X84816863Y-73800304D01*
X84731659Y-73594602D01*
X84607961Y-73409476D01*
X84450524Y-73252039D01*
X84265398Y-73128341D01*
X84059696Y-73043137D01*
X83841325Y-72999700D01*
X83618675Y-72999700D01*
X83400304Y-73043137D01*
X83194602Y-73128341D01*
X83009476Y-73252039D01*
X82852039Y-73409476D01*
X82728341Y-73594602D01*
X82643137Y-73800304D01*
X82599700Y-74018675D01*
X60398079Y-74018675D01*
X60393481Y-73971995D01*
X60362981Y-73871449D01*
X60313451Y-73778787D01*
X60263493Y-73717912D01*
X59968856Y-73423275D01*
X59952155Y-73402925D01*
X59870935Y-73336269D01*
X59778271Y-73286739D01*
X59677725Y-73256239D01*
X59599355Y-73248520D01*
X59599347Y-73248520D01*
X59573160Y-73245941D01*
X59546973Y-73248520D01*
X29514005Y-73248520D01*
X29435635Y-73256239D01*
X29335089Y-73286739D01*
X29242425Y-73336269D01*
X29161205Y-73402925D01*
X29094549Y-73484145D01*
X29045019Y-73576809D01*
X29014519Y-73677355D01*
X29004220Y-73781920D01*
X27539736Y-73781920D01*
X29842981Y-71478675D01*
X82599700Y-71478675D01*
X82599700Y-71701325D01*
X82643137Y-71919696D01*
X82728341Y-72125398D01*
X82852039Y-72310524D01*
X83009476Y-72467961D01*
X83194602Y-72591659D01*
X83400304Y-72676863D01*
X83618675Y-72720300D01*
X83841325Y-72720300D01*
X84059696Y-72676863D01*
X84265398Y-72591659D01*
X84450524Y-72467961D01*
X84607961Y-72310524D01*
X84731659Y-72125398D01*
X84816863Y-71919696D01*
X84860300Y-71701325D01*
X84860300Y-71478675D01*
X84816863Y-71260304D01*
X84731659Y-71054602D01*
X84607961Y-70869476D01*
X84450524Y-70712039D01*
X84265398Y-70588341D01*
X84059696Y-70503137D01*
X83841325Y-70459700D01*
X83618675Y-70459700D01*
X83400304Y-70503137D01*
X83194602Y-70588341D01*
X83009476Y-70712039D01*
X82852039Y-70869476D01*
X82728341Y-71054602D01*
X82643137Y-71260304D01*
X82599700Y-71478675D01*
X29842981Y-71478675D01*
X30211528Y-71110129D01*
X30228006Y-71096606D01*
X30276410Y-71037626D01*
X35274037Y-66040000D01*
X40717978Y-66040000D01*
X40741247Y-66055548D01*
X40833115Y-66093601D01*
X40930641Y-66113000D01*
X41030079Y-66113000D01*
X41127605Y-66093601D01*
X41219473Y-66055548D01*
X41302152Y-66000304D01*
X41372464Y-65929992D01*
X41427708Y-65847313D01*
X41465761Y-65755445D01*
X41485160Y-65657919D01*
X41485160Y-65558481D01*
X41465761Y-65460955D01*
X41427708Y-65369087D01*
X41372464Y-65286408D01*
X41302152Y-65216096D01*
X41219473Y-65160852D01*
X41127605Y-65122799D01*
X41030079Y-65103400D01*
X40930641Y-65103400D01*
X40833115Y-65122799D01*
X40741247Y-65160852D01*
X40717978Y-65176400D01*
X35139417Y-65176400D01*
X37069818Y-63246000D01*
X40776398Y-63246000D01*
X40799667Y-63261548D01*
X40891535Y-63299601D01*
X40989061Y-63319000D01*
X41088499Y-63319000D01*
X41186025Y-63299601D01*
X41277893Y-63261548D01*
X41360572Y-63206304D01*
X41430884Y-63135992D01*
X41486128Y-63053313D01*
X41524181Y-62961445D01*
X41543580Y-62863919D01*
X41543580Y-62764481D01*
X41524181Y-62666955D01*
X41486128Y-62575087D01*
X41430884Y-62492408D01*
X41360572Y-62422096D01*
X41277893Y-62366852D01*
X41186025Y-62328799D01*
X41088499Y-62309400D01*
X40989061Y-62309400D01*
X40891535Y-62328799D01*
X40799667Y-62366852D01*
X40776398Y-62382400D01*
X36912169Y-62382400D01*
X36890959Y-62380311D01*
X36806312Y-62388648D01*
X36724918Y-62413339D01*
X36649904Y-62453434D01*
X36584154Y-62507394D01*
X36570634Y-62523868D01*
X28954013Y-70140491D01*
X28951164Y-70142014D01*
X28885414Y-70195974D01*
X28871890Y-70212453D01*
X23443144Y-75641200D01*
X14161800Y-75641200D01*
X14161800Y-75174570D01*
X14265398Y-75131659D01*
X14450524Y-75007961D01*
X14607961Y-74850524D01*
X14731659Y-74665398D01*
X14816863Y-74459696D01*
X14860300Y-74241325D01*
X14860300Y-74018675D01*
X14816863Y-73800304D01*
X14731659Y-73594602D01*
X14607961Y-73409476D01*
X14450524Y-73252039D01*
X14265398Y-73128341D01*
X14059696Y-73043137D01*
X13841325Y-72999700D01*
X13618675Y-72999700D01*
X13400304Y-73043137D01*
X13194602Y-73128341D01*
X13009476Y-73252039D01*
X12852039Y-73409476D01*
X12728341Y-73594602D01*
X12643137Y-73800304D01*
X12599700Y-74018675D01*
X12599700Y-74241325D01*
X12643137Y-74459696D01*
X12728341Y-74665398D01*
X12852039Y-74850524D01*
X13009476Y-75007961D01*
X13194602Y-75131659D01*
X13298200Y-75174571D01*
X13298200Y-75811790D01*
X13296111Y-75833000D01*
X13298200Y-75854209D01*
X13304448Y-75917647D01*
X13329139Y-75999041D01*
X13369234Y-76074055D01*
X13423194Y-76139806D01*
X13439678Y-76153334D01*
X13562543Y-76276200D01*
X12116858Y-76276200D01*
X11099800Y-75259144D01*
X11099800Y-72314856D01*
X11392857Y-72021800D01*
X12685430Y-72021800D01*
X12728341Y-72125398D01*
X12852039Y-72310524D01*
X13009476Y-72467961D01*
X13194602Y-72591659D01*
X13400304Y-72676863D01*
X13618675Y-72720300D01*
X13841325Y-72720300D01*
X14059696Y-72676863D01*
X14265398Y-72591659D01*
X14450524Y-72467961D01*
X14607961Y-72310524D01*
X14731659Y-72125398D01*
X14816863Y-71919696D01*
X14860300Y-71701325D01*
X14860300Y-71478675D01*
X15139700Y-71478675D01*
X15139700Y-71701325D01*
X15183137Y-71919696D01*
X15268341Y-72125398D01*
X15392039Y-72310524D01*
X15549476Y-72467961D01*
X15734602Y-72591659D01*
X15940304Y-72676863D01*
X16158675Y-72720300D01*
X16381325Y-72720300D01*
X16599696Y-72676863D01*
X16805398Y-72591659D01*
X16990524Y-72467961D01*
X17147961Y-72310524D01*
X17271659Y-72125398D01*
X17356863Y-71919696D01*
X17400300Y-71701325D01*
X17400300Y-71478675D01*
X17356863Y-71260304D01*
X17271659Y-71054602D01*
X17147961Y-70869476D01*
X16990524Y-70712039D01*
X16805398Y-70588341D01*
X16599696Y-70503137D01*
X16381325Y-70459700D01*
X16158675Y-70459700D01*
X15940304Y-70503137D01*
X15734602Y-70588341D01*
X15549476Y-70712039D01*
X15392039Y-70869476D01*
X15268341Y-71054602D01*
X15183137Y-71260304D01*
X15139700Y-71478675D01*
X14860300Y-71478675D01*
X14816863Y-71260304D01*
X14731659Y-71054602D01*
X14607961Y-70869476D01*
X14450524Y-70712039D01*
X14265398Y-70588341D01*
X14059696Y-70503137D01*
X13841325Y-70459700D01*
X13618675Y-70459700D01*
X13400304Y-70503137D01*
X13194602Y-70588341D01*
X13009476Y-70712039D01*
X12852039Y-70869476D01*
X12728341Y-71054602D01*
X12685430Y-71158200D01*
X11235210Y-71158200D01*
X11214000Y-71156111D01*
X11192790Y-71158200D01*
X11129352Y-71164448D01*
X11047958Y-71189139D01*
X10972944Y-71229234D01*
X10907194Y-71283194D01*
X10893669Y-71299674D01*
X10377679Y-71815665D01*
X10361194Y-71829194D01*
X10307234Y-71894945D01*
X10267139Y-71969959D01*
X10251413Y-72021800D01*
X10242448Y-72051353D01*
X10234111Y-72136000D01*
X351600Y-72136000D01*
X351600Y-68938675D01*
X12599700Y-68938675D01*
X12599700Y-69161325D01*
X12643137Y-69379696D01*
X12728341Y-69585398D01*
X12852039Y-69770524D01*
X13009476Y-69927961D01*
X13194602Y-70051659D01*
X13400304Y-70136863D01*
X13618675Y-70180300D01*
X13841325Y-70180300D01*
X14059696Y-70136863D01*
X14265398Y-70051659D01*
X14450524Y-69927961D01*
X14607961Y-69770524D01*
X14731659Y-69585398D01*
X14816863Y-69379696D01*
X14860300Y-69161325D01*
X14860300Y-68938675D01*
X14816863Y-68720304D01*
X14731659Y-68514602D01*
X14607961Y-68329476D01*
X14450524Y-68172039D01*
X14265398Y-68048341D01*
X14059696Y-67963137D01*
X13841325Y-67919700D01*
X13618675Y-67919700D01*
X13400304Y-67963137D01*
X13194602Y-68048341D01*
X13009476Y-68172039D01*
X12852039Y-68329476D01*
X12728341Y-68514602D01*
X12643137Y-68720304D01*
X12599700Y-68938675D01*
X351600Y-68938675D01*
X351600Y-66398675D01*
X12599700Y-66398675D01*
X12599700Y-66621325D01*
X12643137Y-66839696D01*
X12728341Y-67045398D01*
X12852039Y-67230524D01*
X13009476Y-67387961D01*
X13194602Y-67511659D01*
X13400304Y-67596863D01*
X13618675Y-67640300D01*
X13841325Y-67640300D01*
X14059696Y-67596863D01*
X14265398Y-67511659D01*
X14450524Y-67387961D01*
X14607961Y-67230524D01*
X14731659Y-67045398D01*
X14816863Y-66839696D01*
X14860300Y-66621325D01*
X14860300Y-66398675D01*
X15139700Y-66398675D01*
X15139700Y-66621325D01*
X15183137Y-66839696D01*
X15268341Y-67045398D01*
X15392039Y-67230524D01*
X15549476Y-67387961D01*
X15734602Y-67511659D01*
X15940304Y-67596863D01*
X16158675Y-67640300D01*
X16381325Y-67640300D01*
X16599696Y-67596863D01*
X16805398Y-67511659D01*
X16990524Y-67387961D01*
X17147961Y-67230524D01*
X17271659Y-67045398D01*
X17356863Y-66839696D01*
X17400300Y-66621325D01*
X17400300Y-66398675D01*
X17356863Y-66180304D01*
X17271659Y-65974602D01*
X17147961Y-65789476D01*
X16990524Y-65632039D01*
X16805398Y-65508341D01*
X16599696Y-65423137D01*
X16381325Y-65379700D01*
X16158675Y-65379700D01*
X15940304Y-65423137D01*
X15734602Y-65508341D01*
X15549476Y-65632039D01*
X15392039Y-65789476D01*
X15268341Y-65974602D01*
X15183137Y-66180304D01*
X15139700Y-66398675D01*
X14860300Y-66398675D01*
X14816863Y-66180304D01*
X14731659Y-65974602D01*
X14607961Y-65789476D01*
X14450524Y-65632039D01*
X14265398Y-65508341D01*
X14059696Y-65423137D01*
X13841325Y-65379700D01*
X13618675Y-65379700D01*
X13400304Y-65423137D01*
X13194602Y-65508341D01*
X13009476Y-65632039D01*
X12852039Y-65789476D01*
X12728341Y-65974602D01*
X12643137Y-66180304D01*
X12599700Y-66398675D01*
X351600Y-66398675D01*
X351600Y-63858675D01*
X12599700Y-63858675D01*
X12599700Y-64081325D01*
X12643137Y-64299696D01*
X12728341Y-64505398D01*
X12852039Y-64690524D01*
X13009476Y-64847961D01*
X13194602Y-64971659D01*
X13400304Y-65056863D01*
X13618675Y-65100300D01*
X13841325Y-65100300D01*
X14059696Y-65056863D01*
X14265398Y-64971659D01*
X14450524Y-64847961D01*
X14607961Y-64690524D01*
X14731659Y-64505398D01*
X14816863Y-64299696D01*
X14860300Y-64081325D01*
X14860300Y-63858675D01*
X14816863Y-63640304D01*
X14731659Y-63434602D01*
X14607961Y-63249476D01*
X14450524Y-63092039D01*
X14265398Y-62968341D01*
X14059696Y-62883137D01*
X13841325Y-62839700D01*
X13618675Y-62839700D01*
X13400304Y-62883137D01*
X13194602Y-62968341D01*
X13009476Y-63092039D01*
X12852039Y-63249476D01*
X12728341Y-63434602D01*
X12643137Y-63640304D01*
X12599700Y-63858675D01*
X351600Y-63858675D01*
X351600Y-61318675D01*
X12599700Y-61318675D01*
X12599700Y-61541325D01*
X12643137Y-61759696D01*
X12728341Y-61965398D01*
X12852039Y-62150524D01*
X13009476Y-62307961D01*
X13194602Y-62431659D01*
X13400304Y-62516863D01*
X13618675Y-62560300D01*
X13841325Y-62560300D01*
X14059696Y-62516863D01*
X14265398Y-62431659D01*
X14450524Y-62307961D01*
X14607961Y-62150524D01*
X14731659Y-61965398D01*
X14816863Y-61759696D01*
X14860300Y-61541325D01*
X14860300Y-61318675D01*
X15139700Y-61318675D01*
X15139700Y-61541325D01*
X15183137Y-61759696D01*
X15268341Y-61965398D01*
X15392039Y-62150524D01*
X15549476Y-62307961D01*
X15734602Y-62431659D01*
X15940304Y-62516863D01*
X16158675Y-62560300D01*
X16381325Y-62560300D01*
X16599696Y-62516863D01*
X16805398Y-62431659D01*
X16990524Y-62307961D01*
X17147961Y-62150524D01*
X17271659Y-61965398D01*
X17356863Y-61759696D01*
X17400300Y-61541325D01*
X17400300Y-61318675D01*
X17356863Y-61100304D01*
X17271659Y-60894602D01*
X17147961Y-60709476D01*
X16990524Y-60552039D01*
X16805398Y-60428341D01*
X16599696Y-60343137D01*
X16381325Y-60299700D01*
X16158675Y-60299700D01*
X15940304Y-60343137D01*
X15734602Y-60428341D01*
X15549476Y-60552039D01*
X15392039Y-60709476D01*
X15268341Y-60894602D01*
X15183137Y-61100304D01*
X15139700Y-61318675D01*
X14860300Y-61318675D01*
X14816863Y-61100304D01*
X14731659Y-60894602D01*
X14607961Y-60709476D01*
X14450524Y-60552039D01*
X14265398Y-60428341D01*
X14059696Y-60343137D01*
X13841325Y-60299700D01*
X13618675Y-60299700D01*
X13400304Y-60343137D01*
X13194602Y-60428341D01*
X13009476Y-60552039D01*
X12852039Y-60709476D01*
X12728341Y-60894602D01*
X12643137Y-61100304D01*
X12599700Y-61318675D01*
X351600Y-61318675D01*
X351600Y-58778675D01*
X12599700Y-58778675D01*
X12599700Y-59001325D01*
X12643137Y-59219696D01*
X12728341Y-59425398D01*
X12852039Y-59610524D01*
X13009476Y-59767961D01*
X13194602Y-59891659D01*
X13400304Y-59976863D01*
X13618675Y-60020300D01*
X13841325Y-60020300D01*
X14059696Y-59976863D01*
X14265398Y-59891659D01*
X14450524Y-59767961D01*
X14607961Y-59610524D01*
X14731659Y-59425398D01*
X14816863Y-59219696D01*
X14860300Y-59001325D01*
X14860300Y-58778675D01*
X14816863Y-58560304D01*
X14731659Y-58354602D01*
X14607961Y-58169476D01*
X14450524Y-58012039D01*
X14265398Y-57888341D01*
X14059696Y-57803137D01*
X13841325Y-57759700D01*
X13618675Y-57759700D01*
X13400304Y-57803137D01*
X13194602Y-57888341D01*
X13009476Y-58012039D01*
X12852039Y-58169476D01*
X12728341Y-58354602D01*
X12643137Y-58560304D01*
X12599700Y-58778675D01*
X351600Y-58778675D01*
X351600Y-56238675D01*
X12599700Y-56238675D01*
X12599700Y-56461325D01*
X12643137Y-56679696D01*
X12728341Y-56885398D01*
X12852039Y-57070524D01*
X13009476Y-57227961D01*
X13194602Y-57351659D01*
X13400304Y-57436863D01*
X13618675Y-57480300D01*
X13841325Y-57480300D01*
X14059696Y-57436863D01*
X14265398Y-57351659D01*
X14450524Y-57227961D01*
X14607961Y-57070524D01*
X14731659Y-56885398D01*
X14816863Y-56679696D01*
X14860300Y-56461325D01*
X14860300Y-56238675D01*
X14816863Y-56020304D01*
X14731659Y-55814602D01*
X14607961Y-55629476D01*
X14450524Y-55472039D01*
X14265398Y-55348341D01*
X14059696Y-55263137D01*
X13841325Y-55219700D01*
X13618675Y-55219700D01*
X13400304Y-55263137D01*
X13194602Y-55348341D01*
X13009476Y-55472039D01*
X12852039Y-55629476D01*
X12728341Y-55814602D01*
X12643137Y-56020304D01*
X12599700Y-56238675D01*
X351600Y-56238675D01*
X351600Y-53698675D01*
X12599700Y-53698675D01*
X12599700Y-53921325D01*
X12643137Y-54139696D01*
X12728341Y-54345398D01*
X12852039Y-54530524D01*
X13009476Y-54687961D01*
X13194602Y-54811659D01*
X13400304Y-54896863D01*
X13618675Y-54940300D01*
X13841325Y-54940300D01*
X14059696Y-54896863D01*
X14265398Y-54811659D01*
X14450524Y-54687961D01*
X14607961Y-54530524D01*
X14731659Y-54345398D01*
X14816863Y-54139696D01*
X14860300Y-53921325D01*
X14860300Y-53698675D01*
X14816863Y-53480304D01*
X14731659Y-53274602D01*
X14607961Y-53089476D01*
X14450524Y-52932039D01*
X14265398Y-52808341D01*
X14059696Y-52723137D01*
X13841325Y-52679700D01*
X13618675Y-52679700D01*
X13400304Y-52723137D01*
X13194602Y-52808341D01*
X13009476Y-52932039D01*
X12852039Y-53089476D01*
X12728341Y-53274602D01*
X12643137Y-53480304D01*
X12599700Y-53698675D01*
X351600Y-53698675D01*
X351600Y-51158675D01*
X12599700Y-51158675D01*
X12599700Y-51381325D01*
X12643137Y-51599696D01*
X12728341Y-51805398D01*
X12852039Y-51990524D01*
X13009476Y-52147961D01*
X13194602Y-52271659D01*
X13400304Y-52356863D01*
X13618675Y-52400300D01*
X13841325Y-52400300D01*
X14059696Y-52356863D01*
X14265398Y-52271659D01*
X14450524Y-52147961D01*
X14607961Y-51990524D01*
X14731659Y-51805398D01*
X14816863Y-51599696D01*
X14860300Y-51381325D01*
X14860300Y-51158675D01*
X14816863Y-50940304D01*
X14731659Y-50734602D01*
X14607961Y-50549476D01*
X14450524Y-50392039D01*
X14265398Y-50268341D01*
X14059696Y-50183137D01*
X13841325Y-50139700D01*
X13618675Y-50139700D01*
X13400304Y-50183137D01*
X13194602Y-50268341D01*
X13009476Y-50392039D01*
X12852039Y-50549476D01*
X12728341Y-50734602D01*
X12643137Y-50940304D01*
X12599700Y-51158675D01*
X351600Y-51158675D01*
X351600Y-48618675D01*
X12599700Y-48618675D01*
X12599700Y-48841325D01*
X12643137Y-49059696D01*
X12728341Y-49265398D01*
X12852039Y-49450524D01*
X13009476Y-49607961D01*
X13194602Y-49731659D01*
X13400304Y-49816863D01*
X13618675Y-49860300D01*
X13841325Y-49860300D01*
X14059696Y-49816863D01*
X14265398Y-49731659D01*
X14450524Y-49607961D01*
X14607961Y-49450524D01*
X14731659Y-49265398D01*
X14816863Y-49059696D01*
X14860300Y-48841325D01*
X14860300Y-48691800D01*
X35796220Y-48691800D01*
X35796220Y-61003180D01*
X35798195Y-61023117D01*
X35803999Y-61042170D01*
X35813408Y-61059724D01*
X35826061Y-61075105D01*
X35841472Y-61087723D01*
X35859048Y-61097091D01*
X35878115Y-61102851D01*
X35897938Y-61104780D01*
X64315458Y-61071760D01*
X64335161Y-61069808D01*
X64354221Y-61064026D01*
X64371786Y-61054637D01*
X64387182Y-61042002D01*
X64399817Y-61026606D01*
X64409206Y-61009041D01*
X64414988Y-60989981D01*
X64416940Y-60970160D01*
X64416940Y-48691800D01*
X64414988Y-48671979D01*
X64409206Y-48652919D01*
X64399817Y-48635354D01*
X64387182Y-48619958D01*
X64371786Y-48607323D01*
X64354221Y-48597934D01*
X64335161Y-48592152D01*
X64315340Y-48590200D01*
X35897820Y-48590200D01*
X35877999Y-48592152D01*
X35858939Y-48597934D01*
X35841374Y-48607323D01*
X35825978Y-48619958D01*
X35813343Y-48635354D01*
X35803954Y-48652919D01*
X35798172Y-48671979D01*
X35796220Y-48691800D01*
X14860300Y-48691800D01*
X14860300Y-48618675D01*
X14816863Y-48400304D01*
X14731659Y-48194602D01*
X14607961Y-48009476D01*
X14450524Y-47852039D01*
X14265398Y-47728341D01*
X14059696Y-47643137D01*
X13841325Y-47599700D01*
X13618675Y-47599700D01*
X13400304Y-47643137D01*
X13194602Y-47728341D01*
X13009476Y-47852039D01*
X12852039Y-48009476D01*
X12728341Y-48194602D01*
X12643137Y-48400304D01*
X12599700Y-48618675D01*
X351600Y-48618675D01*
X351600Y-46078675D01*
X12599700Y-46078675D01*
X12599700Y-46301325D01*
X12643137Y-46519696D01*
X12728341Y-46725398D01*
X12852039Y-46910524D01*
X13009476Y-47067961D01*
X13194602Y-47191659D01*
X13400304Y-47276863D01*
X13618675Y-47320300D01*
X13841325Y-47320300D01*
X14059696Y-47276863D01*
X14265398Y-47191659D01*
X14450524Y-47067961D01*
X14607961Y-46910524D01*
X14731659Y-46725398D01*
X14816863Y-46519696D01*
X14824759Y-46480000D01*
X61613726Y-46480000D01*
X61613726Y-48040000D01*
X61619611Y-48099751D01*
X61637040Y-48157206D01*
X61665342Y-48210157D01*
X61703432Y-48256568D01*
X61749843Y-48294658D01*
X61802794Y-48322960D01*
X61860249Y-48340389D01*
X61920000Y-48346274D01*
X63480000Y-48346274D01*
X63539751Y-48340389D01*
X63597206Y-48322960D01*
X63650157Y-48294658D01*
X63696568Y-48256568D01*
X63734658Y-48210157D01*
X63762960Y-48157206D01*
X63780389Y-48099751D01*
X63786274Y-48040000D01*
X63786274Y-47793400D01*
X64719999Y-47793400D01*
X65252601Y-48326003D01*
X65252600Y-69977794D01*
X65260319Y-70056164D01*
X65290819Y-70156710D01*
X65340349Y-70249375D01*
X65407005Y-70330595D01*
X65488225Y-70397251D01*
X65580889Y-70446781D01*
X65681435Y-70477281D01*
X65786000Y-70487580D01*
X65890564Y-70477281D01*
X65991110Y-70446781D01*
X66083775Y-70397251D01*
X66164995Y-70330595D01*
X66231651Y-70249375D01*
X66281181Y-70156711D01*
X66311681Y-70056165D01*
X66319400Y-69977795D01*
X66319400Y-68938675D01*
X82599700Y-68938675D01*
X82599700Y-69161325D01*
X82643137Y-69379696D01*
X82728341Y-69585398D01*
X82852039Y-69770524D01*
X83009476Y-69927961D01*
X83194602Y-70051659D01*
X83400304Y-70136863D01*
X83618675Y-70180300D01*
X83841325Y-70180300D01*
X84059696Y-70136863D01*
X84265398Y-70051659D01*
X84450524Y-69927961D01*
X84607961Y-69770524D01*
X84731659Y-69585398D01*
X84816863Y-69379696D01*
X84860300Y-69161325D01*
X84860300Y-68938675D01*
X84816863Y-68720304D01*
X84731659Y-68514602D01*
X84607961Y-68329476D01*
X84450524Y-68172039D01*
X84265398Y-68048341D01*
X84059696Y-67963137D01*
X83841325Y-67919700D01*
X83618675Y-67919700D01*
X83400304Y-67963137D01*
X83194602Y-68048341D01*
X83009476Y-68172039D01*
X82852039Y-68329476D01*
X82728341Y-68514602D01*
X82643137Y-68720304D01*
X82599700Y-68938675D01*
X66319400Y-68938675D01*
X66319400Y-66398675D01*
X82599700Y-66398675D01*
X82599700Y-66621325D01*
X82643137Y-66839696D01*
X82728341Y-67045398D01*
X82852039Y-67230524D01*
X83009476Y-67387961D01*
X83194602Y-67511659D01*
X83400304Y-67596863D01*
X83618675Y-67640300D01*
X83841325Y-67640300D01*
X84059696Y-67596863D01*
X84265398Y-67511659D01*
X84450524Y-67387961D01*
X84607961Y-67230524D01*
X84731659Y-67045398D01*
X84816863Y-66839696D01*
X84860300Y-66621325D01*
X84860300Y-66398675D01*
X84816863Y-66180304D01*
X84731659Y-65974602D01*
X84607961Y-65789476D01*
X84450524Y-65632039D01*
X84265398Y-65508341D01*
X84059696Y-65423137D01*
X83841325Y-65379700D01*
X83618675Y-65379700D01*
X83400304Y-65423137D01*
X83194602Y-65508341D01*
X83009476Y-65632039D01*
X82852039Y-65789476D01*
X82728341Y-65974602D01*
X82643137Y-66180304D01*
X82599700Y-66398675D01*
X66319400Y-66398675D01*
X66319400Y-63858675D01*
X82599700Y-63858675D01*
X82599700Y-64081325D01*
X82643137Y-64299696D01*
X82728341Y-64505398D01*
X82852039Y-64690524D01*
X83009476Y-64847961D01*
X83194602Y-64971659D01*
X83400304Y-65056863D01*
X83618675Y-65100300D01*
X83841325Y-65100300D01*
X84059696Y-65056863D01*
X84265398Y-64971659D01*
X84450524Y-64847961D01*
X84607961Y-64690524D01*
X84731659Y-64505398D01*
X84816863Y-64299696D01*
X84860300Y-64081325D01*
X84860300Y-63858675D01*
X84816863Y-63640304D01*
X84731659Y-63434602D01*
X84607961Y-63249476D01*
X84450524Y-63092039D01*
X84265398Y-62968341D01*
X84059696Y-62883137D01*
X83841325Y-62839700D01*
X83618675Y-62839700D01*
X83400304Y-62883137D01*
X83194602Y-62968341D01*
X83009476Y-63092039D01*
X82852039Y-63249476D01*
X82728341Y-63434602D01*
X82643137Y-63640304D01*
X82599700Y-63858675D01*
X66319400Y-63858675D01*
X66319400Y-61318675D01*
X82599700Y-61318675D01*
X82599700Y-61541325D01*
X82643137Y-61759696D01*
X82728341Y-61965398D01*
X82852039Y-62150524D01*
X83009476Y-62307961D01*
X83194602Y-62431659D01*
X83400304Y-62516863D01*
X83618675Y-62560300D01*
X83841325Y-62560300D01*
X84059696Y-62516863D01*
X84265398Y-62431659D01*
X84450524Y-62307961D01*
X84607961Y-62150524D01*
X84731659Y-61965398D01*
X84816863Y-61759696D01*
X84860300Y-61541325D01*
X84860300Y-61318675D01*
X84816863Y-61100304D01*
X84731659Y-60894602D01*
X84607961Y-60709476D01*
X84450524Y-60552039D01*
X84265398Y-60428341D01*
X84059696Y-60343137D01*
X83841325Y-60299700D01*
X83618675Y-60299700D01*
X83400304Y-60343137D01*
X83194602Y-60428341D01*
X83009476Y-60552039D01*
X82852039Y-60709476D01*
X82728341Y-60894602D01*
X82643137Y-61100304D01*
X82599700Y-61318675D01*
X66319400Y-61318675D01*
X66319400Y-58778675D01*
X82599700Y-58778675D01*
X82599700Y-59001325D01*
X82643137Y-59219696D01*
X82728341Y-59425398D01*
X82852039Y-59610524D01*
X83009476Y-59767961D01*
X83194602Y-59891659D01*
X83400304Y-59976863D01*
X83618675Y-60020300D01*
X83841325Y-60020300D01*
X84059696Y-59976863D01*
X84265398Y-59891659D01*
X84450524Y-59767961D01*
X84607961Y-59610524D01*
X84731659Y-59425398D01*
X84816863Y-59219696D01*
X84860300Y-59001325D01*
X84860300Y-58778675D01*
X84816863Y-58560304D01*
X84731659Y-58354602D01*
X84607961Y-58169476D01*
X84450524Y-58012039D01*
X84265398Y-57888341D01*
X84059696Y-57803137D01*
X83841325Y-57759700D01*
X83618675Y-57759700D01*
X83400304Y-57803137D01*
X83194602Y-57888341D01*
X83009476Y-58012039D01*
X82852039Y-58169476D01*
X82728341Y-58354602D01*
X82643137Y-58560304D01*
X82599700Y-58778675D01*
X66319400Y-58778675D01*
X66319400Y-56238675D01*
X82599700Y-56238675D01*
X82599700Y-56461325D01*
X82643137Y-56679696D01*
X82728341Y-56885398D01*
X82852039Y-57070524D01*
X83009476Y-57227961D01*
X83194602Y-57351659D01*
X83400304Y-57436863D01*
X83618675Y-57480300D01*
X83841325Y-57480300D01*
X84059696Y-57436863D01*
X84265398Y-57351659D01*
X84450524Y-57227961D01*
X84607961Y-57070524D01*
X84731659Y-56885398D01*
X84816863Y-56679696D01*
X84860300Y-56461325D01*
X84860300Y-56238675D01*
X84816863Y-56020304D01*
X84731659Y-55814602D01*
X84607961Y-55629476D01*
X84450524Y-55472039D01*
X84265398Y-55348341D01*
X84059696Y-55263137D01*
X83841325Y-55219700D01*
X83618675Y-55219700D01*
X83400304Y-55263137D01*
X83194602Y-55348341D01*
X83009476Y-55472039D01*
X82852039Y-55629476D01*
X82728341Y-55814602D01*
X82643137Y-56020304D01*
X82599700Y-56238675D01*
X66319400Y-56238675D01*
X66319400Y-53698675D01*
X82599700Y-53698675D01*
X82599700Y-53921325D01*
X82643137Y-54139696D01*
X82728341Y-54345398D01*
X82852039Y-54530524D01*
X83009476Y-54687961D01*
X83194602Y-54811659D01*
X83400304Y-54896863D01*
X83618675Y-54940300D01*
X83841325Y-54940300D01*
X84059696Y-54896863D01*
X84265398Y-54811659D01*
X84450524Y-54687961D01*
X84607961Y-54530524D01*
X84731659Y-54345398D01*
X84816863Y-54139696D01*
X84860300Y-53921325D01*
X84860300Y-53698675D01*
X84816863Y-53480304D01*
X84731659Y-53274602D01*
X84607961Y-53089476D01*
X84450524Y-52932039D01*
X84265398Y-52808341D01*
X84059696Y-52723137D01*
X83841325Y-52679700D01*
X83618675Y-52679700D01*
X83400304Y-52723137D01*
X83194602Y-52808341D01*
X83009476Y-52932039D01*
X82852039Y-53089476D01*
X82728341Y-53274602D01*
X82643137Y-53480304D01*
X82599700Y-53698675D01*
X66319400Y-53698675D01*
X66319400Y-51158675D01*
X82599700Y-51158675D01*
X82599700Y-51381325D01*
X82643137Y-51599696D01*
X82728341Y-51805398D01*
X82852039Y-51990524D01*
X83009476Y-52147961D01*
X83194602Y-52271659D01*
X83400304Y-52356863D01*
X83618675Y-52400300D01*
X83841325Y-52400300D01*
X84059696Y-52356863D01*
X84265398Y-52271659D01*
X84450524Y-52147961D01*
X84607961Y-51990524D01*
X84731659Y-51805398D01*
X84816863Y-51599696D01*
X84860300Y-51381325D01*
X84860300Y-51158675D01*
X84816863Y-50940304D01*
X84731659Y-50734602D01*
X84607961Y-50549476D01*
X84450524Y-50392039D01*
X84265398Y-50268341D01*
X84059696Y-50183137D01*
X83841325Y-50139700D01*
X83618675Y-50139700D01*
X83400304Y-50183137D01*
X83194602Y-50268341D01*
X83009476Y-50392039D01*
X82852039Y-50549476D01*
X82728341Y-50734602D01*
X82643137Y-50940304D01*
X82599700Y-51158675D01*
X66319400Y-51158675D01*
X66319400Y-48131246D01*
X66321979Y-48105059D01*
X66319400Y-48078872D01*
X66319400Y-48078865D01*
X66311681Y-48000495D01*
X66281181Y-47899949D01*
X66231651Y-47807285D01*
X66164995Y-47726065D01*
X66144651Y-47709369D01*
X65336635Y-46901354D01*
X65319935Y-46881005D01*
X65238715Y-46814349D01*
X65146051Y-46764819D01*
X65045505Y-46734319D01*
X64967135Y-46726600D01*
X64967127Y-46726600D01*
X64940940Y-46724021D01*
X64914753Y-46726600D01*
X63786274Y-46726600D01*
X63786274Y-46480000D01*
X63780389Y-46420249D01*
X63762960Y-46362794D01*
X63734658Y-46309843D01*
X63696568Y-46263432D01*
X63650157Y-46225342D01*
X63597206Y-46197040D01*
X63539751Y-46179611D01*
X63480000Y-46173726D01*
X61920000Y-46173726D01*
X61860249Y-46179611D01*
X61802794Y-46197040D01*
X61749843Y-46225342D01*
X61703432Y-46263432D01*
X61665342Y-46309843D01*
X61637040Y-46362794D01*
X61619611Y-46420249D01*
X61613726Y-46480000D01*
X14824759Y-46480000D01*
X14860300Y-46301325D01*
X14860300Y-46078675D01*
X14816863Y-45860304D01*
X14731659Y-45654602D01*
X14607961Y-45469476D01*
X14450524Y-45312039D01*
X14265398Y-45188341D01*
X14059696Y-45103137D01*
X13841325Y-45059700D01*
X13618675Y-45059700D01*
X13400304Y-45103137D01*
X13194602Y-45188341D01*
X13009476Y-45312039D01*
X12852039Y-45469476D01*
X12728341Y-45654602D01*
X12643137Y-45860304D01*
X12599700Y-46078675D01*
X351600Y-46078675D01*
X351600Y-43538675D01*
X12599700Y-43538675D01*
X12599700Y-43761325D01*
X12643137Y-43979696D01*
X12728341Y-44185398D01*
X12852039Y-44370524D01*
X13009476Y-44527961D01*
X13194602Y-44651659D01*
X13400304Y-44736863D01*
X13618675Y-44780300D01*
X13841325Y-44780300D01*
X14059696Y-44736863D01*
X14265398Y-44651659D01*
X14325968Y-44611187D01*
X36195200Y-44611187D01*
X36195200Y-44828813D01*
X36237657Y-45042258D01*
X36320939Y-45243319D01*
X36441846Y-45424269D01*
X36595731Y-45578154D01*
X36776681Y-45699061D01*
X36977742Y-45782343D01*
X37191187Y-45824800D01*
X37408813Y-45824800D01*
X37622258Y-45782343D01*
X37823319Y-45699061D01*
X38004269Y-45578154D01*
X38158154Y-45424269D01*
X38279061Y-45243319D01*
X38362343Y-45042258D01*
X38404800Y-44828813D01*
X38404800Y-44611187D01*
X61595200Y-44611187D01*
X61595200Y-44828813D01*
X61637657Y-45042258D01*
X61720939Y-45243319D01*
X61841846Y-45424269D01*
X61995731Y-45578154D01*
X62176681Y-45699061D01*
X62377742Y-45782343D01*
X62591187Y-45824800D01*
X62808813Y-45824800D01*
X63022258Y-45782343D01*
X63223319Y-45699061D01*
X63404269Y-45578154D01*
X63558154Y-45424269D01*
X63679061Y-45243319D01*
X63762343Y-45042258D01*
X63804800Y-44828813D01*
X63804800Y-44611187D01*
X63762343Y-44397742D01*
X63679061Y-44196681D01*
X63558154Y-44015731D01*
X63404269Y-43861846D01*
X63223319Y-43740939D01*
X63022258Y-43657657D01*
X62808813Y-43615200D01*
X62591187Y-43615200D01*
X62377742Y-43657657D01*
X62176681Y-43740939D01*
X61995731Y-43861846D01*
X61841846Y-44015731D01*
X61720939Y-44196681D01*
X61637657Y-44397742D01*
X61595200Y-44611187D01*
X38404800Y-44611187D01*
X38362343Y-44397742D01*
X38279061Y-44196681D01*
X38158154Y-44015731D01*
X38004269Y-43861846D01*
X37823319Y-43740939D01*
X37622258Y-43657657D01*
X37408813Y-43615200D01*
X37191187Y-43615200D01*
X36977742Y-43657657D01*
X36776681Y-43740939D01*
X36595731Y-43861846D01*
X36441846Y-44015731D01*
X36320939Y-44196681D01*
X36237657Y-44397742D01*
X36195200Y-44611187D01*
X14325968Y-44611187D01*
X14450524Y-44527961D01*
X14607961Y-44370524D01*
X14731659Y-44185398D01*
X14816863Y-43979696D01*
X14860300Y-43761325D01*
X14860300Y-43538675D01*
X14816863Y-43320304D01*
X14731659Y-43114602D01*
X14607961Y-42929476D01*
X14450524Y-42772039D01*
X14265398Y-42648341D01*
X14059696Y-42563137D01*
X13841325Y-42519700D01*
X13618675Y-42519700D01*
X13400304Y-42563137D01*
X13194602Y-42648341D01*
X13009476Y-42772039D01*
X12852039Y-42929476D01*
X12728341Y-43114602D01*
X12643137Y-43320304D01*
X12599700Y-43538675D01*
X351600Y-43538675D01*
X351600Y-40998675D01*
X12599700Y-40998675D01*
X12599700Y-41221325D01*
X12643137Y-41439696D01*
X12728341Y-41645398D01*
X12852039Y-41830524D01*
X13009476Y-41987961D01*
X13194602Y-42111659D01*
X13400304Y-42196863D01*
X13618675Y-42240300D01*
X13841325Y-42240300D01*
X14059696Y-42196863D01*
X14265398Y-42111659D01*
X14325968Y-42071187D01*
X36195200Y-42071187D01*
X36195200Y-42288813D01*
X36237657Y-42502258D01*
X36320939Y-42703319D01*
X36441846Y-42884269D01*
X36595731Y-43038154D01*
X36776681Y-43159061D01*
X36977742Y-43242343D01*
X37191187Y-43284800D01*
X37408813Y-43284800D01*
X37622258Y-43242343D01*
X37823319Y-43159061D01*
X38004269Y-43038154D01*
X38158154Y-42884269D01*
X38279061Y-42703319D01*
X38362343Y-42502258D01*
X38404800Y-42288813D01*
X38404800Y-42071187D01*
X61595200Y-42071187D01*
X61595200Y-42288813D01*
X61637657Y-42502258D01*
X61720939Y-42703319D01*
X61841846Y-42884269D01*
X61995731Y-43038154D01*
X62176681Y-43159061D01*
X62377742Y-43242343D01*
X62591187Y-43284800D01*
X62808813Y-43284800D01*
X63022258Y-43242343D01*
X63223319Y-43159061D01*
X63404269Y-43038154D01*
X63558154Y-42884269D01*
X63679061Y-42703319D01*
X63762343Y-42502258D01*
X63804800Y-42288813D01*
X63804800Y-42071187D01*
X63762343Y-41857742D01*
X63679061Y-41656681D01*
X63558154Y-41475731D01*
X63404269Y-41321846D01*
X63223319Y-41200939D01*
X63022258Y-41117657D01*
X62808813Y-41075200D01*
X62591187Y-41075200D01*
X62377742Y-41117657D01*
X62176681Y-41200939D01*
X61995731Y-41321846D01*
X61841846Y-41475731D01*
X61720939Y-41656681D01*
X61637657Y-41857742D01*
X61595200Y-42071187D01*
X38404800Y-42071187D01*
X38362343Y-41857742D01*
X38279061Y-41656681D01*
X38158154Y-41475731D01*
X38004269Y-41321846D01*
X37823319Y-41200939D01*
X37622258Y-41117657D01*
X37408813Y-41075200D01*
X37191187Y-41075200D01*
X36977742Y-41117657D01*
X36776681Y-41200939D01*
X36595731Y-41321846D01*
X36441846Y-41475731D01*
X36320939Y-41656681D01*
X36237657Y-41857742D01*
X36195200Y-42071187D01*
X14325968Y-42071187D01*
X14450524Y-41987961D01*
X14607961Y-41830524D01*
X14731659Y-41645398D01*
X14816863Y-41439696D01*
X14860300Y-41221325D01*
X14860300Y-40998675D01*
X14816863Y-40780304D01*
X14731659Y-40574602D01*
X14607961Y-40389476D01*
X14450524Y-40232039D01*
X14265398Y-40108341D01*
X14059696Y-40023137D01*
X13841325Y-39979700D01*
X13618675Y-39979700D01*
X13400304Y-40023137D01*
X13194602Y-40108341D01*
X13009476Y-40232039D01*
X12852039Y-40389476D01*
X12728341Y-40574602D01*
X12643137Y-40780304D01*
X12599700Y-40998675D01*
X351600Y-40998675D01*
X351600Y-38458675D01*
X12599700Y-38458675D01*
X12599700Y-38681325D01*
X12643137Y-38899696D01*
X12728341Y-39105398D01*
X12852039Y-39290524D01*
X13009476Y-39447961D01*
X13194602Y-39571659D01*
X13400304Y-39656863D01*
X13618675Y-39700300D01*
X13841325Y-39700300D01*
X14059696Y-39656863D01*
X14265398Y-39571659D01*
X14325968Y-39531187D01*
X36195200Y-39531187D01*
X36195200Y-39748813D01*
X36237657Y-39962258D01*
X36320939Y-40163319D01*
X36441846Y-40344269D01*
X36595731Y-40498154D01*
X36776681Y-40619061D01*
X36977742Y-40702343D01*
X37191187Y-40744800D01*
X37408813Y-40744800D01*
X37622258Y-40702343D01*
X37823319Y-40619061D01*
X38004269Y-40498154D01*
X38158154Y-40344269D01*
X38279061Y-40163319D01*
X38362343Y-39962258D01*
X38404800Y-39748813D01*
X38404800Y-39531187D01*
X61595200Y-39531187D01*
X61595200Y-39748813D01*
X61637657Y-39962258D01*
X61720939Y-40163319D01*
X61841846Y-40344269D01*
X61995731Y-40498154D01*
X62176681Y-40619061D01*
X62377742Y-40702343D01*
X62591187Y-40744800D01*
X62808813Y-40744800D01*
X63022258Y-40702343D01*
X63223319Y-40619061D01*
X63404269Y-40498154D01*
X63558154Y-40344269D01*
X63679061Y-40163319D01*
X63762343Y-39962258D01*
X63804800Y-39748813D01*
X63804800Y-39531187D01*
X63762343Y-39317742D01*
X63679061Y-39116681D01*
X63577498Y-38964681D01*
X75949200Y-38964681D01*
X75949200Y-39064119D01*
X75968599Y-39161645D01*
X76006652Y-39253513D01*
X76061896Y-39336192D01*
X76132208Y-39406504D01*
X76214887Y-39461748D01*
X76306755Y-39499801D01*
X76334205Y-39505261D01*
X76733400Y-39904457D01*
X76733401Y-43717580D01*
X76731311Y-43738800D01*
X76739648Y-43823447D01*
X76751297Y-43861846D01*
X76764340Y-43904842D01*
X76804435Y-43979856D01*
X76858395Y-44045606D01*
X76874874Y-44059130D01*
X80502470Y-47686727D01*
X80515994Y-47703206D01*
X80568639Y-47746411D01*
X80581744Y-47757166D01*
X80656758Y-47797261D01*
X80738152Y-47821952D01*
X80822800Y-47830289D01*
X80844010Y-47828200D01*
X83045153Y-47828200D01*
X83009476Y-47852039D01*
X82852039Y-48009476D01*
X82728341Y-48194602D01*
X82643137Y-48400304D01*
X82599700Y-48618675D01*
X82599700Y-48841325D01*
X82643137Y-49059696D01*
X82728341Y-49265398D01*
X82852039Y-49450524D01*
X83009476Y-49607961D01*
X83194602Y-49731659D01*
X83400304Y-49816863D01*
X83618675Y-49860300D01*
X83841325Y-49860300D01*
X84059696Y-49816863D01*
X84265398Y-49731659D01*
X84450524Y-49607961D01*
X84607961Y-49450524D01*
X84731659Y-49265398D01*
X84816863Y-49059696D01*
X84860300Y-48841325D01*
X84860300Y-48618675D01*
X84816863Y-48400304D01*
X84731659Y-48194602D01*
X84607961Y-48009476D01*
X84450524Y-47852039D01*
X84414847Y-47828200D01*
X84757544Y-47828200D01*
X85226049Y-48296706D01*
X85183137Y-48400304D01*
X85139700Y-48618675D01*
X85139700Y-48841325D01*
X85183137Y-49059696D01*
X85268341Y-49265398D01*
X85392039Y-49450524D01*
X85549476Y-49607961D01*
X85734602Y-49731659D01*
X85940304Y-49816863D01*
X86158675Y-49860300D01*
X86381325Y-49860300D01*
X86599696Y-49816863D01*
X86805398Y-49731659D01*
X86990524Y-49607961D01*
X87147961Y-49450524D01*
X87271659Y-49265398D01*
X87356863Y-49059696D01*
X87400300Y-48841325D01*
X87400300Y-48618675D01*
X87356863Y-48400304D01*
X87271659Y-48194602D01*
X87147961Y-48009476D01*
X86990524Y-47852039D01*
X86805398Y-47728341D01*
X86599696Y-47643137D01*
X86381325Y-47599700D01*
X86158675Y-47599700D01*
X85940304Y-47643137D01*
X85836706Y-47686049D01*
X85256735Y-47106079D01*
X85243206Y-47089594D01*
X85177456Y-47035634D01*
X85102442Y-46995539D01*
X85021048Y-46970848D01*
X84957610Y-46964600D01*
X84936400Y-46962511D01*
X84915190Y-46964600D01*
X84553885Y-46964600D01*
X84607961Y-46910524D01*
X84731659Y-46725398D01*
X84816863Y-46519696D01*
X84860300Y-46301325D01*
X84860300Y-46078675D01*
X84816863Y-45860304D01*
X84731659Y-45654602D01*
X84607961Y-45469476D01*
X84450524Y-45312039D01*
X84265398Y-45188341D01*
X84059696Y-45103137D01*
X83841325Y-45059700D01*
X83618675Y-45059700D01*
X83400304Y-45103137D01*
X83194602Y-45188341D01*
X83009476Y-45312039D01*
X82852039Y-45469476D01*
X82728341Y-45654602D01*
X82643137Y-45860304D01*
X82599700Y-46078675D01*
X82599700Y-46301325D01*
X82643137Y-46519696D01*
X82728341Y-46725398D01*
X82852039Y-46910524D01*
X82906115Y-46964600D01*
X81001657Y-46964600D01*
X77597000Y-43559944D01*
X77597000Y-39746810D01*
X77599089Y-39725600D01*
X77590752Y-39640952D01*
X77566061Y-39559558D01*
X77525966Y-39484544D01*
X77472006Y-39418794D01*
X77455528Y-39405271D01*
X76944861Y-38894605D01*
X76939401Y-38867155D01*
X76901348Y-38775287D01*
X76846104Y-38692608D01*
X76775792Y-38622296D01*
X76693113Y-38567052D01*
X76601245Y-38528999D01*
X76503719Y-38509600D01*
X76404281Y-38509600D01*
X76306755Y-38528999D01*
X76214887Y-38567052D01*
X76132208Y-38622296D01*
X76061896Y-38692608D01*
X76006652Y-38775287D01*
X75968599Y-38867155D01*
X75949200Y-38964681D01*
X63577498Y-38964681D01*
X63558154Y-38935731D01*
X63404269Y-38781846D01*
X63223319Y-38660939D01*
X63022258Y-38577657D01*
X62808813Y-38535200D01*
X62591187Y-38535200D01*
X62377742Y-38577657D01*
X62176681Y-38660939D01*
X61995731Y-38781846D01*
X61841846Y-38935731D01*
X61720939Y-39116681D01*
X61637657Y-39317742D01*
X61595200Y-39531187D01*
X38404800Y-39531187D01*
X38362343Y-39317742D01*
X38279061Y-39116681D01*
X38158154Y-38935731D01*
X38004269Y-38781846D01*
X37823319Y-38660939D01*
X37622258Y-38577657D01*
X37408813Y-38535200D01*
X37191187Y-38535200D01*
X36977742Y-38577657D01*
X36776681Y-38660939D01*
X36595731Y-38781846D01*
X36441846Y-38935731D01*
X36320939Y-39116681D01*
X36237657Y-39317742D01*
X36195200Y-39531187D01*
X14325968Y-39531187D01*
X14450524Y-39447961D01*
X14607961Y-39290524D01*
X14731659Y-39105398D01*
X14816863Y-38899696D01*
X14860300Y-38681325D01*
X14860300Y-38458675D01*
X14816863Y-38240304D01*
X14731659Y-38034602D01*
X14607961Y-37849476D01*
X14450524Y-37692039D01*
X14265398Y-37568341D01*
X14059696Y-37483137D01*
X13841325Y-37439700D01*
X13618675Y-37439700D01*
X13400304Y-37483137D01*
X13194602Y-37568341D01*
X13009476Y-37692039D01*
X12852039Y-37849476D01*
X12728341Y-38034602D01*
X12643137Y-38240304D01*
X12599700Y-38458675D01*
X351600Y-38458675D01*
X351600Y-35918675D01*
X12599700Y-35918675D01*
X12599700Y-36141325D01*
X12643137Y-36359696D01*
X12728341Y-36565398D01*
X12852039Y-36750524D01*
X13009476Y-36907961D01*
X13194602Y-37031659D01*
X13400304Y-37116863D01*
X13618675Y-37160300D01*
X13841325Y-37160300D01*
X14059696Y-37116863D01*
X14265398Y-37031659D01*
X14325968Y-36991187D01*
X36195200Y-36991187D01*
X36195200Y-37208813D01*
X36237657Y-37422258D01*
X36320939Y-37623319D01*
X36441846Y-37804269D01*
X36595731Y-37958154D01*
X36776681Y-38079061D01*
X36977742Y-38162343D01*
X37191187Y-38204800D01*
X37408813Y-38204800D01*
X37622258Y-38162343D01*
X37823319Y-38079061D01*
X38004269Y-37958154D01*
X38158154Y-37804269D01*
X38279061Y-37623319D01*
X38362343Y-37422258D01*
X38404800Y-37208813D01*
X38404800Y-36991187D01*
X61595200Y-36991187D01*
X61595200Y-37208813D01*
X61637657Y-37422258D01*
X61720939Y-37623319D01*
X61841846Y-37804269D01*
X61995731Y-37958154D01*
X62176681Y-38079061D01*
X62377742Y-38162343D01*
X62591187Y-38204800D01*
X62808813Y-38204800D01*
X63022258Y-38162343D01*
X63223319Y-38079061D01*
X63404269Y-37958154D01*
X63558154Y-37804269D01*
X63679061Y-37623319D01*
X63762343Y-37422258D01*
X63804800Y-37208813D01*
X63804800Y-36991187D01*
X63788616Y-36909821D01*
X76370842Y-36909821D01*
X76370842Y-37009259D01*
X76390241Y-37106785D01*
X76428294Y-37198653D01*
X76483538Y-37281332D01*
X76553850Y-37351644D01*
X76636529Y-37406888D01*
X76728397Y-37444941D01*
X76755847Y-37450401D01*
X81962974Y-42657530D01*
X81976496Y-42674006D01*
X82042246Y-42727966D01*
X82117260Y-42768061D01*
X82198654Y-42792752D01*
X82283301Y-42801089D01*
X82304511Y-42799000D01*
X82982515Y-42799000D01*
X82852039Y-42929476D01*
X82728341Y-43114602D01*
X82643137Y-43320304D01*
X82599700Y-43538675D01*
X82599700Y-43761325D01*
X82643137Y-43979696D01*
X82728341Y-44185398D01*
X82852039Y-44370524D01*
X83009476Y-44527961D01*
X83194602Y-44651659D01*
X83400304Y-44736863D01*
X83618675Y-44780300D01*
X83841325Y-44780300D01*
X84059696Y-44736863D01*
X84265398Y-44651659D01*
X84450524Y-44527961D01*
X84607961Y-44370524D01*
X84731659Y-44185398D01*
X84816863Y-43979696D01*
X84860300Y-43761325D01*
X84860300Y-43538675D01*
X84816863Y-43320304D01*
X84731659Y-43114602D01*
X84607961Y-42929476D01*
X84477485Y-42799000D01*
X84808344Y-42799000D01*
X85226049Y-43216705D01*
X85183137Y-43320304D01*
X85139700Y-43538675D01*
X85139700Y-43761325D01*
X85183137Y-43979696D01*
X85268341Y-44185398D01*
X85392039Y-44370524D01*
X85549476Y-44527961D01*
X85734602Y-44651659D01*
X85940304Y-44736863D01*
X86158675Y-44780300D01*
X86381325Y-44780300D01*
X86599696Y-44736863D01*
X86805398Y-44651659D01*
X86990524Y-44527961D01*
X87147961Y-44370524D01*
X87271659Y-44185398D01*
X87356863Y-43979696D01*
X87400300Y-43761325D01*
X87400300Y-43538675D01*
X87356863Y-43320304D01*
X87271659Y-43114602D01*
X87147961Y-42929476D01*
X86990524Y-42772039D01*
X86805398Y-42648341D01*
X86599696Y-42563137D01*
X86381325Y-42519700D01*
X86158675Y-42519700D01*
X85940304Y-42563137D01*
X85836705Y-42606049D01*
X85307535Y-42076879D01*
X85294006Y-42060394D01*
X85228256Y-42006434D01*
X85153242Y-41966339D01*
X85071848Y-41941648D01*
X85008410Y-41935400D01*
X84987200Y-41933311D01*
X84965990Y-41935400D01*
X84503085Y-41935400D01*
X84607961Y-41830524D01*
X84731659Y-41645398D01*
X84816863Y-41439696D01*
X84860300Y-41221325D01*
X84860300Y-40998675D01*
X84816863Y-40780304D01*
X84731659Y-40574602D01*
X84607961Y-40389476D01*
X84450524Y-40232039D01*
X84265398Y-40108341D01*
X84059696Y-40023137D01*
X83841325Y-39979700D01*
X83618675Y-39979700D01*
X83400304Y-40023137D01*
X83194602Y-40108341D01*
X83009476Y-40232039D01*
X82852039Y-40389476D01*
X82728341Y-40574602D01*
X82643137Y-40780304D01*
X82599700Y-40998675D01*
X82599700Y-41221325D01*
X82643137Y-41439696D01*
X82728341Y-41645398D01*
X82852039Y-41830524D01*
X82956915Y-41935400D01*
X82462160Y-41935400D01*
X77366503Y-36839745D01*
X77361043Y-36812295D01*
X77322990Y-36720427D01*
X77267746Y-36637748D01*
X77197434Y-36567436D01*
X77114755Y-36512192D01*
X77022887Y-36474139D01*
X76925361Y-36454740D01*
X76825923Y-36454740D01*
X76728397Y-36474139D01*
X76636529Y-36512192D01*
X76553850Y-36567436D01*
X76483538Y-36637748D01*
X76428294Y-36720427D01*
X76390241Y-36812295D01*
X76370842Y-36909821D01*
X63788616Y-36909821D01*
X63762343Y-36777742D01*
X63679061Y-36576681D01*
X63558154Y-36395731D01*
X63404269Y-36241846D01*
X63223319Y-36120939D01*
X63022258Y-36037657D01*
X62808813Y-35995200D01*
X62591187Y-35995200D01*
X62377742Y-36037657D01*
X62176681Y-36120939D01*
X61995731Y-36241846D01*
X61841846Y-36395731D01*
X61720939Y-36576681D01*
X61637657Y-36777742D01*
X61595200Y-36991187D01*
X38404800Y-36991187D01*
X38362343Y-36777742D01*
X38279061Y-36576681D01*
X38158154Y-36395731D01*
X38004269Y-36241846D01*
X37823319Y-36120939D01*
X37622258Y-36037657D01*
X37408813Y-35995200D01*
X37191187Y-35995200D01*
X36977742Y-36037657D01*
X36776681Y-36120939D01*
X36595731Y-36241846D01*
X36441846Y-36395731D01*
X36320939Y-36576681D01*
X36237657Y-36777742D01*
X36195200Y-36991187D01*
X14325968Y-36991187D01*
X14450524Y-36907961D01*
X14607961Y-36750524D01*
X14731659Y-36565398D01*
X14816863Y-36359696D01*
X14860300Y-36141325D01*
X14860300Y-35918675D01*
X14816863Y-35700304D01*
X14731659Y-35494602D01*
X14607961Y-35309476D01*
X14450524Y-35152039D01*
X14265398Y-35028341D01*
X14059696Y-34943137D01*
X13841325Y-34899700D01*
X13618675Y-34899700D01*
X13400304Y-34943137D01*
X13194602Y-35028341D01*
X13009476Y-35152039D01*
X12852039Y-35309476D01*
X12728341Y-35494602D01*
X12643137Y-35700304D01*
X12599700Y-35918675D01*
X351600Y-35918675D01*
X351600Y-33378675D01*
X12599700Y-33378675D01*
X12599700Y-33601325D01*
X12643137Y-33819696D01*
X12728341Y-34025398D01*
X12852039Y-34210524D01*
X13009476Y-34367961D01*
X13194602Y-34491659D01*
X13400304Y-34576863D01*
X13618675Y-34620300D01*
X13841325Y-34620300D01*
X14059696Y-34576863D01*
X14265398Y-34491659D01*
X14325968Y-34451187D01*
X36195200Y-34451187D01*
X36195200Y-34668813D01*
X36237657Y-34882258D01*
X36320939Y-35083319D01*
X36441846Y-35264269D01*
X36595731Y-35418154D01*
X36776681Y-35539061D01*
X36977742Y-35622343D01*
X37191187Y-35664800D01*
X37408813Y-35664800D01*
X37622258Y-35622343D01*
X37823319Y-35539061D01*
X38004269Y-35418154D01*
X38158154Y-35264269D01*
X38279061Y-35083319D01*
X38362343Y-34882258D01*
X38404800Y-34668813D01*
X38404800Y-34451187D01*
X61595200Y-34451187D01*
X61595200Y-34668813D01*
X61637657Y-34882258D01*
X61720939Y-35083319D01*
X61841846Y-35264269D01*
X61995731Y-35418154D01*
X62176681Y-35539061D01*
X62377742Y-35622343D01*
X62591187Y-35664800D01*
X62808813Y-35664800D01*
X63022258Y-35622343D01*
X63223319Y-35539061D01*
X63404269Y-35418154D01*
X63558154Y-35264269D01*
X63679061Y-35083319D01*
X63762343Y-34882258D01*
X63804800Y-34668813D01*
X63804800Y-34514601D01*
X76281940Y-34514601D01*
X76281940Y-34614039D01*
X76301339Y-34711565D01*
X76339392Y-34803433D01*
X76394636Y-34886112D01*
X76464948Y-34956424D01*
X76547627Y-35011668D01*
X76639495Y-35049721D01*
X76737021Y-35069120D01*
X76836459Y-35069120D01*
X76933985Y-35049721D01*
X77025853Y-35011668D01*
X77049122Y-34996120D01*
X77159064Y-34996120D01*
X79740470Y-37577527D01*
X79753994Y-37594006D01*
X79789712Y-37623319D01*
X79819744Y-37647966D01*
X79894758Y-37688061D01*
X79976152Y-37712752D01*
X80060800Y-37721089D01*
X80082010Y-37719000D01*
X82982515Y-37719000D01*
X82852039Y-37849476D01*
X82728341Y-38034602D01*
X82643137Y-38240304D01*
X82599700Y-38458675D01*
X82599700Y-38681325D01*
X82643137Y-38899696D01*
X82728341Y-39105398D01*
X82852039Y-39290524D01*
X83009476Y-39447961D01*
X83194602Y-39571659D01*
X83400304Y-39656863D01*
X83618675Y-39700300D01*
X83841325Y-39700300D01*
X84059696Y-39656863D01*
X84265398Y-39571659D01*
X84450524Y-39447961D01*
X84607961Y-39290524D01*
X84731659Y-39105398D01*
X84816863Y-38899696D01*
X84860300Y-38681325D01*
X84860300Y-38458675D01*
X84816863Y-38240304D01*
X84731659Y-38034602D01*
X84607961Y-37849476D01*
X84477485Y-37719000D01*
X84808344Y-37719000D01*
X85226049Y-38136705D01*
X85183137Y-38240304D01*
X85139700Y-38458675D01*
X85139700Y-38681325D01*
X85183137Y-38899696D01*
X85268341Y-39105398D01*
X85392039Y-39290524D01*
X85549476Y-39447961D01*
X85734602Y-39571659D01*
X85940304Y-39656863D01*
X86158675Y-39700300D01*
X86381325Y-39700300D01*
X86599696Y-39656863D01*
X86805398Y-39571659D01*
X86990524Y-39447961D01*
X87147961Y-39290524D01*
X87271659Y-39105398D01*
X87356863Y-38899696D01*
X87400300Y-38681325D01*
X87400300Y-38458675D01*
X87356863Y-38240304D01*
X87271659Y-38034602D01*
X87147961Y-37849476D01*
X86990524Y-37692039D01*
X86805398Y-37568341D01*
X86599696Y-37483137D01*
X86381325Y-37439700D01*
X86158675Y-37439700D01*
X85940304Y-37483137D01*
X85836705Y-37526049D01*
X85307535Y-36996879D01*
X85294006Y-36980394D01*
X85228256Y-36926434D01*
X85153242Y-36886339D01*
X85071848Y-36861648D01*
X85008410Y-36855400D01*
X84987200Y-36853311D01*
X84965990Y-36855400D01*
X84503085Y-36855400D01*
X84607961Y-36750524D01*
X84731659Y-36565398D01*
X84816863Y-36359696D01*
X84860300Y-36141325D01*
X84860300Y-35918675D01*
X84816863Y-35700304D01*
X84731659Y-35494602D01*
X84607961Y-35309476D01*
X84450524Y-35152039D01*
X84265398Y-35028341D01*
X84059696Y-34943137D01*
X83841325Y-34899700D01*
X83618675Y-34899700D01*
X83400304Y-34943137D01*
X83194602Y-35028341D01*
X83009476Y-35152039D01*
X82852039Y-35309476D01*
X82728341Y-35494602D01*
X82643137Y-35700304D01*
X82599700Y-35918675D01*
X82599700Y-36141325D01*
X82643137Y-36359696D01*
X82728341Y-36565398D01*
X82852039Y-36750524D01*
X82956915Y-36855400D01*
X80239657Y-36855400D01*
X77658255Y-34273999D01*
X77644726Y-34257514D01*
X77578976Y-34203554D01*
X77503962Y-34163459D01*
X77422568Y-34138768D01*
X77359130Y-34132520D01*
X77337920Y-34130431D01*
X77316710Y-34132520D01*
X77049122Y-34132520D01*
X77025853Y-34116972D01*
X76933985Y-34078919D01*
X76836459Y-34059520D01*
X76737021Y-34059520D01*
X76639495Y-34078919D01*
X76547627Y-34116972D01*
X76464948Y-34172216D01*
X76394636Y-34242528D01*
X76339392Y-34325207D01*
X76301339Y-34417075D01*
X76281940Y-34514601D01*
X63804800Y-34514601D01*
X63804800Y-34451187D01*
X63762343Y-34237742D01*
X63679061Y-34036681D01*
X63558154Y-33855731D01*
X63404269Y-33701846D01*
X63223319Y-33580939D01*
X63022258Y-33497657D01*
X62808813Y-33455200D01*
X62591187Y-33455200D01*
X62377742Y-33497657D01*
X62176681Y-33580939D01*
X61995731Y-33701846D01*
X61841846Y-33855731D01*
X61720939Y-34036681D01*
X61637657Y-34237742D01*
X61595200Y-34451187D01*
X38404800Y-34451187D01*
X38362343Y-34237742D01*
X38279061Y-34036681D01*
X38158154Y-33855731D01*
X38004269Y-33701846D01*
X37823319Y-33580939D01*
X37622258Y-33497657D01*
X37408813Y-33455200D01*
X37191187Y-33455200D01*
X36977742Y-33497657D01*
X36776681Y-33580939D01*
X36595731Y-33701846D01*
X36441846Y-33855731D01*
X36320939Y-34036681D01*
X36237657Y-34237742D01*
X36195200Y-34451187D01*
X14325968Y-34451187D01*
X14450524Y-34367961D01*
X14607961Y-34210524D01*
X14731659Y-34025398D01*
X14816863Y-33819696D01*
X14860300Y-33601325D01*
X14860300Y-33378675D01*
X14816863Y-33160304D01*
X14731659Y-32954602D01*
X14607961Y-32769476D01*
X14450524Y-32612039D01*
X14265398Y-32488341D01*
X14059696Y-32403137D01*
X13841325Y-32359700D01*
X13618675Y-32359700D01*
X13400304Y-32403137D01*
X13194602Y-32488341D01*
X13009476Y-32612039D01*
X12852039Y-32769476D01*
X12728341Y-32954602D01*
X12643137Y-33160304D01*
X12599700Y-33378675D01*
X351600Y-33378675D01*
X351600Y-30838675D01*
X12599700Y-30838675D01*
X12599700Y-31061325D01*
X12643137Y-31279696D01*
X12728341Y-31485398D01*
X12852039Y-31670524D01*
X13009476Y-31827961D01*
X13194602Y-31951659D01*
X13400304Y-32036863D01*
X13618675Y-32080300D01*
X13841325Y-32080300D01*
X14059696Y-32036863D01*
X14265398Y-31951659D01*
X14325968Y-31911187D01*
X61595200Y-31911187D01*
X61595200Y-32128813D01*
X61637657Y-32342258D01*
X61720939Y-32543319D01*
X61841846Y-32724269D01*
X61995731Y-32878154D01*
X62176681Y-32999061D01*
X62377742Y-33082343D01*
X62591187Y-33124800D01*
X62808813Y-33124800D01*
X63022258Y-33082343D01*
X63223319Y-32999061D01*
X63404269Y-32878154D01*
X63558154Y-32724269D01*
X63679061Y-32543319D01*
X63762343Y-32342258D01*
X63804800Y-32128813D01*
X63804800Y-31911187D01*
X63762343Y-31697742D01*
X63679061Y-31496681D01*
X63558154Y-31315731D01*
X63404269Y-31161846D01*
X63223319Y-31040939D01*
X63022258Y-30957657D01*
X62808813Y-30915200D01*
X62591187Y-30915200D01*
X62377742Y-30957657D01*
X62176681Y-31040939D01*
X61995731Y-31161846D01*
X61841846Y-31315731D01*
X61720939Y-31496681D01*
X61637657Y-31697742D01*
X61595200Y-31911187D01*
X14325968Y-31911187D01*
X14450524Y-31827961D01*
X14607961Y-31670524D01*
X14731659Y-31485398D01*
X14816863Y-31279696D01*
X14860300Y-31061325D01*
X14860300Y-30838675D01*
X14816863Y-30620304D01*
X14731659Y-30414602D01*
X14607961Y-30229476D01*
X14450524Y-30072039D01*
X14265398Y-29948341D01*
X14059696Y-29863137D01*
X13841325Y-29819700D01*
X13618675Y-29819700D01*
X13400304Y-29863137D01*
X13194602Y-29948341D01*
X13009476Y-30072039D01*
X12852039Y-30229476D01*
X12728341Y-30414602D01*
X12643137Y-30620304D01*
X12599700Y-30838675D01*
X351600Y-30838675D01*
X351600Y-28298675D01*
X12599700Y-28298675D01*
X12599700Y-28521325D01*
X12643137Y-28739696D01*
X12728341Y-28945398D01*
X12852039Y-29130524D01*
X13009476Y-29287961D01*
X13194602Y-29411659D01*
X13400304Y-29496863D01*
X13618675Y-29540300D01*
X13841325Y-29540300D01*
X14059696Y-29496863D01*
X14265398Y-29411659D01*
X14325968Y-29371187D01*
X36195200Y-29371187D01*
X36195200Y-29588813D01*
X36237657Y-29802258D01*
X36320939Y-30003319D01*
X36441846Y-30184269D01*
X36595731Y-30338154D01*
X36776681Y-30459061D01*
X36977742Y-30542343D01*
X37191187Y-30584800D01*
X37408813Y-30584800D01*
X37622258Y-30542343D01*
X37823319Y-30459061D01*
X38004269Y-30338154D01*
X38158154Y-30184269D01*
X38279061Y-30003319D01*
X38362343Y-29802258D01*
X38404800Y-29588813D01*
X38404800Y-29371187D01*
X61595200Y-29371187D01*
X61595200Y-29588813D01*
X61637657Y-29802258D01*
X61720939Y-30003319D01*
X61841846Y-30184269D01*
X61995731Y-30338154D01*
X62176681Y-30459061D01*
X62377742Y-30542343D01*
X62591187Y-30584800D01*
X62808813Y-30584800D01*
X63022258Y-30542343D01*
X63223319Y-30459061D01*
X63404269Y-30338154D01*
X63548362Y-30194061D01*
X76289560Y-30194061D01*
X76289560Y-30293499D01*
X76308959Y-30391025D01*
X76347012Y-30482893D01*
X76402256Y-30565572D01*
X76472568Y-30635884D01*
X76555247Y-30691128D01*
X76647115Y-30729181D01*
X76744641Y-30748580D01*
X76844079Y-30748580D01*
X76941605Y-30729181D01*
X77033473Y-30691128D01*
X77116152Y-30635884D01*
X77186464Y-30565572D01*
X77241708Y-30482893D01*
X77279761Y-30391025D01*
X77285221Y-30363576D01*
X77549798Y-30099000D01*
X82982515Y-30099000D01*
X82852039Y-30229476D01*
X82728341Y-30414602D01*
X82643137Y-30620304D01*
X82599700Y-30838675D01*
X82599700Y-31061325D01*
X82643137Y-31279696D01*
X82728341Y-31485398D01*
X82852039Y-31670524D01*
X82956915Y-31775400D01*
X77238378Y-31775400D01*
X77226513Y-31767472D01*
X77134645Y-31729419D01*
X77037119Y-31710020D01*
X76937681Y-31710020D01*
X76840155Y-31729419D01*
X76748287Y-31767472D01*
X76665608Y-31822716D01*
X76595296Y-31893028D01*
X76540052Y-31975707D01*
X76501999Y-32067575D01*
X76482600Y-32165101D01*
X76482600Y-32264539D01*
X76501999Y-32362065D01*
X76540052Y-32453933D01*
X76595296Y-32536612D01*
X76665608Y-32606924D01*
X76748287Y-32662168D01*
X76840155Y-32700221D01*
X76937681Y-32719620D01*
X77037119Y-32719620D01*
X77134645Y-32700221D01*
X77226513Y-32662168D01*
X77261187Y-32639000D01*
X82982515Y-32639000D01*
X82852039Y-32769476D01*
X82728341Y-32954602D01*
X82643137Y-33160304D01*
X82599700Y-33378675D01*
X82599700Y-33601325D01*
X82643137Y-33819696D01*
X82728341Y-34025398D01*
X82852039Y-34210524D01*
X83009476Y-34367961D01*
X83194602Y-34491659D01*
X83400304Y-34576863D01*
X83618675Y-34620300D01*
X83841325Y-34620300D01*
X84059696Y-34576863D01*
X84265398Y-34491659D01*
X84450524Y-34367961D01*
X84607961Y-34210524D01*
X84731659Y-34025398D01*
X84816863Y-33819696D01*
X84860300Y-33601325D01*
X84860300Y-33378675D01*
X84816863Y-33160304D01*
X84731659Y-32954602D01*
X84607961Y-32769476D01*
X84477485Y-32639000D01*
X84808344Y-32639000D01*
X85226049Y-33056705D01*
X85183137Y-33160304D01*
X85139700Y-33378675D01*
X85139700Y-33601325D01*
X85183137Y-33819696D01*
X85268341Y-34025398D01*
X85392039Y-34210524D01*
X85549476Y-34367961D01*
X85734602Y-34491659D01*
X85940304Y-34576863D01*
X86158675Y-34620300D01*
X86381325Y-34620300D01*
X86599696Y-34576863D01*
X86805398Y-34491659D01*
X86990524Y-34367961D01*
X87147961Y-34210524D01*
X87271659Y-34025398D01*
X87356863Y-33819696D01*
X87400300Y-33601325D01*
X87400300Y-33378675D01*
X87356863Y-33160304D01*
X87271659Y-32954602D01*
X87147961Y-32769476D01*
X86990524Y-32612039D01*
X86805398Y-32488341D01*
X86599696Y-32403137D01*
X86381325Y-32359700D01*
X86158675Y-32359700D01*
X85940304Y-32403137D01*
X85836705Y-32446049D01*
X85307535Y-31916879D01*
X85294006Y-31900394D01*
X85228256Y-31846434D01*
X85153242Y-31806339D01*
X85071848Y-31781648D01*
X85008410Y-31775400D01*
X84987200Y-31773311D01*
X84965990Y-31775400D01*
X84503085Y-31775400D01*
X84607961Y-31670524D01*
X84731659Y-31485398D01*
X84816863Y-31279696D01*
X84860300Y-31061325D01*
X84860300Y-30838675D01*
X84816863Y-30620304D01*
X84731659Y-30414602D01*
X84607961Y-30229476D01*
X84477485Y-30099000D01*
X84991590Y-30099000D01*
X85012800Y-30101089D01*
X85034010Y-30099000D01*
X85097448Y-30092752D01*
X85178842Y-30068061D01*
X85253856Y-30027966D01*
X85319606Y-29974006D01*
X85333135Y-29957521D01*
X85836705Y-29453951D01*
X85940304Y-29496863D01*
X86158675Y-29540300D01*
X86381325Y-29540300D01*
X86599696Y-29496863D01*
X86805398Y-29411659D01*
X86990524Y-29287961D01*
X87147961Y-29130524D01*
X87271659Y-28945398D01*
X87356863Y-28739696D01*
X87400300Y-28521325D01*
X87400300Y-28298675D01*
X87356863Y-28080304D01*
X87271659Y-27874602D01*
X87147961Y-27689476D01*
X86990524Y-27532039D01*
X86805398Y-27408341D01*
X86599696Y-27323137D01*
X86381325Y-27279700D01*
X86158675Y-27279700D01*
X85940304Y-27323137D01*
X85734602Y-27408341D01*
X85549476Y-27532039D01*
X85392039Y-27689476D01*
X85268341Y-27874602D01*
X85183137Y-28080304D01*
X85139700Y-28298675D01*
X85139700Y-28521325D01*
X85183137Y-28739696D01*
X85226049Y-28843295D01*
X84833944Y-29235400D01*
X84503085Y-29235400D01*
X84607961Y-29130524D01*
X84731659Y-28945398D01*
X84816863Y-28739696D01*
X84860300Y-28521325D01*
X84860300Y-28298675D01*
X84816863Y-28080304D01*
X84731659Y-27874602D01*
X84607961Y-27689476D01*
X84450524Y-27532039D01*
X84265398Y-27408341D01*
X84059696Y-27323137D01*
X83841325Y-27279700D01*
X83618675Y-27279700D01*
X83400304Y-27323137D01*
X83194602Y-27408341D01*
X83009476Y-27532039D01*
X82852039Y-27689476D01*
X82728341Y-27874602D01*
X82643137Y-28080304D01*
X82599700Y-28298675D01*
X82599700Y-28521325D01*
X82643137Y-28739696D01*
X82728341Y-28945398D01*
X82852039Y-29130524D01*
X82956915Y-29235400D01*
X77392149Y-29235400D01*
X77370939Y-29233311D01*
X77286292Y-29241648D01*
X77204898Y-29266339D01*
X77129884Y-29306434D01*
X77064134Y-29360394D01*
X77050614Y-29376868D01*
X76674564Y-29752919D01*
X76647115Y-29758379D01*
X76555247Y-29796432D01*
X76472568Y-29851676D01*
X76402256Y-29921988D01*
X76347012Y-30004667D01*
X76308959Y-30096535D01*
X76289560Y-30194061D01*
X63548362Y-30194061D01*
X63558154Y-30184269D01*
X63679061Y-30003319D01*
X63762343Y-29802258D01*
X63804800Y-29588813D01*
X63804800Y-29371187D01*
X63762343Y-29157742D01*
X63679061Y-28956681D01*
X63558154Y-28775731D01*
X63404269Y-28621846D01*
X63223319Y-28500939D01*
X63022258Y-28417657D01*
X62808813Y-28375200D01*
X62591187Y-28375200D01*
X62377742Y-28417657D01*
X62176681Y-28500939D01*
X61995731Y-28621846D01*
X61841846Y-28775731D01*
X61720939Y-28956681D01*
X61637657Y-29157742D01*
X61595200Y-29371187D01*
X38404800Y-29371187D01*
X38362343Y-29157742D01*
X38279061Y-28956681D01*
X38158154Y-28775731D01*
X38004269Y-28621846D01*
X37823319Y-28500939D01*
X37622258Y-28417657D01*
X37408813Y-28375200D01*
X37191187Y-28375200D01*
X36977742Y-28417657D01*
X36776681Y-28500939D01*
X36595731Y-28621846D01*
X36441846Y-28775731D01*
X36320939Y-28956681D01*
X36237657Y-29157742D01*
X36195200Y-29371187D01*
X14325968Y-29371187D01*
X14450524Y-29287961D01*
X14607961Y-29130524D01*
X14731659Y-28945398D01*
X14816863Y-28739696D01*
X14860300Y-28521325D01*
X14860300Y-28298675D01*
X14816863Y-28080304D01*
X14731659Y-27874602D01*
X14607961Y-27689476D01*
X14450524Y-27532039D01*
X14265398Y-27408341D01*
X14059696Y-27323137D01*
X13841325Y-27279700D01*
X13618675Y-27279700D01*
X13400304Y-27323137D01*
X13194602Y-27408341D01*
X13009476Y-27532039D01*
X12852039Y-27689476D01*
X12728341Y-27874602D01*
X12643137Y-28080304D01*
X12599700Y-28298675D01*
X351600Y-28298675D01*
X351600Y-25758675D01*
X12599700Y-25758675D01*
X12599700Y-25981325D01*
X12643137Y-26199696D01*
X12728341Y-26405398D01*
X12852039Y-26590524D01*
X13009476Y-26747961D01*
X13194602Y-26871659D01*
X13400304Y-26956863D01*
X13618675Y-27000300D01*
X13841325Y-27000300D01*
X14059696Y-26956863D01*
X14265398Y-26871659D01*
X14325968Y-26831187D01*
X36195200Y-26831187D01*
X36195200Y-27048813D01*
X36237657Y-27262258D01*
X36320939Y-27463319D01*
X36441846Y-27644269D01*
X36595731Y-27798154D01*
X36776681Y-27919061D01*
X36977742Y-28002343D01*
X37191187Y-28044800D01*
X37408813Y-28044800D01*
X37622258Y-28002343D01*
X37823319Y-27919061D01*
X38004269Y-27798154D01*
X38158154Y-27644269D01*
X38279061Y-27463319D01*
X38362343Y-27262258D01*
X38404800Y-27048813D01*
X38404800Y-26831187D01*
X61595200Y-26831187D01*
X61595200Y-27048813D01*
X61637657Y-27262258D01*
X61720939Y-27463319D01*
X61841846Y-27644269D01*
X61995731Y-27798154D01*
X62176681Y-27919061D01*
X62377742Y-28002343D01*
X62591187Y-28044800D01*
X62808813Y-28044800D01*
X63022258Y-28002343D01*
X63223319Y-27919061D01*
X63404269Y-27798154D01*
X63558154Y-27644269D01*
X63679061Y-27463319D01*
X63762343Y-27262258D01*
X63804800Y-27048813D01*
X63804800Y-26831187D01*
X63762343Y-26617742D01*
X63679061Y-26416681D01*
X63558154Y-26235731D01*
X63404269Y-26081846D01*
X63223319Y-25960939D01*
X63022258Y-25877657D01*
X62808813Y-25835200D01*
X62591187Y-25835200D01*
X62377742Y-25877657D01*
X62176681Y-25960939D01*
X61995731Y-26081846D01*
X61841846Y-26235731D01*
X61720939Y-26416681D01*
X61637657Y-26617742D01*
X61595200Y-26831187D01*
X38404800Y-26831187D01*
X38362343Y-26617742D01*
X38279061Y-26416681D01*
X38158154Y-26235731D01*
X38004269Y-26081846D01*
X37823319Y-25960939D01*
X37622258Y-25877657D01*
X37408813Y-25835200D01*
X37191187Y-25835200D01*
X36977742Y-25877657D01*
X36776681Y-25960939D01*
X36595731Y-26081846D01*
X36441846Y-26235731D01*
X36320939Y-26416681D01*
X36237657Y-26617742D01*
X36195200Y-26831187D01*
X14325968Y-26831187D01*
X14450524Y-26747961D01*
X14607961Y-26590524D01*
X14731659Y-26405398D01*
X14816863Y-26199696D01*
X14860300Y-25981325D01*
X14860300Y-25758675D01*
X82599700Y-25758675D01*
X82599700Y-25981325D01*
X82643137Y-26199696D01*
X82728341Y-26405398D01*
X82852039Y-26590524D01*
X83009476Y-26747961D01*
X83194602Y-26871659D01*
X83400304Y-26956863D01*
X83618675Y-27000300D01*
X83841325Y-27000300D01*
X84059696Y-26956863D01*
X84265398Y-26871659D01*
X84450524Y-26747961D01*
X84607961Y-26590524D01*
X84731659Y-26405398D01*
X84816863Y-26199696D01*
X84860300Y-25981325D01*
X84860300Y-25758675D01*
X84816863Y-25540304D01*
X84731659Y-25334602D01*
X84607961Y-25149476D01*
X84450524Y-24992039D01*
X84265398Y-24868341D01*
X84059696Y-24783137D01*
X83841325Y-24739700D01*
X83618675Y-24739700D01*
X83400304Y-24783137D01*
X83194602Y-24868341D01*
X83009476Y-24992039D01*
X82852039Y-25149476D01*
X82728341Y-25334602D01*
X82643137Y-25540304D01*
X82599700Y-25758675D01*
X14860300Y-25758675D01*
X14816863Y-25540304D01*
X14731659Y-25334602D01*
X14607961Y-25149476D01*
X14450524Y-24992039D01*
X14265398Y-24868341D01*
X14059696Y-24783137D01*
X13841325Y-24739700D01*
X13618675Y-24739700D01*
X13400304Y-24783137D01*
X13194602Y-24868341D01*
X13009476Y-24992039D01*
X12852039Y-25149476D01*
X12728341Y-25334602D01*
X12643137Y-25540304D01*
X12599700Y-25758675D01*
X351600Y-25758675D01*
X351600Y-24291187D01*
X36195200Y-24291187D01*
X36195200Y-24508813D01*
X36237657Y-24722258D01*
X36320939Y-24923319D01*
X36441846Y-25104269D01*
X36595731Y-25258154D01*
X36776681Y-25379061D01*
X36977742Y-25462343D01*
X37191187Y-25504800D01*
X37408813Y-25504800D01*
X37622258Y-25462343D01*
X37823319Y-25379061D01*
X38004269Y-25258154D01*
X38158154Y-25104269D01*
X38279061Y-24923319D01*
X38362343Y-24722258D01*
X38404800Y-24508813D01*
X38404800Y-24291187D01*
X61595200Y-24291187D01*
X61595200Y-24508813D01*
X61637657Y-24722258D01*
X61720939Y-24923319D01*
X61841846Y-25104269D01*
X61995731Y-25258154D01*
X62176681Y-25379061D01*
X62377742Y-25462343D01*
X62591187Y-25504800D01*
X62808813Y-25504800D01*
X63022258Y-25462343D01*
X63223319Y-25379061D01*
X63404269Y-25258154D01*
X63558154Y-25104269D01*
X63679061Y-24923319D01*
X63762343Y-24722258D01*
X63804800Y-24508813D01*
X63804800Y-24291187D01*
X63762343Y-24077742D01*
X63679061Y-23876681D01*
X63558154Y-23695731D01*
X63404269Y-23541846D01*
X63223319Y-23420939D01*
X63022258Y-23337657D01*
X62808813Y-23295200D01*
X62591187Y-23295200D01*
X62377742Y-23337657D01*
X62176681Y-23420939D01*
X61995731Y-23541846D01*
X61841846Y-23695731D01*
X61720939Y-23876681D01*
X61637657Y-24077742D01*
X61595200Y-24291187D01*
X38404800Y-24291187D01*
X38362343Y-24077742D01*
X38279061Y-23876681D01*
X38158154Y-23695731D01*
X38004269Y-23541846D01*
X37823319Y-23420939D01*
X37622258Y-23337657D01*
X37408813Y-23295200D01*
X37191187Y-23295200D01*
X36977742Y-23337657D01*
X36776681Y-23420939D01*
X36595731Y-23541846D01*
X36441846Y-23695731D01*
X36320939Y-23876681D01*
X36237657Y-24077742D01*
X36195200Y-24291187D01*
X351600Y-24291187D01*
X351600Y-21751187D01*
X36195200Y-21751187D01*
X36195200Y-21968813D01*
X36237657Y-22182258D01*
X36320939Y-22383319D01*
X36441846Y-22564269D01*
X36595731Y-22718154D01*
X36776681Y-22839061D01*
X36977742Y-22922343D01*
X37191187Y-22964800D01*
X37408813Y-22964800D01*
X37622258Y-22922343D01*
X37823319Y-22839061D01*
X38004269Y-22718154D01*
X38158154Y-22564269D01*
X38279061Y-22383319D01*
X38362343Y-22182258D01*
X38404800Y-21968813D01*
X38404800Y-21751187D01*
X61595200Y-21751187D01*
X61595200Y-21968813D01*
X61637657Y-22182258D01*
X61720939Y-22383319D01*
X61841846Y-22564269D01*
X61995731Y-22718154D01*
X62176681Y-22839061D01*
X62377742Y-22922343D01*
X62591187Y-22964800D01*
X62808813Y-22964800D01*
X63022258Y-22922343D01*
X63223319Y-22839061D01*
X63404269Y-22718154D01*
X63558154Y-22564269D01*
X63679061Y-22383319D01*
X63762343Y-22182258D01*
X63804800Y-21968813D01*
X63804800Y-21751187D01*
X63762343Y-21537742D01*
X63679061Y-21336681D01*
X63558154Y-21155731D01*
X63404269Y-21001846D01*
X63223319Y-20880939D01*
X63022258Y-20797657D01*
X62808813Y-20755200D01*
X62591187Y-20755200D01*
X62377742Y-20797657D01*
X62176681Y-20880939D01*
X61995731Y-21001846D01*
X61841846Y-21155731D01*
X61720939Y-21336681D01*
X61637657Y-21537742D01*
X61595200Y-21751187D01*
X38404800Y-21751187D01*
X38362343Y-21537742D01*
X38279061Y-21336681D01*
X38158154Y-21155731D01*
X38004269Y-21001846D01*
X37823319Y-20880939D01*
X37622258Y-20797657D01*
X37408813Y-20755200D01*
X37191187Y-20755200D01*
X36977742Y-20797657D01*
X36776681Y-20880939D01*
X36595731Y-21001846D01*
X36441846Y-21155731D01*
X36320939Y-21336681D01*
X36237657Y-21537742D01*
X36195200Y-21751187D01*
X351600Y-21751187D01*
X351600Y-19211187D01*
X36195200Y-19211187D01*
X36195200Y-19428813D01*
X36237657Y-19642258D01*
X36320939Y-19843319D01*
X36441846Y-20024269D01*
X36595731Y-20178154D01*
X36776681Y-20299061D01*
X36977742Y-20382343D01*
X37191187Y-20424800D01*
X37408813Y-20424800D01*
X37622258Y-20382343D01*
X37823319Y-20299061D01*
X38004269Y-20178154D01*
X38158154Y-20024269D01*
X38279061Y-19843319D01*
X38362343Y-19642258D01*
X38404800Y-19428813D01*
X38404800Y-19211187D01*
X61595200Y-19211187D01*
X61595200Y-19428813D01*
X61637657Y-19642258D01*
X61720939Y-19843319D01*
X61841846Y-20024269D01*
X61995731Y-20178154D01*
X62176681Y-20299061D01*
X62377742Y-20382343D01*
X62591187Y-20424800D01*
X62808813Y-20424800D01*
X63022258Y-20382343D01*
X63223319Y-20299061D01*
X63404269Y-20178154D01*
X63558154Y-20024269D01*
X63679061Y-19843319D01*
X63762343Y-19642258D01*
X63804800Y-19428813D01*
X63804800Y-19211187D01*
X63762343Y-18997742D01*
X63679061Y-18796681D01*
X63558154Y-18615731D01*
X63404269Y-18461846D01*
X63223319Y-18340939D01*
X63022258Y-18257657D01*
X62808813Y-18215200D01*
X62591187Y-18215200D01*
X62377742Y-18257657D01*
X62176681Y-18340939D01*
X61995731Y-18461846D01*
X61841846Y-18615731D01*
X61720939Y-18796681D01*
X61637657Y-18997742D01*
X61595200Y-19211187D01*
X38404800Y-19211187D01*
X38362343Y-18997742D01*
X38279061Y-18796681D01*
X38158154Y-18615731D01*
X38004269Y-18461846D01*
X37823319Y-18340939D01*
X37622258Y-18257657D01*
X37408813Y-18215200D01*
X37191187Y-18215200D01*
X36977742Y-18257657D01*
X36776681Y-18340939D01*
X36595731Y-18461846D01*
X36441846Y-18615731D01*
X36320939Y-18796681D01*
X36237657Y-18997742D01*
X36195200Y-19211187D01*
X351600Y-19211187D01*
X351600Y-16671187D01*
X36195200Y-16671187D01*
X36195200Y-16888813D01*
X36237657Y-17102258D01*
X36320939Y-17303319D01*
X36441846Y-17484269D01*
X36595731Y-17638154D01*
X36776681Y-17759061D01*
X36977742Y-17842343D01*
X37191187Y-17884800D01*
X37408813Y-17884800D01*
X37622258Y-17842343D01*
X37823319Y-17759061D01*
X38004269Y-17638154D01*
X38158154Y-17484269D01*
X38279061Y-17303319D01*
X38362343Y-17102258D01*
X38404800Y-16888813D01*
X38404800Y-16671187D01*
X61595200Y-16671187D01*
X61595200Y-16888813D01*
X61637657Y-17102258D01*
X61720939Y-17303319D01*
X61841846Y-17484269D01*
X61995731Y-17638154D01*
X62176681Y-17759061D01*
X62377742Y-17842343D01*
X62591187Y-17884800D01*
X62808813Y-17884800D01*
X63022258Y-17842343D01*
X63223319Y-17759061D01*
X63404269Y-17638154D01*
X63558154Y-17484269D01*
X63679061Y-17303319D01*
X63762343Y-17102258D01*
X63804800Y-16888813D01*
X63804800Y-16671187D01*
X63762343Y-16457742D01*
X63679061Y-16256681D01*
X63558154Y-16075731D01*
X63404269Y-15921846D01*
X63223319Y-15800939D01*
X63022258Y-15717657D01*
X62808813Y-15675200D01*
X62591187Y-15675200D01*
X62377742Y-15717657D01*
X62176681Y-15800939D01*
X61995731Y-15921846D01*
X61841846Y-16075731D01*
X61720939Y-16256681D01*
X61637657Y-16457742D01*
X61595200Y-16671187D01*
X38404800Y-16671187D01*
X38362343Y-16457742D01*
X38279061Y-16256681D01*
X38158154Y-16075731D01*
X38004269Y-15921846D01*
X37823319Y-15800939D01*
X37622258Y-15717657D01*
X37408813Y-15675200D01*
X37191187Y-15675200D01*
X36977742Y-15717657D01*
X36776681Y-15800939D01*
X36595731Y-15921846D01*
X36441846Y-16075731D01*
X36320939Y-16256681D01*
X36237657Y-16457742D01*
X36195200Y-16671187D01*
X351600Y-16671187D01*
X351600Y-14131187D01*
X36195200Y-14131187D01*
X36195200Y-14348813D01*
X36237657Y-14562258D01*
X36320939Y-14763319D01*
X36441846Y-14944269D01*
X36595731Y-15098154D01*
X36776681Y-15219061D01*
X36977742Y-15302343D01*
X37191187Y-15344800D01*
X37408813Y-15344800D01*
X37622258Y-15302343D01*
X37823319Y-15219061D01*
X38004269Y-15098154D01*
X38158154Y-14944269D01*
X38279061Y-14763319D01*
X38362343Y-14562258D01*
X38404800Y-14348813D01*
X38404800Y-14131187D01*
X38362343Y-13917742D01*
X38279061Y-13716681D01*
X38158154Y-13535731D01*
X38004269Y-13381846D01*
X37823319Y-13260939D01*
X37622258Y-13177657D01*
X37408813Y-13135200D01*
X37191187Y-13135200D01*
X36977742Y-13177657D01*
X36776681Y-13260939D01*
X36595731Y-13381846D01*
X36441846Y-13535731D01*
X36320939Y-13716681D01*
X36237657Y-13917742D01*
X36195200Y-14131187D01*
X351600Y-14131187D01*
X351600Y-11591187D01*
X36195200Y-11591187D01*
X36195200Y-11808813D01*
X36237657Y-12022258D01*
X36320939Y-12223319D01*
X36441846Y-12404269D01*
X36595731Y-12558154D01*
X36776681Y-12679061D01*
X36977742Y-12762343D01*
X37191187Y-12804800D01*
X37408813Y-12804800D01*
X37622258Y-12762343D01*
X37823319Y-12679061D01*
X38004269Y-12558154D01*
X38158154Y-12404269D01*
X38279061Y-12223319D01*
X38362343Y-12022258D01*
X38404800Y-11808813D01*
X38404800Y-11591187D01*
X61595200Y-11591187D01*
X61595200Y-11808813D01*
X61637657Y-12022258D01*
X61720939Y-12223319D01*
X61841846Y-12404269D01*
X61995731Y-12558154D01*
X62176681Y-12679061D01*
X62377742Y-12762343D01*
X62591187Y-12804800D01*
X62808813Y-12804800D01*
X63022258Y-12762343D01*
X63223319Y-12679061D01*
X63404269Y-12558154D01*
X63558154Y-12404269D01*
X63679061Y-12223319D01*
X63762343Y-12022258D01*
X63804800Y-11808813D01*
X63804800Y-11591187D01*
X63762343Y-11377742D01*
X63679061Y-11176681D01*
X63558154Y-10995731D01*
X63404269Y-10841846D01*
X63223319Y-10720939D01*
X63022258Y-10637657D01*
X62808813Y-10595200D01*
X62591187Y-10595200D01*
X62377742Y-10637657D01*
X62176681Y-10720939D01*
X61995731Y-10841846D01*
X61841846Y-10995731D01*
X61720939Y-11176681D01*
X61637657Y-11377742D01*
X61595200Y-11591187D01*
X38404800Y-11591187D01*
X38362343Y-11377742D01*
X38279061Y-11176681D01*
X38158154Y-10995731D01*
X38004269Y-10841846D01*
X37823319Y-10720939D01*
X37622258Y-10637657D01*
X37408813Y-10595200D01*
X37191187Y-10595200D01*
X36977742Y-10637657D01*
X36776681Y-10720939D01*
X36595731Y-10841846D01*
X36441846Y-10995731D01*
X36320939Y-11176681D01*
X36237657Y-11377742D01*
X36195200Y-11591187D01*
X351600Y-11591187D01*
X351600Y-9051187D01*
X36195200Y-9051187D01*
X36195200Y-9268813D01*
X36237657Y-9482258D01*
X36320939Y-9683319D01*
X36441846Y-9864269D01*
X36595731Y-10018154D01*
X36776681Y-10139061D01*
X36977742Y-10222343D01*
X37191187Y-10264800D01*
X37408813Y-10264800D01*
X37622258Y-10222343D01*
X37823319Y-10139061D01*
X38004269Y-10018154D01*
X38158154Y-9864269D01*
X38279061Y-9683319D01*
X38362343Y-9482258D01*
X38404800Y-9268813D01*
X38404800Y-9051187D01*
X61595200Y-9051187D01*
X61595200Y-9268813D01*
X61637657Y-9482258D01*
X61720939Y-9683319D01*
X61841846Y-9864269D01*
X61995731Y-10018154D01*
X62176681Y-10139061D01*
X62377742Y-10222343D01*
X62591187Y-10264800D01*
X62808813Y-10264800D01*
X63022258Y-10222343D01*
X63223319Y-10139061D01*
X63404269Y-10018154D01*
X63558154Y-9864269D01*
X63679061Y-9683319D01*
X63762343Y-9482258D01*
X63804800Y-9268813D01*
X63804800Y-9051187D01*
X63762343Y-8837742D01*
X63679061Y-8636681D01*
X63558154Y-8455731D01*
X63404269Y-8301846D01*
X63223319Y-8180939D01*
X63022258Y-8097657D01*
X62808813Y-8055200D01*
X62591187Y-8055200D01*
X62377742Y-8097657D01*
X62176681Y-8180939D01*
X61995731Y-8301846D01*
X61841846Y-8455731D01*
X61720939Y-8636681D01*
X61637657Y-8837742D01*
X61595200Y-9051187D01*
X38404800Y-9051187D01*
X38362343Y-8837742D01*
X38279061Y-8636681D01*
X38158154Y-8455731D01*
X38004269Y-8301846D01*
X37823319Y-8180939D01*
X37622258Y-8097657D01*
X37408813Y-8055200D01*
X37191187Y-8055200D01*
X36977742Y-8097657D01*
X36776681Y-8180939D01*
X36595731Y-8301846D01*
X36441846Y-8455731D01*
X36320939Y-8636681D01*
X36237657Y-8837742D01*
X36195200Y-9051187D01*
X351600Y-9051187D01*
X351600Y-6511187D01*
X36195200Y-6511187D01*
X36195200Y-6728813D01*
X36237657Y-6942258D01*
X36320939Y-7143319D01*
X36441846Y-7324269D01*
X36595731Y-7478154D01*
X36776681Y-7599061D01*
X36977742Y-7682343D01*
X37191187Y-7724800D01*
X37408813Y-7724800D01*
X37622258Y-7682343D01*
X37823319Y-7599061D01*
X38004269Y-7478154D01*
X38158154Y-7324269D01*
X38279061Y-7143319D01*
X38362343Y-6942258D01*
X38404800Y-6728813D01*
X38404800Y-6511187D01*
X61595200Y-6511187D01*
X61595200Y-6728813D01*
X61637657Y-6942258D01*
X61720939Y-7143319D01*
X61841846Y-7324269D01*
X61995731Y-7478154D01*
X62176681Y-7599061D01*
X62377742Y-7682343D01*
X62591187Y-7724800D01*
X62808813Y-7724800D01*
X63022258Y-7682343D01*
X63223319Y-7599061D01*
X63404269Y-7478154D01*
X63558154Y-7324269D01*
X63679061Y-7143319D01*
X63762343Y-6942258D01*
X63804800Y-6728813D01*
X63804800Y-6511187D01*
X63762343Y-6297742D01*
X63679061Y-6096681D01*
X63558154Y-5915731D01*
X63404269Y-5761846D01*
X63223319Y-5640939D01*
X63022258Y-5557657D01*
X62808813Y-5515200D01*
X62591187Y-5515200D01*
X62377742Y-5557657D01*
X62176681Y-5640939D01*
X61995731Y-5761846D01*
X61841846Y-5915731D01*
X61720939Y-6096681D01*
X61637657Y-6297742D01*
X61595200Y-6511187D01*
X38404800Y-6511187D01*
X38362343Y-6297742D01*
X38279061Y-6096681D01*
X38158154Y-5915731D01*
X38004269Y-5761846D01*
X37823319Y-5640939D01*
X37622258Y-5557657D01*
X37408813Y-5515200D01*
X37191187Y-5515200D01*
X36977742Y-5557657D01*
X36776681Y-5640939D01*
X36595731Y-5761846D01*
X36441846Y-5915731D01*
X36320939Y-6096681D01*
X36237657Y-6297742D01*
X36195200Y-6511187D01*
X351600Y-6511187D01*
X351600Y-3971187D01*
X36195200Y-3971187D01*
X36195200Y-4188813D01*
X36237657Y-4402258D01*
X36320939Y-4603319D01*
X36441846Y-4784269D01*
X36595731Y-4938154D01*
X36776681Y-5059061D01*
X36977742Y-5142343D01*
X37191187Y-5184800D01*
X37408813Y-5184800D01*
X37622258Y-5142343D01*
X37823319Y-5059061D01*
X38004269Y-4938154D01*
X38158154Y-4784269D01*
X38279061Y-4603319D01*
X38362343Y-4402258D01*
X38404800Y-4188813D01*
X38404800Y-3971187D01*
X61595200Y-3971187D01*
X61595200Y-4188813D01*
X61637657Y-4402258D01*
X61720939Y-4603319D01*
X61841846Y-4784269D01*
X61995731Y-4938154D01*
X62176681Y-5059061D01*
X62377742Y-5142343D01*
X62591187Y-5184800D01*
X62808813Y-5184800D01*
X63022258Y-5142343D01*
X63223319Y-5059061D01*
X63404269Y-4938154D01*
X63558154Y-4784269D01*
X63679061Y-4603319D01*
X63762343Y-4402258D01*
X63804800Y-4188813D01*
X63804800Y-3971187D01*
X63762343Y-3757742D01*
X63679061Y-3556681D01*
X63558154Y-3375731D01*
X63404269Y-3221846D01*
X63223319Y-3100939D01*
X63022258Y-3017657D01*
X62808813Y-2975200D01*
X62591187Y-2975200D01*
X62377742Y-3017657D01*
X62176681Y-3100939D01*
X61995731Y-3221846D01*
X61841846Y-3375731D01*
X61720939Y-3556681D01*
X61637657Y-3757742D01*
X61595200Y-3971187D01*
X38404800Y-3971187D01*
X38362343Y-3757742D01*
X38279061Y-3556681D01*
X38158154Y-3375731D01*
X38004269Y-3221846D01*
X37823319Y-3100939D01*
X37622258Y-3017657D01*
X37408813Y-2975200D01*
X37191187Y-2975200D01*
X36977742Y-3017657D01*
X36776681Y-3100939D01*
X36595731Y-3221846D01*
X36441846Y-3375731D01*
X36320939Y-3556681D01*
X36237657Y-3757742D01*
X36195200Y-3971187D01*
X351600Y-3971187D01*
X351600Y-1710320D01*
X26029346Y-1710320D01*
X26029346Y-3410320D01*
X26035231Y-3470071D01*
X26052660Y-3527526D01*
X26080962Y-3580477D01*
X26119052Y-3626888D01*
X26165463Y-3664978D01*
X26218414Y-3693280D01*
X26275869Y-3710709D01*
X26335620Y-3716594D01*
X28035620Y-3716594D01*
X28095371Y-3710709D01*
X28152826Y-3693280D01*
X28205777Y-3664978D01*
X28252188Y-3626888D01*
X28290278Y-3580477D01*
X28318580Y-3527526D01*
X28336009Y-3470071D01*
X28341894Y-3410320D01*
X28341894Y-1710320D01*
X28336009Y-1650569D01*
X28318580Y-1593114D01*
X28290278Y-1540163D01*
X28252188Y-1493752D01*
X28205777Y-1455662D01*
X28159987Y-1431187D01*
X36195200Y-1431187D01*
X36195200Y-1648813D01*
X36237657Y-1862258D01*
X36320939Y-2063319D01*
X36441846Y-2244269D01*
X36595731Y-2398154D01*
X36776681Y-2519061D01*
X36977742Y-2602343D01*
X37191187Y-2644800D01*
X37408813Y-2644800D01*
X37622258Y-2602343D01*
X37823319Y-2519061D01*
X38004269Y-2398154D01*
X38158154Y-2244269D01*
X38279061Y-2063319D01*
X38362343Y-1862258D01*
X38404800Y-1648813D01*
X38404800Y-1431187D01*
X61595200Y-1431187D01*
X61595200Y-1648813D01*
X61637657Y-1862258D01*
X61720939Y-2063319D01*
X61841846Y-2244269D01*
X61995731Y-2398154D01*
X62176681Y-2519061D01*
X62377742Y-2602343D01*
X62591187Y-2644800D01*
X62808813Y-2644800D01*
X63022258Y-2602343D01*
X63223319Y-2519061D01*
X63404269Y-2398154D01*
X63558154Y-2244269D01*
X63679061Y-2063319D01*
X63762343Y-1862258D01*
X63804800Y-1648813D01*
X63804800Y-1431187D01*
X63762343Y-1217742D01*
X63679061Y-1016681D01*
X63558154Y-835731D01*
X63404269Y-681846D01*
X63223319Y-560939D01*
X63022258Y-477657D01*
X62808813Y-435200D01*
X62591187Y-435200D01*
X62377742Y-477657D01*
X62176681Y-560939D01*
X61995731Y-681846D01*
X61841846Y-835731D01*
X61720939Y-1016681D01*
X61637657Y-1217742D01*
X61595200Y-1431187D01*
X38404800Y-1431187D01*
X38362343Y-1217742D01*
X38279061Y-1016681D01*
X38158154Y-835731D01*
X38004269Y-681846D01*
X37823319Y-560939D01*
X37622258Y-477657D01*
X37408813Y-435200D01*
X37191187Y-435200D01*
X36977742Y-477657D01*
X36776681Y-560939D01*
X36595731Y-681846D01*
X36441846Y-835731D01*
X36320939Y-1016681D01*
X36237657Y-1217742D01*
X36195200Y-1431187D01*
X28159987Y-1431187D01*
X28152826Y-1427360D01*
X28095371Y-1409931D01*
X28035620Y-1404046D01*
X26335620Y-1404046D01*
X26275869Y-1409931D01*
X26218414Y-1427360D01*
X26165463Y-1455662D01*
X26119052Y-1493752D01*
X26080962Y-1540163D01*
X26052660Y-1593114D01*
X26035231Y-1650569D01*
X26029346Y-1710320D01*
X351600Y-1710320D01*
X351600Y-351600D01*
X99398400Y-351600D01*
X99398400Y-99398400D01*
%TA.AperFunction,Conductor*%
D23*
G36*
X99398400Y-99398400D02*
G01*
X351600Y-99398400D01*
X351600Y-95656400D01*
X49821036Y-95656400D01*
X49875963Y-96214078D01*
X50038631Y-96750325D01*
X50302791Y-97244533D01*
X50658290Y-97677710D01*
X51091467Y-98033209D01*
X51585675Y-98297369D01*
X52121922Y-98460037D01*
X52539853Y-98501200D01*
X62585089Y-98501200D01*
X62853780Y-98527664D01*
X63411458Y-98472737D01*
X63947705Y-98310069D01*
X64441913Y-98045908D01*
X64875090Y-97690410D01*
X65230588Y-97257233D01*
X65494749Y-96763025D01*
X65657417Y-96226778D01*
X65712344Y-95669100D01*
X65657417Y-95111423D01*
X65494749Y-94575176D01*
X65230588Y-94080968D01*
X64964173Y-93756340D01*
X64951482Y-93743649D01*
X64862390Y-93635090D01*
X64429213Y-93279591D01*
X63935005Y-93015431D01*
X63398758Y-92852763D01*
X62980827Y-92811600D01*
X62841080Y-92797836D01*
X62701333Y-92811600D01*
X52539853Y-92811600D01*
X52121922Y-92852763D01*
X51585675Y-93015431D01*
X51091467Y-93279591D01*
X50658290Y-93635090D01*
X50302791Y-94068267D01*
X50038631Y-94562475D01*
X49875963Y-95098722D01*
X49821036Y-95656400D01*
X351600Y-95656400D01*
X351600Y-85610739D01*
X58048980Y-85610739D01*
X58048980Y-85887461D01*
X58102966Y-86158865D01*
X58208863Y-86414522D01*
X58362601Y-86644608D01*
X58558272Y-86840279D01*
X58788358Y-86994017D01*
X59044015Y-87099914D01*
X59315419Y-87153900D01*
X59592141Y-87153900D01*
X59863545Y-87099914D01*
X60119202Y-86994017D01*
X60349288Y-86840279D01*
X60544959Y-86644608D01*
X60698697Y-86414522D01*
X60804594Y-86158865D01*
X60858580Y-85887461D01*
X60858580Y-85610739D01*
X61448980Y-85610739D01*
X61448980Y-85887461D01*
X61502966Y-86158865D01*
X61608863Y-86414522D01*
X61762601Y-86644608D01*
X61958272Y-86840279D01*
X62188358Y-86994017D01*
X62444015Y-87099914D01*
X62715419Y-87153900D01*
X62992141Y-87153900D01*
X63263545Y-87099914D01*
X63519202Y-86994017D01*
X63749288Y-86840279D01*
X63944959Y-86644608D01*
X64098697Y-86414522D01*
X64204594Y-86158865D01*
X64258580Y-85887461D01*
X64258580Y-85610739D01*
X64204594Y-85339335D01*
X64098697Y-85083678D01*
X63944959Y-84853592D01*
X63749288Y-84657921D01*
X63519202Y-84504183D01*
X63263545Y-84398286D01*
X62992141Y-84344300D01*
X62715419Y-84344300D01*
X62444015Y-84398286D01*
X62188358Y-84504183D01*
X61958272Y-84657921D01*
X61762601Y-84853592D01*
X61608863Y-85083678D01*
X61502966Y-85339335D01*
X61448980Y-85610739D01*
X60858580Y-85610739D01*
X60804594Y-85339335D01*
X60698697Y-85083678D01*
X60544959Y-84853592D01*
X60349288Y-84657921D01*
X60119202Y-84504183D01*
X59863545Y-84398286D01*
X59592141Y-84344300D01*
X59315419Y-84344300D01*
X59044015Y-84398286D01*
X58788358Y-84504183D01*
X58558272Y-84657921D01*
X58362601Y-84853592D01*
X58208863Y-85083678D01*
X58102966Y-85339335D01*
X58048980Y-85610739D01*
X351600Y-85610739D01*
X351600Y-79576222D01*
X22253840Y-79576222D01*
X22253840Y-79803698D01*
X22298218Y-80026803D01*
X22385269Y-80236963D01*
X22511648Y-80426102D01*
X22672498Y-80586952D01*
X22861637Y-80713331D01*
X23071797Y-80800382D01*
X23294902Y-80844760D01*
X23522378Y-80844760D01*
X23745483Y-80800382D01*
X23955643Y-80713331D01*
X24144782Y-80586952D01*
X24305632Y-80426102D01*
X24432011Y-80236963D01*
X24519062Y-80026803D01*
X24563440Y-79803698D01*
X24563440Y-79576222D01*
X24519062Y-79353117D01*
X24432011Y-79142957D01*
X24305632Y-78953818D01*
X24144782Y-78792968D01*
X23955643Y-78666589D01*
X23745483Y-78579538D01*
X23522378Y-78535160D01*
X23294902Y-78535160D01*
X23071797Y-78579538D01*
X22861637Y-78666589D01*
X22672498Y-78792968D01*
X22511648Y-78953818D01*
X22385269Y-79142957D01*
X22298218Y-79353117D01*
X22253840Y-79576222D01*
X351600Y-79576222D01*
X351600Y-72136000D01*
X10234111Y-72136000D01*
X10236200Y-72157210D01*
X10236201Y-75416780D01*
X10234111Y-75438000D01*
X10242448Y-75522647D01*
X10263470Y-75591945D01*
X10267140Y-75604042D01*
X10307235Y-75679056D01*
X10361195Y-75744806D01*
X10377674Y-75758330D01*
X11617674Y-76998332D01*
X11631194Y-77014806D01*
X11696944Y-77068766D01*
X11771958Y-77108861D01*
X11853352Y-77133552D01*
X11937999Y-77141889D01*
X11959209Y-77139800D01*
X23981790Y-77139800D01*
X24003000Y-77141889D01*
X24024210Y-77139800D01*
X24087648Y-77133552D01*
X24169042Y-77108861D01*
X24244056Y-77068766D01*
X24309806Y-77014806D01*
X24323335Y-76998321D01*
X27539736Y-73781920D01*
X29004220Y-73781920D01*
X29014519Y-73886485D01*
X29045019Y-73987031D01*
X29094549Y-74079695D01*
X29161205Y-74160915D01*
X29242425Y-74227571D01*
X29335089Y-74277101D01*
X29435635Y-74307601D01*
X29514005Y-74315320D01*
X59352219Y-74315320D01*
X59509152Y-74472253D01*
X59570027Y-74522211D01*
X59662689Y-74571741D01*
X59763235Y-74602241D01*
X59867800Y-74612539D01*
X59972364Y-74602241D01*
X60072910Y-74571741D01*
X60165574Y-74522211D01*
X60246795Y-74455555D01*
X60313451Y-74374334D01*
X60362981Y-74281670D01*
X60393481Y-74181124D01*
X60403779Y-74076560D01*
X60398079Y-74018675D01*
X82599700Y-74018675D01*
X82599700Y-74241325D01*
X82643137Y-74459696D01*
X82728341Y-74665398D01*
X82852039Y-74850524D01*
X83009476Y-75007961D01*
X83194602Y-75131659D01*
X83400304Y-75216863D01*
X83618675Y-75260300D01*
X83841325Y-75260300D01*
X84059696Y-75216863D01*
X84265398Y-75131659D01*
X84450524Y-75007961D01*
X84607961Y-74850524D01*
X84731659Y-74665398D01*
X84816863Y-74459696D01*
X84860300Y-74241325D01*
X84860300Y-74018675D01*
X84816863Y-73800304D01*
X84731659Y-73594602D01*
X84607961Y-73409476D01*
X84450524Y-73252039D01*
X84265398Y-73128341D01*
X84059696Y-73043137D01*
X83841325Y-72999700D01*
X83618675Y-72999700D01*
X83400304Y-73043137D01*
X83194602Y-73128341D01*
X83009476Y-73252039D01*
X82852039Y-73409476D01*
X82728341Y-73594602D01*
X82643137Y-73800304D01*
X82599700Y-74018675D01*
X60398079Y-74018675D01*
X60393481Y-73971995D01*
X60362981Y-73871449D01*
X60313451Y-73778787D01*
X60263493Y-73717912D01*
X59968856Y-73423275D01*
X59952155Y-73402925D01*
X59870935Y-73336269D01*
X59778271Y-73286739D01*
X59677725Y-73256239D01*
X59599355Y-73248520D01*
X59599347Y-73248520D01*
X59573160Y-73245941D01*
X59546973Y-73248520D01*
X29514005Y-73248520D01*
X29435635Y-73256239D01*
X29335089Y-73286739D01*
X29242425Y-73336269D01*
X29161205Y-73402925D01*
X29094549Y-73484145D01*
X29045019Y-73576809D01*
X29014519Y-73677355D01*
X29004220Y-73781920D01*
X27539736Y-73781920D01*
X29842981Y-71478675D01*
X82599700Y-71478675D01*
X82599700Y-71701325D01*
X82643137Y-71919696D01*
X82728341Y-72125398D01*
X82852039Y-72310524D01*
X83009476Y-72467961D01*
X83194602Y-72591659D01*
X83400304Y-72676863D01*
X83618675Y-72720300D01*
X83841325Y-72720300D01*
X84059696Y-72676863D01*
X84265398Y-72591659D01*
X84450524Y-72467961D01*
X84607961Y-72310524D01*
X84731659Y-72125398D01*
X84816863Y-71919696D01*
X84860300Y-71701325D01*
X84860300Y-71478675D01*
X84816863Y-71260304D01*
X84731659Y-71054602D01*
X84607961Y-70869476D01*
X84450524Y-70712039D01*
X84265398Y-70588341D01*
X84059696Y-70503137D01*
X83841325Y-70459700D01*
X83618675Y-70459700D01*
X83400304Y-70503137D01*
X83194602Y-70588341D01*
X83009476Y-70712039D01*
X82852039Y-70869476D01*
X82728341Y-71054602D01*
X82643137Y-71260304D01*
X82599700Y-71478675D01*
X29842981Y-71478675D01*
X30211528Y-71110129D01*
X30228006Y-71096606D01*
X30276410Y-71037626D01*
X35274037Y-66040000D01*
X40717978Y-66040000D01*
X40741247Y-66055548D01*
X40833115Y-66093601D01*
X40930641Y-66113000D01*
X41030079Y-66113000D01*
X41127605Y-66093601D01*
X41219473Y-66055548D01*
X41302152Y-66000304D01*
X41372464Y-65929992D01*
X41427708Y-65847313D01*
X41465761Y-65755445D01*
X41485160Y-65657919D01*
X41485160Y-65558481D01*
X41465761Y-65460955D01*
X41427708Y-65369087D01*
X41372464Y-65286408D01*
X41302152Y-65216096D01*
X41219473Y-65160852D01*
X41127605Y-65122799D01*
X41030079Y-65103400D01*
X40930641Y-65103400D01*
X40833115Y-65122799D01*
X40741247Y-65160852D01*
X40717978Y-65176400D01*
X35139417Y-65176400D01*
X37069818Y-63246000D01*
X40776398Y-63246000D01*
X40799667Y-63261548D01*
X40891535Y-63299601D01*
X40989061Y-63319000D01*
X41088499Y-63319000D01*
X41186025Y-63299601D01*
X41277893Y-63261548D01*
X41360572Y-63206304D01*
X41430884Y-63135992D01*
X41486128Y-63053313D01*
X41524181Y-62961445D01*
X41543580Y-62863919D01*
X41543580Y-62764481D01*
X41524181Y-62666955D01*
X41486128Y-62575087D01*
X41430884Y-62492408D01*
X41360572Y-62422096D01*
X41277893Y-62366852D01*
X41186025Y-62328799D01*
X41088499Y-62309400D01*
X40989061Y-62309400D01*
X40891535Y-62328799D01*
X40799667Y-62366852D01*
X40776398Y-62382400D01*
X36912169Y-62382400D01*
X36890959Y-62380311D01*
X36806312Y-62388648D01*
X36724918Y-62413339D01*
X36649904Y-62453434D01*
X36584154Y-62507394D01*
X36570634Y-62523868D01*
X28954013Y-70140491D01*
X28951164Y-70142014D01*
X28885414Y-70195974D01*
X28871890Y-70212453D01*
X23443144Y-75641200D01*
X14161800Y-75641200D01*
X14161800Y-75174570D01*
X14265398Y-75131659D01*
X14450524Y-75007961D01*
X14607961Y-74850524D01*
X14731659Y-74665398D01*
X14816863Y-74459696D01*
X14860300Y-74241325D01*
X14860300Y-74018675D01*
X14816863Y-73800304D01*
X14731659Y-73594602D01*
X14607961Y-73409476D01*
X14450524Y-73252039D01*
X14265398Y-73128341D01*
X14059696Y-73043137D01*
X13841325Y-72999700D01*
X13618675Y-72999700D01*
X13400304Y-73043137D01*
X13194602Y-73128341D01*
X13009476Y-73252039D01*
X12852039Y-73409476D01*
X12728341Y-73594602D01*
X12643137Y-73800304D01*
X12599700Y-74018675D01*
X12599700Y-74241325D01*
X12643137Y-74459696D01*
X12728341Y-74665398D01*
X12852039Y-74850524D01*
X13009476Y-75007961D01*
X13194602Y-75131659D01*
X13298200Y-75174571D01*
X13298200Y-75811790D01*
X13296111Y-75833000D01*
X13298200Y-75854209D01*
X13304448Y-75917647D01*
X13329139Y-75999041D01*
X13369234Y-76074055D01*
X13423194Y-76139806D01*
X13439678Y-76153334D01*
X13562543Y-76276200D01*
X12116858Y-76276200D01*
X11099800Y-75259144D01*
X11099800Y-72314856D01*
X11392857Y-72021800D01*
X12685430Y-72021800D01*
X12728341Y-72125398D01*
X12852039Y-72310524D01*
X13009476Y-72467961D01*
X13194602Y-72591659D01*
X13400304Y-72676863D01*
X13618675Y-72720300D01*
X13841325Y-72720300D01*
X14059696Y-72676863D01*
X14265398Y-72591659D01*
X14450524Y-72467961D01*
X14607961Y-72310524D01*
X14731659Y-72125398D01*
X14816863Y-71919696D01*
X14860300Y-71701325D01*
X14860300Y-71478675D01*
X15139700Y-71478675D01*
X15139700Y-71701325D01*
X15183137Y-71919696D01*
X15268341Y-72125398D01*
X15392039Y-72310524D01*
X15549476Y-72467961D01*
X15734602Y-72591659D01*
X15940304Y-72676863D01*
X16158675Y-72720300D01*
X16381325Y-72720300D01*
X16599696Y-72676863D01*
X16805398Y-72591659D01*
X16990524Y-72467961D01*
X17147961Y-72310524D01*
X17271659Y-72125398D01*
X17356863Y-71919696D01*
X17400300Y-71701325D01*
X17400300Y-71478675D01*
X17356863Y-71260304D01*
X17271659Y-71054602D01*
X17147961Y-70869476D01*
X16990524Y-70712039D01*
X16805398Y-70588341D01*
X16599696Y-70503137D01*
X16381325Y-70459700D01*
X16158675Y-70459700D01*
X15940304Y-70503137D01*
X15734602Y-70588341D01*
X15549476Y-70712039D01*
X15392039Y-70869476D01*
X15268341Y-71054602D01*
X15183137Y-71260304D01*
X15139700Y-71478675D01*
X14860300Y-71478675D01*
X14816863Y-71260304D01*
X14731659Y-71054602D01*
X14607961Y-70869476D01*
X14450524Y-70712039D01*
X14265398Y-70588341D01*
X14059696Y-70503137D01*
X13841325Y-70459700D01*
X13618675Y-70459700D01*
X13400304Y-70503137D01*
X13194602Y-70588341D01*
X13009476Y-70712039D01*
X12852039Y-70869476D01*
X12728341Y-71054602D01*
X12685430Y-71158200D01*
X11235210Y-71158200D01*
X11214000Y-71156111D01*
X11192790Y-71158200D01*
X11129352Y-71164448D01*
X11047958Y-71189139D01*
X10972944Y-71229234D01*
X10907194Y-71283194D01*
X10893669Y-71299674D01*
X10377679Y-71815665D01*
X10361194Y-71829194D01*
X10307234Y-71894945D01*
X10267139Y-71969959D01*
X10251413Y-72021800D01*
X10242448Y-72051353D01*
X10234111Y-72136000D01*
X351600Y-72136000D01*
X351600Y-68938675D01*
X12599700Y-68938675D01*
X12599700Y-69161325D01*
X12643137Y-69379696D01*
X12728341Y-69585398D01*
X12852039Y-69770524D01*
X13009476Y-69927961D01*
X13194602Y-70051659D01*
X13400304Y-70136863D01*
X13618675Y-70180300D01*
X13841325Y-70180300D01*
X14059696Y-70136863D01*
X14265398Y-70051659D01*
X14450524Y-69927961D01*
X14607961Y-69770524D01*
X14731659Y-69585398D01*
X14816863Y-69379696D01*
X14860300Y-69161325D01*
X14860300Y-68938675D01*
X14816863Y-68720304D01*
X14731659Y-68514602D01*
X14607961Y-68329476D01*
X14450524Y-68172039D01*
X14265398Y-68048341D01*
X14059696Y-67963137D01*
X13841325Y-67919700D01*
X13618675Y-67919700D01*
X13400304Y-67963137D01*
X13194602Y-68048341D01*
X13009476Y-68172039D01*
X12852039Y-68329476D01*
X12728341Y-68514602D01*
X12643137Y-68720304D01*
X12599700Y-68938675D01*
X351600Y-68938675D01*
X351600Y-66398675D01*
X12599700Y-66398675D01*
X12599700Y-66621325D01*
X12643137Y-66839696D01*
X12728341Y-67045398D01*
X12852039Y-67230524D01*
X13009476Y-67387961D01*
X13194602Y-67511659D01*
X13400304Y-67596863D01*
X13618675Y-67640300D01*
X13841325Y-67640300D01*
X14059696Y-67596863D01*
X14265398Y-67511659D01*
X14450524Y-67387961D01*
X14607961Y-67230524D01*
X14731659Y-67045398D01*
X14816863Y-66839696D01*
X14860300Y-66621325D01*
X14860300Y-66398675D01*
X15139700Y-66398675D01*
X15139700Y-66621325D01*
X15183137Y-66839696D01*
X15268341Y-67045398D01*
X15392039Y-67230524D01*
X15549476Y-67387961D01*
X15734602Y-67511659D01*
X15940304Y-67596863D01*
X16158675Y-67640300D01*
X16381325Y-67640300D01*
X16599696Y-67596863D01*
X16805398Y-67511659D01*
X16990524Y-67387961D01*
X17147961Y-67230524D01*
X17271659Y-67045398D01*
X17356863Y-66839696D01*
X17400300Y-66621325D01*
X17400300Y-66398675D01*
X17356863Y-66180304D01*
X17271659Y-65974602D01*
X17147961Y-65789476D01*
X16990524Y-65632039D01*
X16805398Y-65508341D01*
X16599696Y-65423137D01*
X16381325Y-65379700D01*
X16158675Y-65379700D01*
X15940304Y-65423137D01*
X15734602Y-65508341D01*
X15549476Y-65632039D01*
X15392039Y-65789476D01*
X15268341Y-65974602D01*
X15183137Y-66180304D01*
X15139700Y-66398675D01*
X14860300Y-66398675D01*
X14816863Y-66180304D01*
X14731659Y-65974602D01*
X14607961Y-65789476D01*
X14450524Y-65632039D01*
X14265398Y-65508341D01*
X14059696Y-65423137D01*
X13841325Y-65379700D01*
X13618675Y-65379700D01*
X13400304Y-65423137D01*
X13194602Y-65508341D01*
X13009476Y-65632039D01*
X12852039Y-65789476D01*
X12728341Y-65974602D01*
X12643137Y-66180304D01*
X12599700Y-66398675D01*
X351600Y-66398675D01*
X351600Y-63858675D01*
X12599700Y-63858675D01*
X12599700Y-64081325D01*
X12643137Y-64299696D01*
X12728341Y-64505398D01*
X12852039Y-64690524D01*
X13009476Y-64847961D01*
X13194602Y-64971659D01*
X13400304Y-65056863D01*
X13618675Y-65100300D01*
X13841325Y-65100300D01*
X14059696Y-65056863D01*
X14265398Y-64971659D01*
X14450524Y-64847961D01*
X14607961Y-64690524D01*
X14731659Y-64505398D01*
X14816863Y-64299696D01*
X14860300Y-64081325D01*
X14860300Y-63858675D01*
X14816863Y-63640304D01*
X14731659Y-63434602D01*
X14607961Y-63249476D01*
X14450524Y-63092039D01*
X14265398Y-62968341D01*
X14059696Y-62883137D01*
X13841325Y-62839700D01*
X13618675Y-62839700D01*
X13400304Y-62883137D01*
X13194602Y-62968341D01*
X13009476Y-63092039D01*
X12852039Y-63249476D01*
X12728341Y-63434602D01*
X12643137Y-63640304D01*
X12599700Y-63858675D01*
X351600Y-63858675D01*
X351600Y-61318675D01*
X12599700Y-61318675D01*
X12599700Y-61541325D01*
X12643137Y-61759696D01*
X12728341Y-61965398D01*
X12852039Y-62150524D01*
X13009476Y-62307961D01*
X13194602Y-62431659D01*
X13400304Y-62516863D01*
X13618675Y-62560300D01*
X13841325Y-62560300D01*
X14059696Y-62516863D01*
X14265398Y-62431659D01*
X14450524Y-62307961D01*
X14607961Y-62150524D01*
X14731659Y-61965398D01*
X14816863Y-61759696D01*
X14860300Y-61541325D01*
X14860300Y-61318675D01*
X15139700Y-61318675D01*
X15139700Y-61541325D01*
X15183137Y-61759696D01*
X15268341Y-61965398D01*
X15392039Y-62150524D01*
X15549476Y-62307961D01*
X15734602Y-62431659D01*
X15940304Y-62516863D01*
X16158675Y-62560300D01*
X16381325Y-62560300D01*
X16599696Y-62516863D01*
X16805398Y-62431659D01*
X16990524Y-62307961D01*
X17147961Y-62150524D01*
X17271659Y-61965398D01*
X17356863Y-61759696D01*
X17400300Y-61541325D01*
X17400300Y-61318675D01*
X17356863Y-61100304D01*
X17271659Y-60894602D01*
X17147961Y-60709476D01*
X16990524Y-60552039D01*
X16805398Y-60428341D01*
X16599696Y-60343137D01*
X16381325Y-60299700D01*
X16158675Y-60299700D01*
X15940304Y-60343137D01*
X15734602Y-60428341D01*
X15549476Y-60552039D01*
X15392039Y-60709476D01*
X15268341Y-60894602D01*
X15183137Y-61100304D01*
X15139700Y-61318675D01*
X14860300Y-61318675D01*
X14816863Y-61100304D01*
X14731659Y-60894602D01*
X14607961Y-60709476D01*
X14450524Y-60552039D01*
X14265398Y-60428341D01*
X14059696Y-60343137D01*
X13841325Y-60299700D01*
X13618675Y-60299700D01*
X13400304Y-60343137D01*
X13194602Y-60428341D01*
X13009476Y-60552039D01*
X12852039Y-60709476D01*
X12728341Y-60894602D01*
X12643137Y-61100304D01*
X12599700Y-61318675D01*
X351600Y-61318675D01*
X351600Y-58778675D01*
X12599700Y-58778675D01*
X12599700Y-59001325D01*
X12643137Y-59219696D01*
X12728341Y-59425398D01*
X12852039Y-59610524D01*
X13009476Y-59767961D01*
X13194602Y-59891659D01*
X13400304Y-59976863D01*
X13618675Y-60020300D01*
X13841325Y-60020300D01*
X14059696Y-59976863D01*
X14265398Y-59891659D01*
X14450524Y-59767961D01*
X14607961Y-59610524D01*
X14731659Y-59425398D01*
X14816863Y-59219696D01*
X14860300Y-59001325D01*
X14860300Y-58778675D01*
X14816863Y-58560304D01*
X14731659Y-58354602D01*
X14607961Y-58169476D01*
X14450524Y-58012039D01*
X14265398Y-57888341D01*
X14059696Y-57803137D01*
X13841325Y-57759700D01*
X13618675Y-57759700D01*
X13400304Y-57803137D01*
X13194602Y-57888341D01*
X13009476Y-58012039D01*
X12852039Y-58169476D01*
X12728341Y-58354602D01*
X12643137Y-58560304D01*
X12599700Y-58778675D01*
X351600Y-58778675D01*
X351600Y-56238675D01*
X12599700Y-56238675D01*
X12599700Y-56461325D01*
X12643137Y-56679696D01*
X12728341Y-56885398D01*
X12852039Y-57070524D01*
X13009476Y-57227961D01*
X13194602Y-57351659D01*
X13400304Y-57436863D01*
X13618675Y-57480300D01*
X13841325Y-57480300D01*
X14059696Y-57436863D01*
X14265398Y-57351659D01*
X14450524Y-57227961D01*
X14607961Y-57070524D01*
X14731659Y-56885398D01*
X14816863Y-56679696D01*
X14860300Y-56461325D01*
X14860300Y-56238675D01*
X14816863Y-56020304D01*
X14731659Y-55814602D01*
X14607961Y-55629476D01*
X14450524Y-55472039D01*
X14265398Y-55348341D01*
X14059696Y-55263137D01*
X13841325Y-55219700D01*
X13618675Y-55219700D01*
X13400304Y-55263137D01*
X13194602Y-55348341D01*
X13009476Y-55472039D01*
X12852039Y-55629476D01*
X12728341Y-55814602D01*
X12643137Y-56020304D01*
X12599700Y-56238675D01*
X351600Y-56238675D01*
X351600Y-53698675D01*
X12599700Y-53698675D01*
X12599700Y-53921325D01*
X12643137Y-54139696D01*
X12728341Y-54345398D01*
X12852039Y-54530524D01*
X13009476Y-54687961D01*
X13194602Y-54811659D01*
X13400304Y-54896863D01*
X13618675Y-54940300D01*
X13841325Y-54940300D01*
X14059696Y-54896863D01*
X14265398Y-54811659D01*
X14450524Y-54687961D01*
X14607961Y-54530524D01*
X14731659Y-54345398D01*
X14816863Y-54139696D01*
X14860300Y-53921325D01*
X14860300Y-53698675D01*
X14816863Y-53480304D01*
X14731659Y-53274602D01*
X14607961Y-53089476D01*
X14450524Y-52932039D01*
X14265398Y-52808341D01*
X14059696Y-52723137D01*
X13841325Y-52679700D01*
X13618675Y-52679700D01*
X13400304Y-52723137D01*
X13194602Y-52808341D01*
X13009476Y-52932039D01*
X12852039Y-53089476D01*
X12728341Y-53274602D01*
X12643137Y-53480304D01*
X12599700Y-53698675D01*
X351600Y-53698675D01*
X351600Y-51158675D01*
X12599700Y-51158675D01*
X12599700Y-51381325D01*
X12643137Y-51599696D01*
X12728341Y-51805398D01*
X12852039Y-51990524D01*
X13009476Y-52147961D01*
X13194602Y-52271659D01*
X13400304Y-52356863D01*
X13618675Y-52400300D01*
X13841325Y-52400300D01*
X14059696Y-52356863D01*
X14265398Y-52271659D01*
X14450524Y-52147961D01*
X14607961Y-51990524D01*
X14731659Y-51805398D01*
X14816863Y-51599696D01*
X14860300Y-51381325D01*
X14860300Y-51158675D01*
X14816863Y-50940304D01*
X14731659Y-50734602D01*
X14607961Y-50549476D01*
X14450524Y-50392039D01*
X14265398Y-50268341D01*
X14059696Y-50183137D01*
X13841325Y-50139700D01*
X13618675Y-50139700D01*
X13400304Y-50183137D01*
X13194602Y-50268341D01*
X13009476Y-50392039D01*
X12852039Y-50549476D01*
X12728341Y-50734602D01*
X12643137Y-50940304D01*
X12599700Y-51158675D01*
X351600Y-51158675D01*
X351600Y-48618675D01*
X12599700Y-48618675D01*
X12599700Y-48841325D01*
X12643137Y-49059696D01*
X12728341Y-49265398D01*
X12852039Y-49450524D01*
X13009476Y-49607961D01*
X13194602Y-49731659D01*
X13400304Y-49816863D01*
X13618675Y-49860300D01*
X13841325Y-49860300D01*
X14059696Y-49816863D01*
X14265398Y-49731659D01*
X14450524Y-49607961D01*
X14607961Y-49450524D01*
X14731659Y-49265398D01*
X14816863Y-49059696D01*
X14860300Y-48841325D01*
X14860300Y-48691800D01*
X35796220Y-48691800D01*
X35796220Y-61003180D01*
X35798195Y-61023117D01*
X35803999Y-61042170D01*
X35813408Y-61059724D01*
X35826061Y-61075105D01*
X35841472Y-61087723D01*
X35859048Y-61097091D01*
X35878115Y-61102851D01*
X35897938Y-61104780D01*
X64315458Y-61071760D01*
X64335161Y-61069808D01*
X64354221Y-61064026D01*
X64371786Y-61054637D01*
X64387182Y-61042002D01*
X64399817Y-61026606D01*
X64409206Y-61009041D01*
X64414988Y-60989981D01*
X64416940Y-60970160D01*
X64416940Y-48691800D01*
X64414988Y-48671979D01*
X64409206Y-48652919D01*
X64399817Y-48635354D01*
X64387182Y-48619958D01*
X64371786Y-48607323D01*
X64354221Y-48597934D01*
X64335161Y-48592152D01*
X64315340Y-48590200D01*
X35897820Y-48590200D01*
X35877999Y-48592152D01*
X35858939Y-48597934D01*
X35841374Y-48607323D01*
X35825978Y-48619958D01*
X35813343Y-48635354D01*
X35803954Y-48652919D01*
X35798172Y-48671979D01*
X35796220Y-48691800D01*
X14860300Y-48691800D01*
X14860300Y-48618675D01*
X14816863Y-48400304D01*
X14731659Y-48194602D01*
X14607961Y-48009476D01*
X14450524Y-47852039D01*
X14265398Y-47728341D01*
X14059696Y-47643137D01*
X13841325Y-47599700D01*
X13618675Y-47599700D01*
X13400304Y-47643137D01*
X13194602Y-47728341D01*
X13009476Y-47852039D01*
X12852039Y-48009476D01*
X12728341Y-48194602D01*
X12643137Y-48400304D01*
X12599700Y-48618675D01*
X351600Y-48618675D01*
X351600Y-46078675D01*
X12599700Y-46078675D01*
X12599700Y-46301325D01*
X12643137Y-46519696D01*
X12728341Y-46725398D01*
X12852039Y-46910524D01*
X13009476Y-47067961D01*
X13194602Y-47191659D01*
X13400304Y-47276863D01*
X13618675Y-47320300D01*
X13841325Y-47320300D01*
X14059696Y-47276863D01*
X14265398Y-47191659D01*
X14450524Y-47067961D01*
X14607961Y-46910524D01*
X14731659Y-46725398D01*
X14816863Y-46519696D01*
X14824759Y-46480000D01*
X61613726Y-46480000D01*
X61613726Y-48040000D01*
X61619611Y-48099751D01*
X61637040Y-48157206D01*
X61665342Y-48210157D01*
X61703432Y-48256568D01*
X61749843Y-48294658D01*
X61802794Y-48322960D01*
X61860249Y-48340389D01*
X61920000Y-48346274D01*
X63480000Y-48346274D01*
X63539751Y-48340389D01*
X63597206Y-48322960D01*
X63650157Y-48294658D01*
X63696568Y-48256568D01*
X63734658Y-48210157D01*
X63762960Y-48157206D01*
X63780389Y-48099751D01*
X63786274Y-48040000D01*
X63786274Y-47793400D01*
X64719999Y-47793400D01*
X65252601Y-48326003D01*
X65252600Y-69977794D01*
X65260319Y-70056164D01*
X65290819Y-70156710D01*
X65340349Y-70249375D01*
X65407005Y-70330595D01*
X65488225Y-70397251D01*
X65580889Y-70446781D01*
X65681435Y-70477281D01*
X65786000Y-70487580D01*
X65890564Y-70477281D01*
X65991110Y-70446781D01*
X66083775Y-70397251D01*
X66164995Y-70330595D01*
X66231651Y-70249375D01*
X66281181Y-70156711D01*
X66311681Y-70056165D01*
X66319400Y-69977795D01*
X66319400Y-68938675D01*
X82599700Y-68938675D01*
X82599700Y-69161325D01*
X82643137Y-69379696D01*
X82728341Y-69585398D01*
X82852039Y-69770524D01*
X83009476Y-69927961D01*
X83194602Y-70051659D01*
X83400304Y-70136863D01*
X83618675Y-70180300D01*
X83841325Y-70180300D01*
X84059696Y-70136863D01*
X84265398Y-70051659D01*
X84450524Y-69927961D01*
X84607961Y-69770524D01*
X84731659Y-69585398D01*
X84816863Y-69379696D01*
X84860300Y-69161325D01*
X84860300Y-68938675D01*
X84816863Y-68720304D01*
X84731659Y-68514602D01*
X84607961Y-68329476D01*
X84450524Y-68172039D01*
X84265398Y-68048341D01*
X84059696Y-67963137D01*
X83841325Y-67919700D01*
X83618675Y-67919700D01*
X83400304Y-67963137D01*
X83194602Y-68048341D01*
X83009476Y-68172039D01*
X82852039Y-68329476D01*
X82728341Y-68514602D01*
X82643137Y-68720304D01*
X82599700Y-68938675D01*
X66319400Y-68938675D01*
X66319400Y-66398675D01*
X82599700Y-66398675D01*
X82599700Y-66621325D01*
X82643137Y-66839696D01*
X82728341Y-67045398D01*
X82852039Y-67230524D01*
X83009476Y-67387961D01*
X83194602Y-67511659D01*
X83400304Y-67596863D01*
X83618675Y-67640300D01*
X83841325Y-67640300D01*
X84059696Y-67596863D01*
X84265398Y-67511659D01*
X84450524Y-67387961D01*
X84607961Y-67230524D01*
X84731659Y-67045398D01*
X84816863Y-66839696D01*
X84860300Y-66621325D01*
X84860300Y-66398675D01*
X84816863Y-66180304D01*
X84731659Y-65974602D01*
X84607961Y-65789476D01*
X84450524Y-65632039D01*
X84265398Y-65508341D01*
X84059696Y-65423137D01*
X83841325Y-65379700D01*
X83618675Y-65379700D01*
X83400304Y-65423137D01*
X83194602Y-65508341D01*
X83009476Y-65632039D01*
X82852039Y-65789476D01*
X82728341Y-65974602D01*
X82643137Y-66180304D01*
X82599700Y-66398675D01*
X66319400Y-66398675D01*
X66319400Y-63858675D01*
X82599700Y-63858675D01*
X82599700Y-64081325D01*
X82643137Y-64299696D01*
X82728341Y-64505398D01*
X82852039Y-64690524D01*
X83009476Y-64847961D01*
X83194602Y-64971659D01*
X83400304Y-65056863D01*
X83618675Y-65100300D01*
X83841325Y-65100300D01*
X84059696Y-65056863D01*
X84265398Y-64971659D01*
X84450524Y-64847961D01*
X84607961Y-64690524D01*
X84731659Y-64505398D01*
X84816863Y-64299696D01*
X84860300Y-64081325D01*
X84860300Y-63858675D01*
X84816863Y-63640304D01*
X84731659Y-63434602D01*
X84607961Y-63249476D01*
X84450524Y-63092039D01*
X84265398Y-62968341D01*
X84059696Y-62883137D01*
X83841325Y-62839700D01*
X83618675Y-62839700D01*
X83400304Y-62883137D01*
X83194602Y-62968341D01*
X83009476Y-63092039D01*
X82852039Y-63249476D01*
X82728341Y-63434602D01*
X82643137Y-63640304D01*
X82599700Y-63858675D01*
X66319400Y-63858675D01*
X66319400Y-61318675D01*
X82599700Y-61318675D01*
X82599700Y-61541325D01*
X82643137Y-61759696D01*
X82728341Y-61965398D01*
X82852039Y-62150524D01*
X83009476Y-62307961D01*
X83194602Y-62431659D01*
X83400304Y-62516863D01*
X83618675Y-62560300D01*
X83841325Y-62560300D01*
X84059696Y-62516863D01*
X84265398Y-62431659D01*
X84450524Y-62307961D01*
X84607961Y-62150524D01*
X84731659Y-61965398D01*
X84816863Y-61759696D01*
X84860300Y-61541325D01*
X84860300Y-61318675D01*
X84816863Y-61100304D01*
X84731659Y-60894602D01*
X84607961Y-60709476D01*
X84450524Y-60552039D01*
X84265398Y-60428341D01*
X84059696Y-60343137D01*
X83841325Y-60299700D01*
X83618675Y-60299700D01*
X83400304Y-60343137D01*
X83194602Y-60428341D01*
X83009476Y-60552039D01*
X82852039Y-60709476D01*
X82728341Y-60894602D01*
X82643137Y-61100304D01*
X82599700Y-61318675D01*
X66319400Y-61318675D01*
X66319400Y-58778675D01*
X82599700Y-58778675D01*
X82599700Y-59001325D01*
X82643137Y-59219696D01*
X82728341Y-59425398D01*
X82852039Y-59610524D01*
X83009476Y-59767961D01*
X83194602Y-59891659D01*
X83400304Y-59976863D01*
X83618675Y-60020300D01*
X83841325Y-60020300D01*
X84059696Y-59976863D01*
X84265398Y-59891659D01*
X84450524Y-59767961D01*
X84607961Y-59610524D01*
X84731659Y-59425398D01*
X84816863Y-59219696D01*
X84860300Y-59001325D01*
X84860300Y-58778675D01*
X84816863Y-58560304D01*
X84731659Y-58354602D01*
X84607961Y-58169476D01*
X84450524Y-58012039D01*
X84265398Y-57888341D01*
X84059696Y-57803137D01*
X83841325Y-57759700D01*
X83618675Y-57759700D01*
X83400304Y-57803137D01*
X83194602Y-57888341D01*
X83009476Y-58012039D01*
X82852039Y-58169476D01*
X82728341Y-58354602D01*
X82643137Y-58560304D01*
X82599700Y-58778675D01*
X66319400Y-58778675D01*
X66319400Y-56238675D01*
X82599700Y-56238675D01*
X82599700Y-56461325D01*
X82643137Y-56679696D01*
X82728341Y-56885398D01*
X82852039Y-57070524D01*
X83009476Y-57227961D01*
X83194602Y-57351659D01*
X83400304Y-57436863D01*
X83618675Y-57480300D01*
X83841325Y-57480300D01*
X84059696Y-57436863D01*
X84265398Y-57351659D01*
X84450524Y-57227961D01*
X84607961Y-57070524D01*
X84731659Y-56885398D01*
X84816863Y-56679696D01*
X84860300Y-56461325D01*
X84860300Y-56238675D01*
X84816863Y-56020304D01*
X84731659Y-55814602D01*
X84607961Y-55629476D01*
X84450524Y-55472039D01*
X84265398Y-55348341D01*
X84059696Y-55263137D01*
X83841325Y-55219700D01*
X83618675Y-55219700D01*
X83400304Y-55263137D01*
X83194602Y-55348341D01*
X83009476Y-55472039D01*
X82852039Y-55629476D01*
X82728341Y-55814602D01*
X82643137Y-56020304D01*
X82599700Y-56238675D01*
X66319400Y-56238675D01*
X66319400Y-53698675D01*
X82599700Y-53698675D01*
X82599700Y-53921325D01*
X82643137Y-54139696D01*
X82728341Y-54345398D01*
X82852039Y-54530524D01*
X83009476Y-54687961D01*
X83194602Y-54811659D01*
X83400304Y-54896863D01*
X83618675Y-54940300D01*
X83841325Y-54940300D01*
X84059696Y-54896863D01*
X84265398Y-54811659D01*
X84450524Y-54687961D01*
X84607961Y-54530524D01*
X84731659Y-54345398D01*
X84816863Y-54139696D01*
X84860300Y-53921325D01*
X84860300Y-53698675D01*
X84816863Y-53480304D01*
X84731659Y-53274602D01*
X84607961Y-53089476D01*
X84450524Y-52932039D01*
X84265398Y-52808341D01*
X84059696Y-52723137D01*
X83841325Y-52679700D01*
X83618675Y-52679700D01*
X83400304Y-52723137D01*
X83194602Y-52808341D01*
X83009476Y-52932039D01*
X82852039Y-53089476D01*
X82728341Y-53274602D01*
X82643137Y-53480304D01*
X82599700Y-53698675D01*
X66319400Y-53698675D01*
X66319400Y-51158675D01*
X82599700Y-51158675D01*
X82599700Y-51381325D01*
X82643137Y-51599696D01*
X82728341Y-51805398D01*
X82852039Y-51990524D01*
X83009476Y-52147961D01*
X83194602Y-52271659D01*
X83400304Y-52356863D01*
X83618675Y-52400300D01*
X83841325Y-52400300D01*
X84059696Y-52356863D01*
X84265398Y-52271659D01*
X84450524Y-52147961D01*
X84607961Y-51990524D01*
X84731659Y-51805398D01*
X84816863Y-51599696D01*
X84860300Y-51381325D01*
X84860300Y-51158675D01*
X84816863Y-50940304D01*
X84731659Y-50734602D01*
X84607961Y-50549476D01*
X84450524Y-50392039D01*
X84265398Y-50268341D01*
X84059696Y-50183137D01*
X83841325Y-50139700D01*
X83618675Y-50139700D01*
X83400304Y-50183137D01*
X83194602Y-50268341D01*
X83009476Y-50392039D01*
X82852039Y-50549476D01*
X82728341Y-50734602D01*
X82643137Y-50940304D01*
X82599700Y-51158675D01*
X66319400Y-51158675D01*
X66319400Y-48131246D01*
X66321979Y-48105059D01*
X66319400Y-48078872D01*
X66319400Y-48078865D01*
X66311681Y-48000495D01*
X66281181Y-47899949D01*
X66231651Y-47807285D01*
X66164995Y-47726065D01*
X66144651Y-47709369D01*
X65336635Y-46901354D01*
X65319935Y-46881005D01*
X65238715Y-46814349D01*
X65146051Y-46764819D01*
X65045505Y-46734319D01*
X64967135Y-46726600D01*
X64967127Y-46726600D01*
X64940940Y-46724021D01*
X64914753Y-46726600D01*
X63786274Y-46726600D01*
X63786274Y-46480000D01*
X63780389Y-46420249D01*
X63762960Y-46362794D01*
X63734658Y-46309843D01*
X63696568Y-46263432D01*
X63650157Y-46225342D01*
X63597206Y-46197040D01*
X63539751Y-46179611D01*
X63480000Y-46173726D01*
X61920000Y-46173726D01*
X61860249Y-46179611D01*
X61802794Y-46197040D01*
X61749843Y-46225342D01*
X61703432Y-46263432D01*
X61665342Y-46309843D01*
X61637040Y-46362794D01*
X61619611Y-46420249D01*
X61613726Y-46480000D01*
X14824759Y-46480000D01*
X14860300Y-46301325D01*
X14860300Y-46078675D01*
X14816863Y-45860304D01*
X14731659Y-45654602D01*
X14607961Y-45469476D01*
X14450524Y-45312039D01*
X14265398Y-45188341D01*
X14059696Y-45103137D01*
X13841325Y-45059700D01*
X13618675Y-45059700D01*
X13400304Y-45103137D01*
X13194602Y-45188341D01*
X13009476Y-45312039D01*
X12852039Y-45469476D01*
X12728341Y-45654602D01*
X12643137Y-45860304D01*
X12599700Y-46078675D01*
X351600Y-46078675D01*
X351600Y-43538675D01*
X12599700Y-43538675D01*
X12599700Y-43761325D01*
X12643137Y-43979696D01*
X12728341Y-44185398D01*
X12852039Y-44370524D01*
X13009476Y-44527961D01*
X13194602Y-44651659D01*
X13400304Y-44736863D01*
X13618675Y-44780300D01*
X13841325Y-44780300D01*
X14059696Y-44736863D01*
X14265398Y-44651659D01*
X14325968Y-44611187D01*
X36195200Y-44611187D01*
X36195200Y-44828813D01*
X36237657Y-45042258D01*
X36320939Y-45243319D01*
X36441846Y-45424269D01*
X36595731Y-45578154D01*
X36776681Y-45699061D01*
X36977742Y-45782343D01*
X37191187Y-45824800D01*
X37408813Y-45824800D01*
X37622258Y-45782343D01*
X37823319Y-45699061D01*
X38004269Y-45578154D01*
X38158154Y-45424269D01*
X38279061Y-45243319D01*
X38362343Y-45042258D01*
X38404800Y-44828813D01*
X38404800Y-44611187D01*
X61595200Y-44611187D01*
X61595200Y-44828813D01*
X61637657Y-45042258D01*
X61720939Y-45243319D01*
X61841846Y-45424269D01*
X61995731Y-45578154D01*
X62176681Y-45699061D01*
X62377742Y-45782343D01*
X62591187Y-45824800D01*
X62808813Y-45824800D01*
X63022258Y-45782343D01*
X63223319Y-45699061D01*
X63404269Y-45578154D01*
X63558154Y-45424269D01*
X63679061Y-45243319D01*
X63762343Y-45042258D01*
X63804800Y-44828813D01*
X63804800Y-44611187D01*
X63762343Y-44397742D01*
X63679061Y-44196681D01*
X63558154Y-44015731D01*
X63404269Y-43861846D01*
X63223319Y-43740939D01*
X63022258Y-43657657D01*
X62808813Y-43615200D01*
X62591187Y-43615200D01*
X62377742Y-43657657D01*
X62176681Y-43740939D01*
X61995731Y-43861846D01*
X61841846Y-44015731D01*
X61720939Y-44196681D01*
X61637657Y-44397742D01*
X61595200Y-44611187D01*
X38404800Y-44611187D01*
X38362343Y-44397742D01*
X38279061Y-44196681D01*
X38158154Y-44015731D01*
X38004269Y-43861846D01*
X37823319Y-43740939D01*
X37622258Y-43657657D01*
X37408813Y-43615200D01*
X37191187Y-43615200D01*
X36977742Y-43657657D01*
X36776681Y-43740939D01*
X36595731Y-43861846D01*
X36441846Y-44015731D01*
X36320939Y-44196681D01*
X36237657Y-44397742D01*
X36195200Y-44611187D01*
X14325968Y-44611187D01*
X14450524Y-44527961D01*
X14607961Y-44370524D01*
X14731659Y-44185398D01*
X14816863Y-43979696D01*
X14860300Y-43761325D01*
X14860300Y-43538675D01*
X14816863Y-43320304D01*
X14731659Y-43114602D01*
X14607961Y-42929476D01*
X14450524Y-42772039D01*
X14265398Y-42648341D01*
X14059696Y-42563137D01*
X13841325Y-42519700D01*
X13618675Y-42519700D01*
X13400304Y-42563137D01*
X13194602Y-42648341D01*
X13009476Y-42772039D01*
X12852039Y-42929476D01*
X12728341Y-43114602D01*
X12643137Y-43320304D01*
X12599700Y-43538675D01*
X351600Y-43538675D01*
X351600Y-40998675D01*
X12599700Y-40998675D01*
X12599700Y-41221325D01*
X12643137Y-41439696D01*
X12728341Y-41645398D01*
X12852039Y-41830524D01*
X13009476Y-41987961D01*
X13194602Y-42111659D01*
X13400304Y-42196863D01*
X13618675Y-42240300D01*
X13841325Y-42240300D01*
X14059696Y-42196863D01*
X14265398Y-42111659D01*
X14325968Y-42071187D01*
X36195200Y-42071187D01*
X36195200Y-42288813D01*
X36237657Y-42502258D01*
X36320939Y-42703319D01*
X36441846Y-42884269D01*
X36595731Y-43038154D01*
X36776681Y-43159061D01*
X36977742Y-43242343D01*
X37191187Y-43284800D01*
X37408813Y-43284800D01*
X37622258Y-43242343D01*
X37823319Y-43159061D01*
X38004269Y-43038154D01*
X38158154Y-42884269D01*
X38279061Y-42703319D01*
X38362343Y-42502258D01*
X38404800Y-42288813D01*
X38404800Y-42071187D01*
X61595200Y-42071187D01*
X61595200Y-42288813D01*
X61637657Y-42502258D01*
X61720939Y-42703319D01*
X61841846Y-42884269D01*
X61995731Y-43038154D01*
X62176681Y-43159061D01*
X62377742Y-43242343D01*
X62591187Y-43284800D01*
X62808813Y-43284800D01*
X63022258Y-43242343D01*
X63223319Y-43159061D01*
X63404269Y-43038154D01*
X63558154Y-42884269D01*
X63679061Y-42703319D01*
X63762343Y-42502258D01*
X63804800Y-42288813D01*
X63804800Y-42071187D01*
X63762343Y-41857742D01*
X63679061Y-41656681D01*
X63558154Y-41475731D01*
X63404269Y-41321846D01*
X63223319Y-41200939D01*
X63022258Y-41117657D01*
X62808813Y-41075200D01*
X62591187Y-41075200D01*
X62377742Y-41117657D01*
X62176681Y-41200939D01*
X61995731Y-41321846D01*
X61841846Y-41475731D01*
X61720939Y-41656681D01*
X61637657Y-41857742D01*
X61595200Y-42071187D01*
X38404800Y-42071187D01*
X38362343Y-41857742D01*
X38279061Y-41656681D01*
X38158154Y-41475731D01*
X38004269Y-41321846D01*
X37823319Y-41200939D01*
X37622258Y-41117657D01*
X37408813Y-41075200D01*
X37191187Y-41075200D01*
X36977742Y-41117657D01*
X36776681Y-41200939D01*
X36595731Y-41321846D01*
X36441846Y-41475731D01*
X36320939Y-41656681D01*
X36237657Y-41857742D01*
X36195200Y-42071187D01*
X14325968Y-42071187D01*
X14450524Y-41987961D01*
X14607961Y-41830524D01*
X14731659Y-41645398D01*
X14816863Y-41439696D01*
X14860300Y-41221325D01*
X14860300Y-40998675D01*
X14816863Y-40780304D01*
X14731659Y-40574602D01*
X14607961Y-40389476D01*
X14450524Y-40232039D01*
X14265398Y-40108341D01*
X14059696Y-40023137D01*
X13841325Y-39979700D01*
X13618675Y-39979700D01*
X13400304Y-40023137D01*
X13194602Y-40108341D01*
X13009476Y-40232039D01*
X12852039Y-40389476D01*
X12728341Y-40574602D01*
X12643137Y-40780304D01*
X12599700Y-40998675D01*
X351600Y-40998675D01*
X351600Y-38458675D01*
X12599700Y-38458675D01*
X12599700Y-38681325D01*
X12643137Y-38899696D01*
X12728341Y-39105398D01*
X12852039Y-39290524D01*
X13009476Y-39447961D01*
X13194602Y-39571659D01*
X13400304Y-39656863D01*
X13618675Y-39700300D01*
X13841325Y-39700300D01*
X14059696Y-39656863D01*
X14265398Y-39571659D01*
X14325968Y-39531187D01*
X36195200Y-39531187D01*
X36195200Y-39748813D01*
X36237657Y-39962258D01*
X36320939Y-40163319D01*
X36441846Y-40344269D01*
X36595731Y-40498154D01*
X36776681Y-40619061D01*
X36977742Y-40702343D01*
X37191187Y-40744800D01*
X37408813Y-40744800D01*
X37622258Y-40702343D01*
X37823319Y-40619061D01*
X38004269Y-40498154D01*
X38158154Y-40344269D01*
X38279061Y-40163319D01*
X38362343Y-39962258D01*
X38404800Y-39748813D01*
X38404800Y-39531187D01*
X61595200Y-39531187D01*
X61595200Y-39748813D01*
X61637657Y-39962258D01*
X61720939Y-40163319D01*
X61841846Y-40344269D01*
X61995731Y-40498154D01*
X62176681Y-40619061D01*
X62377742Y-40702343D01*
X62591187Y-40744800D01*
X62808813Y-40744800D01*
X63022258Y-40702343D01*
X63223319Y-40619061D01*
X63404269Y-40498154D01*
X63558154Y-40344269D01*
X63679061Y-40163319D01*
X63762343Y-39962258D01*
X63804800Y-39748813D01*
X63804800Y-39531187D01*
X63762343Y-39317742D01*
X63679061Y-39116681D01*
X63577498Y-38964681D01*
X75949200Y-38964681D01*
X75949200Y-39064119D01*
X75968599Y-39161645D01*
X76006652Y-39253513D01*
X76061896Y-39336192D01*
X76132208Y-39406504D01*
X76214887Y-39461748D01*
X76306755Y-39499801D01*
X76334205Y-39505261D01*
X76733400Y-39904457D01*
X76733401Y-43717580D01*
X76731311Y-43738800D01*
X76739648Y-43823447D01*
X76751297Y-43861846D01*
X76764340Y-43904842D01*
X76804435Y-43979856D01*
X76858395Y-44045606D01*
X76874874Y-44059130D01*
X80502470Y-47686727D01*
X80515994Y-47703206D01*
X80568639Y-47746411D01*
X80581744Y-47757166D01*
X80656758Y-47797261D01*
X80738152Y-47821952D01*
X80822800Y-47830289D01*
X80844010Y-47828200D01*
X83045153Y-47828200D01*
X83009476Y-47852039D01*
X82852039Y-48009476D01*
X82728341Y-48194602D01*
X82643137Y-48400304D01*
X82599700Y-48618675D01*
X82599700Y-48841325D01*
X82643137Y-49059696D01*
X82728341Y-49265398D01*
X82852039Y-49450524D01*
X83009476Y-49607961D01*
X83194602Y-49731659D01*
X83400304Y-49816863D01*
X83618675Y-49860300D01*
X83841325Y-49860300D01*
X84059696Y-49816863D01*
X84265398Y-49731659D01*
X84450524Y-49607961D01*
X84607961Y-49450524D01*
X84731659Y-49265398D01*
X84816863Y-49059696D01*
X84860300Y-48841325D01*
X84860300Y-48618675D01*
X84816863Y-48400304D01*
X84731659Y-48194602D01*
X84607961Y-48009476D01*
X84450524Y-47852039D01*
X84414847Y-47828200D01*
X84757544Y-47828200D01*
X85226049Y-48296706D01*
X85183137Y-48400304D01*
X85139700Y-48618675D01*
X85139700Y-48841325D01*
X85183137Y-49059696D01*
X85268341Y-49265398D01*
X85392039Y-49450524D01*
X85549476Y-49607961D01*
X85734602Y-49731659D01*
X85940304Y-49816863D01*
X86158675Y-49860300D01*
X86381325Y-49860300D01*
X86599696Y-49816863D01*
X86805398Y-49731659D01*
X86990524Y-49607961D01*
X87147961Y-49450524D01*
X87271659Y-49265398D01*
X87356863Y-49059696D01*
X87400300Y-48841325D01*
X87400300Y-48618675D01*
X87356863Y-48400304D01*
X87271659Y-48194602D01*
X87147961Y-48009476D01*
X86990524Y-47852039D01*
X86805398Y-47728341D01*
X86599696Y-47643137D01*
X86381325Y-47599700D01*
X86158675Y-47599700D01*
X85940304Y-47643137D01*
X85836706Y-47686049D01*
X85256735Y-47106079D01*
X85243206Y-47089594D01*
X85177456Y-47035634D01*
X85102442Y-46995539D01*
X85021048Y-46970848D01*
X84957610Y-46964600D01*
X84936400Y-46962511D01*
X84915190Y-46964600D01*
X84553885Y-46964600D01*
X84607961Y-46910524D01*
X84731659Y-46725398D01*
X84816863Y-46519696D01*
X84860300Y-46301325D01*
X84860300Y-46078675D01*
X84816863Y-45860304D01*
X84731659Y-45654602D01*
X84607961Y-45469476D01*
X84450524Y-45312039D01*
X84265398Y-45188341D01*
X84059696Y-45103137D01*
X83841325Y-45059700D01*
X83618675Y-45059700D01*
X83400304Y-45103137D01*
X83194602Y-45188341D01*
X83009476Y-45312039D01*
X82852039Y-45469476D01*
X82728341Y-45654602D01*
X82643137Y-45860304D01*
X82599700Y-46078675D01*
X82599700Y-46301325D01*
X82643137Y-46519696D01*
X82728341Y-46725398D01*
X82852039Y-46910524D01*
X82906115Y-46964600D01*
X81001657Y-46964600D01*
X77597000Y-43559944D01*
X77597000Y-39746810D01*
X77599089Y-39725600D01*
X77590752Y-39640952D01*
X77566061Y-39559558D01*
X77525966Y-39484544D01*
X77472006Y-39418794D01*
X77455528Y-39405271D01*
X76944861Y-38894605D01*
X76939401Y-38867155D01*
X76901348Y-38775287D01*
X76846104Y-38692608D01*
X76775792Y-38622296D01*
X76693113Y-38567052D01*
X76601245Y-38528999D01*
X76503719Y-38509600D01*
X76404281Y-38509600D01*
X76306755Y-38528999D01*
X76214887Y-38567052D01*
X76132208Y-38622296D01*
X76061896Y-38692608D01*
X76006652Y-38775287D01*
X75968599Y-38867155D01*
X75949200Y-38964681D01*
X63577498Y-38964681D01*
X63558154Y-38935731D01*
X63404269Y-38781846D01*
X63223319Y-38660939D01*
X63022258Y-38577657D01*
X62808813Y-38535200D01*
X62591187Y-38535200D01*
X62377742Y-38577657D01*
X62176681Y-38660939D01*
X61995731Y-38781846D01*
X61841846Y-38935731D01*
X61720939Y-39116681D01*
X61637657Y-39317742D01*
X61595200Y-39531187D01*
X38404800Y-39531187D01*
X38362343Y-39317742D01*
X38279061Y-39116681D01*
X38158154Y-38935731D01*
X38004269Y-38781846D01*
X37823319Y-38660939D01*
X37622258Y-38577657D01*
X37408813Y-38535200D01*
X37191187Y-38535200D01*
X36977742Y-38577657D01*
X36776681Y-38660939D01*
X36595731Y-38781846D01*
X36441846Y-38935731D01*
X36320939Y-39116681D01*
X36237657Y-39317742D01*
X36195200Y-39531187D01*
X14325968Y-39531187D01*
X14450524Y-39447961D01*
X14607961Y-39290524D01*
X14731659Y-39105398D01*
X14816863Y-38899696D01*
X14860300Y-38681325D01*
X14860300Y-38458675D01*
X14816863Y-38240304D01*
X14731659Y-38034602D01*
X14607961Y-37849476D01*
X14450524Y-37692039D01*
X14265398Y-37568341D01*
X14059696Y-37483137D01*
X13841325Y-37439700D01*
X13618675Y-37439700D01*
X13400304Y-37483137D01*
X13194602Y-37568341D01*
X13009476Y-37692039D01*
X12852039Y-37849476D01*
X12728341Y-38034602D01*
X12643137Y-38240304D01*
X12599700Y-38458675D01*
X351600Y-38458675D01*
X351600Y-35918675D01*
X12599700Y-35918675D01*
X12599700Y-36141325D01*
X12643137Y-36359696D01*
X12728341Y-36565398D01*
X12852039Y-36750524D01*
X13009476Y-36907961D01*
X13194602Y-37031659D01*
X13400304Y-37116863D01*
X13618675Y-37160300D01*
X13841325Y-37160300D01*
X14059696Y-37116863D01*
X14265398Y-37031659D01*
X14325968Y-36991187D01*
X36195200Y-36991187D01*
X36195200Y-37208813D01*
X36237657Y-37422258D01*
X36320939Y-37623319D01*
X36441846Y-37804269D01*
X36595731Y-37958154D01*
X36776681Y-38079061D01*
X36977742Y-38162343D01*
X37191187Y-38204800D01*
X37408813Y-38204800D01*
X37622258Y-38162343D01*
X37823319Y-38079061D01*
X38004269Y-37958154D01*
X38158154Y-37804269D01*
X38279061Y-37623319D01*
X38362343Y-37422258D01*
X38404800Y-37208813D01*
X38404800Y-36991187D01*
X61595200Y-36991187D01*
X61595200Y-37208813D01*
X61637657Y-37422258D01*
X61720939Y-37623319D01*
X61841846Y-37804269D01*
X61995731Y-37958154D01*
X62176681Y-38079061D01*
X62377742Y-38162343D01*
X62591187Y-38204800D01*
X62808813Y-38204800D01*
X63022258Y-38162343D01*
X63223319Y-38079061D01*
X63404269Y-37958154D01*
X63558154Y-37804269D01*
X63679061Y-37623319D01*
X63762343Y-37422258D01*
X63804800Y-37208813D01*
X63804800Y-36991187D01*
X63788616Y-36909821D01*
X76370842Y-36909821D01*
X76370842Y-37009259D01*
X76390241Y-37106785D01*
X76428294Y-37198653D01*
X76483538Y-37281332D01*
X76553850Y-37351644D01*
X76636529Y-37406888D01*
X76728397Y-37444941D01*
X76755847Y-37450401D01*
X81962974Y-42657530D01*
X81976496Y-42674006D01*
X82042246Y-42727966D01*
X82117260Y-42768061D01*
X82198654Y-42792752D01*
X82283301Y-42801089D01*
X82304511Y-42799000D01*
X82982515Y-42799000D01*
X82852039Y-42929476D01*
X82728341Y-43114602D01*
X82643137Y-43320304D01*
X82599700Y-43538675D01*
X82599700Y-43761325D01*
X82643137Y-43979696D01*
X82728341Y-44185398D01*
X82852039Y-44370524D01*
X83009476Y-44527961D01*
X83194602Y-44651659D01*
X83400304Y-44736863D01*
X83618675Y-44780300D01*
X83841325Y-44780300D01*
X84059696Y-44736863D01*
X84265398Y-44651659D01*
X84450524Y-44527961D01*
X84607961Y-44370524D01*
X84731659Y-44185398D01*
X84816863Y-43979696D01*
X84860300Y-43761325D01*
X84860300Y-43538675D01*
X84816863Y-43320304D01*
X84731659Y-43114602D01*
X84607961Y-42929476D01*
X84477485Y-42799000D01*
X84808344Y-42799000D01*
X85226049Y-43216705D01*
X85183137Y-43320304D01*
X85139700Y-43538675D01*
X85139700Y-43761325D01*
X85183137Y-43979696D01*
X85268341Y-44185398D01*
X85392039Y-44370524D01*
X85549476Y-44527961D01*
X85734602Y-44651659D01*
X85940304Y-44736863D01*
X86158675Y-44780300D01*
X86381325Y-44780300D01*
X86599696Y-44736863D01*
X86805398Y-44651659D01*
X86990524Y-44527961D01*
X87147961Y-44370524D01*
X87271659Y-44185398D01*
X87356863Y-43979696D01*
X87400300Y-43761325D01*
X87400300Y-43538675D01*
X87356863Y-43320304D01*
X87271659Y-43114602D01*
X87147961Y-42929476D01*
X86990524Y-42772039D01*
X86805398Y-42648341D01*
X86599696Y-42563137D01*
X86381325Y-42519700D01*
X86158675Y-42519700D01*
X85940304Y-42563137D01*
X85836705Y-42606049D01*
X85307535Y-42076879D01*
X85294006Y-42060394D01*
X85228256Y-42006434D01*
X85153242Y-41966339D01*
X85071848Y-41941648D01*
X85008410Y-41935400D01*
X84987200Y-41933311D01*
X84965990Y-41935400D01*
X84503085Y-41935400D01*
X84607961Y-41830524D01*
X84731659Y-41645398D01*
X84816863Y-41439696D01*
X84860300Y-41221325D01*
X84860300Y-40998675D01*
X84816863Y-40780304D01*
X84731659Y-40574602D01*
X84607961Y-40389476D01*
X84450524Y-40232039D01*
X84265398Y-40108341D01*
X84059696Y-40023137D01*
X83841325Y-39979700D01*
X83618675Y-39979700D01*
X83400304Y-40023137D01*
X83194602Y-40108341D01*
X83009476Y-40232039D01*
X82852039Y-40389476D01*
X82728341Y-40574602D01*
X82643137Y-40780304D01*
X82599700Y-40998675D01*
X82599700Y-41221325D01*
X82643137Y-41439696D01*
X82728341Y-41645398D01*
X82852039Y-41830524D01*
X82956915Y-41935400D01*
X82462160Y-41935400D01*
X77366503Y-36839745D01*
X77361043Y-36812295D01*
X77322990Y-36720427D01*
X77267746Y-36637748D01*
X77197434Y-36567436D01*
X77114755Y-36512192D01*
X77022887Y-36474139D01*
X76925361Y-36454740D01*
X76825923Y-36454740D01*
X76728397Y-36474139D01*
X76636529Y-36512192D01*
X76553850Y-36567436D01*
X76483538Y-36637748D01*
X76428294Y-36720427D01*
X76390241Y-36812295D01*
X76370842Y-36909821D01*
X63788616Y-36909821D01*
X63762343Y-36777742D01*
X63679061Y-36576681D01*
X63558154Y-36395731D01*
X63404269Y-36241846D01*
X63223319Y-36120939D01*
X63022258Y-36037657D01*
X62808813Y-35995200D01*
X62591187Y-35995200D01*
X62377742Y-36037657D01*
X62176681Y-36120939D01*
X61995731Y-36241846D01*
X61841846Y-36395731D01*
X61720939Y-36576681D01*
X61637657Y-36777742D01*
X61595200Y-36991187D01*
X38404800Y-36991187D01*
X38362343Y-36777742D01*
X38279061Y-36576681D01*
X38158154Y-36395731D01*
X38004269Y-36241846D01*
X37823319Y-36120939D01*
X37622258Y-36037657D01*
X37408813Y-35995200D01*
X37191187Y-35995200D01*
X36977742Y-36037657D01*
X36776681Y-36120939D01*
X36595731Y-36241846D01*
X36441846Y-36395731D01*
X36320939Y-36576681D01*
X36237657Y-36777742D01*
X36195200Y-36991187D01*
X14325968Y-36991187D01*
X14450524Y-36907961D01*
X14607961Y-36750524D01*
X14731659Y-36565398D01*
X14816863Y-36359696D01*
X14860300Y-36141325D01*
X14860300Y-35918675D01*
X14816863Y-35700304D01*
X14731659Y-35494602D01*
X14607961Y-35309476D01*
X14450524Y-35152039D01*
X14265398Y-35028341D01*
X14059696Y-34943137D01*
X13841325Y-34899700D01*
X13618675Y-34899700D01*
X13400304Y-34943137D01*
X13194602Y-35028341D01*
X13009476Y-35152039D01*
X12852039Y-35309476D01*
X12728341Y-35494602D01*
X12643137Y-35700304D01*
X12599700Y-35918675D01*
X351600Y-35918675D01*
X351600Y-33378675D01*
X12599700Y-33378675D01*
X12599700Y-33601325D01*
X12643137Y-33819696D01*
X12728341Y-34025398D01*
X12852039Y-34210524D01*
X13009476Y-34367961D01*
X13194602Y-34491659D01*
X13400304Y-34576863D01*
X13618675Y-34620300D01*
X13841325Y-34620300D01*
X14059696Y-34576863D01*
X14265398Y-34491659D01*
X14325968Y-34451187D01*
X36195200Y-34451187D01*
X36195200Y-34668813D01*
X36237657Y-34882258D01*
X36320939Y-35083319D01*
X36441846Y-35264269D01*
X36595731Y-35418154D01*
X36776681Y-35539061D01*
X36977742Y-35622343D01*
X37191187Y-35664800D01*
X37408813Y-35664800D01*
X37622258Y-35622343D01*
X37823319Y-35539061D01*
X38004269Y-35418154D01*
X38158154Y-35264269D01*
X38279061Y-35083319D01*
X38362343Y-34882258D01*
X38404800Y-34668813D01*
X38404800Y-34451187D01*
X61595200Y-34451187D01*
X61595200Y-34668813D01*
X61637657Y-34882258D01*
X61720939Y-35083319D01*
X61841846Y-35264269D01*
X61995731Y-35418154D01*
X62176681Y-35539061D01*
X62377742Y-35622343D01*
X62591187Y-35664800D01*
X62808813Y-35664800D01*
X63022258Y-35622343D01*
X63223319Y-35539061D01*
X63404269Y-35418154D01*
X63558154Y-35264269D01*
X63679061Y-35083319D01*
X63762343Y-34882258D01*
X63804800Y-34668813D01*
X63804800Y-34514601D01*
X76281940Y-34514601D01*
X76281940Y-34614039D01*
X76301339Y-34711565D01*
X76339392Y-34803433D01*
X76394636Y-34886112D01*
X76464948Y-34956424D01*
X76547627Y-35011668D01*
X76639495Y-35049721D01*
X76737021Y-35069120D01*
X76836459Y-35069120D01*
X76933985Y-35049721D01*
X77025853Y-35011668D01*
X77049122Y-34996120D01*
X77159064Y-34996120D01*
X79740470Y-37577527D01*
X79753994Y-37594006D01*
X79789712Y-37623319D01*
X79819744Y-37647966D01*
X79894758Y-37688061D01*
X79976152Y-37712752D01*
X80060800Y-37721089D01*
X80082010Y-37719000D01*
X82982515Y-37719000D01*
X82852039Y-37849476D01*
X82728341Y-38034602D01*
X82643137Y-38240304D01*
X82599700Y-38458675D01*
X82599700Y-38681325D01*
X82643137Y-38899696D01*
X82728341Y-39105398D01*
X82852039Y-39290524D01*
X83009476Y-39447961D01*
X83194602Y-39571659D01*
X83400304Y-39656863D01*
X83618675Y-39700300D01*
X83841325Y-39700300D01*
X84059696Y-39656863D01*
X84265398Y-39571659D01*
X84450524Y-39447961D01*
X84607961Y-39290524D01*
X84731659Y-39105398D01*
X84816863Y-38899696D01*
X84860300Y-38681325D01*
X84860300Y-38458675D01*
X84816863Y-38240304D01*
X84731659Y-38034602D01*
X84607961Y-37849476D01*
X84477485Y-37719000D01*
X84808344Y-37719000D01*
X85226049Y-38136705D01*
X85183137Y-38240304D01*
X85139700Y-38458675D01*
X85139700Y-38681325D01*
X85183137Y-38899696D01*
X85268341Y-39105398D01*
X85392039Y-39290524D01*
X85549476Y-39447961D01*
X85734602Y-39571659D01*
X85940304Y-39656863D01*
X86158675Y-39700300D01*
X86381325Y-39700300D01*
X86599696Y-39656863D01*
X86805398Y-39571659D01*
X86990524Y-39447961D01*
X87147961Y-39290524D01*
X87271659Y-39105398D01*
X87356863Y-38899696D01*
X87400300Y-38681325D01*
X87400300Y-38458675D01*
X87356863Y-38240304D01*
X87271659Y-38034602D01*
X87147961Y-37849476D01*
X86990524Y-37692039D01*
X86805398Y-37568341D01*
X86599696Y-37483137D01*
X86381325Y-37439700D01*
X86158675Y-37439700D01*
X85940304Y-37483137D01*
X85836705Y-37526049D01*
X85307535Y-36996879D01*
X85294006Y-36980394D01*
X85228256Y-36926434D01*
X85153242Y-36886339D01*
X85071848Y-36861648D01*
X85008410Y-36855400D01*
X84987200Y-36853311D01*
X84965990Y-36855400D01*
X84503085Y-36855400D01*
X84607961Y-36750524D01*
X84731659Y-36565398D01*
X84816863Y-36359696D01*
X84860300Y-36141325D01*
X84860300Y-35918675D01*
X84816863Y-35700304D01*
X84731659Y-35494602D01*
X84607961Y-35309476D01*
X84450524Y-35152039D01*
X84265398Y-35028341D01*
X84059696Y-34943137D01*
X83841325Y-34899700D01*
X83618675Y-34899700D01*
X83400304Y-34943137D01*
X83194602Y-35028341D01*
X83009476Y-35152039D01*
X82852039Y-35309476D01*
X82728341Y-35494602D01*
X82643137Y-35700304D01*
X82599700Y-35918675D01*
X82599700Y-36141325D01*
X82643137Y-36359696D01*
X82728341Y-36565398D01*
X82852039Y-36750524D01*
X82956915Y-36855400D01*
X80239657Y-36855400D01*
X77658255Y-34273999D01*
X77644726Y-34257514D01*
X77578976Y-34203554D01*
X77503962Y-34163459D01*
X77422568Y-34138768D01*
X77359130Y-34132520D01*
X77337920Y-34130431D01*
X77316710Y-34132520D01*
X77049122Y-34132520D01*
X77025853Y-34116972D01*
X76933985Y-34078919D01*
X76836459Y-34059520D01*
X76737021Y-34059520D01*
X76639495Y-34078919D01*
X76547627Y-34116972D01*
X76464948Y-34172216D01*
X76394636Y-34242528D01*
X76339392Y-34325207D01*
X76301339Y-34417075D01*
X76281940Y-34514601D01*
X63804800Y-34514601D01*
X63804800Y-34451187D01*
X63762343Y-34237742D01*
X63679061Y-34036681D01*
X63558154Y-33855731D01*
X63404269Y-33701846D01*
X63223319Y-33580939D01*
X63022258Y-33497657D01*
X62808813Y-33455200D01*
X62591187Y-33455200D01*
X62377742Y-33497657D01*
X62176681Y-33580939D01*
X61995731Y-33701846D01*
X61841846Y-33855731D01*
X61720939Y-34036681D01*
X61637657Y-34237742D01*
X61595200Y-34451187D01*
X38404800Y-34451187D01*
X38362343Y-34237742D01*
X38279061Y-34036681D01*
X38158154Y-33855731D01*
X38004269Y-33701846D01*
X37823319Y-33580939D01*
X37622258Y-33497657D01*
X37408813Y-33455200D01*
X37191187Y-33455200D01*
X36977742Y-33497657D01*
X36776681Y-33580939D01*
X36595731Y-33701846D01*
X36441846Y-33855731D01*
X36320939Y-34036681D01*
X36237657Y-34237742D01*
X36195200Y-34451187D01*
X14325968Y-34451187D01*
X14450524Y-34367961D01*
X14607961Y-34210524D01*
X14731659Y-34025398D01*
X14816863Y-33819696D01*
X14860300Y-33601325D01*
X14860300Y-33378675D01*
X14816863Y-33160304D01*
X14731659Y-32954602D01*
X14607961Y-32769476D01*
X14450524Y-32612039D01*
X14265398Y-32488341D01*
X14059696Y-32403137D01*
X13841325Y-32359700D01*
X13618675Y-32359700D01*
X13400304Y-32403137D01*
X13194602Y-32488341D01*
X13009476Y-32612039D01*
X12852039Y-32769476D01*
X12728341Y-32954602D01*
X12643137Y-33160304D01*
X12599700Y-33378675D01*
X351600Y-33378675D01*
X351600Y-30838675D01*
X12599700Y-30838675D01*
X12599700Y-31061325D01*
X12643137Y-31279696D01*
X12728341Y-31485398D01*
X12852039Y-31670524D01*
X13009476Y-31827961D01*
X13194602Y-31951659D01*
X13400304Y-32036863D01*
X13618675Y-32080300D01*
X13841325Y-32080300D01*
X14059696Y-32036863D01*
X14265398Y-31951659D01*
X14325968Y-31911187D01*
X61595200Y-31911187D01*
X61595200Y-32128813D01*
X61637657Y-32342258D01*
X61720939Y-32543319D01*
X61841846Y-32724269D01*
X61995731Y-32878154D01*
X62176681Y-32999061D01*
X62377742Y-33082343D01*
X62591187Y-33124800D01*
X62808813Y-33124800D01*
X63022258Y-33082343D01*
X63223319Y-32999061D01*
X63404269Y-32878154D01*
X63558154Y-32724269D01*
X63679061Y-32543319D01*
X63762343Y-32342258D01*
X63804800Y-32128813D01*
X63804800Y-31911187D01*
X63762343Y-31697742D01*
X63679061Y-31496681D01*
X63558154Y-31315731D01*
X63404269Y-31161846D01*
X63223319Y-31040939D01*
X63022258Y-30957657D01*
X62808813Y-30915200D01*
X62591187Y-30915200D01*
X62377742Y-30957657D01*
X62176681Y-31040939D01*
X61995731Y-31161846D01*
X61841846Y-31315731D01*
X61720939Y-31496681D01*
X61637657Y-31697742D01*
X61595200Y-31911187D01*
X14325968Y-31911187D01*
X14450524Y-31827961D01*
X14607961Y-31670524D01*
X14731659Y-31485398D01*
X14816863Y-31279696D01*
X14860300Y-31061325D01*
X14860300Y-30838675D01*
X14816863Y-30620304D01*
X14731659Y-30414602D01*
X14607961Y-30229476D01*
X14450524Y-30072039D01*
X14265398Y-29948341D01*
X14059696Y-29863137D01*
X13841325Y-29819700D01*
X13618675Y-29819700D01*
X13400304Y-29863137D01*
X13194602Y-29948341D01*
X13009476Y-30072039D01*
X12852039Y-30229476D01*
X12728341Y-30414602D01*
X12643137Y-30620304D01*
X12599700Y-30838675D01*
X351600Y-30838675D01*
X351600Y-28298675D01*
X12599700Y-28298675D01*
X12599700Y-28521325D01*
X12643137Y-28739696D01*
X12728341Y-28945398D01*
X12852039Y-29130524D01*
X13009476Y-29287961D01*
X13194602Y-29411659D01*
X13400304Y-29496863D01*
X13618675Y-29540300D01*
X13841325Y-29540300D01*
X14059696Y-29496863D01*
X14265398Y-29411659D01*
X14325968Y-29371187D01*
X36195200Y-29371187D01*
X36195200Y-29588813D01*
X36237657Y-29802258D01*
X36320939Y-30003319D01*
X36441846Y-30184269D01*
X36595731Y-30338154D01*
X36776681Y-30459061D01*
X36977742Y-30542343D01*
X37191187Y-30584800D01*
X37408813Y-30584800D01*
X37622258Y-30542343D01*
X37823319Y-30459061D01*
X38004269Y-30338154D01*
X38158154Y-30184269D01*
X38279061Y-30003319D01*
X38362343Y-29802258D01*
X38404800Y-29588813D01*
X38404800Y-29371187D01*
X61595200Y-29371187D01*
X61595200Y-29588813D01*
X61637657Y-29802258D01*
X61720939Y-30003319D01*
X61841846Y-30184269D01*
X61995731Y-30338154D01*
X62176681Y-30459061D01*
X62377742Y-30542343D01*
X62591187Y-30584800D01*
X62808813Y-30584800D01*
X63022258Y-30542343D01*
X63223319Y-30459061D01*
X63404269Y-30338154D01*
X63548362Y-30194061D01*
X76289560Y-30194061D01*
X76289560Y-30293499D01*
X76308959Y-30391025D01*
X76347012Y-30482893D01*
X76402256Y-30565572D01*
X76472568Y-30635884D01*
X76555247Y-30691128D01*
X76647115Y-30729181D01*
X76744641Y-30748580D01*
X76844079Y-30748580D01*
X76941605Y-30729181D01*
X77033473Y-30691128D01*
X77116152Y-30635884D01*
X77186464Y-30565572D01*
X77241708Y-30482893D01*
X77279761Y-30391025D01*
X77285221Y-30363576D01*
X77549798Y-30099000D01*
X82982515Y-30099000D01*
X82852039Y-30229476D01*
X82728341Y-30414602D01*
X82643137Y-30620304D01*
X82599700Y-30838675D01*
X82599700Y-31061325D01*
X82643137Y-31279696D01*
X82728341Y-31485398D01*
X82852039Y-31670524D01*
X82956915Y-31775400D01*
X77238378Y-31775400D01*
X77226513Y-31767472D01*
X77134645Y-31729419D01*
X77037119Y-31710020D01*
X76937681Y-31710020D01*
X76840155Y-31729419D01*
X76748287Y-31767472D01*
X76665608Y-31822716D01*
X76595296Y-31893028D01*
X76540052Y-31975707D01*
X76501999Y-32067575D01*
X76482600Y-32165101D01*
X76482600Y-32264539D01*
X76501999Y-32362065D01*
X76540052Y-32453933D01*
X76595296Y-32536612D01*
X76665608Y-32606924D01*
X76748287Y-32662168D01*
X76840155Y-32700221D01*
X76937681Y-32719620D01*
X77037119Y-32719620D01*
X77134645Y-32700221D01*
X77226513Y-32662168D01*
X77261187Y-32639000D01*
X82982515Y-32639000D01*
X82852039Y-32769476D01*
X82728341Y-32954602D01*
X82643137Y-33160304D01*
X82599700Y-33378675D01*
X82599700Y-33601325D01*
X82643137Y-33819696D01*
X82728341Y-34025398D01*
X82852039Y-34210524D01*
X83009476Y-34367961D01*
X83194602Y-34491659D01*
X83400304Y-34576863D01*
X83618675Y-34620300D01*
X83841325Y-34620300D01*
X84059696Y-34576863D01*
X84265398Y-34491659D01*
X84450524Y-34367961D01*
X84607961Y-34210524D01*
X84731659Y-34025398D01*
X84816863Y-33819696D01*
X84860300Y-33601325D01*
X84860300Y-33378675D01*
X84816863Y-33160304D01*
X84731659Y-32954602D01*
X84607961Y-32769476D01*
X84477485Y-32639000D01*
X84808344Y-32639000D01*
X85226049Y-33056705D01*
X85183137Y-33160304D01*
X85139700Y-33378675D01*
X85139700Y-33601325D01*
X85183137Y-33819696D01*
X85268341Y-34025398D01*
X85392039Y-34210524D01*
X85549476Y-34367961D01*
X85734602Y-34491659D01*
X85940304Y-34576863D01*
X86158675Y-34620300D01*
X86381325Y-34620300D01*
X86599696Y-34576863D01*
X86805398Y-34491659D01*
X86990524Y-34367961D01*
X87147961Y-34210524D01*
X87271659Y-34025398D01*
X87356863Y-33819696D01*
X87400300Y-33601325D01*
X87400300Y-33378675D01*
X87356863Y-33160304D01*
X87271659Y-32954602D01*
X87147961Y-32769476D01*
X86990524Y-32612039D01*
X86805398Y-32488341D01*
X86599696Y-32403137D01*
X86381325Y-32359700D01*
X86158675Y-32359700D01*
X85940304Y-32403137D01*
X85836705Y-32446049D01*
X85307535Y-31916879D01*
X85294006Y-31900394D01*
X85228256Y-31846434D01*
X85153242Y-31806339D01*
X85071848Y-31781648D01*
X85008410Y-31775400D01*
X84987200Y-31773311D01*
X84965990Y-31775400D01*
X84503085Y-31775400D01*
X84607961Y-31670524D01*
X84731659Y-31485398D01*
X84816863Y-31279696D01*
X84860300Y-31061325D01*
X84860300Y-30838675D01*
X84816863Y-30620304D01*
X84731659Y-30414602D01*
X84607961Y-30229476D01*
X84477485Y-30099000D01*
X84991590Y-30099000D01*
X85012800Y-30101089D01*
X85034010Y-30099000D01*
X85097448Y-30092752D01*
X85178842Y-30068061D01*
X85253856Y-30027966D01*
X85319606Y-29974006D01*
X85333135Y-29957521D01*
X85836705Y-29453951D01*
X85940304Y-29496863D01*
X86158675Y-29540300D01*
X86381325Y-29540300D01*
X86599696Y-29496863D01*
X86805398Y-29411659D01*
X86990524Y-29287961D01*
X87147961Y-29130524D01*
X87271659Y-28945398D01*
X87356863Y-28739696D01*
X87400300Y-28521325D01*
X87400300Y-28298675D01*
X87356863Y-28080304D01*
X87271659Y-27874602D01*
X87147961Y-27689476D01*
X86990524Y-27532039D01*
X86805398Y-27408341D01*
X86599696Y-27323137D01*
X86381325Y-27279700D01*
X86158675Y-27279700D01*
X85940304Y-27323137D01*
X85734602Y-27408341D01*
X85549476Y-27532039D01*
X85392039Y-27689476D01*
X85268341Y-27874602D01*
X85183137Y-28080304D01*
X85139700Y-28298675D01*
X85139700Y-28521325D01*
X85183137Y-28739696D01*
X85226049Y-28843295D01*
X84833944Y-29235400D01*
X84503085Y-29235400D01*
X84607961Y-29130524D01*
X84731659Y-28945398D01*
X84816863Y-28739696D01*
X84860300Y-28521325D01*
X84860300Y-28298675D01*
X84816863Y-28080304D01*
X84731659Y-27874602D01*
X84607961Y-27689476D01*
X84450524Y-27532039D01*
X84265398Y-27408341D01*
X84059696Y-27323137D01*
X83841325Y-27279700D01*
X83618675Y-27279700D01*
X83400304Y-27323137D01*
X83194602Y-27408341D01*
X83009476Y-27532039D01*
X82852039Y-27689476D01*
X82728341Y-27874602D01*
X82643137Y-28080304D01*
X82599700Y-28298675D01*
X82599700Y-28521325D01*
X82643137Y-28739696D01*
X82728341Y-28945398D01*
X82852039Y-29130524D01*
X82956915Y-29235400D01*
X77392149Y-29235400D01*
X77370939Y-29233311D01*
X77286292Y-29241648D01*
X77204898Y-29266339D01*
X77129884Y-29306434D01*
X77064134Y-29360394D01*
X77050614Y-29376868D01*
X76674564Y-29752919D01*
X76647115Y-29758379D01*
X76555247Y-29796432D01*
X76472568Y-29851676D01*
X76402256Y-29921988D01*
X76347012Y-30004667D01*
X76308959Y-30096535D01*
X76289560Y-30194061D01*
X63548362Y-30194061D01*
X63558154Y-30184269D01*
X63679061Y-30003319D01*
X63762343Y-29802258D01*
X63804800Y-29588813D01*
X63804800Y-29371187D01*
X63762343Y-29157742D01*
X63679061Y-28956681D01*
X63558154Y-28775731D01*
X63404269Y-28621846D01*
X63223319Y-28500939D01*
X63022258Y-28417657D01*
X62808813Y-28375200D01*
X62591187Y-28375200D01*
X62377742Y-28417657D01*
X62176681Y-28500939D01*
X61995731Y-28621846D01*
X61841846Y-28775731D01*
X61720939Y-28956681D01*
X61637657Y-29157742D01*
X61595200Y-29371187D01*
X38404800Y-29371187D01*
X38362343Y-29157742D01*
X38279061Y-28956681D01*
X38158154Y-28775731D01*
X38004269Y-28621846D01*
X37823319Y-28500939D01*
X37622258Y-28417657D01*
X37408813Y-28375200D01*
X37191187Y-28375200D01*
X36977742Y-28417657D01*
X36776681Y-28500939D01*
X36595731Y-28621846D01*
X36441846Y-28775731D01*
X36320939Y-28956681D01*
X36237657Y-29157742D01*
X36195200Y-29371187D01*
X14325968Y-29371187D01*
X14450524Y-29287961D01*
X14607961Y-29130524D01*
X14731659Y-28945398D01*
X14816863Y-28739696D01*
X14860300Y-28521325D01*
X14860300Y-28298675D01*
X14816863Y-28080304D01*
X14731659Y-27874602D01*
X14607961Y-27689476D01*
X14450524Y-27532039D01*
X14265398Y-27408341D01*
X14059696Y-27323137D01*
X13841325Y-27279700D01*
X13618675Y-27279700D01*
X13400304Y-27323137D01*
X13194602Y-27408341D01*
X13009476Y-27532039D01*
X12852039Y-27689476D01*
X12728341Y-27874602D01*
X12643137Y-28080304D01*
X12599700Y-28298675D01*
X351600Y-28298675D01*
X351600Y-25758675D01*
X12599700Y-25758675D01*
X12599700Y-25981325D01*
X12643137Y-26199696D01*
X12728341Y-26405398D01*
X12852039Y-26590524D01*
X13009476Y-26747961D01*
X13194602Y-26871659D01*
X13400304Y-26956863D01*
X13618675Y-27000300D01*
X13841325Y-27000300D01*
X14059696Y-26956863D01*
X14265398Y-26871659D01*
X14325968Y-26831187D01*
X36195200Y-26831187D01*
X36195200Y-27048813D01*
X36237657Y-27262258D01*
X36320939Y-27463319D01*
X36441846Y-27644269D01*
X36595731Y-27798154D01*
X36776681Y-27919061D01*
X36977742Y-28002343D01*
X37191187Y-28044800D01*
X37408813Y-28044800D01*
X37622258Y-28002343D01*
X37823319Y-27919061D01*
X38004269Y-27798154D01*
X38158154Y-27644269D01*
X38279061Y-27463319D01*
X38362343Y-27262258D01*
X38404800Y-27048813D01*
X38404800Y-26831187D01*
X61595200Y-26831187D01*
X61595200Y-27048813D01*
X61637657Y-27262258D01*
X61720939Y-27463319D01*
X61841846Y-27644269D01*
X61995731Y-27798154D01*
X62176681Y-27919061D01*
X62377742Y-28002343D01*
X62591187Y-28044800D01*
X62808813Y-28044800D01*
X63022258Y-28002343D01*
X63223319Y-27919061D01*
X63404269Y-27798154D01*
X63558154Y-27644269D01*
X63679061Y-27463319D01*
X63762343Y-27262258D01*
X63804800Y-27048813D01*
X63804800Y-26831187D01*
X63762343Y-26617742D01*
X63679061Y-26416681D01*
X63558154Y-26235731D01*
X63404269Y-26081846D01*
X63223319Y-25960939D01*
X63022258Y-25877657D01*
X62808813Y-25835200D01*
X62591187Y-25835200D01*
X62377742Y-25877657D01*
X62176681Y-25960939D01*
X61995731Y-26081846D01*
X61841846Y-26235731D01*
X61720939Y-26416681D01*
X61637657Y-26617742D01*
X61595200Y-26831187D01*
X38404800Y-26831187D01*
X38362343Y-26617742D01*
X38279061Y-26416681D01*
X38158154Y-26235731D01*
X38004269Y-26081846D01*
X37823319Y-25960939D01*
X37622258Y-25877657D01*
X37408813Y-25835200D01*
X37191187Y-25835200D01*
X36977742Y-25877657D01*
X36776681Y-25960939D01*
X36595731Y-26081846D01*
X36441846Y-26235731D01*
X36320939Y-26416681D01*
X36237657Y-26617742D01*
X36195200Y-26831187D01*
X14325968Y-26831187D01*
X14450524Y-26747961D01*
X14607961Y-26590524D01*
X14731659Y-26405398D01*
X14816863Y-26199696D01*
X14860300Y-25981325D01*
X14860300Y-25758675D01*
X82599700Y-25758675D01*
X82599700Y-25981325D01*
X82643137Y-26199696D01*
X82728341Y-26405398D01*
X82852039Y-26590524D01*
X83009476Y-26747961D01*
X83194602Y-26871659D01*
X83400304Y-26956863D01*
X83618675Y-27000300D01*
X83841325Y-27000300D01*
X84059696Y-26956863D01*
X84265398Y-26871659D01*
X84450524Y-26747961D01*
X84607961Y-26590524D01*
X84731659Y-26405398D01*
X84816863Y-26199696D01*
X84860300Y-25981325D01*
X84860300Y-25758675D01*
X84816863Y-25540304D01*
X84731659Y-25334602D01*
X84607961Y-25149476D01*
X84450524Y-24992039D01*
X84265398Y-24868341D01*
X84059696Y-24783137D01*
X83841325Y-24739700D01*
X83618675Y-24739700D01*
X83400304Y-24783137D01*
X83194602Y-24868341D01*
X83009476Y-24992039D01*
X82852039Y-25149476D01*
X82728341Y-25334602D01*
X82643137Y-25540304D01*
X82599700Y-25758675D01*
X14860300Y-25758675D01*
X14816863Y-25540304D01*
X14731659Y-25334602D01*
X14607961Y-25149476D01*
X14450524Y-24992039D01*
X14265398Y-24868341D01*
X14059696Y-24783137D01*
X13841325Y-24739700D01*
X13618675Y-24739700D01*
X13400304Y-24783137D01*
X13194602Y-24868341D01*
X13009476Y-24992039D01*
X12852039Y-25149476D01*
X12728341Y-25334602D01*
X12643137Y-25540304D01*
X12599700Y-25758675D01*
X351600Y-25758675D01*
X351600Y-24291187D01*
X36195200Y-24291187D01*
X36195200Y-24508813D01*
X36237657Y-24722258D01*
X36320939Y-24923319D01*
X36441846Y-25104269D01*
X36595731Y-25258154D01*
X36776681Y-25379061D01*
X36977742Y-25462343D01*
X37191187Y-25504800D01*
X37408813Y-25504800D01*
X37622258Y-25462343D01*
X37823319Y-25379061D01*
X38004269Y-25258154D01*
X38158154Y-25104269D01*
X38279061Y-24923319D01*
X38362343Y-24722258D01*
X38404800Y-24508813D01*
X38404800Y-24291187D01*
X61595200Y-24291187D01*
X61595200Y-24508813D01*
X61637657Y-24722258D01*
X61720939Y-24923319D01*
X61841846Y-25104269D01*
X61995731Y-25258154D01*
X62176681Y-25379061D01*
X62377742Y-25462343D01*
X62591187Y-25504800D01*
X62808813Y-25504800D01*
X63022258Y-25462343D01*
X63223319Y-25379061D01*
X63404269Y-25258154D01*
X63558154Y-25104269D01*
X63679061Y-24923319D01*
X63762343Y-24722258D01*
X63804800Y-24508813D01*
X63804800Y-24291187D01*
X63762343Y-24077742D01*
X63679061Y-23876681D01*
X63558154Y-23695731D01*
X63404269Y-23541846D01*
X63223319Y-23420939D01*
X63022258Y-23337657D01*
X62808813Y-23295200D01*
X62591187Y-23295200D01*
X62377742Y-23337657D01*
X62176681Y-23420939D01*
X61995731Y-23541846D01*
X61841846Y-23695731D01*
X61720939Y-23876681D01*
X61637657Y-24077742D01*
X61595200Y-24291187D01*
X38404800Y-24291187D01*
X38362343Y-24077742D01*
X38279061Y-23876681D01*
X38158154Y-23695731D01*
X38004269Y-23541846D01*
X37823319Y-23420939D01*
X37622258Y-23337657D01*
X37408813Y-23295200D01*
X37191187Y-23295200D01*
X36977742Y-23337657D01*
X36776681Y-23420939D01*
X36595731Y-23541846D01*
X36441846Y-23695731D01*
X36320939Y-23876681D01*
X36237657Y-24077742D01*
X36195200Y-24291187D01*
X351600Y-24291187D01*
X351600Y-21751187D01*
X36195200Y-21751187D01*
X36195200Y-21968813D01*
X36237657Y-22182258D01*
X36320939Y-22383319D01*
X36441846Y-22564269D01*
X36595731Y-22718154D01*
X36776681Y-22839061D01*
X36977742Y-22922343D01*
X37191187Y-22964800D01*
X37408813Y-22964800D01*
X37622258Y-22922343D01*
X37823319Y-22839061D01*
X38004269Y-22718154D01*
X38158154Y-22564269D01*
X38279061Y-22383319D01*
X38362343Y-22182258D01*
X38404800Y-21968813D01*
X38404800Y-21751187D01*
X61595200Y-21751187D01*
X61595200Y-21968813D01*
X61637657Y-22182258D01*
X61720939Y-22383319D01*
X61841846Y-22564269D01*
X61995731Y-22718154D01*
X62176681Y-22839061D01*
X62377742Y-22922343D01*
X62591187Y-22964800D01*
X62808813Y-22964800D01*
X63022258Y-22922343D01*
X63223319Y-22839061D01*
X63404269Y-22718154D01*
X63558154Y-22564269D01*
X63679061Y-22383319D01*
X63762343Y-22182258D01*
X63804800Y-21968813D01*
X63804800Y-21751187D01*
X63762343Y-21537742D01*
X63679061Y-21336681D01*
X63558154Y-21155731D01*
X63404269Y-21001846D01*
X63223319Y-20880939D01*
X63022258Y-20797657D01*
X62808813Y-20755200D01*
X62591187Y-20755200D01*
X62377742Y-20797657D01*
X62176681Y-20880939D01*
X61995731Y-21001846D01*
X61841846Y-21155731D01*
X61720939Y-21336681D01*
X61637657Y-21537742D01*
X61595200Y-21751187D01*
X38404800Y-21751187D01*
X38362343Y-21537742D01*
X38279061Y-21336681D01*
X38158154Y-21155731D01*
X38004269Y-21001846D01*
X37823319Y-20880939D01*
X37622258Y-20797657D01*
X37408813Y-20755200D01*
X37191187Y-20755200D01*
X36977742Y-20797657D01*
X36776681Y-20880939D01*
X36595731Y-21001846D01*
X36441846Y-21155731D01*
X36320939Y-21336681D01*
X36237657Y-21537742D01*
X36195200Y-21751187D01*
X351600Y-21751187D01*
X351600Y-19211187D01*
X36195200Y-19211187D01*
X36195200Y-19428813D01*
X36237657Y-19642258D01*
X36320939Y-19843319D01*
X36441846Y-20024269D01*
X36595731Y-20178154D01*
X36776681Y-20299061D01*
X36977742Y-20382343D01*
X37191187Y-20424800D01*
X37408813Y-20424800D01*
X37622258Y-20382343D01*
X37823319Y-20299061D01*
X38004269Y-20178154D01*
X38158154Y-20024269D01*
X38279061Y-19843319D01*
X38362343Y-19642258D01*
X38404800Y-19428813D01*
X38404800Y-19211187D01*
X61595200Y-19211187D01*
X61595200Y-19428813D01*
X61637657Y-19642258D01*
X61720939Y-19843319D01*
X61841846Y-20024269D01*
X61995731Y-20178154D01*
X62176681Y-20299061D01*
X62377742Y-20382343D01*
X62591187Y-20424800D01*
X62808813Y-20424800D01*
X63022258Y-20382343D01*
X63223319Y-20299061D01*
X63404269Y-20178154D01*
X63558154Y-20024269D01*
X63679061Y-19843319D01*
X63762343Y-19642258D01*
X63804800Y-19428813D01*
X63804800Y-19211187D01*
X63762343Y-18997742D01*
X63679061Y-18796681D01*
X63558154Y-18615731D01*
X63404269Y-18461846D01*
X63223319Y-18340939D01*
X63022258Y-18257657D01*
X62808813Y-18215200D01*
X62591187Y-18215200D01*
X62377742Y-18257657D01*
X62176681Y-18340939D01*
X61995731Y-18461846D01*
X61841846Y-18615731D01*
X61720939Y-18796681D01*
X61637657Y-18997742D01*
X61595200Y-19211187D01*
X38404800Y-19211187D01*
X38362343Y-18997742D01*
X38279061Y-18796681D01*
X38158154Y-18615731D01*
X38004269Y-18461846D01*
X37823319Y-18340939D01*
X37622258Y-18257657D01*
X37408813Y-18215200D01*
X37191187Y-18215200D01*
X36977742Y-18257657D01*
X36776681Y-18340939D01*
X36595731Y-18461846D01*
X36441846Y-18615731D01*
X36320939Y-18796681D01*
X36237657Y-18997742D01*
X36195200Y-19211187D01*
X351600Y-19211187D01*
X351600Y-16671187D01*
X36195200Y-16671187D01*
X36195200Y-16888813D01*
X36237657Y-17102258D01*
X36320939Y-17303319D01*
X36441846Y-17484269D01*
X36595731Y-17638154D01*
X36776681Y-17759061D01*
X36977742Y-17842343D01*
X37191187Y-17884800D01*
X37408813Y-17884800D01*
X37622258Y-17842343D01*
X37823319Y-17759061D01*
X38004269Y-17638154D01*
X38158154Y-17484269D01*
X38279061Y-17303319D01*
X38362343Y-17102258D01*
X38404800Y-16888813D01*
X38404800Y-16671187D01*
X61595200Y-16671187D01*
X61595200Y-16888813D01*
X61637657Y-17102258D01*
X61720939Y-17303319D01*
X61841846Y-17484269D01*
X61995731Y-17638154D01*
X62176681Y-17759061D01*
X62377742Y-17842343D01*
X62591187Y-17884800D01*
X62808813Y-17884800D01*
X63022258Y-17842343D01*
X63223319Y-17759061D01*
X63404269Y-17638154D01*
X63558154Y-17484269D01*
X63679061Y-17303319D01*
X63762343Y-17102258D01*
X63804800Y-16888813D01*
X63804800Y-16671187D01*
X63762343Y-16457742D01*
X63679061Y-16256681D01*
X63558154Y-16075731D01*
X63404269Y-15921846D01*
X63223319Y-15800939D01*
X63022258Y-15717657D01*
X62808813Y-15675200D01*
X62591187Y-15675200D01*
X62377742Y-15717657D01*
X62176681Y-15800939D01*
X61995731Y-15921846D01*
X61841846Y-16075731D01*
X61720939Y-16256681D01*
X61637657Y-16457742D01*
X61595200Y-16671187D01*
X38404800Y-16671187D01*
X38362343Y-16457742D01*
X38279061Y-16256681D01*
X38158154Y-16075731D01*
X38004269Y-15921846D01*
X37823319Y-15800939D01*
X37622258Y-15717657D01*
X37408813Y-15675200D01*
X37191187Y-15675200D01*
X36977742Y-15717657D01*
X36776681Y-15800939D01*
X36595731Y-15921846D01*
X36441846Y-16075731D01*
X36320939Y-16256681D01*
X36237657Y-16457742D01*
X36195200Y-16671187D01*
X351600Y-16671187D01*
X351600Y-14131187D01*
X36195200Y-14131187D01*
X36195200Y-14348813D01*
X36237657Y-14562258D01*
X36320939Y-14763319D01*
X36441846Y-14944269D01*
X36595731Y-15098154D01*
X36776681Y-15219061D01*
X36977742Y-15302343D01*
X37191187Y-15344800D01*
X37408813Y-15344800D01*
X37622258Y-15302343D01*
X37823319Y-15219061D01*
X38004269Y-15098154D01*
X38158154Y-14944269D01*
X38279061Y-14763319D01*
X38362343Y-14562258D01*
X38404800Y-14348813D01*
X38404800Y-14131187D01*
X38362343Y-13917742D01*
X38279061Y-13716681D01*
X38158154Y-13535731D01*
X38004269Y-13381846D01*
X37823319Y-13260939D01*
X37622258Y-13177657D01*
X37408813Y-13135200D01*
X37191187Y-13135200D01*
X36977742Y-13177657D01*
X36776681Y-13260939D01*
X36595731Y-13381846D01*
X36441846Y-13535731D01*
X36320939Y-13716681D01*
X36237657Y-13917742D01*
X36195200Y-14131187D01*
X351600Y-14131187D01*
X351600Y-11591187D01*
X36195200Y-11591187D01*
X36195200Y-11808813D01*
X36237657Y-12022258D01*
X36320939Y-12223319D01*
X36441846Y-12404269D01*
X36595731Y-12558154D01*
X36776681Y-12679061D01*
X36977742Y-12762343D01*
X37191187Y-12804800D01*
X37408813Y-12804800D01*
X37622258Y-12762343D01*
X37823319Y-12679061D01*
X38004269Y-12558154D01*
X38158154Y-12404269D01*
X38279061Y-12223319D01*
X38362343Y-12022258D01*
X38404800Y-11808813D01*
X38404800Y-11591187D01*
X61595200Y-11591187D01*
X61595200Y-11808813D01*
X61637657Y-12022258D01*
X61720939Y-12223319D01*
X61841846Y-12404269D01*
X61995731Y-12558154D01*
X62176681Y-12679061D01*
X62377742Y-12762343D01*
X62591187Y-12804800D01*
X62808813Y-12804800D01*
X63022258Y-12762343D01*
X63223319Y-12679061D01*
X63404269Y-12558154D01*
X63558154Y-12404269D01*
X63679061Y-12223319D01*
X63762343Y-12022258D01*
X63804800Y-11808813D01*
X63804800Y-11591187D01*
X63762343Y-11377742D01*
X63679061Y-11176681D01*
X63558154Y-10995731D01*
X63404269Y-10841846D01*
X63223319Y-10720939D01*
X63022258Y-10637657D01*
X62808813Y-10595200D01*
X62591187Y-10595200D01*
X62377742Y-10637657D01*
X62176681Y-10720939D01*
X61995731Y-10841846D01*
X61841846Y-10995731D01*
X61720939Y-11176681D01*
X61637657Y-11377742D01*
X61595200Y-11591187D01*
X38404800Y-11591187D01*
X38362343Y-11377742D01*
X38279061Y-11176681D01*
X38158154Y-10995731D01*
X38004269Y-10841846D01*
X37823319Y-10720939D01*
X37622258Y-10637657D01*
X37408813Y-10595200D01*
X37191187Y-10595200D01*
X36977742Y-10637657D01*
X36776681Y-10720939D01*
X36595731Y-10841846D01*
X36441846Y-10995731D01*
X36320939Y-11176681D01*
X36237657Y-11377742D01*
X36195200Y-11591187D01*
X351600Y-11591187D01*
X351600Y-9051187D01*
X36195200Y-9051187D01*
X36195200Y-9268813D01*
X36237657Y-9482258D01*
X36320939Y-9683319D01*
X36441846Y-9864269D01*
X36595731Y-10018154D01*
X36776681Y-10139061D01*
X36977742Y-10222343D01*
X37191187Y-10264800D01*
X37408813Y-10264800D01*
X37622258Y-10222343D01*
X37823319Y-10139061D01*
X38004269Y-10018154D01*
X38158154Y-9864269D01*
X38279061Y-9683319D01*
X38362343Y-9482258D01*
X38404800Y-9268813D01*
X38404800Y-9051187D01*
X61595200Y-9051187D01*
X61595200Y-9268813D01*
X61637657Y-9482258D01*
X61720939Y-9683319D01*
X61841846Y-9864269D01*
X61995731Y-10018154D01*
X62176681Y-10139061D01*
X62377742Y-10222343D01*
X62591187Y-10264800D01*
X62808813Y-10264800D01*
X63022258Y-10222343D01*
X63223319Y-10139061D01*
X63404269Y-10018154D01*
X63558154Y-9864269D01*
X63679061Y-9683319D01*
X63762343Y-9482258D01*
X63804800Y-9268813D01*
X63804800Y-9051187D01*
X63762343Y-8837742D01*
X63679061Y-8636681D01*
X63558154Y-8455731D01*
X63404269Y-8301846D01*
X63223319Y-8180939D01*
X63022258Y-8097657D01*
X62808813Y-8055200D01*
X62591187Y-8055200D01*
X62377742Y-8097657D01*
X62176681Y-8180939D01*
X61995731Y-8301846D01*
X61841846Y-8455731D01*
X61720939Y-8636681D01*
X61637657Y-8837742D01*
X61595200Y-9051187D01*
X38404800Y-9051187D01*
X38362343Y-8837742D01*
X38279061Y-8636681D01*
X38158154Y-8455731D01*
X38004269Y-8301846D01*
X37823319Y-8180939D01*
X37622258Y-8097657D01*
X37408813Y-8055200D01*
X37191187Y-8055200D01*
X36977742Y-8097657D01*
X36776681Y-8180939D01*
X36595731Y-8301846D01*
X36441846Y-8455731D01*
X36320939Y-8636681D01*
X36237657Y-8837742D01*
X36195200Y-9051187D01*
X351600Y-9051187D01*
X351600Y-6511187D01*
X36195200Y-6511187D01*
X36195200Y-6728813D01*
X36237657Y-6942258D01*
X36320939Y-7143319D01*
X36441846Y-7324269D01*
X36595731Y-7478154D01*
X36776681Y-7599061D01*
X36977742Y-7682343D01*
X37191187Y-7724800D01*
X37408813Y-7724800D01*
X37622258Y-7682343D01*
X37823319Y-7599061D01*
X38004269Y-7478154D01*
X38158154Y-7324269D01*
X38279061Y-7143319D01*
X38362343Y-6942258D01*
X38404800Y-6728813D01*
X38404800Y-6511187D01*
X61595200Y-6511187D01*
X61595200Y-6728813D01*
X61637657Y-6942258D01*
X61720939Y-7143319D01*
X61841846Y-7324269D01*
X61995731Y-7478154D01*
X62176681Y-7599061D01*
X62377742Y-7682343D01*
X62591187Y-7724800D01*
X62808813Y-7724800D01*
X63022258Y-7682343D01*
X63223319Y-7599061D01*
X63404269Y-7478154D01*
X63558154Y-7324269D01*
X63679061Y-7143319D01*
X63762343Y-6942258D01*
X63804800Y-6728813D01*
X63804800Y-6511187D01*
X63762343Y-6297742D01*
X63679061Y-6096681D01*
X63558154Y-5915731D01*
X63404269Y-5761846D01*
X63223319Y-5640939D01*
X63022258Y-5557657D01*
X62808813Y-5515200D01*
X62591187Y-5515200D01*
X62377742Y-5557657D01*
X62176681Y-5640939D01*
X61995731Y-5761846D01*
X61841846Y-5915731D01*
X61720939Y-6096681D01*
X61637657Y-6297742D01*
X61595200Y-6511187D01*
X38404800Y-6511187D01*
X38362343Y-6297742D01*
X38279061Y-6096681D01*
X38158154Y-5915731D01*
X38004269Y-5761846D01*
X37823319Y-5640939D01*
X37622258Y-5557657D01*
X37408813Y-5515200D01*
X37191187Y-5515200D01*
X36977742Y-5557657D01*
X36776681Y-5640939D01*
X36595731Y-5761846D01*
X36441846Y-5915731D01*
X36320939Y-6096681D01*
X36237657Y-6297742D01*
X36195200Y-6511187D01*
X351600Y-6511187D01*
X351600Y-3971187D01*
X36195200Y-3971187D01*
X36195200Y-4188813D01*
X36237657Y-4402258D01*
X36320939Y-4603319D01*
X36441846Y-4784269D01*
X36595731Y-4938154D01*
X36776681Y-5059061D01*
X36977742Y-5142343D01*
X37191187Y-5184800D01*
X37408813Y-5184800D01*
X37622258Y-5142343D01*
X37823319Y-5059061D01*
X38004269Y-4938154D01*
X38158154Y-4784269D01*
X38279061Y-4603319D01*
X38362343Y-4402258D01*
X38404800Y-4188813D01*
X38404800Y-3971187D01*
X61595200Y-3971187D01*
X61595200Y-4188813D01*
X61637657Y-4402258D01*
X61720939Y-4603319D01*
X61841846Y-4784269D01*
X61995731Y-4938154D01*
X62176681Y-5059061D01*
X62377742Y-5142343D01*
X62591187Y-5184800D01*
X62808813Y-5184800D01*
X63022258Y-5142343D01*
X63223319Y-5059061D01*
X63404269Y-4938154D01*
X63558154Y-4784269D01*
X63679061Y-4603319D01*
X63762343Y-4402258D01*
X63804800Y-4188813D01*
X63804800Y-3971187D01*
X63762343Y-3757742D01*
X63679061Y-3556681D01*
X63558154Y-3375731D01*
X63404269Y-3221846D01*
X63223319Y-3100939D01*
X63022258Y-3017657D01*
X62808813Y-2975200D01*
X62591187Y-2975200D01*
X62377742Y-3017657D01*
X62176681Y-3100939D01*
X61995731Y-3221846D01*
X61841846Y-3375731D01*
X61720939Y-3556681D01*
X61637657Y-3757742D01*
X61595200Y-3971187D01*
X38404800Y-3971187D01*
X38362343Y-3757742D01*
X38279061Y-3556681D01*
X38158154Y-3375731D01*
X38004269Y-3221846D01*
X37823319Y-3100939D01*
X37622258Y-3017657D01*
X37408813Y-2975200D01*
X37191187Y-2975200D01*
X36977742Y-3017657D01*
X36776681Y-3100939D01*
X36595731Y-3221846D01*
X36441846Y-3375731D01*
X36320939Y-3556681D01*
X36237657Y-3757742D01*
X36195200Y-3971187D01*
X351600Y-3971187D01*
X351600Y-1710320D01*
X26029346Y-1710320D01*
X26029346Y-3410320D01*
X26035231Y-3470071D01*
X26052660Y-3527526D01*
X26080962Y-3580477D01*
X26119052Y-3626888D01*
X26165463Y-3664978D01*
X26218414Y-3693280D01*
X26275869Y-3710709D01*
X26335620Y-3716594D01*
X28035620Y-3716594D01*
X28095371Y-3710709D01*
X28152826Y-3693280D01*
X28205777Y-3664978D01*
X28252188Y-3626888D01*
X28290278Y-3580477D01*
X28318580Y-3527526D01*
X28336009Y-3470071D01*
X28341894Y-3410320D01*
X28341894Y-1710320D01*
X28336009Y-1650569D01*
X28318580Y-1593114D01*
X28290278Y-1540163D01*
X28252188Y-1493752D01*
X28205777Y-1455662D01*
X28159987Y-1431187D01*
X36195200Y-1431187D01*
X36195200Y-1648813D01*
X36237657Y-1862258D01*
X36320939Y-2063319D01*
X36441846Y-2244269D01*
X36595731Y-2398154D01*
X36776681Y-2519061D01*
X36977742Y-2602343D01*
X37191187Y-2644800D01*
X37408813Y-2644800D01*
X37622258Y-2602343D01*
X37823319Y-2519061D01*
X38004269Y-2398154D01*
X38158154Y-2244269D01*
X38279061Y-2063319D01*
X38362343Y-1862258D01*
X38404800Y-1648813D01*
X38404800Y-1431187D01*
X61595200Y-1431187D01*
X61595200Y-1648813D01*
X61637657Y-1862258D01*
X61720939Y-2063319D01*
X61841846Y-2244269D01*
X61995731Y-2398154D01*
X62176681Y-2519061D01*
X62377742Y-2602343D01*
X62591187Y-2644800D01*
X62808813Y-2644800D01*
X63022258Y-2602343D01*
X63223319Y-2519061D01*
X63404269Y-2398154D01*
X63558154Y-2244269D01*
X63679061Y-2063319D01*
X63762343Y-1862258D01*
X63804800Y-1648813D01*
X63804800Y-1431187D01*
X63762343Y-1217742D01*
X63679061Y-1016681D01*
X63558154Y-835731D01*
X63404269Y-681846D01*
X63223319Y-560939D01*
X63022258Y-477657D01*
X62808813Y-435200D01*
X62591187Y-435200D01*
X62377742Y-477657D01*
X62176681Y-560939D01*
X61995731Y-681846D01*
X61841846Y-835731D01*
X61720939Y-1016681D01*
X61637657Y-1217742D01*
X61595200Y-1431187D01*
X38404800Y-1431187D01*
X38362343Y-1217742D01*
X38279061Y-1016681D01*
X38158154Y-835731D01*
X38004269Y-681846D01*
X37823319Y-560939D01*
X37622258Y-477657D01*
X37408813Y-435200D01*
X37191187Y-435200D01*
X36977742Y-477657D01*
X36776681Y-560939D01*
X36595731Y-681846D01*
X36441846Y-835731D01*
X36320939Y-1016681D01*
X36237657Y-1217742D01*
X36195200Y-1431187D01*
X28159987Y-1431187D01*
X28152826Y-1427360D01*
X28095371Y-1409931D01*
X28035620Y-1404046D01*
X26335620Y-1404046D01*
X26275869Y-1409931D01*
X26218414Y-1427360D01*
X26165463Y-1455662D01*
X26119052Y-1493752D01*
X26080962Y-1540163D01*
X26052660Y-1593114D01*
X26035231Y-1650569D01*
X26029346Y-1710320D01*
X351600Y-1710320D01*
X351600Y-351600D01*
X99398400Y-351600D01*
X99398400Y-99398400D01*
G37*
%TD.AperFunction*%
%TD*%
M02*
