%TF.GenerationSoftware,KiCad,Pcbnew,(5.1.9)-1*%
%TF.CreationDate,2023-04-15T18:22:43-04:00*%
%TF.ProjectId,ESP backpack,45535020-6261-4636-9b70-61636b2e6b69,rev?*%
%TF.SameCoordinates,Original*%
%TF.FileFunction,Legend,Top*%
%TF.FilePolarity,Positive*%
%FSLAX46Y46*%
G04 Gerber Fmt 4.6, Leading zero omitted, Abs format (unit mm)*
G04 Created by KiCad (PCBNEW (5.1.9)-1) date 2023-04-15 18:22:43*
%MOMM*%
%LPD*%
G01*
G04 APERTURE LIST*
%ADD10C,0.150000*%
%ADD11C,0.120000*%
%ADD12C,0.127000*%
%ADD13C,0.200000*%
G04 APERTURE END LIST*
D10*
X57302495Y-13825600D02*
X57207257Y-13777980D01*
X57064400Y-13777980D01*
X56921542Y-13825600D01*
X56826304Y-13920838D01*
X56778685Y-14016076D01*
X56731066Y-14206552D01*
X56731066Y-14349409D01*
X56778685Y-14539885D01*
X56826304Y-14635123D01*
X56921542Y-14730361D01*
X57064400Y-14777980D01*
X57159638Y-14777980D01*
X57302495Y-14730361D01*
X57350114Y-14682742D01*
X57350114Y-14349409D01*
X57159638Y-14349409D01*
X57778685Y-14777980D02*
X57778685Y-13777980D01*
X58350114Y-14777980D01*
X58350114Y-13777980D01*
X58826304Y-14777980D02*
X58826304Y-13777980D01*
X59064400Y-13777980D01*
X59207257Y-13825600D01*
X59302495Y-13920838D01*
X59350114Y-14016076D01*
X59397733Y-14206552D01*
X59397733Y-14349409D01*
X59350114Y-14539885D01*
X59302495Y-14635123D01*
X59207257Y-14730361D01*
X59064400Y-14777980D01*
X58826304Y-14777980D01*
X54756323Y-18756380D02*
X54946800Y-18756380D01*
X55042038Y-18804000D01*
X55137276Y-18899238D01*
X55184895Y-19089714D01*
X55184895Y-19423047D01*
X55137276Y-19613523D01*
X55042038Y-19708761D01*
X54946800Y-19756380D01*
X54756323Y-19756380D01*
X54661085Y-19708761D01*
X54565847Y-19613523D01*
X54518228Y-19423047D01*
X54518228Y-19089714D01*
X54565847Y-18899238D01*
X54661085Y-18804000D01*
X54756323Y-18756380D01*
X55613466Y-19756380D02*
X55613466Y-19089714D01*
X55613466Y-19280190D02*
X55661085Y-19184952D01*
X55708704Y-19137333D01*
X55803942Y-19089714D01*
X55899180Y-19089714D01*
X56661085Y-19756380D02*
X56661085Y-19232571D01*
X56613466Y-19137333D01*
X56518228Y-19089714D01*
X56327752Y-19089714D01*
X56232514Y-19137333D01*
X56661085Y-19708761D02*
X56565847Y-19756380D01*
X56327752Y-19756380D01*
X56232514Y-19708761D01*
X56184895Y-19613523D01*
X56184895Y-19518285D01*
X56232514Y-19423047D01*
X56327752Y-19375428D01*
X56565847Y-19375428D01*
X56661085Y-19327809D01*
X57137276Y-19089714D02*
X57137276Y-19756380D01*
X57137276Y-19184952D02*
X57184895Y-19137333D01*
X57280133Y-19089714D01*
X57422990Y-19089714D01*
X57518228Y-19137333D01*
X57565847Y-19232571D01*
X57565847Y-19756380D01*
X58470609Y-19089714D02*
X58470609Y-19899238D01*
X58422990Y-19994476D01*
X58375371Y-20042095D01*
X58280133Y-20089714D01*
X58137276Y-20089714D01*
X58042038Y-20042095D01*
X58470609Y-19708761D02*
X58375371Y-19756380D01*
X58184895Y-19756380D01*
X58089657Y-19708761D01*
X58042038Y-19661142D01*
X57994419Y-19565904D01*
X57994419Y-19280190D01*
X58042038Y-19184952D01*
X58089657Y-19137333D01*
X58184895Y-19089714D01*
X58375371Y-19089714D01*
X58470609Y-19137333D01*
X59327752Y-19708761D02*
X59232514Y-19756380D01*
X59042038Y-19756380D01*
X58946800Y-19708761D01*
X58899180Y-19613523D01*
X58899180Y-19232571D01*
X58946800Y-19137333D01*
X59042038Y-19089714D01*
X59232514Y-19089714D01*
X59327752Y-19137333D01*
X59375371Y-19232571D01*
X59375371Y-19327809D01*
X58899180Y-19423047D01*
X55280133Y-22074190D02*
X55280133Y-22550380D01*
X54946800Y-21550380D02*
X55280133Y-22074190D01*
X55613466Y-21550380D01*
X56327752Y-22502761D02*
X56232514Y-22550380D01*
X56042038Y-22550380D01*
X55946800Y-22502761D01*
X55899181Y-22407523D01*
X55899181Y-22026571D01*
X55946800Y-21931333D01*
X56042038Y-21883714D01*
X56232514Y-21883714D01*
X56327752Y-21931333D01*
X56375371Y-22026571D01*
X56375371Y-22121809D01*
X55899181Y-22217047D01*
X56946800Y-22550380D02*
X56851562Y-22502761D01*
X56803943Y-22407523D01*
X56803943Y-21550380D01*
X57470609Y-22550380D02*
X57375371Y-22502761D01*
X57327752Y-22407523D01*
X57327752Y-21550380D01*
X57994419Y-22550380D02*
X57899181Y-22502761D01*
X57851562Y-22455142D01*
X57803943Y-22359904D01*
X57803943Y-22074190D01*
X57851562Y-21978952D01*
X57899181Y-21931333D01*
X57994419Y-21883714D01*
X58137276Y-21883714D01*
X58232514Y-21931333D01*
X58280133Y-21978952D01*
X58327752Y-22074190D01*
X58327752Y-22359904D01*
X58280133Y-22455142D01*
X58232514Y-22502761D01*
X58137276Y-22550380D01*
X57994419Y-22550380D01*
X58661085Y-21883714D02*
X58851562Y-22550380D01*
X59042038Y-22074190D01*
X59232514Y-22550380D01*
X59422990Y-21883714D01*
X56089657Y-23934800D02*
X55994419Y-23887180D01*
X55851561Y-23887180D01*
X55708704Y-23934800D01*
X55613466Y-24030038D01*
X55565847Y-24125276D01*
X55518228Y-24315752D01*
X55518228Y-24458609D01*
X55565847Y-24649085D01*
X55613466Y-24744323D01*
X55708704Y-24839561D01*
X55851561Y-24887180D01*
X55946800Y-24887180D01*
X56089657Y-24839561D01*
X56137276Y-24791942D01*
X56137276Y-24458609D01*
X55946800Y-24458609D01*
X56565847Y-24887180D02*
X56565847Y-24220514D01*
X56565847Y-24410990D02*
X56613466Y-24315752D01*
X56661085Y-24268133D01*
X56756323Y-24220514D01*
X56851561Y-24220514D01*
X57565847Y-24839561D02*
X57470609Y-24887180D01*
X57280133Y-24887180D01*
X57184895Y-24839561D01*
X57137276Y-24744323D01*
X57137276Y-24363371D01*
X57184895Y-24268133D01*
X57280133Y-24220514D01*
X57470609Y-24220514D01*
X57565847Y-24268133D01*
X57613466Y-24363371D01*
X57613466Y-24458609D01*
X57137276Y-24553847D01*
X58422990Y-24839561D02*
X58327752Y-24887180D01*
X58137276Y-24887180D01*
X58042038Y-24839561D01*
X57994419Y-24744323D01*
X57994419Y-24363371D01*
X58042038Y-24268133D01*
X58137276Y-24220514D01*
X58327752Y-24220514D01*
X58422990Y-24268133D01*
X58470609Y-24363371D01*
X58470609Y-24458609D01*
X57994419Y-24553847D01*
X58899180Y-24220514D02*
X58899180Y-24887180D01*
X58899180Y-24315752D02*
X58946800Y-24268133D01*
X59042038Y-24220514D01*
X59184895Y-24220514D01*
X59280133Y-24268133D01*
X59327752Y-24363371D01*
X59327752Y-24887180D01*
X56851562Y-26801771D02*
X56994419Y-26849390D01*
X57042038Y-26897009D01*
X57089657Y-26992247D01*
X57089657Y-27135104D01*
X57042038Y-27230342D01*
X56994419Y-27277961D01*
X56899181Y-27325580D01*
X56518229Y-27325580D01*
X56518229Y-26325580D01*
X56851562Y-26325580D01*
X56946800Y-26373200D01*
X56994419Y-26420819D01*
X57042038Y-26516057D01*
X57042038Y-26611295D01*
X56994419Y-26706533D01*
X56946800Y-26754152D01*
X56851562Y-26801771D01*
X56518229Y-26801771D01*
X57661086Y-27325580D02*
X57565848Y-27277961D01*
X57518229Y-27182723D01*
X57518229Y-26325580D01*
X58470610Y-26658914D02*
X58470610Y-27325580D01*
X58042038Y-26658914D02*
X58042038Y-27182723D01*
X58089657Y-27277961D01*
X58184895Y-27325580D01*
X58327752Y-27325580D01*
X58422991Y-27277961D01*
X58470610Y-27230342D01*
X59327752Y-27277961D02*
X59232514Y-27325580D01*
X59042038Y-27325580D01*
X58946800Y-27277961D01*
X58899181Y-27182723D01*
X58899181Y-26801771D01*
X58946800Y-26706533D01*
X59042038Y-26658914D01*
X59232514Y-26658914D01*
X59327752Y-26706533D01*
X59375371Y-26801771D01*
X59375371Y-26897009D01*
X58899181Y-26992247D01*
X57613466Y-30017980D02*
X57280133Y-29541790D01*
X57042037Y-30017980D02*
X57042037Y-29017980D01*
X57422990Y-29017980D01*
X57518228Y-29065600D01*
X57565847Y-29113219D01*
X57613466Y-29208457D01*
X57613466Y-29351314D01*
X57565847Y-29446552D01*
X57518228Y-29494171D01*
X57422990Y-29541790D01*
X57042037Y-29541790D01*
X58422990Y-29970361D02*
X58327752Y-30017980D01*
X58137275Y-30017980D01*
X58042037Y-29970361D01*
X57994418Y-29875123D01*
X57994418Y-29494171D01*
X58042037Y-29398933D01*
X58137275Y-29351314D01*
X58327752Y-29351314D01*
X58422990Y-29398933D01*
X58470609Y-29494171D01*
X58470609Y-29589409D01*
X57994418Y-29684647D01*
X59327752Y-30017980D02*
X59327752Y-29017980D01*
X59327752Y-29970361D02*
X59232514Y-30017980D01*
X59042037Y-30017980D01*
X58946799Y-29970361D01*
X58899180Y-29922742D01*
X58851561Y-29827504D01*
X58851561Y-29541790D01*
X58899180Y-29446552D01*
X58946799Y-29398933D01*
X59042037Y-29351314D01*
X59232514Y-29351314D01*
X59327752Y-29398933D01*
X56832666Y-37539561D02*
X56975523Y-37587180D01*
X57213619Y-37587180D01*
X57308857Y-37539561D01*
X57356476Y-37491942D01*
X57404095Y-37396704D01*
X57404095Y-37301466D01*
X57356476Y-37206228D01*
X57308857Y-37158609D01*
X57213619Y-37110990D01*
X57023142Y-37063371D01*
X56927904Y-37015752D01*
X56880285Y-36968133D01*
X56832666Y-36872895D01*
X56832666Y-36777657D01*
X56880285Y-36682419D01*
X56927904Y-36634800D01*
X57023142Y-36587180D01*
X57261238Y-36587180D01*
X57404095Y-36634800D01*
X57737428Y-36587180D02*
X57975523Y-37587180D01*
X58166000Y-36872895D01*
X58356476Y-37587180D01*
X58594571Y-36587180D01*
X58927904Y-36682419D02*
X58975523Y-36634800D01*
X59070761Y-36587180D01*
X59308857Y-36587180D01*
X59404095Y-36634800D01*
X59451714Y-36682419D01*
X59499333Y-36777657D01*
X59499333Y-36872895D01*
X59451714Y-37015752D01*
X58880285Y-37587180D01*
X59499333Y-37587180D01*
X56781866Y-34999561D02*
X56924723Y-35047180D01*
X57162819Y-35047180D01*
X57258057Y-34999561D01*
X57305676Y-34951942D01*
X57353295Y-34856704D01*
X57353295Y-34761466D01*
X57305676Y-34666228D01*
X57258057Y-34618609D01*
X57162819Y-34570990D01*
X56972342Y-34523371D01*
X56877104Y-34475752D01*
X56829485Y-34428133D01*
X56781866Y-34332895D01*
X56781866Y-34237657D01*
X56829485Y-34142419D01*
X56877104Y-34094800D01*
X56972342Y-34047180D01*
X57210438Y-34047180D01*
X57353295Y-34094800D01*
X57686628Y-34047180D02*
X57924723Y-35047180D01*
X58115200Y-34332895D01*
X58305676Y-35047180D01*
X58543771Y-34047180D01*
X59448533Y-35047180D02*
X58877104Y-35047180D01*
X59162819Y-35047180D02*
X59162819Y-34047180D01*
X59067580Y-34190038D01*
X58972342Y-34285276D01*
X58877104Y-34332895D01*
X39878095Y-31504000D02*
X39782857Y-31456380D01*
X39640000Y-31456380D01*
X39497142Y-31504000D01*
X39401904Y-31599238D01*
X39354285Y-31694476D01*
X39306666Y-31884952D01*
X39306666Y-32027809D01*
X39354285Y-32218285D01*
X39401904Y-32313523D01*
X39497142Y-32408761D01*
X39640000Y-32456380D01*
X39735238Y-32456380D01*
X39878095Y-32408761D01*
X39925714Y-32361142D01*
X39925714Y-32027809D01*
X39735238Y-32027809D01*
X40354285Y-32456380D02*
X40354285Y-31456380D01*
X40925714Y-32456380D01*
X40925714Y-31456380D01*
X41401904Y-32456380D02*
X41401904Y-31456380D01*
X41640000Y-31456380D01*
X41782857Y-31504000D01*
X41878095Y-31599238D01*
X41925714Y-31694476D01*
X41973333Y-31884952D01*
X41973333Y-32027809D01*
X41925714Y-32218285D01*
X41878095Y-32313523D01*
X41782857Y-32408761D01*
X41640000Y-32456380D01*
X41401904Y-32456380D01*
X40594114Y-34999561D02*
X40736971Y-35047180D01*
X40975066Y-35047180D01*
X41070304Y-34999561D01*
X41117923Y-34951942D01*
X41165542Y-34856704D01*
X41165542Y-34761466D01*
X41117923Y-34666228D01*
X41070304Y-34618609D01*
X40975066Y-34570990D01*
X40784590Y-34523371D01*
X40689352Y-34475752D01*
X40641733Y-34428133D01*
X40594114Y-34332895D01*
X40594114Y-34237657D01*
X40641733Y-34142419D01*
X40689352Y-34094800D01*
X40784590Y-34047180D01*
X41022685Y-34047180D01*
X41165542Y-34094800D01*
X41594114Y-35047180D02*
X41594114Y-34047180D01*
X41832209Y-34047180D01*
X41975066Y-34094800D01*
X42070304Y-34190038D01*
X42117923Y-34285276D01*
X42165542Y-34475752D01*
X42165542Y-34618609D01*
X42117923Y-34809085D01*
X42070304Y-34904323D01*
X41975066Y-34999561D01*
X41832209Y-35047180D01*
X41594114Y-35047180D01*
X42546495Y-34761466D02*
X43022685Y-34761466D01*
X42451257Y-35047180D02*
X42784590Y-34047180D01*
X43117923Y-35047180D01*
X39093923Y-42568761D02*
X39236780Y-42616380D01*
X39474876Y-42616380D01*
X39570114Y-42568761D01*
X39617733Y-42521142D01*
X39665352Y-42425904D01*
X39665352Y-42330666D01*
X39617733Y-42235428D01*
X39570114Y-42187809D01*
X39474876Y-42140190D01*
X39284400Y-42092571D01*
X39189161Y-42044952D01*
X39141542Y-41997333D01*
X39093923Y-41902095D01*
X39093923Y-41806857D01*
X39141542Y-41711619D01*
X39189161Y-41664000D01*
X39284400Y-41616380D01*
X39522495Y-41616380D01*
X39665352Y-41664000D01*
X40665352Y-42521142D02*
X40617733Y-42568761D01*
X40474876Y-42616380D01*
X40379638Y-42616380D01*
X40236780Y-42568761D01*
X40141542Y-42473523D01*
X40093923Y-42378285D01*
X40046304Y-42187809D01*
X40046304Y-42044952D01*
X40093923Y-41854476D01*
X40141542Y-41759238D01*
X40236780Y-41664000D01*
X40379638Y-41616380D01*
X40474876Y-41616380D01*
X40617733Y-41664000D01*
X40665352Y-41711619D01*
X41570114Y-42616380D02*
X41093923Y-42616380D01*
X41093923Y-41616380D01*
X39471695Y-46845600D02*
X39376457Y-46797980D01*
X39233600Y-46797980D01*
X39090742Y-46845600D01*
X38995504Y-46940838D01*
X38947885Y-47036076D01*
X38900266Y-47226552D01*
X38900266Y-47369409D01*
X38947885Y-47559885D01*
X38995504Y-47655123D01*
X39090742Y-47750361D01*
X39233600Y-47797980D01*
X39328838Y-47797980D01*
X39471695Y-47750361D01*
X39519314Y-47702742D01*
X39519314Y-47369409D01*
X39328838Y-47369409D01*
X39947885Y-47797980D02*
X39947885Y-46797980D01*
X40519314Y-47797980D01*
X40519314Y-46797980D01*
X40995504Y-47797980D02*
X40995504Y-46797980D01*
X41233600Y-46797980D01*
X41376457Y-46845600D01*
X41471695Y-46940838D01*
X41519314Y-47036076D01*
X41566933Y-47226552D01*
X41566933Y-47369409D01*
X41519314Y-47559885D01*
X41471695Y-47655123D01*
X41376457Y-47750361D01*
X41233600Y-47797980D01*
X40995504Y-47797980D01*
X58299504Y-46797980D02*
X58918552Y-46797980D01*
X58585219Y-47178933D01*
X58728076Y-47178933D01*
X58823314Y-47226552D01*
X58870933Y-47274171D01*
X58918552Y-47369409D01*
X58918552Y-47607504D01*
X58870933Y-47702742D01*
X58823314Y-47750361D01*
X58728076Y-47797980D01*
X58442361Y-47797980D01*
X58347123Y-47750361D01*
X58299504Y-47702742D01*
X59204266Y-46797980D02*
X59537600Y-47797980D01*
X59870933Y-46797980D01*
X60109028Y-46797980D02*
X60728076Y-46797980D01*
X60394742Y-47178933D01*
X60537600Y-47178933D01*
X60632838Y-47226552D01*
X60680457Y-47274171D01*
X60728076Y-47369409D01*
X60728076Y-47607504D01*
X60680457Y-47702742D01*
X60632838Y-47750361D01*
X60537600Y-47797980D01*
X60251885Y-47797980D01*
X60156647Y-47750361D01*
X60109028Y-47702742D01*
X59702723Y-1027180D02*
X59226533Y-1027180D01*
X59178914Y-1503371D01*
X59226533Y-1455752D01*
X59321771Y-1408133D01*
X59559866Y-1408133D01*
X59655104Y-1455752D01*
X59702723Y-1503371D01*
X59750342Y-1598609D01*
X59750342Y-1836704D01*
X59702723Y-1931942D01*
X59655104Y-1979561D01*
X59559866Y-2027180D01*
X59321771Y-2027180D01*
X59226533Y-1979561D01*
X59178914Y-1931942D01*
X60036057Y-1027180D02*
X60369390Y-2027180D01*
X60702723Y-1027180D01*
X7338404Y-68540380D02*
X7957452Y-68540380D01*
X7624119Y-68921333D01*
X7766976Y-68921333D01*
X7862214Y-68968952D01*
X7909833Y-69016571D01*
X7957452Y-69111809D01*
X7957452Y-69349904D01*
X7909833Y-69445142D01*
X7862214Y-69492761D01*
X7766976Y-69540380D01*
X7481261Y-69540380D01*
X7386023Y-69492761D01*
X7338404Y-69445142D01*
X8243166Y-68540380D02*
X8576500Y-69540380D01*
X8909833Y-68540380D01*
X9147928Y-68540380D02*
X9766976Y-68540380D01*
X9433642Y-68921333D01*
X9576500Y-68921333D01*
X9671738Y-68968952D01*
X9719357Y-69016571D01*
X9766976Y-69111809D01*
X9766976Y-69349904D01*
X9719357Y-69445142D01*
X9671738Y-69492761D01*
X9576500Y-69540380D01*
X9290785Y-69540380D01*
X9195547Y-69492761D01*
X9147928Y-69445142D01*
X3461142Y-72032761D02*
X3604000Y-72080380D01*
X3842095Y-72080380D01*
X3937333Y-72032761D01*
X3984952Y-71985142D01*
X4032571Y-71889904D01*
X4032571Y-71794666D01*
X3984952Y-71699428D01*
X3937333Y-71651809D01*
X3842095Y-71604190D01*
X3651619Y-71556571D01*
X3556380Y-71508952D01*
X3508761Y-71461333D01*
X3461142Y-71366095D01*
X3461142Y-71270857D01*
X3508761Y-71175619D01*
X3556380Y-71128000D01*
X3651619Y-71080380D01*
X3889714Y-71080380D01*
X4032571Y-71128000D01*
X4461142Y-72080380D02*
X4461142Y-71080380D01*
X4699238Y-71080380D01*
X4842095Y-71128000D01*
X4937333Y-71223238D01*
X4984952Y-71318476D01*
X5032571Y-71508952D01*
X5032571Y-71651809D01*
X4984952Y-71842285D01*
X4937333Y-71937523D01*
X4842095Y-72032761D01*
X4699238Y-72080380D01*
X4461142Y-72080380D01*
X5413523Y-71794666D02*
X5889714Y-71794666D01*
X5318285Y-72080380D02*
X5651619Y-71080380D01*
X5984952Y-72080380D01*
X6318285Y-71699428D02*
X7080190Y-71699428D01*
X7556380Y-71556571D02*
X7889714Y-71556571D01*
X8032571Y-72080380D02*
X7556380Y-72080380D01*
X7556380Y-71080380D01*
X8032571Y-71080380D01*
X8365904Y-71080380D02*
X9032571Y-72080380D01*
X9032571Y-71080380D02*
X8365904Y-72080380D01*
X9270666Y-71080380D02*
X9842095Y-71080380D01*
X9556380Y-72080380D02*
X9556380Y-71080380D01*
X20133595Y-73541000D02*
X20038357Y-73493380D01*
X19895500Y-73493380D01*
X19752642Y-73541000D01*
X19657404Y-73636238D01*
X19609785Y-73731476D01*
X19562166Y-73921952D01*
X19562166Y-74064809D01*
X19609785Y-74255285D01*
X19657404Y-74350523D01*
X19752642Y-74445761D01*
X19895500Y-74493380D01*
X19990738Y-74493380D01*
X20133595Y-74445761D01*
X20181214Y-74398142D01*
X20181214Y-74064809D01*
X19990738Y-74064809D01*
X20609785Y-74493380D02*
X20609785Y-73493380D01*
X21181214Y-74493380D01*
X21181214Y-73493380D01*
X21657404Y-74493380D02*
X21657404Y-73493380D01*
X21895500Y-73493380D01*
X22038357Y-73541000D01*
X22133595Y-73636238D01*
X22181214Y-73731476D01*
X22228833Y-73921952D01*
X22228833Y-74064809D01*
X22181214Y-74255285D01*
X22133595Y-74350523D01*
X22038357Y-74445761D01*
X21895500Y-74493380D01*
X21657404Y-74493380D01*
X3611952Y-74572761D02*
X3754809Y-74620380D01*
X3992904Y-74620380D01*
X4088142Y-74572761D01*
X4135761Y-74525142D01*
X4183380Y-74429904D01*
X4183380Y-74334666D01*
X4135761Y-74239428D01*
X4088142Y-74191809D01*
X3992904Y-74144190D01*
X3802428Y-74096571D01*
X3707190Y-74048952D01*
X3659571Y-74001333D01*
X3611952Y-73906095D01*
X3611952Y-73810857D01*
X3659571Y-73715619D01*
X3707190Y-73668000D01*
X3802428Y-73620380D01*
X4040523Y-73620380D01*
X4183380Y-73668000D01*
X5183380Y-74525142D02*
X5135761Y-74572761D01*
X4992904Y-74620380D01*
X4897666Y-74620380D01*
X4754809Y-74572761D01*
X4659571Y-74477523D01*
X4611952Y-74382285D01*
X4564333Y-74191809D01*
X4564333Y-74048952D01*
X4611952Y-73858476D01*
X4659571Y-73763238D01*
X4754809Y-73668000D01*
X4897666Y-73620380D01*
X4992904Y-73620380D01*
X5135761Y-73668000D01*
X5183380Y-73715619D01*
X6088142Y-74620380D02*
X5611952Y-74620380D01*
X5611952Y-73620380D01*
X6421476Y-74239428D02*
X7183380Y-74239428D01*
X7659571Y-74096571D02*
X7992904Y-74096571D01*
X8135761Y-74620380D02*
X7659571Y-74620380D01*
X7659571Y-73620380D01*
X8135761Y-73620380D01*
X8469095Y-73620380D02*
X9135761Y-74620380D01*
X9135761Y-73620380D02*
X8469095Y-74620380D01*
X9373857Y-73620380D02*
X9945285Y-73620380D01*
X9659571Y-74620380D02*
X9659571Y-73620380D01*
X71415352Y-79513180D02*
X71605828Y-79513180D01*
X71701066Y-79560800D01*
X71796304Y-79656038D01*
X71843923Y-79846514D01*
X71843923Y-80179847D01*
X71796304Y-80370323D01*
X71701066Y-80465561D01*
X71605828Y-80513180D01*
X71415352Y-80513180D01*
X71320114Y-80465561D01*
X71224876Y-80370323D01*
X71177257Y-80179847D01*
X71177257Y-79846514D01*
X71224876Y-79656038D01*
X71320114Y-79560800D01*
X71415352Y-79513180D01*
X72272495Y-80513180D02*
X72272495Y-79513180D01*
X72843923Y-80513180D01*
X72843923Y-79513180D01*
X71110552Y-66813180D02*
X71301028Y-66813180D01*
X71396266Y-66860800D01*
X71491504Y-66956038D01*
X71539123Y-67146514D01*
X71539123Y-67479847D01*
X71491504Y-67670323D01*
X71396266Y-67765561D01*
X71301028Y-67813180D01*
X71110552Y-67813180D01*
X71015314Y-67765561D01*
X70920076Y-67670323D01*
X70872457Y-67479847D01*
X70872457Y-67146514D01*
X70920076Y-66956038D01*
X71015314Y-66860800D01*
X71110552Y-66813180D01*
X71967695Y-67813180D02*
X71967695Y-66813180D01*
X72539123Y-67813180D01*
X72539123Y-66813180D01*
X20486714Y-71069714D02*
X20772428Y-71831619D01*
X21058142Y-71069714D01*
X20772428Y-70593523D02*
X20772428Y-69831619D01*
X20772428Y-69355428D02*
X20772428Y-68593523D01*
X20772428Y-68117333D02*
X20772428Y-67355428D01*
X20772428Y-66879238D02*
X20772428Y-66117333D01*
X20772428Y-65641142D02*
X20772428Y-64879238D01*
X20772428Y-64403047D02*
X20772428Y-63641142D01*
X20772428Y-63164952D02*
X20772428Y-62403047D01*
X20772428Y-61926857D02*
X20772428Y-61164952D01*
X20772428Y-60688761D02*
X20772428Y-59926857D01*
X20772428Y-59450666D02*
X20772428Y-58688761D01*
X20772428Y-58212571D02*
X20772428Y-57450666D01*
X20772428Y-56974476D02*
X20772428Y-56212571D01*
X20772428Y-55736380D02*
X20772428Y-54974476D01*
X20772428Y-54498285D02*
X20772428Y-53736380D01*
X20772428Y-53260190D02*
X20772428Y-52498285D01*
X20772428Y-52022095D02*
X20772428Y-51260190D01*
X20772428Y-50784000D02*
X20772428Y-50022095D01*
X20772428Y-49545904D02*
X20772428Y-48784000D01*
X20772428Y-48307809D02*
X20772428Y-47545904D01*
X20772428Y-47069714D02*
X20772428Y-46307809D01*
X20772428Y-45831619D02*
X20772428Y-45069714D01*
X20772428Y-44593523D02*
X20772428Y-43831619D01*
X20772428Y-43355428D02*
X20772428Y-42593523D01*
X20772428Y-42117333D02*
X20772428Y-41355428D01*
X20772428Y-40879238D02*
X20772428Y-40117333D01*
X20772428Y-39641142D02*
X20772428Y-38879238D01*
X20772428Y-38403047D02*
X20772428Y-37641142D01*
X20772428Y-37164952D02*
X20772428Y-36403047D01*
X20772428Y-35926857D02*
X20772428Y-35164952D01*
X20772428Y-34688761D02*
X20772428Y-33926857D01*
X20772428Y-33450666D02*
X20772428Y-32688761D01*
X20772428Y-32212571D02*
X20772428Y-31450666D01*
X20772428Y-30974476D02*
X20772428Y-30212571D01*
X20772428Y-29736380D02*
X20772428Y-28974476D01*
X20486714Y-28498285D02*
X20772428Y-27736380D01*
X21058142Y-28498285D01*
X20578023Y-25360380D02*
X20101833Y-25360380D01*
X20054214Y-25836571D01*
X20101833Y-25788952D01*
X20197071Y-25741333D01*
X20435166Y-25741333D01*
X20530404Y-25788952D01*
X20578023Y-25836571D01*
X20625642Y-25931809D01*
X20625642Y-26169904D01*
X20578023Y-26265142D01*
X20530404Y-26312761D01*
X20435166Y-26360380D01*
X20197071Y-26360380D01*
X20101833Y-26312761D01*
X20054214Y-26265142D01*
X20911357Y-25360380D02*
X21244690Y-26360380D01*
X21578023Y-25360380D01*
X9529023Y-25360380D02*
X9052833Y-25360380D01*
X9005214Y-25836571D01*
X9052833Y-25788952D01*
X9148071Y-25741333D01*
X9386166Y-25741333D01*
X9481404Y-25788952D01*
X9529023Y-25836571D01*
X9576642Y-25931809D01*
X9576642Y-26169904D01*
X9529023Y-26265142D01*
X9481404Y-26312761D01*
X9386166Y-26360380D01*
X9148071Y-26360380D01*
X9052833Y-26312761D01*
X9005214Y-26265142D01*
X9862357Y-25360380D02*
X10195690Y-26360380D01*
X10529023Y-25360380D01*
X8894023Y-66000380D02*
X8417833Y-66000380D01*
X8370214Y-66476571D01*
X8417833Y-66428952D01*
X8513071Y-66381333D01*
X8751166Y-66381333D01*
X8846404Y-66428952D01*
X8894023Y-66476571D01*
X8941642Y-66571809D01*
X8941642Y-66809904D01*
X8894023Y-66905142D01*
X8846404Y-66952761D01*
X8751166Y-67000380D01*
X8513071Y-67000380D01*
X8417833Y-66952761D01*
X8370214Y-66905142D01*
X9227357Y-66000380D02*
X9560690Y-67000380D01*
X9894023Y-66000380D01*
X9437714Y-64418476D02*
X9723428Y-65180380D01*
X10009142Y-64418476D01*
X9723428Y-63942285D02*
X9723428Y-63180380D01*
X9723428Y-62704190D02*
X9723428Y-61942285D01*
X9723428Y-61466095D02*
X9723428Y-60704190D01*
X9723428Y-60228000D02*
X9723428Y-59466095D01*
X9723428Y-58989904D02*
X9723428Y-58228000D01*
X9723428Y-57751809D02*
X9723428Y-56989904D01*
X9723428Y-56513714D02*
X9723428Y-55751809D01*
X9723428Y-55275619D02*
X9723428Y-54513714D01*
X9723428Y-54037523D02*
X9723428Y-53275619D01*
X9723428Y-52799428D02*
X9723428Y-52037523D01*
X9723428Y-51561333D02*
X9723428Y-50799428D01*
X9723428Y-50323238D02*
X9723428Y-49561333D01*
X9723428Y-49085142D02*
X9723428Y-48323238D01*
X9723428Y-47847047D02*
X9723428Y-47085142D01*
X9723428Y-46608952D02*
X9723428Y-45847047D01*
X9723428Y-45370857D02*
X9723428Y-44608952D01*
X9723428Y-44132761D02*
X9723428Y-43370857D01*
X9723428Y-42894666D02*
X9723428Y-42132761D01*
X9723428Y-41656571D02*
X9723428Y-40894666D01*
X9723428Y-40418476D02*
X9723428Y-39656571D01*
X9723428Y-39180380D02*
X9723428Y-38418476D01*
X9723428Y-37942285D02*
X9723428Y-37180380D01*
X9723428Y-36704190D02*
X9723428Y-35942285D01*
X9723428Y-35466095D02*
X9723428Y-34704190D01*
X9723428Y-34227999D02*
X9723428Y-33466095D01*
X9723428Y-32989904D02*
X9723428Y-32227999D01*
X9723428Y-31751809D02*
X9723428Y-30989904D01*
X9723428Y-30513714D02*
X9723428Y-29751809D01*
X9723428Y-29275619D02*
X9723428Y-28513714D01*
X9437714Y-28037523D02*
X9723428Y-27275619D01*
X10009142Y-28037523D01*
X79760023Y-73620380D02*
X79283833Y-73620380D01*
X79236214Y-74096571D01*
X79283833Y-74048952D01*
X79379071Y-74001333D01*
X79617166Y-74001333D01*
X79712404Y-74048952D01*
X79760023Y-74096571D01*
X79807642Y-74191809D01*
X79807642Y-74429904D01*
X79760023Y-74525142D01*
X79712404Y-74572761D01*
X79617166Y-74620380D01*
X79379071Y-74620380D01*
X79283833Y-74572761D01*
X79236214Y-74525142D01*
X80093357Y-73620380D02*
X80426690Y-74620380D01*
X80760023Y-73620380D01*
X79760023Y-25233380D02*
X79283833Y-25233380D01*
X79236214Y-25709571D01*
X79283833Y-25661952D01*
X79379071Y-25614333D01*
X79617166Y-25614333D01*
X79712404Y-25661952D01*
X79760023Y-25709571D01*
X79807642Y-25804809D01*
X79807642Y-26042904D01*
X79760023Y-26138142D01*
X79712404Y-26185761D01*
X79617166Y-26233380D01*
X79379071Y-26233380D01*
X79283833Y-26185761D01*
X79236214Y-26138142D01*
X80093357Y-25233380D02*
X80426690Y-26233380D01*
X80760023Y-25233380D01*
X91098714Y-71388761D02*
X91384428Y-72150666D01*
X91670142Y-71388761D01*
X91384428Y-70912571D02*
X91384428Y-70150666D01*
X91384428Y-69674476D02*
X91384428Y-68912571D01*
X91384428Y-68436380D02*
X91384428Y-67674476D01*
X91384428Y-67198285D02*
X91384428Y-66436380D01*
X91384428Y-65960190D02*
X91384428Y-65198285D01*
X91384428Y-64722095D02*
X91384428Y-63960190D01*
X91384428Y-63483999D02*
X91384428Y-62722095D01*
X91384428Y-62245904D02*
X91384428Y-61483999D01*
X91384428Y-61007809D02*
X91384428Y-60245904D01*
X91384428Y-59769714D02*
X91384428Y-59007809D01*
X91384428Y-58531619D02*
X91384428Y-57769714D01*
X91384428Y-57293523D02*
X91384428Y-56531619D01*
X91384428Y-56055428D02*
X91384428Y-55293523D01*
X91384428Y-54817333D02*
X91384428Y-54055428D01*
X91098714Y-53579238D02*
X91384428Y-52817333D01*
X91670142Y-53579238D01*
X90424095Y-73541000D02*
X90328857Y-73493380D01*
X90186000Y-73493380D01*
X90043142Y-73541000D01*
X89947904Y-73636238D01*
X89900285Y-73731476D01*
X89852666Y-73921952D01*
X89852666Y-74064809D01*
X89900285Y-74255285D01*
X89947904Y-74350523D01*
X90043142Y-74445761D01*
X90186000Y-74493380D01*
X90281238Y-74493380D01*
X90424095Y-74445761D01*
X90471714Y-74398142D01*
X90471714Y-74064809D01*
X90281238Y-74064809D01*
X90900285Y-74493380D02*
X90900285Y-73493380D01*
X91471714Y-74493380D01*
X91471714Y-73493380D01*
X91947904Y-74493380D02*
X91947904Y-73493380D01*
X92186000Y-73493380D01*
X92328857Y-73541000D01*
X92424095Y-73636238D01*
X92471714Y-73731476D01*
X92519333Y-73921952D01*
X92519333Y-74064809D01*
X92471714Y-74255285D01*
X92424095Y-74350523D01*
X92328857Y-74445761D01*
X92186000Y-74493380D01*
X91947904Y-74493380D01*
X90805095Y-50935000D02*
X90709857Y-50887380D01*
X90567000Y-50887380D01*
X90424142Y-50935000D01*
X90328904Y-51030238D01*
X90281285Y-51125476D01*
X90233666Y-51315952D01*
X90233666Y-51458809D01*
X90281285Y-51649285D01*
X90328904Y-51744523D01*
X90424142Y-51839761D01*
X90567000Y-51887380D01*
X90662238Y-51887380D01*
X90805095Y-51839761D01*
X90852714Y-51792142D01*
X90852714Y-51458809D01*
X90662238Y-51458809D01*
X91281285Y-51887380D02*
X91281285Y-50887380D01*
X91852714Y-51887380D01*
X91852714Y-50887380D01*
X92328904Y-51887380D02*
X92328904Y-50887380D01*
X92567000Y-50887380D01*
X92709857Y-50935000D01*
X92805095Y-51030238D01*
X92852714Y-51125476D01*
X92900333Y-51315952D01*
X92900333Y-51458809D01*
X92852714Y-51649285D01*
X92805095Y-51744523D01*
X92709857Y-51839761D01*
X92567000Y-51887380D01*
X92328904Y-51887380D01*
X90805095Y-45728000D02*
X90709857Y-45680380D01*
X90567000Y-45680380D01*
X90424142Y-45728000D01*
X90328904Y-45823238D01*
X90281285Y-45918476D01*
X90233666Y-46108952D01*
X90233666Y-46251809D01*
X90281285Y-46442285D01*
X90328904Y-46537523D01*
X90424142Y-46632761D01*
X90567000Y-46680380D01*
X90662238Y-46680380D01*
X90805095Y-46632761D01*
X90852714Y-46585142D01*
X90852714Y-46251809D01*
X90662238Y-46251809D01*
X91281285Y-46680380D02*
X91281285Y-45680380D01*
X91852714Y-46680380D01*
X91852714Y-45680380D01*
X92328904Y-46680380D02*
X92328904Y-45680380D01*
X92567000Y-45680380D01*
X92709857Y-45728000D01*
X92805095Y-45823238D01*
X92852714Y-45918476D01*
X92900333Y-46108952D01*
X92900333Y-46251809D01*
X92852714Y-46442285D01*
X92805095Y-46537523D01*
X92709857Y-46632761D01*
X92567000Y-46680380D01*
X92328904Y-46680380D01*
X90805095Y-40648000D02*
X90709857Y-40600380D01*
X90567000Y-40600380D01*
X90424142Y-40648000D01*
X90328904Y-40743238D01*
X90281285Y-40838476D01*
X90233666Y-41028952D01*
X90233666Y-41171809D01*
X90281285Y-41362285D01*
X90328904Y-41457523D01*
X90424142Y-41552761D01*
X90567000Y-41600380D01*
X90662238Y-41600380D01*
X90805095Y-41552761D01*
X90852714Y-41505142D01*
X90852714Y-41171809D01*
X90662238Y-41171809D01*
X91281285Y-41600380D02*
X91281285Y-40600380D01*
X91852714Y-41600380D01*
X91852714Y-40600380D01*
X92328904Y-41600380D02*
X92328904Y-40600380D01*
X92567000Y-40600380D01*
X92709857Y-40648000D01*
X92805095Y-40743238D01*
X92852714Y-40838476D01*
X92900333Y-41028952D01*
X92900333Y-41171809D01*
X92852714Y-41362285D01*
X92805095Y-41457523D01*
X92709857Y-41552761D01*
X92567000Y-41600380D01*
X92328904Y-41600380D01*
X90805095Y-35568000D02*
X90709857Y-35520380D01*
X90567000Y-35520380D01*
X90424142Y-35568000D01*
X90328904Y-35663238D01*
X90281285Y-35758476D01*
X90233666Y-35948952D01*
X90233666Y-36091809D01*
X90281285Y-36282285D01*
X90328904Y-36377523D01*
X90424142Y-36472761D01*
X90567000Y-36520380D01*
X90662238Y-36520380D01*
X90805095Y-36472761D01*
X90852714Y-36425142D01*
X90852714Y-36091809D01*
X90662238Y-36091809D01*
X91281285Y-36520380D02*
X91281285Y-35520380D01*
X91852714Y-36520380D01*
X91852714Y-35520380D01*
X92328904Y-36520380D02*
X92328904Y-35520380D01*
X92567000Y-35520380D01*
X92709857Y-35568000D01*
X92805095Y-35663238D01*
X92852714Y-35758476D01*
X92900333Y-35948952D01*
X92900333Y-36091809D01*
X92852714Y-36282285D01*
X92805095Y-36377523D01*
X92709857Y-36472761D01*
X92567000Y-36520380D01*
X92328904Y-36520380D01*
X90805095Y-25281000D02*
X90709857Y-25233380D01*
X90567000Y-25233380D01*
X90424142Y-25281000D01*
X90328904Y-25376238D01*
X90281285Y-25471476D01*
X90233666Y-25661952D01*
X90233666Y-25804809D01*
X90281285Y-25995285D01*
X90328904Y-26090523D01*
X90424142Y-26185761D01*
X90567000Y-26233380D01*
X90662238Y-26233380D01*
X90805095Y-26185761D01*
X90852714Y-26138142D01*
X90852714Y-25804809D01*
X90662238Y-25804809D01*
X91281285Y-26233380D02*
X91281285Y-25233380D01*
X91852714Y-26233380D01*
X91852714Y-25233380D01*
X92328904Y-26233380D02*
X92328904Y-25233380D01*
X92567000Y-25233380D01*
X92709857Y-25281000D01*
X92805095Y-25376238D01*
X92852714Y-25471476D01*
X92900333Y-25661952D01*
X92900333Y-25804809D01*
X92852714Y-25995285D01*
X92805095Y-26090523D01*
X92709857Y-26185761D01*
X92567000Y-26233380D01*
X92328904Y-26233380D01*
X90805095Y-30488000D02*
X90709857Y-30440380D01*
X90567000Y-30440380D01*
X90424142Y-30488000D01*
X90328904Y-30583238D01*
X90281285Y-30678476D01*
X90233666Y-30868952D01*
X90233666Y-31011809D01*
X90281285Y-31202285D01*
X90328904Y-31297523D01*
X90424142Y-31392761D01*
X90567000Y-31440380D01*
X90662238Y-31440380D01*
X90805095Y-31392761D01*
X90852714Y-31345142D01*
X90852714Y-31011809D01*
X90662238Y-31011809D01*
X91281285Y-31440380D02*
X91281285Y-30440380D01*
X91852714Y-31440380D01*
X91852714Y-30440380D01*
X92328904Y-31440380D02*
X92328904Y-30440380D01*
X92567000Y-30440380D01*
X92709857Y-30488000D01*
X92805095Y-30583238D01*
X92852714Y-30678476D01*
X92900333Y-30868952D01*
X92900333Y-31011809D01*
X92852714Y-31202285D01*
X92805095Y-31297523D01*
X92709857Y-31392761D01*
X92567000Y-31440380D01*
X92328904Y-31440380D01*
X39954393Y-55985754D02*
X39192488Y-56271468D01*
X39954393Y-56557182D01*
X40430583Y-56271468D02*
X41192488Y-56271468D01*
X41668679Y-56271468D02*
X42430583Y-56271468D01*
X42906774Y-56271468D02*
X43668679Y-56271468D01*
X44811536Y-55652420D02*
X45478202Y-55652420D01*
X45049631Y-56652420D01*
X46049631Y-55652420D02*
X46144869Y-55652420D01*
X46240107Y-55700040D01*
X46287726Y-55747659D01*
X46335345Y-55842897D01*
X46382964Y-56033373D01*
X46382964Y-56271468D01*
X46335345Y-56461944D01*
X46287726Y-56557182D01*
X46240107Y-56604801D01*
X46144869Y-56652420D01*
X46049631Y-56652420D01*
X45954393Y-56604801D01*
X45906774Y-56557182D01*
X45859155Y-56461944D01*
X45811536Y-56271468D01*
X45811536Y-56033373D01*
X45859155Y-55842897D01*
X45906774Y-55747659D01*
X45954393Y-55700040D01*
X46049631Y-55652420D01*
X48335345Y-56652420D02*
X48335345Y-55985754D01*
X48335345Y-56080992D02*
X48382964Y-56033373D01*
X48478202Y-55985754D01*
X48621060Y-55985754D01*
X48716298Y-56033373D01*
X48763917Y-56128611D01*
X48763917Y-56652420D01*
X48763917Y-56128611D02*
X48811536Y-56033373D01*
X48906774Y-55985754D01*
X49049631Y-55985754D01*
X49144869Y-56033373D01*
X49192488Y-56128611D01*
X49192488Y-56652420D01*
X49668679Y-56652420D02*
X49668679Y-55985754D01*
X49668679Y-56080992D02*
X49716298Y-56033373D01*
X49811536Y-55985754D01*
X49954393Y-55985754D01*
X50049631Y-56033373D01*
X50097250Y-56128611D01*
X50097250Y-56652420D01*
X50097250Y-56128611D02*
X50144869Y-56033373D01*
X50240107Y-55985754D01*
X50382964Y-55985754D01*
X50478202Y-56033373D01*
X50525821Y-56128611D01*
X50525821Y-56652420D01*
X51954393Y-55652420D02*
X52144869Y-55652420D01*
X52240107Y-55700040D01*
X52335345Y-55795278D01*
X52382964Y-55985754D01*
X52382964Y-56319087D01*
X52335345Y-56509563D01*
X52240107Y-56604801D01*
X52144869Y-56652420D01*
X51954393Y-56652420D01*
X51859155Y-56604801D01*
X51763917Y-56509563D01*
X51716298Y-56319087D01*
X51716298Y-55985754D01*
X51763917Y-55795278D01*
X51859155Y-55700040D01*
X51954393Y-55652420D01*
X53382964Y-56557182D02*
X53335345Y-56604801D01*
X53192488Y-56652420D01*
X53097250Y-56652420D01*
X52954393Y-56604801D01*
X52859155Y-56509563D01*
X52811536Y-56414325D01*
X52763917Y-56223849D01*
X52763917Y-56080992D01*
X52811536Y-55890516D01*
X52859155Y-55795278D01*
X52954393Y-55700040D01*
X53097250Y-55652420D01*
X53192488Y-55652420D01*
X53335345Y-55700040D01*
X53382964Y-55747659D01*
X54573440Y-56271468D02*
X55335345Y-56271468D01*
X55811536Y-56271468D02*
X56573440Y-56271468D01*
X57049631Y-56271468D02*
X57811536Y-56271468D01*
X58287726Y-55985754D02*
X59049631Y-56271468D01*
X58287726Y-56557182D01*
X66753029Y-97781406D02*
X67229220Y-97781406D01*
X66657791Y-98067120D02*
X66991124Y-97067120D01*
X67324458Y-98067120D01*
X67610172Y-98019501D02*
X67753029Y-98067120D01*
X67991124Y-98067120D01*
X68086362Y-98019501D01*
X68133981Y-97971882D01*
X68181600Y-97876644D01*
X68181600Y-97781406D01*
X68133981Y-97686168D01*
X68086362Y-97638549D01*
X67991124Y-97590930D01*
X67800648Y-97543311D01*
X67705410Y-97495692D01*
X67657791Y-97448073D01*
X67610172Y-97352835D01*
X67610172Y-97257597D01*
X67657791Y-97162359D01*
X67705410Y-97114740D01*
X67800648Y-97067120D01*
X68038743Y-97067120D01*
X68181600Y-97114740D01*
X69086362Y-98067120D02*
X68610172Y-98067120D01*
X68610172Y-97067120D01*
X70181600Y-98067120D02*
X70181600Y-97067120D01*
X70514934Y-97781406D01*
X70848267Y-97067120D01*
X70848267Y-98067120D01*
X71753029Y-98067120D02*
X71753029Y-97543311D01*
X71705410Y-97448073D01*
X71610172Y-97400454D01*
X71419696Y-97400454D01*
X71324458Y-97448073D01*
X71753029Y-98019501D02*
X71657791Y-98067120D01*
X71419696Y-98067120D01*
X71324458Y-98019501D01*
X71276839Y-97924263D01*
X71276839Y-97829025D01*
X71324458Y-97733787D01*
X71419696Y-97686168D01*
X71657791Y-97686168D01*
X71753029Y-97638549D01*
X72133981Y-97400454D02*
X72372077Y-98067120D01*
X72610172Y-97400454D02*
X72372077Y-98067120D01*
X72276839Y-98305216D01*
X72229220Y-98352835D01*
X72133981Y-98400454D01*
X73800648Y-97067120D02*
X73705410Y-97257597D01*
X74181600Y-97162359D02*
X74229220Y-97114740D01*
X74324458Y-97067120D01*
X74562553Y-97067120D01*
X74657791Y-97114740D01*
X74705410Y-97162359D01*
X74753029Y-97257597D01*
X74753029Y-97352835D01*
X74705410Y-97495692D01*
X74133981Y-98067120D01*
X74753029Y-98067120D01*
X75086362Y-97067120D02*
X75705410Y-97067120D01*
X75372077Y-97448073D01*
X75514934Y-97448073D01*
X75610172Y-97495692D01*
X75657791Y-97543311D01*
X75705410Y-97638549D01*
X75705410Y-97876644D01*
X75657791Y-97971882D01*
X75610172Y-98019501D01*
X75514934Y-98067120D01*
X75229220Y-98067120D01*
X75133981Y-98019501D01*
X75086362Y-97971882D01*
X67372078Y-96245940D02*
X67038744Y-95769750D01*
X66800649Y-96245940D02*
X66800649Y-95245940D01*
X67181601Y-95245940D01*
X67276839Y-95293560D01*
X67324459Y-95341179D01*
X67372078Y-95436417D01*
X67372078Y-95579274D01*
X67324459Y-95674512D01*
X67276839Y-95722131D01*
X67181601Y-95769750D01*
X66800649Y-95769750D01*
X68181601Y-96198321D02*
X68086363Y-96245940D01*
X67895887Y-96245940D01*
X67800649Y-96198321D01*
X67753030Y-96103083D01*
X67753030Y-95722131D01*
X67800649Y-95626893D01*
X67895887Y-95579274D01*
X68086363Y-95579274D01*
X68181601Y-95626893D01*
X68229220Y-95722131D01*
X68229220Y-95817369D01*
X67753030Y-95912607D01*
X68562554Y-95579274D02*
X68800649Y-96245940D01*
X69038744Y-95579274D01*
X69610173Y-95245940D02*
X69705411Y-95245940D01*
X69800649Y-95293560D01*
X69848268Y-95341179D01*
X69895887Y-95436417D01*
X69943506Y-95626893D01*
X69943506Y-95864988D01*
X69895887Y-96055464D01*
X69848268Y-96150702D01*
X69800649Y-96198321D01*
X69705411Y-96245940D01*
X69610173Y-96245940D01*
X69514935Y-96198321D01*
X69467316Y-96150702D01*
X69419697Y-96055464D01*
X69372078Y-95864988D01*
X69372078Y-95626893D01*
X69419697Y-95436417D01*
X69467316Y-95341179D01*
X69514935Y-95293560D01*
X69610173Y-95245940D01*
X70324459Y-95341179D02*
X70372078Y-95293560D01*
X70467316Y-95245940D01*
X70705411Y-95245940D01*
X70800649Y-95293560D01*
X70848268Y-95341179D01*
X70895887Y-95436417D01*
X70895887Y-95531655D01*
X70848268Y-95674512D01*
X70276839Y-96245940D01*
X70895887Y-96245940D01*
X66800648Y-93900951D02*
X67133982Y-93900951D01*
X67276839Y-94424760D02*
X66800648Y-94424760D01*
X66800648Y-93424760D01*
X67276839Y-93424760D01*
X67657791Y-94377141D02*
X67800648Y-94424760D01*
X68038744Y-94424760D01*
X68133982Y-94377141D01*
X68181601Y-94329522D01*
X68229220Y-94234284D01*
X68229220Y-94139046D01*
X68181601Y-94043808D01*
X68133982Y-93996189D01*
X68038744Y-93948570D01*
X67848268Y-93900951D01*
X67753029Y-93853332D01*
X67705410Y-93805713D01*
X67657791Y-93710475D01*
X67657791Y-93615237D01*
X67705410Y-93519999D01*
X67753029Y-93472380D01*
X67848268Y-93424760D01*
X68086363Y-93424760D01*
X68229220Y-93472380D01*
X68657791Y-94424760D02*
X68657791Y-93424760D01*
X69038744Y-93424760D01*
X69133982Y-93472380D01*
X69181601Y-93519999D01*
X69229220Y-93615237D01*
X69229220Y-93758094D01*
X69181601Y-93853332D01*
X69133982Y-93900951D01*
X69038744Y-93948570D01*
X68657791Y-93948570D01*
X69562553Y-93424760D02*
X70181601Y-93424760D01*
X69848268Y-93805713D01*
X69991125Y-93805713D01*
X70086363Y-93853332D01*
X70133982Y-93900951D01*
X70181601Y-93996189D01*
X70181601Y-94234284D01*
X70133982Y-94329522D01*
X70086363Y-94377141D01*
X69991125Y-94424760D01*
X69705410Y-94424760D01*
X69610172Y-94377141D01*
X69562553Y-94329522D01*
X70562553Y-93519999D02*
X70610172Y-93472380D01*
X70705410Y-93424760D01*
X70943506Y-93424760D01*
X71038744Y-93472380D01*
X71086363Y-93519999D01*
X71133982Y-93615237D01*
X71133982Y-93710475D01*
X71086363Y-93853332D01*
X70514934Y-94424760D01*
X71133982Y-94424760D01*
X72657791Y-93900951D02*
X72800648Y-93948570D01*
X72848268Y-93996189D01*
X72895887Y-94091427D01*
X72895887Y-94234284D01*
X72848268Y-94329522D01*
X72800648Y-94377141D01*
X72705410Y-94424760D01*
X72324458Y-94424760D01*
X72324458Y-93424760D01*
X72657791Y-93424760D01*
X72753029Y-93472380D01*
X72800648Y-93519999D01*
X72848268Y-93615237D01*
X72848268Y-93710475D01*
X72800648Y-93805713D01*
X72753029Y-93853332D01*
X72657791Y-93900951D01*
X72324458Y-93900951D01*
X73753029Y-94424760D02*
X73753029Y-93900951D01*
X73705410Y-93805713D01*
X73610172Y-93758094D01*
X73419696Y-93758094D01*
X73324458Y-93805713D01*
X73753029Y-94377141D02*
X73657791Y-94424760D01*
X73419696Y-94424760D01*
X73324458Y-94377141D01*
X73276839Y-94281903D01*
X73276839Y-94186665D01*
X73324458Y-94091427D01*
X73419696Y-94043808D01*
X73657791Y-94043808D01*
X73753029Y-93996189D01*
X74657791Y-94377141D02*
X74562553Y-94424760D01*
X74372077Y-94424760D01*
X74276839Y-94377141D01*
X74229220Y-94329522D01*
X74181601Y-94234284D01*
X74181601Y-93948570D01*
X74229220Y-93853332D01*
X74276839Y-93805713D01*
X74372077Y-93758094D01*
X74562553Y-93758094D01*
X74657791Y-93805713D01*
X75086363Y-94424760D02*
X75086363Y-93424760D01*
X75181601Y-94043808D02*
X75467315Y-94424760D01*
X75467315Y-93758094D02*
X75086363Y-94139046D01*
X75895887Y-93758094D02*
X75895887Y-94758094D01*
X75895887Y-93805713D02*
X75991125Y-93758094D01*
X76181601Y-93758094D01*
X76276839Y-93805713D01*
X76324458Y-93853332D01*
X76372077Y-93948570D01*
X76372077Y-94234284D01*
X76324458Y-94329522D01*
X76276839Y-94377141D01*
X76181601Y-94424760D01*
X75991125Y-94424760D01*
X75895887Y-94377141D01*
X77229220Y-94424760D02*
X77229220Y-93900951D01*
X77181601Y-93805713D01*
X77086363Y-93758094D01*
X76895887Y-93758094D01*
X76800648Y-93805713D01*
X77229220Y-94377141D02*
X77133982Y-94424760D01*
X76895887Y-94424760D01*
X76800648Y-94377141D01*
X76753029Y-94281903D01*
X76753029Y-94186665D01*
X76800648Y-94091427D01*
X76895887Y-94043808D01*
X77133982Y-94043808D01*
X77229220Y-93996189D01*
X78133982Y-94377141D02*
X78038744Y-94424760D01*
X77848268Y-94424760D01*
X77753029Y-94377141D01*
X77705410Y-94329522D01*
X77657791Y-94234284D01*
X77657791Y-93948570D01*
X77705410Y-93853332D01*
X77753029Y-93805713D01*
X77848268Y-93758094D01*
X78038744Y-93758094D01*
X78133982Y-93805713D01*
X78562553Y-94424760D02*
X78562553Y-93424760D01*
X78657791Y-94043808D02*
X78943506Y-94424760D01*
X78943506Y-93758094D02*
X78562553Y-94139046D01*
X46738095Y-89300000D02*
X46642857Y-89252380D01*
X46500000Y-89252380D01*
X46357142Y-89300000D01*
X46261904Y-89395238D01*
X46214285Y-89490476D01*
X46166666Y-89680952D01*
X46166666Y-89823809D01*
X46214285Y-90014285D01*
X46261904Y-90109523D01*
X46357142Y-90204761D01*
X46500000Y-90252380D01*
X46595238Y-90252380D01*
X46738095Y-90204761D01*
X46785714Y-90157142D01*
X46785714Y-89823809D01*
X46595238Y-89823809D01*
X47214285Y-90252380D02*
X47214285Y-89252380D01*
X47785714Y-90252380D01*
X47785714Y-89252380D01*
X48261904Y-90252380D02*
X48261904Y-89252380D01*
X48500000Y-89252380D01*
X48642857Y-89300000D01*
X48738095Y-89395238D01*
X48785714Y-89490476D01*
X48833333Y-89680952D01*
X48833333Y-89823809D01*
X48785714Y-90014285D01*
X48738095Y-90109523D01*
X48642857Y-90204761D01*
X48500000Y-90252380D01*
X48261904Y-90252380D01*
X52409523Y-89252380D02*
X51933333Y-89252380D01*
X51885714Y-89728571D01*
X51933333Y-89680952D01*
X52028571Y-89633333D01*
X52266666Y-89633333D01*
X52361904Y-89680952D01*
X52409523Y-89728571D01*
X52457142Y-89823809D01*
X52457142Y-90061904D01*
X52409523Y-90157142D01*
X52361904Y-90204761D01*
X52266666Y-90252380D01*
X52028571Y-90252380D01*
X51933333Y-90204761D01*
X51885714Y-90157142D01*
X52742857Y-89252380D02*
X53076190Y-90252380D01*
X53409523Y-89252380D01*
X90471761Y-27652380D02*
X90662238Y-27652380D01*
X90757476Y-27700000D01*
X90852714Y-27795238D01*
X90900333Y-27985714D01*
X90900333Y-28319047D01*
X90852714Y-28509523D01*
X90757476Y-28604761D01*
X90662238Y-28652380D01*
X90471761Y-28652380D01*
X90376523Y-28604761D01*
X90281285Y-28509523D01*
X90233666Y-28319047D01*
X90233666Y-27985714D01*
X90281285Y-27795238D01*
X90376523Y-27700000D01*
X90471761Y-27652380D01*
X91328904Y-28652380D02*
X91328904Y-27985714D01*
X91328904Y-28176190D02*
X91376523Y-28080952D01*
X91424142Y-28033333D01*
X91519380Y-27985714D01*
X91614618Y-27985714D01*
X92376523Y-28652380D02*
X92376523Y-28128571D01*
X92328904Y-28033333D01*
X92233666Y-27985714D01*
X92043190Y-27985714D01*
X91947952Y-28033333D01*
X92376523Y-28604761D02*
X92281285Y-28652380D01*
X92043190Y-28652380D01*
X91947952Y-28604761D01*
X91900333Y-28509523D01*
X91900333Y-28414285D01*
X91947952Y-28319047D01*
X92043190Y-28271428D01*
X92281285Y-28271428D01*
X92376523Y-28223809D01*
X92852714Y-27985714D02*
X92852714Y-28652380D01*
X92852714Y-28080952D02*
X92900333Y-28033333D01*
X92995571Y-27985714D01*
X93138428Y-27985714D01*
X93233666Y-28033333D01*
X93281285Y-28128571D01*
X93281285Y-28652380D01*
X94186047Y-27985714D02*
X94186047Y-28795238D01*
X94138428Y-28890476D01*
X94090809Y-28938095D01*
X93995571Y-28985714D01*
X93852714Y-28985714D01*
X93757476Y-28938095D01*
X94186047Y-28604761D02*
X94090809Y-28652380D01*
X93900333Y-28652380D01*
X93805095Y-28604761D01*
X93757476Y-28557142D01*
X93709857Y-28461904D01*
X93709857Y-28176190D01*
X93757476Y-28080952D01*
X93805095Y-28033333D01*
X93900333Y-27985714D01*
X94090809Y-27985714D01*
X94186047Y-28033333D01*
X95043190Y-28604761D02*
X94947952Y-28652380D01*
X94757476Y-28652380D01*
X94662238Y-28604761D01*
X94614618Y-28509523D01*
X94614618Y-28128571D01*
X94662238Y-28033333D01*
X94757476Y-27985714D01*
X94947952Y-27985714D01*
X95043190Y-28033333D01*
X95090809Y-28128571D01*
X95090809Y-28223809D01*
X94614618Y-28319047D01*
X90471762Y-33476190D02*
X90471762Y-33952380D01*
X90138429Y-32952380D02*
X90471762Y-33476190D01*
X90805095Y-32952380D01*
X91519381Y-33904761D02*
X91424143Y-33952380D01*
X91233667Y-33952380D01*
X91138429Y-33904761D01*
X91090810Y-33809523D01*
X91090810Y-33428571D01*
X91138429Y-33333333D01*
X91233667Y-33285714D01*
X91424143Y-33285714D01*
X91519381Y-33333333D01*
X91567000Y-33428571D01*
X91567000Y-33523809D01*
X91090810Y-33619047D01*
X92138429Y-33952380D02*
X92043191Y-33904761D01*
X91995572Y-33809523D01*
X91995572Y-32952380D01*
X92662238Y-33952380D02*
X92567000Y-33904761D01*
X92519381Y-33809523D01*
X92519381Y-32952380D01*
X93186048Y-33952380D02*
X93090810Y-33904761D01*
X93043191Y-33857142D01*
X92995572Y-33761904D01*
X92995572Y-33476190D01*
X93043191Y-33380952D01*
X93090810Y-33333333D01*
X93186048Y-33285714D01*
X93328905Y-33285714D01*
X93424143Y-33333333D01*
X93471762Y-33380952D01*
X93519381Y-33476190D01*
X93519381Y-33761904D01*
X93471762Y-33857142D01*
X93424143Y-33904761D01*
X93328905Y-33952380D01*
X93186048Y-33952380D01*
X93852714Y-33285714D02*
X94043191Y-33952380D01*
X94233667Y-33476190D01*
X94424143Y-33952380D01*
X94614619Y-33285714D01*
X90805095Y-38000000D02*
X90709857Y-37952380D01*
X90566999Y-37952380D01*
X90424142Y-38000000D01*
X90328904Y-38095238D01*
X90281285Y-38190476D01*
X90233666Y-38380952D01*
X90233666Y-38523809D01*
X90281285Y-38714285D01*
X90328904Y-38809523D01*
X90424142Y-38904761D01*
X90566999Y-38952380D01*
X90662238Y-38952380D01*
X90805095Y-38904761D01*
X90852714Y-38857142D01*
X90852714Y-38523809D01*
X90662238Y-38523809D01*
X91281285Y-38952380D02*
X91281285Y-38285714D01*
X91281285Y-38476190D02*
X91328904Y-38380952D01*
X91376523Y-38333333D01*
X91471761Y-38285714D01*
X91566999Y-38285714D01*
X92281285Y-38904761D02*
X92186047Y-38952380D01*
X91995571Y-38952380D01*
X91900333Y-38904761D01*
X91852714Y-38809523D01*
X91852714Y-38428571D01*
X91900333Y-38333333D01*
X91995571Y-38285714D01*
X92186047Y-38285714D01*
X92281285Y-38333333D01*
X92328904Y-38428571D01*
X92328904Y-38523809D01*
X91852714Y-38619047D01*
X93138428Y-38904761D02*
X93043190Y-38952380D01*
X92852714Y-38952380D01*
X92757476Y-38904761D01*
X92709857Y-38809523D01*
X92709857Y-38428571D01*
X92757476Y-38333333D01*
X92852714Y-38285714D01*
X93043190Y-38285714D01*
X93138428Y-38333333D01*
X93186047Y-38428571D01*
X93186047Y-38523809D01*
X92709857Y-38619047D01*
X93614618Y-38285714D02*
X93614618Y-38952380D01*
X93614618Y-38380952D02*
X93662238Y-38333333D01*
X93757476Y-38285714D01*
X93900333Y-38285714D01*
X93995571Y-38333333D01*
X94043190Y-38428571D01*
X94043190Y-38952380D01*
X90614619Y-43628571D02*
X90757476Y-43676190D01*
X90805095Y-43723809D01*
X90852714Y-43819047D01*
X90852714Y-43961904D01*
X90805095Y-44057142D01*
X90757476Y-44104761D01*
X90662238Y-44152380D01*
X90281286Y-44152380D01*
X90281286Y-43152380D01*
X90614619Y-43152380D01*
X90709857Y-43200000D01*
X90757476Y-43247619D01*
X90805095Y-43342857D01*
X90805095Y-43438095D01*
X90757476Y-43533333D01*
X90709857Y-43580952D01*
X90614619Y-43628571D01*
X90281286Y-43628571D01*
X91424143Y-44152380D02*
X91328905Y-44104761D01*
X91281286Y-44009523D01*
X91281286Y-43152380D01*
X92233667Y-43485714D02*
X92233667Y-44152380D01*
X91805095Y-43485714D02*
X91805095Y-44009523D01*
X91852714Y-44104761D01*
X91947952Y-44152380D01*
X92090809Y-44152380D01*
X92186048Y-44104761D01*
X92233667Y-44057142D01*
X93090809Y-44104761D02*
X92995571Y-44152380D01*
X92805095Y-44152380D01*
X92709857Y-44104761D01*
X92662238Y-44009523D01*
X92662238Y-43628571D01*
X92709857Y-43533333D01*
X92805095Y-43485714D01*
X92995571Y-43485714D01*
X93090809Y-43533333D01*
X93138428Y-43628571D01*
X93138428Y-43723809D01*
X92662238Y-43819047D01*
X90852714Y-49152380D02*
X90519381Y-48676190D01*
X90281285Y-49152380D02*
X90281285Y-48152380D01*
X90662238Y-48152380D01*
X90757476Y-48200000D01*
X90805095Y-48247619D01*
X90852714Y-48342857D01*
X90852714Y-48485714D01*
X90805095Y-48580952D01*
X90757476Y-48628571D01*
X90662238Y-48676190D01*
X90281285Y-48676190D01*
X91662238Y-49104761D02*
X91567000Y-49152380D01*
X91376523Y-49152380D01*
X91281285Y-49104761D01*
X91233666Y-49009523D01*
X91233666Y-48628571D01*
X91281285Y-48533333D01*
X91376523Y-48485714D01*
X91567000Y-48485714D01*
X91662238Y-48533333D01*
X91709857Y-48628571D01*
X91709857Y-48723809D01*
X91233666Y-48819047D01*
X92567000Y-49152380D02*
X92567000Y-48152380D01*
X92567000Y-49104761D02*
X92471762Y-49152380D01*
X92281285Y-49152380D01*
X92186047Y-49104761D01*
X92138428Y-49057142D01*
X92090809Y-48961904D01*
X92090809Y-48676190D01*
X92138428Y-48580952D01*
X92186047Y-48533333D01*
X92281285Y-48485714D01*
X92471762Y-48485714D01*
X92567000Y-48533333D01*
D11*
%TO.C,U3*%
X36880800Y-82216920D02*
X40740800Y-82216920D01*
X40740800Y-82216920D02*
X40740800Y-81961920D01*
X36880800Y-82216920D02*
X33020800Y-82216920D01*
X33020800Y-82216920D02*
X33020800Y-81961920D01*
X36880800Y-71696920D02*
X40740800Y-71696920D01*
X40740800Y-71696920D02*
X40740800Y-71951920D01*
X36880800Y-71696920D02*
X33020800Y-71696920D01*
X33020800Y-71696920D02*
X33020800Y-71951920D01*
X33020800Y-71951920D02*
X31205800Y-71951920D01*
%TO.C,SDA2*%
X48078622Y-73216240D02*
X48553138Y-73216240D01*
X48078622Y-74261240D02*
X48553138Y-74261240D01*
%TO.C,SCL2*%
X48078622Y-71334100D02*
X48553138Y-71334100D01*
X48078622Y-72379100D02*
X48553138Y-72379100D01*
%TO.C,JReset1*%
X24738640Y-78359960D02*
X22078640Y-78359960D01*
X24738640Y-80959960D02*
X24738640Y-78359960D01*
X22078640Y-80959960D02*
X22078640Y-78359960D01*
X24738640Y-80959960D02*
X22078640Y-80959960D01*
X24738640Y-82229960D02*
X24738640Y-83559960D01*
X24738640Y-83559960D02*
X23408640Y-83559960D01*
%TO.C,J3*%
X25855620Y-3890320D02*
X28515620Y-3890320D01*
X25855620Y-3830320D02*
X25855620Y-3890320D01*
X28515620Y-3830320D02*
X28515620Y-3890320D01*
X25855620Y-3830320D02*
X28515620Y-3830320D01*
X25855620Y-2560320D02*
X25855620Y-1230320D01*
X25855620Y-1230320D02*
X27185620Y-1230320D01*
%TO.C,F1*%
X57653780Y-98769100D02*
X57653780Y-82569100D01*
X57653780Y-82569100D02*
X64753780Y-82569100D01*
X64753780Y-82569100D02*
X64753780Y-98769100D01*
X64753780Y-98769100D02*
X57653780Y-98769100D01*
%TO.C,C13*%
X28365060Y-66816700D02*
X28083900Y-66816700D01*
X28365060Y-65796700D02*
X28083900Y-65796700D01*
%TO.C,C12*%
X28408240Y-69217000D02*
X28127080Y-69217000D01*
X28408240Y-68197000D02*
X28127080Y-68197000D01*
%TO.C,C11*%
X67959360Y-44209240D02*
X68240520Y-44209240D01*
X67959360Y-45229240D02*
X68240520Y-45229240D01*
%TO.C,BT1*%
X39009055Y-91639720D02*
G75*
G03*
X39009055Y-91639720I-7106335J0D01*
G01*
X25102720Y-93739720D02*
X25102720Y-98539720D01*
X38702720Y-93739720D02*
X38702720Y-98539720D01*
X38702720Y-98539720D02*
X25102720Y-98539720D01*
%TO.C,5VDC_IN1*%
X45089600Y-98731400D02*
X44289600Y-97006400D01*
X55239600Y-98731400D02*
X56164600Y-97031400D01*
D12*
X45059600Y-91556400D02*
X55219600Y-91556400D01*
X55219600Y-91556400D02*
X55219600Y-98756400D01*
X55219600Y-98756400D02*
X55219600Y-99756400D01*
X55219600Y-99756400D02*
X45059600Y-99756400D01*
X45059600Y-99756400D02*
X45059600Y-98756400D01*
X45059600Y-98756400D02*
X45059600Y-91556400D01*
X45059600Y-98756400D02*
X55219600Y-98756400D01*
%TO.C,C10*%
X96810980Y-90215980D02*
X95010980Y-88415980D01*
X95010980Y-88415980D02*
X86510980Y-88415980D01*
X86510980Y-98715980D02*
X95010980Y-98715980D01*
X95010980Y-98715980D02*
X96810980Y-96915980D01*
X96810980Y-96915980D02*
X96810980Y-94885980D01*
X96810980Y-92245980D02*
X96810980Y-90215980D01*
X86510980Y-94885980D02*
X86510980Y-98715980D01*
X86510980Y-88415980D02*
X86510980Y-92245980D01*
D13*
X98060980Y-95665980D02*
G75*
G03*
X98060980Y-95665980I-100000J0D01*
G01*
D12*
%TO.C,C9*%
X96810980Y-79141580D02*
X95010980Y-77341580D01*
X95010980Y-77341580D02*
X86510980Y-77341580D01*
X86510980Y-87641580D02*
X95010980Y-87641580D01*
X95010980Y-87641580D02*
X96810980Y-85841580D01*
X96810980Y-85841580D02*
X96810980Y-83811580D01*
X96810980Y-81171580D02*
X96810980Y-79141580D01*
X86510980Y-83811580D02*
X86510980Y-87641580D01*
X86510980Y-77341580D02*
X86510980Y-81171580D01*
D13*
X98060980Y-84591580D02*
G75*
G03*
X98060980Y-84591580I-100000J0D01*
G01*
D12*
%TO.C,C8*%
X3773020Y-96855020D02*
X5573020Y-98655020D01*
X5573020Y-98655020D02*
X14073020Y-98655020D01*
X14073020Y-88355020D02*
X5573020Y-88355020D01*
X5573020Y-88355020D02*
X3773020Y-90155020D01*
X3773020Y-90155020D02*
X3773020Y-92185020D01*
X3773020Y-94825020D02*
X3773020Y-96855020D01*
X14073020Y-92185020D02*
X14073020Y-88355020D01*
X14073020Y-98655020D02*
X14073020Y-94825020D01*
D13*
X2723020Y-91405020D02*
G75*
G03*
X2723020Y-91405020I-100000J0D01*
G01*
D12*
%TO.C,C7*%
X3773020Y-85780620D02*
X5573020Y-87580620D01*
X5573020Y-87580620D02*
X14073020Y-87580620D01*
X14073020Y-77280620D02*
X5573020Y-77280620D01*
X5573020Y-77280620D02*
X3773020Y-79080620D01*
X3773020Y-79080620D02*
X3773020Y-81110620D01*
X3773020Y-83750620D02*
X3773020Y-85780620D01*
X14073020Y-81110620D02*
X14073020Y-77280620D01*
X14073020Y-87580620D02*
X14073020Y-83750620D01*
D13*
X2723020Y-80330620D02*
G75*
G03*
X2723020Y-80330620I-100000J0D01*
G01*
D12*
%TO.C,C6*%
X9480400Y-20977600D02*
X11280400Y-22777600D01*
X11280400Y-22777600D02*
X19780400Y-22777600D01*
X19780400Y-12477600D02*
X11280400Y-12477600D01*
X11280400Y-12477600D02*
X9480400Y-14277600D01*
X9480400Y-14277600D02*
X9480400Y-16307600D01*
X9480400Y-18947600D02*
X9480400Y-20977600D01*
X19780400Y-16307600D02*
X19780400Y-12477600D01*
X19780400Y-22777600D02*
X19780400Y-18947600D01*
D13*
X8430400Y-15527600D02*
G75*
G03*
X8430400Y-15527600I-100000J0D01*
G01*
D12*
%TO.C,C5*%
X9531200Y-9852400D02*
X11331200Y-11652400D01*
X11331200Y-11652400D02*
X19831200Y-11652400D01*
X19831200Y-1352400D02*
X11331200Y-1352400D01*
X11331200Y-1352400D02*
X9531200Y-3152400D01*
X9531200Y-3152400D02*
X9531200Y-5182400D01*
X9531200Y-7822400D02*
X9531200Y-9852400D01*
X19831200Y-5182400D02*
X19831200Y-1352400D01*
X19831200Y-11652400D02*
X19831200Y-7822400D01*
D13*
X8481200Y-4402400D02*
G75*
G03*
X8481200Y-4402400I-100000J0D01*
G01*
D12*
%TO.C,C4*%
X90798800Y-14277600D02*
X88998800Y-12477600D01*
X88998800Y-12477600D02*
X80498800Y-12477600D01*
X80498800Y-22777600D02*
X88998800Y-22777600D01*
X88998800Y-22777600D02*
X90798800Y-20977600D01*
X90798800Y-20977600D02*
X90798800Y-18947600D01*
X90798800Y-16307600D02*
X90798800Y-14277600D01*
X80498800Y-18947600D02*
X80498800Y-22777600D01*
X80498800Y-12477600D02*
X80498800Y-16307600D01*
D13*
X92048800Y-19727600D02*
G75*
G03*
X92048800Y-19727600I-100000J0D01*
G01*
D12*
%TO.C,C3*%
X90798800Y-3152400D02*
X88998800Y-1352400D01*
X88998800Y-1352400D02*
X80498800Y-1352400D01*
X80498800Y-11652400D02*
X88998800Y-11652400D01*
X88998800Y-11652400D02*
X90798800Y-9852400D01*
X90798800Y-9852400D02*
X90798800Y-7822400D01*
X90798800Y-5182400D02*
X90798800Y-3152400D01*
X80498800Y-7822400D02*
X80498800Y-11652400D01*
X80498800Y-1352400D02*
X80498800Y-5182400D01*
D13*
X92048800Y-8602400D02*
G75*
G03*
X92048800Y-8602400I-100000J0D01*
G01*
D12*
%TO.C,U2*%
X56582860Y-67394200D02*
X55987860Y-67394200D01*
X55982860Y-63414200D02*
X57227860Y-63414200D01*
X59932860Y-63414200D02*
X58487860Y-63414200D01*
X58487860Y-67394200D02*
X59932860Y-67394200D01*
D13*
X55254370Y-63723270D02*
G75*
G03*
X55254370Y-63723270I-50000J0D01*
G01*
D12*
%TO.C,U1*%
X36050000Y-250000D02*
X63950000Y-250000D01*
X36050000Y-54650000D02*
X36050000Y-250000D01*
X63950000Y-54650000D02*
X36050000Y-54650000D01*
X63950000Y-250000D02*
X63950000Y-54650000D01*
D11*
X54000000Y2000000D02*
X54000000Y-3500000D01*
X54000000Y-3500000D02*
X45500000Y-3500000D01*
X45500000Y-3500000D02*
X45500000Y2000000D01*
X45500000Y2000000D02*
X54000000Y2000000D01*
D12*
%TO.C,S2*%
X74784400Y-71815400D02*
X74784400Y-71105400D01*
X74784400Y-71105400D02*
X69284400Y-71105400D01*
X69284400Y-71105400D02*
X69284400Y-71735400D01*
X74784400Y-73165400D02*
X74784400Y-74245400D01*
X74784400Y-75655400D02*
X74784400Y-76735400D01*
X74784400Y-78165400D02*
X74784400Y-78805400D01*
X74784400Y-78805400D02*
X69284400Y-78805400D01*
X69284400Y-78805400D02*
X69284400Y-78145400D01*
X69284400Y-73145400D02*
X69284400Y-74225400D01*
X69284400Y-75685400D02*
X69284400Y-76765400D01*
D13*
X75284400Y-71455400D02*
G75*
G03*
X75284400Y-71455400I-50000J0D01*
G01*
D12*
%TO.C,S1*%
X74530400Y-59242400D02*
X74530400Y-58532400D01*
X74530400Y-58532400D02*
X69030400Y-58532400D01*
X69030400Y-58532400D02*
X69030400Y-59162400D01*
X74530400Y-60592400D02*
X74530400Y-61672400D01*
X74530400Y-63082400D02*
X74530400Y-64162400D01*
X74530400Y-65592400D02*
X74530400Y-66232400D01*
X74530400Y-66232400D02*
X69030400Y-66232400D01*
X69030400Y-66232400D02*
X69030400Y-65572400D01*
X69030400Y-60572400D02*
X69030400Y-61652400D01*
X69030400Y-63112400D02*
X69030400Y-64192400D01*
D13*
X75030400Y-58882400D02*
G75*
G03*
X75030400Y-58882400I-50000J0D01*
G01*
%TO.C,J2*%
X89420000Y-25360000D02*
G75*
G03*
X89420000Y-25360000I-100000J0D01*
G01*
X87540000Y-75400000D02*
X82460000Y-75400000D01*
X87540000Y-24600000D02*
X82460000Y-24600000D01*
%TO.C,J1*%
X19420000Y-25360000D02*
G75*
G03*
X19420000Y-25360000I-100000J0D01*
G01*
X17540000Y-75400000D02*
X12460000Y-75400000D01*
X17540000Y-24600000D02*
X12460000Y-24600000D01*
D11*
%TO.C,D1*%
X69824600Y-17399000D02*
X70332600Y-16713200D01*
D12*
X70906000Y-16761000D02*
X75906000Y-16761000D01*
X70906000Y-22101000D02*
X75906000Y-22101000D01*
X70906000Y-18901000D02*
X70906000Y-19961000D01*
X75906000Y-18901000D02*
X75906000Y-19961000D01*
D13*
X69656000Y-17701000D02*
G75*
G03*
X69656000Y-17701000I-100000J0D01*
G01*
D11*
%TO.C,C1*%
X59118900Y-70747120D02*
X58837740Y-70747120D01*
X59118900Y-69727120D02*
X58837740Y-69727120D01*
%TO.C,C2*%
X59239572Y-73222120D02*
X58717068Y-73222120D01*
X59239572Y-71752120D02*
X58717068Y-71752120D01*
%TO.C,ExtPower1*%
X70337258Y-4022500D02*
X69862742Y-4022500D01*
X70337258Y-2977500D02*
X69862742Y-2977500D01*
%TO.C,R2*%
X31737258Y-42772500D02*
X31262742Y-42772500D01*
X31737258Y-41727500D02*
X31262742Y-41727500D01*
%TO.C,R7*%
X73262742Y-38477500D02*
X73737258Y-38477500D01*
X73262742Y-39522500D02*
X73737258Y-39522500D01*
%TO.C,R6*%
X73262742Y-36290900D02*
X73737258Y-36290900D01*
X73262742Y-37335900D02*
X73737258Y-37335900D01*
%TO.C,R1*%
X31737258Y-35022500D02*
X31262742Y-35022500D01*
X31737258Y-33977500D02*
X31262742Y-33977500D01*
%TO.C,R5*%
X73262742Y-34104300D02*
X73737258Y-34104300D01*
X73262742Y-35149300D02*
X73737258Y-35149300D01*
%TO.C,R4*%
X73262742Y-31917700D02*
X73737258Y-31917700D01*
X73262742Y-32962700D02*
X73737258Y-32962700D01*
%TO.C,R3*%
X73262742Y-29731100D02*
X73737258Y-29731100D01*
X73262742Y-30776100D02*
X73737258Y-30776100D01*
%TO.C,SCL1*%
X49120602Y-62281700D02*
X49595118Y-62281700D01*
X49120602Y-63326700D02*
X49595118Y-63326700D01*
%TO.C,SCL_EXT1*%
X44120602Y-62281700D02*
X44595118Y-62281700D01*
X44120602Y-63326700D02*
X44595118Y-63326700D01*
%TO.C,SDA1*%
X49120602Y-64981700D02*
X49595118Y-64981700D01*
X49120602Y-66026700D02*
X49595118Y-66026700D01*
%TO.C,SDA_EXT1*%
X44120602Y-64981700D02*
X44595118Y-64981700D01*
X44120602Y-66026700D02*
X44595118Y-66026700D01*
%TO.C,R8*%
X75759542Y-54697100D02*
X76234058Y-54697100D01*
X75759542Y-55742100D02*
X76234058Y-55742100D01*
%TO.C,R9*%
X75861142Y-67955900D02*
X76335658Y-67955900D01*
X75861142Y-69000900D02*
X76335658Y-69000900D01*
%TO.C,R10*%
X73295742Y-27544500D02*
X73770258Y-27544500D01*
X73295742Y-28589500D02*
X73770258Y-28589500D01*
%TO.C,U3*%
D10*
X36118895Y-70309300D02*
X36118895Y-71118824D01*
X36166514Y-71214062D01*
X36214133Y-71261681D01*
X36309371Y-71309300D01*
X36499847Y-71309300D01*
X36595085Y-71261681D01*
X36642704Y-71214062D01*
X36690323Y-71118824D01*
X36690323Y-70309300D01*
X37071276Y-70309300D02*
X37690323Y-70309300D01*
X37356990Y-70690253D01*
X37499847Y-70690253D01*
X37595085Y-70737872D01*
X37642704Y-70785491D01*
X37690323Y-70880729D01*
X37690323Y-71118824D01*
X37642704Y-71214062D01*
X37595085Y-71261681D01*
X37499847Y-71309300D01*
X37214133Y-71309300D01*
X37118895Y-71261681D01*
X37071276Y-71214062D01*
%TO.C,SDA2*%
X46625403Y-72713501D02*
X46768260Y-72761120D01*
X47006356Y-72761120D01*
X47101594Y-72713501D01*
X47149213Y-72665882D01*
X47196832Y-72570644D01*
X47196832Y-72475406D01*
X47149213Y-72380168D01*
X47101594Y-72332549D01*
X47006356Y-72284930D01*
X46815880Y-72237311D01*
X46720641Y-72189692D01*
X46673022Y-72142073D01*
X46625403Y-72046835D01*
X46625403Y-71951597D01*
X46673022Y-71856359D01*
X46720641Y-71808740D01*
X46815880Y-71761120D01*
X47053975Y-71761120D01*
X47196832Y-71808740D01*
X47625403Y-72761120D02*
X47625403Y-71761120D01*
X47863499Y-71761120D01*
X48006356Y-71808740D01*
X48101594Y-71903978D01*
X48149213Y-71999216D01*
X48196832Y-72189692D01*
X48196832Y-72332549D01*
X48149213Y-72523025D01*
X48101594Y-72618263D01*
X48006356Y-72713501D01*
X47863499Y-72761120D01*
X47625403Y-72761120D01*
X48577784Y-72475406D02*
X49053975Y-72475406D01*
X48482546Y-72761120D02*
X48815880Y-71761120D01*
X49149213Y-72761120D01*
X49434927Y-71856359D02*
X49482546Y-71808740D01*
X49577784Y-71761120D01*
X49815880Y-71761120D01*
X49911118Y-71808740D01*
X49958737Y-71856359D01*
X50006356Y-71951597D01*
X50006356Y-72046835D01*
X49958737Y-72189692D01*
X49387308Y-72761120D01*
X50006356Y-72761120D01*
%TO.C,SCL2*%
X46649213Y-70831361D02*
X46792070Y-70878980D01*
X47030165Y-70878980D01*
X47125403Y-70831361D01*
X47173022Y-70783742D01*
X47220641Y-70688504D01*
X47220641Y-70593266D01*
X47173022Y-70498028D01*
X47125403Y-70450409D01*
X47030165Y-70402790D01*
X46839689Y-70355171D01*
X46744451Y-70307552D01*
X46696832Y-70259933D01*
X46649213Y-70164695D01*
X46649213Y-70069457D01*
X46696832Y-69974219D01*
X46744451Y-69926600D01*
X46839689Y-69878980D01*
X47077784Y-69878980D01*
X47220641Y-69926600D01*
X48220641Y-70783742D02*
X48173022Y-70831361D01*
X48030165Y-70878980D01*
X47934927Y-70878980D01*
X47792070Y-70831361D01*
X47696832Y-70736123D01*
X47649213Y-70640885D01*
X47601594Y-70450409D01*
X47601594Y-70307552D01*
X47649213Y-70117076D01*
X47696832Y-70021838D01*
X47792070Y-69926600D01*
X47934927Y-69878980D01*
X48030165Y-69878980D01*
X48173022Y-69926600D01*
X48220641Y-69974219D01*
X49125403Y-70878980D02*
X48649213Y-70878980D01*
X48649213Y-69878980D01*
X49411118Y-69974219D02*
X49458737Y-69926600D01*
X49553975Y-69878980D01*
X49792070Y-69878980D01*
X49887308Y-69926600D01*
X49934927Y-69974219D01*
X49982546Y-70069457D01*
X49982546Y-70164695D01*
X49934927Y-70307552D01*
X49363499Y-70878980D01*
X49982546Y-70878980D01*
%TO.C,JReset1*%
X21027687Y-84012340D02*
X21027687Y-84726626D01*
X20980068Y-84869483D01*
X20884830Y-84964721D01*
X20741973Y-85012340D01*
X20646735Y-85012340D01*
X22075306Y-85012340D02*
X21741973Y-84536150D01*
X21503878Y-85012340D02*
X21503878Y-84012340D01*
X21884830Y-84012340D01*
X21980068Y-84059960D01*
X22027687Y-84107579D01*
X22075306Y-84202817D01*
X22075306Y-84345674D01*
X22027687Y-84440912D01*
X21980068Y-84488531D01*
X21884830Y-84536150D01*
X21503878Y-84536150D01*
X22884830Y-84964721D02*
X22789592Y-85012340D01*
X22599116Y-85012340D01*
X22503878Y-84964721D01*
X22456259Y-84869483D01*
X22456259Y-84488531D01*
X22503878Y-84393293D01*
X22599116Y-84345674D01*
X22789592Y-84345674D01*
X22884830Y-84393293D01*
X22932449Y-84488531D01*
X22932449Y-84583769D01*
X22456259Y-84679007D01*
X23313401Y-84964721D02*
X23408640Y-85012340D01*
X23599116Y-85012340D01*
X23694354Y-84964721D01*
X23741973Y-84869483D01*
X23741973Y-84821864D01*
X23694354Y-84726626D01*
X23599116Y-84679007D01*
X23456259Y-84679007D01*
X23361020Y-84631388D01*
X23313401Y-84536150D01*
X23313401Y-84488531D01*
X23361020Y-84393293D01*
X23456259Y-84345674D01*
X23599116Y-84345674D01*
X23694354Y-84393293D01*
X24551497Y-84964721D02*
X24456259Y-85012340D01*
X24265782Y-85012340D01*
X24170544Y-84964721D01*
X24122925Y-84869483D01*
X24122925Y-84488531D01*
X24170544Y-84393293D01*
X24265782Y-84345674D01*
X24456259Y-84345674D01*
X24551497Y-84393293D01*
X24599116Y-84488531D01*
X24599116Y-84583769D01*
X24122925Y-84679007D01*
X24884830Y-84345674D02*
X25265782Y-84345674D01*
X25027687Y-84012340D02*
X25027687Y-84869483D01*
X25075306Y-84964721D01*
X25170544Y-85012340D01*
X25265782Y-85012340D01*
X26122925Y-85012340D02*
X25551497Y-85012340D01*
X25837211Y-85012340D02*
X25837211Y-84012340D01*
X25741973Y-84155198D01*
X25646735Y-84250436D01*
X25551497Y-84298055D01*
%TO.C,J3*%
X29869806Y-2015240D02*
X29869806Y-2729526D01*
X29822187Y-2872383D01*
X29726949Y-2967621D01*
X29584092Y-3015240D01*
X29488854Y-3015240D01*
X30250759Y-2015240D02*
X30869806Y-2015240D01*
X30536473Y-2396193D01*
X30679330Y-2396193D01*
X30774568Y-2443812D01*
X30822187Y-2491431D01*
X30869806Y-2586669D01*
X30869806Y-2824764D01*
X30822187Y-2920002D01*
X30774568Y-2967621D01*
X30679330Y-3015240D01*
X30393616Y-3015240D01*
X30298378Y-2967621D01*
X30250759Y-2920002D01*
%TO.C,F1*%
X56582351Y-96802433D02*
X56582351Y-97135766D01*
X57106160Y-97135766D02*
X56106160Y-97135766D01*
X56106160Y-96659576D01*
X57106160Y-95754814D02*
X57106160Y-96326242D01*
X57106160Y-96040528D02*
X56106160Y-96040528D01*
X56249018Y-96135766D01*
X56344256Y-96231004D01*
X56391875Y-96326242D01*
%TO.C,C13*%
X27581622Y-68093842D02*
X27534003Y-68141461D01*
X27391146Y-68189080D01*
X27295908Y-68189080D01*
X27153051Y-68141461D01*
X27057813Y-68046223D01*
X27010194Y-67950985D01*
X26962575Y-67760509D01*
X26962575Y-67617652D01*
X27010194Y-67427176D01*
X27057813Y-67331938D01*
X27153051Y-67236700D01*
X27295908Y-67189080D01*
X27391146Y-67189080D01*
X27534003Y-67236700D01*
X27581622Y-67284319D01*
X28534003Y-68189080D02*
X27962575Y-68189080D01*
X28248289Y-68189080D02*
X28248289Y-67189080D01*
X28153051Y-67331938D01*
X28057813Y-67427176D01*
X27962575Y-67474795D01*
X28867337Y-67189080D02*
X29486384Y-67189080D01*
X29153051Y-67570033D01*
X29295908Y-67570033D01*
X29391146Y-67617652D01*
X29438765Y-67665271D01*
X29486384Y-67760509D01*
X29486384Y-67998604D01*
X29438765Y-68093842D01*
X29391146Y-68141461D01*
X29295908Y-68189080D01*
X29010194Y-68189080D01*
X28914956Y-68141461D01*
X28867337Y-68093842D01*
%TO.C,C12*%
X27624802Y-70494142D02*
X27577183Y-70541761D01*
X27434326Y-70589380D01*
X27339088Y-70589380D01*
X27196231Y-70541761D01*
X27100993Y-70446523D01*
X27053374Y-70351285D01*
X27005755Y-70160809D01*
X27005755Y-70017952D01*
X27053374Y-69827476D01*
X27100993Y-69732238D01*
X27196231Y-69637000D01*
X27339088Y-69589380D01*
X27434326Y-69589380D01*
X27577183Y-69637000D01*
X27624802Y-69684619D01*
X28577183Y-70589380D02*
X28005755Y-70589380D01*
X28291469Y-70589380D02*
X28291469Y-69589380D01*
X28196231Y-69732238D01*
X28100993Y-69827476D01*
X28005755Y-69875095D01*
X28958136Y-69684619D02*
X29005755Y-69637000D01*
X29100993Y-69589380D01*
X29339088Y-69589380D01*
X29434326Y-69637000D01*
X29481945Y-69684619D01*
X29529564Y-69779857D01*
X29529564Y-69875095D01*
X29481945Y-70017952D01*
X28910517Y-70589380D01*
X29529564Y-70589380D01*
%TO.C,C11*%
X67457082Y-43646382D02*
X67409463Y-43694001D01*
X67266606Y-43741620D01*
X67171368Y-43741620D01*
X67028511Y-43694001D01*
X66933273Y-43598763D01*
X66885654Y-43503525D01*
X66838035Y-43313049D01*
X66838035Y-43170192D01*
X66885654Y-42979716D01*
X66933273Y-42884478D01*
X67028511Y-42789240D01*
X67171368Y-42741620D01*
X67266606Y-42741620D01*
X67409463Y-42789240D01*
X67457082Y-42836859D01*
X68409463Y-43741620D02*
X67838035Y-43741620D01*
X68123749Y-43741620D02*
X68123749Y-42741620D01*
X68028511Y-42884478D01*
X67933273Y-42979716D01*
X67838035Y-43027335D01*
X69361844Y-43741620D02*
X68790416Y-43741620D01*
X69076130Y-43741620D02*
X69076130Y-42741620D01*
X68980892Y-42884478D01*
X68885654Y-42979716D01*
X68790416Y-43027335D01*
%TO.C,BT1*%
X23417005Y-89468291D02*
X23559862Y-89515910D01*
X23607481Y-89563529D01*
X23655100Y-89658767D01*
X23655100Y-89801624D01*
X23607481Y-89896862D01*
X23559862Y-89944481D01*
X23464624Y-89992100D01*
X23083672Y-89992100D01*
X23083672Y-88992100D01*
X23417005Y-88992100D01*
X23512243Y-89039720D01*
X23559862Y-89087339D01*
X23607481Y-89182577D01*
X23607481Y-89277815D01*
X23559862Y-89373053D01*
X23512243Y-89420672D01*
X23417005Y-89468291D01*
X23083672Y-89468291D01*
X23940815Y-88992100D02*
X24512243Y-88992100D01*
X24226529Y-89992100D02*
X24226529Y-88992100D01*
X25369386Y-89992100D02*
X24797958Y-89992100D01*
X25083672Y-89992100D02*
X25083672Y-88992100D01*
X24988434Y-89134958D01*
X24893196Y-89230196D01*
X24797958Y-89277815D01*
%TO.C,5VDC_IN1*%
X47273547Y-87233664D02*
X46796386Y-87233664D01*
X46748670Y-87710825D01*
X46796386Y-87663109D01*
X46891818Y-87615393D01*
X47130399Y-87615393D01*
X47225831Y-87663109D01*
X47273547Y-87710825D01*
X47321263Y-87806258D01*
X47321263Y-88044838D01*
X47273547Y-88140271D01*
X47225831Y-88187987D01*
X47130399Y-88235703D01*
X46891818Y-88235703D01*
X46796386Y-88187987D01*
X46748670Y-88140271D01*
X47607560Y-87233664D02*
X47941573Y-88235703D01*
X48275586Y-87233664D01*
X48609599Y-88235703D02*
X48609599Y-87233664D01*
X48848180Y-87233664D01*
X48991328Y-87281380D01*
X49086761Y-87376812D01*
X49134477Y-87472245D01*
X49182193Y-87663109D01*
X49182193Y-87806258D01*
X49134477Y-87997122D01*
X49086761Y-88092554D01*
X48991328Y-88187987D01*
X48848180Y-88235703D01*
X48609599Y-88235703D01*
X50184232Y-88140271D02*
X50136516Y-88187987D01*
X49993367Y-88235703D01*
X49897935Y-88235703D01*
X49754787Y-88187987D01*
X49659354Y-88092554D01*
X49611638Y-87997122D01*
X49563922Y-87806258D01*
X49563922Y-87663109D01*
X49611638Y-87472245D01*
X49659354Y-87376812D01*
X49754787Y-87281380D01*
X49897935Y-87233664D01*
X49993367Y-87233664D01*
X50136516Y-87281380D01*
X50184232Y-87329096D01*
X50375096Y-88331135D02*
X51138555Y-88331135D01*
X51377135Y-88235703D02*
X51377135Y-87233664D01*
X51854297Y-88235703D02*
X51854297Y-87233664D01*
X52426890Y-88235703D01*
X52426890Y-87233664D01*
X53428929Y-88235703D02*
X52856336Y-88235703D01*
X53142633Y-88235703D02*
X53142633Y-87233664D01*
X53047200Y-87376812D01*
X52951768Y-87472245D01*
X52856336Y-87519961D01*
%TO.C,C10*%
X83075542Y-98124282D02*
X83027923Y-98171901D01*
X82885066Y-98219520D01*
X82789828Y-98219520D01*
X82646971Y-98171901D01*
X82551733Y-98076663D01*
X82504114Y-97981425D01*
X82456495Y-97790949D01*
X82456495Y-97648092D01*
X82504114Y-97457616D01*
X82551733Y-97362378D01*
X82646971Y-97267140D01*
X82789828Y-97219520D01*
X82885066Y-97219520D01*
X83027923Y-97267140D01*
X83075542Y-97314759D01*
X84027923Y-98219520D02*
X83456495Y-98219520D01*
X83742209Y-98219520D02*
X83742209Y-97219520D01*
X83646971Y-97362378D01*
X83551733Y-97457616D01*
X83456495Y-97505235D01*
X84646971Y-97219520D02*
X84742209Y-97219520D01*
X84837447Y-97267140D01*
X84885066Y-97314759D01*
X84932685Y-97409997D01*
X84980304Y-97600473D01*
X84980304Y-97838568D01*
X84932685Y-98029044D01*
X84885066Y-98124282D01*
X84837447Y-98171901D01*
X84742209Y-98219520D01*
X84646971Y-98219520D01*
X84551733Y-98171901D01*
X84504114Y-98124282D01*
X84456495Y-98029044D01*
X84408876Y-97838568D01*
X84408876Y-97600473D01*
X84456495Y-97409997D01*
X84504114Y-97314759D01*
X84551733Y-97267140D01*
X84646971Y-97219520D01*
%TO.C,C9*%
X84341673Y-79719442D02*
X84294054Y-79767061D01*
X84151197Y-79814680D01*
X84055959Y-79814680D01*
X83913101Y-79767061D01*
X83817863Y-79671823D01*
X83770244Y-79576585D01*
X83722625Y-79386109D01*
X83722625Y-79243252D01*
X83770244Y-79052776D01*
X83817863Y-78957538D01*
X83913101Y-78862300D01*
X84055959Y-78814680D01*
X84151197Y-78814680D01*
X84294054Y-78862300D01*
X84341673Y-78909919D01*
X84817863Y-79814680D02*
X85008340Y-79814680D01*
X85103578Y-79767061D01*
X85151197Y-79719442D01*
X85246435Y-79576585D01*
X85294054Y-79386109D01*
X85294054Y-79005157D01*
X85246435Y-78909919D01*
X85198816Y-78862300D01*
X85103578Y-78814680D01*
X84913101Y-78814680D01*
X84817863Y-78862300D01*
X84770244Y-78909919D01*
X84722625Y-79005157D01*
X84722625Y-79243252D01*
X84770244Y-79338490D01*
X84817863Y-79386109D01*
X84913101Y-79433728D01*
X85103578Y-79433728D01*
X85198816Y-79386109D01*
X85246435Y-79338490D01*
X85294054Y-79243252D01*
%TO.C,C8*%
X16122353Y-97316562D02*
X16074734Y-97364181D01*
X15931877Y-97411800D01*
X15836639Y-97411800D01*
X15693781Y-97364181D01*
X15598543Y-97268943D01*
X15550924Y-97173705D01*
X15503305Y-96983229D01*
X15503305Y-96840372D01*
X15550924Y-96649896D01*
X15598543Y-96554658D01*
X15693781Y-96459420D01*
X15836639Y-96411800D01*
X15931877Y-96411800D01*
X16074734Y-96459420D01*
X16122353Y-96507039D01*
X16693781Y-96840372D02*
X16598543Y-96792753D01*
X16550924Y-96745134D01*
X16503305Y-96649896D01*
X16503305Y-96602277D01*
X16550924Y-96507039D01*
X16598543Y-96459420D01*
X16693781Y-96411800D01*
X16884258Y-96411800D01*
X16979496Y-96459420D01*
X17027115Y-96507039D01*
X17074734Y-96602277D01*
X17074734Y-96649896D01*
X17027115Y-96745134D01*
X16979496Y-96792753D01*
X16884258Y-96840372D01*
X16693781Y-96840372D01*
X16598543Y-96887991D01*
X16550924Y-96935610D01*
X16503305Y-97030848D01*
X16503305Y-97221324D01*
X16550924Y-97316562D01*
X16598543Y-97364181D01*
X16693781Y-97411800D01*
X16884258Y-97411800D01*
X16979496Y-97364181D01*
X17027115Y-97316562D01*
X17074734Y-97221324D01*
X17074734Y-97030848D01*
X17027115Y-96935610D01*
X16979496Y-96887991D01*
X16884258Y-96840372D01*
%TO.C,C7*%
X16086793Y-79452742D02*
X16039174Y-79500361D01*
X15896317Y-79547980D01*
X15801079Y-79547980D01*
X15658221Y-79500361D01*
X15562983Y-79405123D01*
X15515364Y-79309885D01*
X15467745Y-79119409D01*
X15467745Y-78976552D01*
X15515364Y-78786076D01*
X15562983Y-78690838D01*
X15658221Y-78595600D01*
X15801079Y-78547980D01*
X15896317Y-78547980D01*
X16039174Y-78595600D01*
X16086793Y-78643219D01*
X16420126Y-78547980D02*
X17086793Y-78547980D01*
X16658221Y-79547980D01*
%TO.C,C6*%
X5370533Y-18035542D02*
X5322914Y-18083161D01*
X5180057Y-18130780D01*
X5084819Y-18130780D01*
X4941961Y-18083161D01*
X4846723Y-17987923D01*
X4799104Y-17892685D01*
X4751485Y-17702209D01*
X4751485Y-17559352D01*
X4799104Y-17368876D01*
X4846723Y-17273638D01*
X4941961Y-17178400D01*
X5084819Y-17130780D01*
X5180057Y-17130780D01*
X5322914Y-17178400D01*
X5370533Y-17226019D01*
X6227676Y-17130780D02*
X6037200Y-17130780D01*
X5941961Y-17178400D01*
X5894342Y-17226019D01*
X5799104Y-17368876D01*
X5751485Y-17559352D01*
X5751485Y-17940304D01*
X5799104Y-18035542D01*
X5846723Y-18083161D01*
X5941961Y-18130780D01*
X6132438Y-18130780D01*
X6227676Y-18083161D01*
X6275295Y-18035542D01*
X6322914Y-17940304D01*
X6322914Y-17702209D01*
X6275295Y-17606971D01*
X6227676Y-17559352D01*
X6132438Y-17511733D01*
X5941961Y-17511733D01*
X5846723Y-17559352D01*
X5799104Y-17606971D01*
X5751485Y-17702209D01*
%TO.C,C5*%
X6081733Y-6859542D02*
X6034114Y-6907161D01*
X5891257Y-6954780D01*
X5796019Y-6954780D01*
X5653161Y-6907161D01*
X5557923Y-6811923D01*
X5510304Y-6716685D01*
X5462685Y-6526209D01*
X5462685Y-6383352D01*
X5510304Y-6192876D01*
X5557923Y-6097638D01*
X5653161Y-6002400D01*
X5796019Y-5954780D01*
X5891257Y-5954780D01*
X6034114Y-6002400D01*
X6081733Y-6050019D01*
X6986495Y-5954780D02*
X6510304Y-5954780D01*
X6462685Y-6430971D01*
X6510304Y-6383352D01*
X6605542Y-6335733D01*
X6843638Y-6335733D01*
X6938876Y-6383352D01*
X6986495Y-6430971D01*
X7034114Y-6526209D01*
X7034114Y-6764304D01*
X6986495Y-6859542D01*
X6938876Y-6907161D01*
X6843638Y-6954780D01*
X6605542Y-6954780D01*
X6510304Y-6907161D01*
X6462685Y-6859542D01*
%TO.C,C4*%
X93762533Y-17883142D02*
X93714914Y-17930761D01*
X93572057Y-17978380D01*
X93476819Y-17978380D01*
X93333961Y-17930761D01*
X93238723Y-17835523D01*
X93191104Y-17740285D01*
X93143485Y-17549809D01*
X93143485Y-17406952D01*
X93191104Y-17216476D01*
X93238723Y-17121238D01*
X93333961Y-17026000D01*
X93476819Y-16978380D01*
X93572057Y-16978380D01*
X93714914Y-17026000D01*
X93762533Y-17073619D01*
X94619676Y-17311714D02*
X94619676Y-17978380D01*
X94381580Y-16930761D02*
X94143485Y-17645047D01*
X94762533Y-17645047D01*
%TO.C,C3*%
X93660933Y-7011942D02*
X93613314Y-7059561D01*
X93470457Y-7107180D01*
X93375219Y-7107180D01*
X93232361Y-7059561D01*
X93137123Y-6964323D01*
X93089504Y-6869085D01*
X93041885Y-6678609D01*
X93041885Y-6535752D01*
X93089504Y-6345276D01*
X93137123Y-6250038D01*
X93232361Y-6154800D01*
X93375219Y-6107180D01*
X93470457Y-6107180D01*
X93613314Y-6154800D01*
X93660933Y-6202419D01*
X93994266Y-6107180D02*
X94613314Y-6107180D01*
X94279980Y-6488133D01*
X94422838Y-6488133D01*
X94518076Y-6535752D01*
X94565695Y-6583371D01*
X94613314Y-6678609D01*
X94613314Y-6916704D01*
X94565695Y-7011942D01*
X94518076Y-7059561D01*
X94422838Y-7107180D01*
X94137123Y-7107180D01*
X94041885Y-7059561D01*
X93994266Y-7011942D01*
%TO.C,U2*%
X56560955Y-61681580D02*
X56560955Y-62491104D01*
X56608574Y-62586342D01*
X56656193Y-62633961D01*
X56751431Y-62681580D01*
X56941907Y-62681580D01*
X57037145Y-62633961D01*
X57084764Y-62586342D01*
X57132383Y-62491104D01*
X57132383Y-61681580D01*
X57560955Y-61776819D02*
X57608574Y-61729200D01*
X57703812Y-61681580D01*
X57941907Y-61681580D01*
X58037145Y-61729200D01*
X58084764Y-61776819D01*
X58132383Y-61872057D01*
X58132383Y-61967295D01*
X58084764Y-62110152D01*
X57513336Y-62681580D01*
X58132383Y-62681580D01*
%TO.C,U1*%
X60066976Y-55398214D02*
X60066976Y-56208050D01*
X60114613Y-56303325D01*
X60162251Y-56350963D01*
X60257525Y-56398600D01*
X60448075Y-56398600D01*
X60543350Y-56350963D01*
X60590987Y-56303325D01*
X60638625Y-56208050D01*
X60638625Y-55398214D01*
X61639011Y-56398600D02*
X61067362Y-56398600D01*
X61353186Y-56398600D02*
X61353186Y-55398214D01*
X61257911Y-55541126D01*
X61162637Y-55636401D01*
X61067362Y-55684039D01*
%TO.C,S2*%
X76909240Y-76015530D02*
X77052148Y-76063166D01*
X77290327Y-76063166D01*
X77385599Y-76015530D01*
X77433235Y-75967894D01*
X77480871Y-75872622D01*
X77480871Y-75777350D01*
X77433235Y-75682078D01*
X77385599Y-75634442D01*
X77290327Y-75586807D01*
X77099784Y-75539171D01*
X77004512Y-75491535D01*
X76956876Y-75443899D01*
X76909240Y-75348627D01*
X76909240Y-75253355D01*
X76956876Y-75158083D01*
X77004512Y-75110448D01*
X77099784Y-75062812D01*
X77337963Y-75062812D01*
X77480871Y-75110448D01*
X77861958Y-75158083D02*
X77909594Y-75110448D01*
X78004866Y-75062812D01*
X78243045Y-75062812D01*
X78338317Y-75110448D01*
X78385953Y-75158083D01*
X78433589Y-75253355D01*
X78433589Y-75348627D01*
X78385953Y-75491535D01*
X77814322Y-76063166D01*
X78433589Y-76063166D01*
%TO.C,S1*%
X76655240Y-63442530D02*
X76798148Y-63490166D01*
X77036327Y-63490166D01*
X77131599Y-63442530D01*
X77179235Y-63394894D01*
X77226871Y-63299622D01*
X77226871Y-63204350D01*
X77179235Y-63109078D01*
X77131599Y-63061442D01*
X77036327Y-63013807D01*
X76845784Y-62966171D01*
X76750512Y-62918535D01*
X76702876Y-62870899D01*
X76655240Y-62775627D01*
X76655240Y-62680355D01*
X76702876Y-62585083D01*
X76750512Y-62537448D01*
X76845784Y-62489812D01*
X77083963Y-62489812D01*
X77226871Y-62537448D01*
X78179589Y-63490166D02*
X77607958Y-63490166D01*
X77893774Y-63490166D02*
X77893774Y-62489812D01*
X77798502Y-62632719D01*
X77703230Y-62727991D01*
X77607958Y-62775627D01*
%TO.C,J2*%
X84311380Y-77168333D02*
X85025666Y-77168333D01*
X85168523Y-77215952D01*
X85263761Y-77311190D01*
X85311380Y-77454047D01*
X85311380Y-77549285D01*
X84406619Y-76739761D02*
X84359000Y-76692142D01*
X84311380Y-76596904D01*
X84311380Y-76358809D01*
X84359000Y-76263571D01*
X84406619Y-76215952D01*
X84501857Y-76168333D01*
X84597095Y-76168333D01*
X84739952Y-76215952D01*
X85311380Y-76787380D01*
X85311380Y-76168333D01*
%TO.C,J1*%
X14311380Y-77168333D02*
X15025666Y-77168333D01*
X15168523Y-77215952D01*
X15263761Y-77311190D01*
X15311380Y-77454047D01*
X15311380Y-77549285D01*
X15311380Y-76168333D02*
X15311380Y-76739761D01*
X15311380Y-76454047D02*
X14311380Y-76454047D01*
X14454238Y-76549285D01*
X14549476Y-76644523D01*
X14597095Y-76739761D01*
%TO.C,D1*%
X72842904Y-16248380D02*
X72842904Y-15248380D01*
X73081000Y-15248380D01*
X73223857Y-15296000D01*
X73319095Y-15391238D01*
X73366714Y-15486476D01*
X73414333Y-15676952D01*
X73414333Y-15819809D01*
X73366714Y-16010285D01*
X73319095Y-16105523D01*
X73223857Y-16200761D01*
X73081000Y-16248380D01*
X72842904Y-16248380D01*
X74366714Y-16248380D02*
X73795285Y-16248380D01*
X74081000Y-16248380D02*
X74081000Y-15248380D01*
X73985761Y-15391238D01*
X73890523Y-15486476D01*
X73795285Y-15534095D01*
%TO.C,C1*%
X56089253Y-70532262D02*
X56041634Y-70579881D01*
X55898777Y-70627500D01*
X55803539Y-70627500D01*
X55660681Y-70579881D01*
X55565443Y-70484643D01*
X55517824Y-70389405D01*
X55470205Y-70198929D01*
X55470205Y-70056072D01*
X55517824Y-69865596D01*
X55565443Y-69770358D01*
X55660681Y-69675120D01*
X55803539Y-69627500D01*
X55898777Y-69627500D01*
X56041634Y-69675120D01*
X56089253Y-69722739D01*
X57041634Y-70627500D02*
X56470205Y-70627500D01*
X56755920Y-70627500D02*
X56755920Y-69627500D01*
X56660681Y-69770358D01*
X56565443Y-69865596D01*
X56470205Y-69913215D01*
%TO.C,C2*%
X55835253Y-72767462D02*
X55787634Y-72815081D01*
X55644777Y-72862700D01*
X55549539Y-72862700D01*
X55406681Y-72815081D01*
X55311443Y-72719843D01*
X55263824Y-72624605D01*
X55216205Y-72434129D01*
X55216205Y-72291272D01*
X55263824Y-72100796D01*
X55311443Y-72005558D01*
X55406681Y-71910320D01*
X55549539Y-71862700D01*
X55644777Y-71862700D01*
X55787634Y-71910320D01*
X55835253Y-71957939D01*
X56216205Y-71957939D02*
X56263824Y-71910320D01*
X56359062Y-71862700D01*
X56597158Y-71862700D01*
X56692396Y-71910320D01*
X56740015Y-71957939D01*
X56787634Y-72053177D01*
X56787634Y-72148415D01*
X56740015Y-72291272D01*
X56168586Y-72862700D01*
X56787634Y-72862700D01*
%TO.C,ExtPower1*%
X66504761Y-4858571D02*
X66838095Y-4858571D01*
X66980952Y-5382380D02*
X66504761Y-5382380D01*
X66504761Y-4382380D01*
X66980952Y-4382380D01*
X67314285Y-5382380D02*
X67838095Y-4715714D01*
X67314285Y-4715714D02*
X67838095Y-5382380D01*
X68076190Y-4715714D02*
X68457142Y-4715714D01*
X68219047Y-4382380D02*
X68219047Y-5239523D01*
X68266666Y-5334761D01*
X68361904Y-5382380D01*
X68457142Y-5382380D01*
X68790476Y-5382380D02*
X68790476Y-4382380D01*
X69171428Y-4382380D01*
X69266666Y-4430000D01*
X69314285Y-4477619D01*
X69361904Y-4572857D01*
X69361904Y-4715714D01*
X69314285Y-4810952D01*
X69266666Y-4858571D01*
X69171428Y-4906190D01*
X68790476Y-4906190D01*
X69933333Y-5382380D02*
X69838095Y-5334761D01*
X69790476Y-5287142D01*
X69742857Y-5191904D01*
X69742857Y-4906190D01*
X69790476Y-4810952D01*
X69838095Y-4763333D01*
X69933333Y-4715714D01*
X70076190Y-4715714D01*
X70171428Y-4763333D01*
X70219047Y-4810952D01*
X70266666Y-4906190D01*
X70266666Y-5191904D01*
X70219047Y-5287142D01*
X70171428Y-5334761D01*
X70076190Y-5382380D01*
X69933333Y-5382380D01*
X70600000Y-4715714D02*
X70790476Y-5382380D01*
X70980952Y-4906190D01*
X71171428Y-5382380D01*
X71361904Y-4715714D01*
X72123809Y-5334761D02*
X72028571Y-5382380D01*
X71838095Y-5382380D01*
X71742857Y-5334761D01*
X71695238Y-5239523D01*
X71695238Y-4858571D01*
X71742857Y-4763333D01*
X71838095Y-4715714D01*
X72028571Y-4715714D01*
X72123809Y-4763333D01*
X72171428Y-4858571D01*
X72171428Y-4953809D01*
X71695238Y-5049047D01*
X72600000Y-5382380D02*
X72600000Y-4715714D01*
X72600000Y-4906190D02*
X72647619Y-4810952D01*
X72695238Y-4763333D01*
X72790476Y-4715714D01*
X72885714Y-4715714D01*
X73742857Y-5382380D02*
X73171428Y-5382380D01*
X73457142Y-5382380D02*
X73457142Y-4382380D01*
X73361904Y-4525238D01*
X73266666Y-4620476D01*
X73171428Y-4668095D01*
%TO.C,R2*%
X28533333Y-42752380D02*
X28200000Y-42276190D01*
X27961904Y-42752380D02*
X27961904Y-41752380D01*
X28342857Y-41752380D01*
X28438095Y-41800000D01*
X28485714Y-41847619D01*
X28533333Y-41942857D01*
X28533333Y-42085714D01*
X28485714Y-42180952D01*
X28438095Y-42228571D01*
X28342857Y-42276190D01*
X27961904Y-42276190D01*
X28914285Y-41847619D02*
X28961904Y-41800000D01*
X29057142Y-41752380D01*
X29295238Y-41752380D01*
X29390476Y-41800000D01*
X29438095Y-41847619D01*
X29485714Y-41942857D01*
X29485714Y-42038095D01*
X29438095Y-42180952D01*
X28866666Y-42752380D01*
X29485714Y-42752380D01*
%TO.C,R7*%
X70433333Y-39452380D02*
X70100000Y-38976190D01*
X69861904Y-39452380D02*
X69861904Y-38452380D01*
X70242857Y-38452380D01*
X70338095Y-38500000D01*
X70385714Y-38547619D01*
X70433333Y-38642857D01*
X70433333Y-38785714D01*
X70385714Y-38880952D01*
X70338095Y-38928571D01*
X70242857Y-38976190D01*
X69861904Y-38976190D01*
X70766666Y-38452380D02*
X71433333Y-38452380D01*
X71004761Y-39452380D01*
%TO.C,R6*%
X70433333Y-37265780D02*
X70100000Y-36789590D01*
X69861904Y-37265780D02*
X69861904Y-36265780D01*
X70242857Y-36265780D01*
X70338095Y-36313400D01*
X70385714Y-36361019D01*
X70433333Y-36456257D01*
X70433333Y-36599114D01*
X70385714Y-36694352D01*
X70338095Y-36741971D01*
X70242857Y-36789590D01*
X69861904Y-36789590D01*
X71290476Y-36265780D02*
X71100000Y-36265780D01*
X71004761Y-36313400D01*
X70957142Y-36361019D01*
X70861904Y-36503876D01*
X70814285Y-36694352D01*
X70814285Y-37075304D01*
X70861904Y-37170542D01*
X70909523Y-37218161D01*
X71004761Y-37265780D01*
X71195238Y-37265780D01*
X71290476Y-37218161D01*
X71338095Y-37170542D01*
X71385714Y-37075304D01*
X71385714Y-36837209D01*
X71338095Y-36741971D01*
X71290476Y-36694352D01*
X71195238Y-36646733D01*
X71004761Y-36646733D01*
X70909523Y-36694352D01*
X70861904Y-36741971D01*
X70814285Y-36837209D01*
%TO.C,R1*%
X28433333Y-34952380D02*
X28100000Y-34476190D01*
X27861904Y-34952380D02*
X27861904Y-33952380D01*
X28242857Y-33952380D01*
X28338095Y-34000000D01*
X28385714Y-34047619D01*
X28433333Y-34142857D01*
X28433333Y-34285714D01*
X28385714Y-34380952D01*
X28338095Y-34428571D01*
X28242857Y-34476190D01*
X27861904Y-34476190D01*
X29385714Y-34952380D02*
X28814285Y-34952380D01*
X29100000Y-34952380D02*
X29100000Y-33952380D01*
X29004761Y-34095238D01*
X28909523Y-34190476D01*
X28814285Y-34238095D01*
%TO.C,R5*%
X70333333Y-35079180D02*
X70000000Y-34602990D01*
X69761904Y-35079180D02*
X69761904Y-34079180D01*
X70142857Y-34079180D01*
X70238095Y-34126800D01*
X70285714Y-34174419D01*
X70333333Y-34269657D01*
X70333333Y-34412514D01*
X70285714Y-34507752D01*
X70238095Y-34555371D01*
X70142857Y-34602990D01*
X69761904Y-34602990D01*
X71238095Y-34079180D02*
X70761904Y-34079180D01*
X70714285Y-34555371D01*
X70761904Y-34507752D01*
X70857142Y-34460133D01*
X71095238Y-34460133D01*
X71190476Y-34507752D01*
X71238095Y-34555371D01*
X71285714Y-34650609D01*
X71285714Y-34888704D01*
X71238095Y-34983942D01*
X71190476Y-35031561D01*
X71095238Y-35079180D01*
X70857142Y-35079180D01*
X70761904Y-35031561D01*
X70714285Y-34983942D01*
%TO.C,R4*%
X70233333Y-32892580D02*
X69900000Y-32416390D01*
X69661904Y-32892580D02*
X69661904Y-31892580D01*
X70042857Y-31892580D01*
X70138095Y-31940200D01*
X70185714Y-31987819D01*
X70233333Y-32083057D01*
X70233333Y-32225914D01*
X70185714Y-32321152D01*
X70138095Y-32368771D01*
X70042857Y-32416390D01*
X69661904Y-32416390D01*
X71090476Y-32225914D02*
X71090476Y-32892580D01*
X70852380Y-31844961D02*
X70614285Y-32559247D01*
X71233333Y-32559247D01*
%TO.C,R3*%
X70233333Y-30705980D02*
X69900000Y-30229790D01*
X69661904Y-30705980D02*
X69661904Y-29705980D01*
X70042857Y-29705980D01*
X70138095Y-29753600D01*
X70185714Y-29801219D01*
X70233333Y-29896457D01*
X70233333Y-30039314D01*
X70185714Y-30134552D01*
X70138095Y-30182171D01*
X70042857Y-30229790D01*
X69661904Y-30229790D01*
X70566666Y-29705980D02*
X71185714Y-29705980D01*
X70852380Y-30086933D01*
X70995238Y-30086933D01*
X71090476Y-30134552D01*
X71138095Y-30182171D01*
X71185714Y-30277409D01*
X71185714Y-30515504D01*
X71138095Y-30610742D01*
X71090476Y-30658361D01*
X70995238Y-30705980D01*
X70709523Y-30705980D01*
X70614285Y-30658361D01*
X70566666Y-30610742D01*
%TO.C,SCL1*%
D12*
X48511193Y-61579819D02*
X48583764Y-61604009D01*
X48704717Y-61604009D01*
X48753098Y-61579819D01*
X48777288Y-61555628D01*
X48801479Y-61507247D01*
X48801479Y-61458866D01*
X48777288Y-61410485D01*
X48753098Y-61386295D01*
X48704717Y-61362104D01*
X48607955Y-61337914D01*
X48559574Y-61313723D01*
X48535383Y-61289533D01*
X48511193Y-61241152D01*
X48511193Y-61192771D01*
X48535383Y-61144390D01*
X48559574Y-61120200D01*
X48607955Y-61096009D01*
X48728907Y-61096009D01*
X48801479Y-61120200D01*
X49309479Y-61555628D02*
X49285288Y-61579819D01*
X49212717Y-61604009D01*
X49164336Y-61604009D01*
X49091764Y-61579819D01*
X49043383Y-61531438D01*
X49019193Y-61483057D01*
X48995002Y-61386295D01*
X48995002Y-61313723D01*
X49019193Y-61216961D01*
X49043383Y-61168580D01*
X49091764Y-61120200D01*
X49164336Y-61096009D01*
X49212717Y-61096009D01*
X49285288Y-61120200D01*
X49309479Y-61144390D01*
X49769098Y-61604009D02*
X49527193Y-61604009D01*
X49527193Y-61096009D01*
X50204526Y-61604009D02*
X49914240Y-61604009D01*
X50059383Y-61604009D02*
X50059383Y-61096009D01*
X50011002Y-61168580D01*
X49962621Y-61216961D01*
X49914240Y-61241152D01*
%TO.C,SCL_EXT1*%
X42652431Y-61579819D02*
X42725002Y-61604009D01*
X42845955Y-61604009D01*
X42894336Y-61579819D01*
X42918526Y-61555628D01*
X42942717Y-61507247D01*
X42942717Y-61458866D01*
X42918526Y-61410485D01*
X42894336Y-61386295D01*
X42845955Y-61362104D01*
X42749193Y-61337914D01*
X42700812Y-61313723D01*
X42676621Y-61289533D01*
X42652431Y-61241152D01*
X42652431Y-61192771D01*
X42676621Y-61144390D01*
X42700812Y-61120200D01*
X42749193Y-61096009D01*
X42870145Y-61096009D01*
X42942717Y-61120200D01*
X43450717Y-61555628D02*
X43426526Y-61579819D01*
X43353955Y-61604009D01*
X43305574Y-61604009D01*
X43233002Y-61579819D01*
X43184621Y-61531438D01*
X43160431Y-61483057D01*
X43136240Y-61386295D01*
X43136240Y-61313723D01*
X43160431Y-61216961D01*
X43184621Y-61168580D01*
X43233002Y-61120200D01*
X43305574Y-61096009D01*
X43353955Y-61096009D01*
X43426526Y-61120200D01*
X43450717Y-61144390D01*
X43910336Y-61604009D02*
X43668431Y-61604009D01*
X43668431Y-61096009D01*
X43958717Y-61652390D02*
X44345764Y-61652390D01*
X44466717Y-61337914D02*
X44636050Y-61337914D01*
X44708621Y-61604009D02*
X44466717Y-61604009D01*
X44466717Y-61096009D01*
X44708621Y-61096009D01*
X44877955Y-61096009D02*
X45216621Y-61604009D01*
X45216621Y-61096009D02*
X44877955Y-61604009D01*
X45337574Y-61096009D02*
X45627860Y-61096009D01*
X45482717Y-61604009D02*
X45482717Y-61096009D01*
X46063288Y-61604009D02*
X45773002Y-61604009D01*
X45918145Y-61604009D02*
X45918145Y-61096009D01*
X45869764Y-61168580D01*
X45821383Y-61216961D01*
X45773002Y-61241152D01*
%TO.C,SDA1*%
X48599098Y-67509819D02*
X48671669Y-67534009D01*
X48792621Y-67534009D01*
X48841002Y-67509819D01*
X48865193Y-67485628D01*
X48889383Y-67437247D01*
X48889383Y-67388866D01*
X48865193Y-67340485D01*
X48841002Y-67316295D01*
X48792621Y-67292104D01*
X48695860Y-67267914D01*
X48647479Y-67243723D01*
X48623288Y-67219533D01*
X48599098Y-67171152D01*
X48599098Y-67122771D01*
X48623288Y-67074390D01*
X48647479Y-67050200D01*
X48695860Y-67026009D01*
X48816812Y-67026009D01*
X48889383Y-67050200D01*
X49107098Y-67534009D02*
X49107098Y-67026009D01*
X49228050Y-67026009D01*
X49300621Y-67050200D01*
X49349002Y-67098580D01*
X49373193Y-67146961D01*
X49397383Y-67243723D01*
X49397383Y-67316295D01*
X49373193Y-67413057D01*
X49349002Y-67461438D01*
X49300621Y-67509819D01*
X49228050Y-67534009D01*
X49107098Y-67534009D01*
X49590907Y-67388866D02*
X49832812Y-67388866D01*
X49542526Y-67534009D02*
X49711860Y-67026009D01*
X49881193Y-67534009D01*
X50316621Y-67534009D02*
X50026336Y-67534009D01*
X50171479Y-67534009D02*
X50171479Y-67026009D01*
X50123098Y-67098580D01*
X50074717Y-67146961D01*
X50026336Y-67171152D01*
%TO.C,SDA_EXT1*%
X42640336Y-67609819D02*
X42712907Y-67634009D01*
X42833860Y-67634009D01*
X42882240Y-67609819D01*
X42906431Y-67585628D01*
X42930621Y-67537247D01*
X42930621Y-67488866D01*
X42906431Y-67440485D01*
X42882240Y-67416295D01*
X42833860Y-67392104D01*
X42737098Y-67367914D01*
X42688717Y-67343723D01*
X42664526Y-67319533D01*
X42640336Y-67271152D01*
X42640336Y-67222771D01*
X42664526Y-67174390D01*
X42688717Y-67150200D01*
X42737098Y-67126009D01*
X42858050Y-67126009D01*
X42930621Y-67150200D01*
X43148336Y-67634009D02*
X43148336Y-67126009D01*
X43269288Y-67126009D01*
X43341860Y-67150200D01*
X43390240Y-67198580D01*
X43414431Y-67246961D01*
X43438621Y-67343723D01*
X43438621Y-67416295D01*
X43414431Y-67513057D01*
X43390240Y-67561438D01*
X43341860Y-67609819D01*
X43269288Y-67634009D01*
X43148336Y-67634009D01*
X43632145Y-67488866D02*
X43874050Y-67488866D01*
X43583764Y-67634009D02*
X43753098Y-67126009D01*
X43922431Y-67634009D01*
X43970812Y-67682390D02*
X44357860Y-67682390D01*
X44478812Y-67367914D02*
X44648145Y-67367914D01*
X44720717Y-67634009D02*
X44478812Y-67634009D01*
X44478812Y-67126009D01*
X44720717Y-67126009D01*
X44890050Y-67126009D02*
X45228717Y-67634009D01*
X45228717Y-67126009D02*
X44890050Y-67634009D01*
X45349669Y-67126009D02*
X45639955Y-67126009D01*
X45494812Y-67634009D02*
X45494812Y-67126009D01*
X46075383Y-67634009D02*
X45785098Y-67634009D01*
X45930240Y-67634009D02*
X45930240Y-67126009D01*
X45881860Y-67198580D01*
X45833479Y-67246961D01*
X45785098Y-67271152D01*
%TO.C,R8*%
D10*
X75830133Y-54241980D02*
X75496800Y-53765790D01*
X75258704Y-54241980D02*
X75258704Y-53241980D01*
X75639657Y-53241980D01*
X75734895Y-53289600D01*
X75782514Y-53337219D01*
X75830133Y-53432457D01*
X75830133Y-53575314D01*
X75782514Y-53670552D01*
X75734895Y-53718171D01*
X75639657Y-53765790D01*
X75258704Y-53765790D01*
X76401561Y-53670552D02*
X76306323Y-53622933D01*
X76258704Y-53575314D01*
X76211085Y-53480076D01*
X76211085Y-53432457D01*
X76258704Y-53337219D01*
X76306323Y-53289600D01*
X76401561Y-53241980D01*
X76592038Y-53241980D01*
X76687276Y-53289600D01*
X76734895Y-53337219D01*
X76782514Y-53432457D01*
X76782514Y-53480076D01*
X76734895Y-53575314D01*
X76687276Y-53622933D01*
X76592038Y-53670552D01*
X76401561Y-53670552D01*
X76306323Y-53718171D01*
X76258704Y-53765790D01*
X76211085Y-53861028D01*
X76211085Y-54051504D01*
X76258704Y-54146742D01*
X76306323Y-54194361D01*
X76401561Y-54241980D01*
X76592038Y-54241980D01*
X76687276Y-54194361D01*
X76734895Y-54146742D01*
X76782514Y-54051504D01*
X76782514Y-53861028D01*
X76734895Y-53765790D01*
X76687276Y-53718171D01*
X76592038Y-53670552D01*
%TO.C,R9*%
X75931733Y-67500780D02*
X75598400Y-67024590D01*
X75360304Y-67500780D02*
X75360304Y-66500780D01*
X75741257Y-66500780D01*
X75836495Y-66548400D01*
X75884114Y-66596019D01*
X75931733Y-66691257D01*
X75931733Y-66834114D01*
X75884114Y-66929352D01*
X75836495Y-66976971D01*
X75741257Y-67024590D01*
X75360304Y-67024590D01*
X76407923Y-67500780D02*
X76598400Y-67500780D01*
X76693638Y-67453161D01*
X76741257Y-67405542D01*
X76836495Y-67262685D01*
X76884114Y-67072209D01*
X76884114Y-66691257D01*
X76836495Y-66596019D01*
X76788876Y-66548400D01*
X76693638Y-66500780D01*
X76503161Y-66500780D01*
X76407923Y-66548400D01*
X76360304Y-66596019D01*
X76312685Y-66691257D01*
X76312685Y-66929352D01*
X76360304Y-67024590D01*
X76407923Y-67072209D01*
X76503161Y-67119828D01*
X76693638Y-67119828D01*
X76788876Y-67072209D01*
X76836495Y-67024590D01*
X76884114Y-66929352D01*
%TO.C,R10*%
X72890142Y-27089380D02*
X72556809Y-26613190D01*
X72318714Y-27089380D02*
X72318714Y-26089380D01*
X72699666Y-26089380D01*
X72794904Y-26137000D01*
X72842523Y-26184619D01*
X72890142Y-26279857D01*
X72890142Y-26422714D01*
X72842523Y-26517952D01*
X72794904Y-26565571D01*
X72699666Y-26613190D01*
X72318714Y-26613190D01*
X73842523Y-27089380D02*
X73271095Y-27089380D01*
X73556809Y-27089380D02*
X73556809Y-26089380D01*
X73461571Y-26232238D01*
X73366333Y-26327476D01*
X73271095Y-26375095D01*
X74461571Y-26089380D02*
X74556809Y-26089380D01*
X74652047Y-26137000D01*
X74699666Y-26184619D01*
X74747285Y-26279857D01*
X74794904Y-26470333D01*
X74794904Y-26708428D01*
X74747285Y-26898904D01*
X74699666Y-26994142D01*
X74652047Y-27041761D01*
X74556809Y-27089380D01*
X74461571Y-27089380D01*
X74366333Y-27041761D01*
X74318714Y-26994142D01*
X74271095Y-26898904D01*
X74223476Y-26708428D01*
X74223476Y-26470333D01*
X74271095Y-26279857D01*
X74318714Y-26184619D01*
X74366333Y-26137000D01*
X74461571Y-26089380D01*
%TD*%
M02*
