M48
; DRILL file {KiCad (5.1.9)-1} date 04/15/23 18:22:46
; FORMAT={-:-/ absolute / inch / decimal}
; #@! TF.CreationDate,2023-04-15T18:22:46-04:00
; #@! TF.GenerationSoftware,Kicad,Pcbnew,(5.1.9)-1
; #@! TF.FileFunction,Plated,1,2,PTH
FMAT,2
INCH
T1C0.0079
T2C0.0382
T3C0.0394
T4C0.0409
T5C0.0433
T6C0.0630
%
G90
G05
T1
X0.4795Y-3.3288
X0.4795Y-3.3788
X0.4795Y-3.4288
X0.4795Y-3.4788
X0.4795Y-3.5288
X0.4795Y-3.5788
X0.5295Y-3.3288
X0.5295Y-3.3788
X0.5295Y-3.4288
X0.5295Y-3.4788
X0.5295Y-3.5288
X0.5295Y-3.5788
X0.5795Y-3.3288
X0.5795Y-3.3788
X0.5795Y-3.4288
X0.5795Y-3.4788
X0.5795Y-3.5288
X0.5795Y-3.5788
X0.7042Y-0.3415
X0.7042Y-0.3915
X0.7042Y-0.4415
X0.7042Y-0.4915
X0.7042Y-0.5415
X0.7042Y-0.5915
X0.7542Y-0.3415
X0.7542Y-0.3915
X0.7542Y-0.4415
X0.7542Y-0.4915
X0.7542Y-0.5415
X0.7542Y-0.5915
X0.8042Y-0.3415
X0.8042Y-0.3915
X0.8042Y-0.4415
X0.8042Y-0.4915
X0.8042Y-0.5415
X0.8042Y-0.5915
X1.163Y-2.9048
X1.2Y-2.6736
X1.2038Y-2.6092
X1.212Y-3.5612
X1.212Y-3.6612
X1.312Y-3.5612
X1.312Y-3.6612
X1.6134Y-2.583
X1.6157Y-2.473
X1.6358Y-3.2683
X2.2739Y-2.4096
X2.357Y-2.9164
X2.59Y-2.755
X2.7794Y-1.7589
X3.01Y-1.536
X3.0231Y-1.3608
X3.0234Y-1.1907
X3.024Y-2.248
X3.0266Y-1.4551
X3.03Y-2.764
X3.031Y-1.2683
X3.1542Y-0.3415
X3.1542Y-0.3915
X3.1542Y-0.4415
X3.1542Y-0.4915
X3.1542Y-0.5415
X3.1542Y-0.5915
X3.2042Y-0.3415
X3.2042Y-0.3915
X3.2042Y-0.4415
X3.2042Y-0.4915
X3.2042Y-0.5415
X3.2042Y-0.5915
X3.2542Y-0.3415
X3.2542Y-0.3915
X3.2542Y-0.4415
X3.2542Y-0.4915
X3.2542Y-0.5415
X3.2542Y-0.5915
X3.3849Y-3.3352
X3.3849Y-3.3852
X3.3849Y-3.4352
X3.3849Y-3.4852
X3.3849Y-3.5352
X3.3849Y-3.5852
X3.4349Y-3.3352
X3.4349Y-3.3852
X3.4349Y-3.4352
X3.4349Y-3.4852
X3.4349Y-3.5352
X3.4349Y-3.5852
X3.4849Y-3.3352
X3.4849Y-3.3852
X3.4849Y-3.4352
X3.4849Y-3.4852
X3.4849Y-3.5352
X3.4849Y-3.5852
T2
X0.5406Y-1.0185
X0.5406Y-1.1185
X0.5406Y-1.2185
X0.5406Y-1.3185
X0.5406Y-1.4185
X0.5406Y-1.5185
X0.5406Y-1.6185
X0.5406Y-1.7185
X0.5406Y-1.8185
X0.5406Y-1.9185
X0.5406Y-2.0185
X0.5406Y-2.1185
X0.5406Y-2.2185
X0.5406Y-2.3185
X0.5406Y-2.4185
X0.5406Y-2.5185
X0.5406Y-2.6185
X0.5406Y-2.7185
X0.5406Y-2.8185
X0.5406Y-2.9185
X0.6406Y-1.0185
X0.6406Y-1.1185
X0.6406Y-1.2185
X0.6406Y-1.3185
X0.6406Y-1.4185
X0.6406Y-1.5185
X0.6406Y-1.6185
X0.6406Y-1.7185
X0.6406Y-1.8185
X0.6406Y-1.9185
X0.6406Y-2.0185
X0.6406Y-2.1185
X0.6406Y-2.2185
X0.6406Y-2.3185
X0.6406Y-2.4185
X0.6406Y-2.5185
X0.6406Y-2.6185
X0.6406Y-2.7185
X0.6406Y-2.8185
X0.6406Y-2.9185
X3.2965Y-1.0185
X3.2965Y-1.1185
X3.2965Y-1.2185
X3.2965Y-1.3185
X3.2965Y-1.4185
X3.2965Y-1.5185
X3.2965Y-1.6185
X3.2965Y-1.7185
X3.2965Y-1.8185
X3.2965Y-1.9185
X3.2965Y-2.0185
X3.2965Y-2.1185
X3.2965Y-2.2185
X3.2965Y-2.3185
X3.2965Y-2.4185
X3.2965Y-2.5185
X3.2965Y-2.6185
X3.2965Y-2.7185
X3.2965Y-2.8185
X3.2965Y-2.9185
X3.3965Y-1.0185
X3.3965Y-1.1185
X3.3965Y-1.2185
X3.3965Y-1.3185
X3.3965Y-1.4185
X3.3965Y-1.5185
X3.3965Y-1.6185
X3.3965Y-1.7185
X3.3965Y-1.8185
X3.3965Y-1.9185
X3.3965Y-2.0185
X3.3965Y-2.1185
X3.3965Y-2.2185
X3.3965Y-2.3185
X3.3965Y-2.4185
X3.3965Y-2.5185
X3.3965Y-2.6185
X3.3965Y-2.7185
X3.3965Y-2.8185
X3.3965Y-2.9185
T3
X0.9216Y-3.1374
X0.9216Y-3.2374
X1.0703Y-0.1008
T4
X1.4685Y-0.0606
X1.4685Y-0.1606
X1.4685Y-0.2606
X1.4685Y-0.3606
X1.4685Y-0.4606
X1.4685Y-0.5606
X1.4685Y-0.6606
X1.4685Y-0.7606
X1.4685Y-0.8606
X1.4685Y-0.9606
X1.4685Y-1.0606
X1.4685Y-1.1606
X1.4685Y-1.2606
X1.4685Y-1.3606
X1.4685Y-1.4606
X1.4685Y-1.5606
X1.4685Y-1.6606
X1.4685Y-1.7606
X1.4685Y-1.8606
X2.4685Y-0.0606
X2.4685Y-0.1606
X2.4685Y-0.2606
X2.4685Y-0.3606
X2.4685Y-0.4606
X2.4685Y-0.5606
X2.4685Y-0.6606
X2.4685Y-0.7606
X2.4685Y-0.8606
X2.4685Y-0.9606
X2.4685Y-1.0606
X2.4685Y-1.1606
X2.4685Y-1.2606
X2.4685Y-1.3606
X2.4685Y-1.4606
X2.4685Y-1.5606
X2.4685Y-1.6606
X2.4685Y-1.7606
X2.4685Y-1.8606
T5
X1.874Y-3.766
X2.074Y-3.766
T6
X2.3407Y-3.3759
X2.3407Y-3.7665
X2.4746Y-3.3759
X2.4746Y-3.7665
T0
M30
