M48
; DRILL file {KiCad (5.1.9)-1} date 12/22/21 11:22:21
; FORMAT={-:-/ absolute / inch / decimal}
; #@! TF.CreationDate,2021-12-22T11:22:21-05:00
; #@! TF.GenerationSoftware,Kicad,Pcbnew,(5.1.9)-1
; #@! TF.FileFunction,Plated,1,2,PTH
FMAT,2
INCH
T1C0.0079
T2C0.0157
T3C0.0382
T4C0.0409
T5C0.0433
%
G90
G05
T1
X0.7042Y-0.3415
X0.7042Y-0.3915
X0.7042Y-0.4415
X0.7042Y-0.4915
X0.7042Y-0.5415
X0.7042Y-0.5915
X0.7062Y-3.3255
X0.7062Y-3.3755
X0.7062Y-3.4255
X0.7062Y-3.4755
X0.7062Y-3.5255
X0.7062Y-3.5755
X0.7542Y-0.3415
X0.7542Y-0.3915
X0.7542Y-0.4415
X0.7542Y-0.4915
X0.7542Y-0.5415
X0.7542Y-0.5915
X0.7562Y-3.3255
X0.7562Y-3.3755
X0.7562Y-3.4255
X0.7562Y-3.4755
X0.7562Y-3.5255
X0.7562Y-3.5755
X0.8042Y-0.3415
X0.8042Y-0.3915
X0.8042Y-0.4415
X0.8042Y-0.4915
X0.8042Y-0.5415
X0.8042Y-0.5915
X0.8062Y-3.3255
X0.8062Y-3.3755
X0.8062Y-3.4255
X0.8062Y-3.4755
X0.8062Y-3.5255
X0.8062Y-3.5755
X1.115Y-2.65
X1.115Y-2.76
X1.748Y-2.5866
X1.7559Y-2.8858
X2.59Y-2.755
X3.01Y-1.536
X3.016Y-1.44
X3.022Y-1.338
X3.024Y-2.248
X3.026Y-1.262
X3.03Y-1.18
X3.03Y-2.764
X3.1482Y-3.3295
X3.1482Y-3.3795
X3.1482Y-3.4295
X3.1482Y-3.4795
X3.1482Y-3.5295
X3.1482Y-3.5795
X3.1542Y-0.3415
X3.1542Y-0.3915
X3.1542Y-0.4415
X3.1542Y-0.4915
X3.1542Y-0.5415
X3.1542Y-0.5915
X3.1982Y-3.3295
X3.1982Y-3.3795
X3.1982Y-3.4295
X3.1982Y-3.4795
X3.1982Y-3.5295
X3.1982Y-3.5795
X3.2042Y-0.3415
X3.2042Y-0.3915
X3.2042Y-0.4415
X3.2042Y-0.4915
X3.2042Y-0.5415
X3.2042Y-0.5915
X3.2482Y-3.3295
X3.2482Y-3.3795
X3.2482Y-3.4295
X3.2482Y-3.4795
X3.2482Y-3.5295
X3.2482Y-3.5795
X3.2542Y-0.3415
X3.2542Y-0.3915
X3.2542Y-0.4415
X3.2542Y-0.4915
X3.2542Y-0.5415
X3.2542Y-0.5915
T2
X1.986Y-3.06
T3
X0.5406Y-1.0185
X0.5406Y-1.1185
X0.5406Y-1.2185
X0.5406Y-1.3185
X0.5406Y-1.4185
X0.5406Y-1.5185
X0.5406Y-1.6185
X0.5406Y-1.7185
X0.5406Y-1.8185
X0.5406Y-1.9185
X0.5406Y-2.0185
X0.5406Y-2.1185
X0.5406Y-2.2185
X0.5406Y-2.3185
X0.5406Y-2.4185
X0.5406Y-2.5185
X0.5406Y-2.6185
X0.5406Y-2.7185
X0.5406Y-2.8185
X0.5406Y-2.9185
X0.6406Y-1.0185
X0.6406Y-1.1185
X0.6406Y-1.2185
X0.6406Y-1.3185
X0.6406Y-1.4185
X0.6406Y-1.5185
X0.6406Y-1.6185
X0.6406Y-1.7185
X0.6406Y-1.8185
X0.6406Y-1.9185
X0.6406Y-2.0185
X0.6406Y-2.1185
X0.6406Y-2.2185
X0.6406Y-2.3185
X0.6406Y-2.4185
X0.6406Y-2.5185
X0.6406Y-2.6185
X0.6406Y-2.7185
X0.6406Y-2.8185
X0.6406Y-2.9185
X3.2965Y-1.0185
X3.2965Y-1.1185
X3.2965Y-1.2185
X3.2965Y-1.3185
X3.2965Y-1.4185
X3.2965Y-1.5185
X3.2965Y-1.6185
X3.2965Y-1.7185
X3.2965Y-1.8185
X3.2965Y-1.9185
X3.2965Y-2.0185
X3.2965Y-2.1185
X3.2965Y-2.2185
X3.2965Y-2.3185
X3.2965Y-2.4185
X3.2965Y-2.5185
X3.2965Y-2.6185
X3.2965Y-2.7185
X3.2965Y-2.8185
X3.2965Y-2.9185
X3.3965Y-1.0185
X3.3965Y-1.1185
X3.3965Y-1.2185
X3.3965Y-1.3185
X3.3965Y-1.4185
X3.3965Y-1.5185
X3.3965Y-1.6185
X3.3965Y-1.7185
X3.3965Y-1.8185
X3.3965Y-1.9185
X3.3965Y-2.0185
X3.3965Y-2.1185
X3.3965Y-2.2185
X3.3965Y-2.3185
X3.3965Y-2.4185
X3.3965Y-2.5185
X3.3965Y-2.6185
X3.3965Y-2.7185
X3.3965Y-2.8185
X3.3965Y-2.9185
T4
X1.4685Y-0.0606
X1.4685Y-0.1606
X1.4685Y-0.2606
X1.4685Y-0.3606
X1.4685Y-0.4606
X1.4685Y-0.5606
X1.4685Y-0.6606
X1.4685Y-0.7606
X1.4685Y-0.8606
X1.4685Y-0.9606
X1.4685Y-1.0606
X1.4685Y-1.1606
X1.4685Y-1.2606
X1.4685Y-1.3606
X1.4685Y-1.4606
X1.4685Y-1.5606
X1.4685Y-1.6606
X1.4685Y-1.7606
X1.4685Y-1.8606
X2.4685Y-0.0606
X2.4685Y-0.1606
X2.4685Y-0.2606
X2.4685Y-0.3606
X2.4685Y-0.4606
X2.4685Y-0.5606
X2.4685Y-0.6606
X2.4685Y-0.7606
X2.4685Y-0.8606
X2.4685Y-0.9606
X2.4685Y-1.0606
X2.4685Y-1.1606
X2.4685Y-1.2606
X2.4685Y-1.3606
X2.4685Y-1.4606
X2.4685Y-1.5606
X2.4685Y-1.6606
X2.4685Y-1.7606
X2.4685Y-1.8606
T5
X1.874Y-3.766
X2.074Y-3.766
T0
M30
