%TF.GenerationSoftware,KiCad,Pcbnew,(5.1.9)-1*%
%TF.CreationDate,2021-12-22T11:31:27-05:00*%
%TF.ProjectId,ESP backpack,45535020-6261-4636-9b70-61636b2e6b69,rev?*%
%TF.SameCoordinates,Original*%
%TF.FileFunction,Soldermask,Top*%
%TF.FilePolarity,Negative*%
%FSLAX46Y46*%
G04 Gerber Fmt 4.6, Leading zero omitted, Abs format (unit mm)*
G04 Created by KiCad (PCBNEW (5.1.9)-1) date 2021-12-22 11:31:27*
%MOMM*%
%LPD*%
G01*
G04 APERTURE LIST*
%ADD10R,4.100000X2.000000*%
%ADD11R,4.099999X2.000000*%
%ADD12C,1.650000*%
%ADD13R,1.650000X1.650000*%
%ADD14R,1.560000X1.560000*%
%ADD15C,1.600000*%
%ADD16R,2.000000X1.200000*%
%ADD17R,2.150000X1.200000*%
%ADD18R,1.500000X1.200000*%
%ADD19R,1.500000X1.500000*%
%ADD20R,1.778000X1.270000*%
%ADD21C,1.651000*%
%ADD22R,0.805000X0.350000*%
%ADD23R,0.400000X0.805000*%
G04 APERTURE END LIST*
D10*
%TO.C,C10*%
X81298800Y-93421200D03*
D11*
X89998800Y-93421200D03*
%TD*%
%TO.C,C9*%
X89998800Y-82346800D03*
D10*
X81298800Y-82346800D03*
%TD*%
%TO.C,C8*%
X19031200Y-93421200D03*
D11*
X10331200Y-93421200D03*
%TD*%
D10*
%TO.C,C7*%
X19031200Y-82346800D03*
D11*
X10331200Y-82346800D03*
%TD*%
D10*
%TO.C,C6*%
X18980400Y-17627600D03*
D11*
X10280400Y-17627600D03*
%TD*%
D10*
%TO.C,C5*%
X19031200Y-6502400D03*
D11*
X10331200Y-6502400D03*
%TD*%
D10*
%TO.C,C4*%
X81298800Y-17627600D03*
D11*
X89998800Y-17627600D03*
%TD*%
D10*
%TO.C,C3*%
X81298800Y-6502400D03*
D11*
X89998800Y-6502400D03*
%TD*%
D12*
%TO.C,5VDC_IN1*%
X52679600Y-95656400D03*
D13*
X47599600Y-95656400D03*
%TD*%
D14*
%TO.C,U1*%
X62700000Y-47260000D03*
D15*
X62700000Y-44720000D03*
X62700000Y-1540000D03*
X62700000Y-42180000D03*
X62700000Y-39640000D03*
X62700000Y-37100000D03*
X62700000Y-34560000D03*
X62700000Y-32020000D03*
X62700000Y-29480000D03*
X62700000Y-26940000D03*
X62700000Y-24400000D03*
X62700000Y-21860000D03*
X62700000Y-19320000D03*
X62700000Y-16780000D03*
X62700000Y-14240000D03*
X62700000Y-11700000D03*
X62700000Y-9160000D03*
X62700000Y-6620000D03*
X62700000Y-4080000D03*
X37300000Y-47260000D03*
X37300000Y-44720000D03*
X37300000Y-42180000D03*
X37300000Y-39640000D03*
X37300000Y-37100000D03*
X37300000Y-34560000D03*
X37300000Y-32020000D03*
X37300000Y-29480000D03*
X37300000Y-26940000D03*
X37300000Y-24400000D03*
X37300000Y-21860000D03*
X37300000Y-19320000D03*
X37300000Y-16780000D03*
X37300000Y-14240000D03*
X37300000Y-11700000D03*
X37300000Y-9160000D03*
X37300000Y-6620000D03*
X37300000Y-4080000D03*
X37300000Y-1540000D03*
D16*
X64400000Y-47300000D03*
D17*
X61100000Y-44725000D03*
X61100000Y-39645000D03*
X61100000Y-34565000D03*
X61100000Y-29485000D03*
X61100000Y-24405000D03*
X61100000Y-19325000D03*
X61100000Y-14245000D03*
X61100000Y-9165000D03*
X61100000Y-4085000D03*
X64300000Y-42175000D03*
X64300000Y-37095000D03*
X64300000Y-32015000D03*
X64300000Y-26935000D03*
X64300000Y-21855000D03*
X64300000Y-16775000D03*
X64300000Y-11695000D03*
X64300000Y-6615000D03*
X64300000Y-1535000D03*
X35700000Y-1550000D03*
X38900000Y-4075000D03*
X38900000Y-9155000D03*
X38900000Y-44715000D03*
X38900000Y-24395000D03*
X35700000Y-6625000D03*
X38900000Y-39635000D03*
X38900000Y-14235000D03*
X38900000Y-19315000D03*
X38900000Y-34555000D03*
X38900000Y-29475000D03*
X35700000Y-26945000D03*
X35700000Y-11705000D03*
X35700000Y-42185000D03*
X35700000Y-21865000D03*
X35700000Y-16785000D03*
X35700000Y-37105000D03*
X35700000Y-47265000D03*
X35700000Y-32025000D03*
%TD*%
D18*
%TO.C,S1*%
X75030400Y-59882400D03*
X75030400Y-62382400D03*
X75030400Y-64882400D03*
X68530400Y-59882400D03*
X68530400Y-62382400D03*
X68530400Y-64882400D03*
%TD*%
D19*
%TO.C,D1*%
X75856000Y-17831000D03*
X75856000Y-21031000D03*
X70956000Y-21031000D03*
X70956000Y-17831000D03*
%TD*%
D20*
%TO.C,J1*%
X12300000Y-74130000D03*
X17700000Y-74130000D03*
D21*
X16270000Y-74130000D03*
X13730000Y-74130000D03*
D20*
X12280000Y-71590000D03*
X17670000Y-71590000D03*
D21*
X16270000Y-71590000D03*
X13730000Y-71590000D03*
D20*
X12280000Y-69050000D03*
X17670000Y-69050000D03*
D21*
X16270000Y-69050000D03*
X13730000Y-69050000D03*
D20*
X12280000Y-66510000D03*
X17670000Y-66510000D03*
D21*
X16270000Y-66510000D03*
X13730000Y-66510000D03*
D20*
X12280000Y-63970000D03*
X17670000Y-63970000D03*
D21*
X16270000Y-63970000D03*
X13730000Y-63970000D03*
D20*
X12280000Y-61430000D03*
X17670000Y-61430000D03*
D21*
X16270000Y-61430000D03*
X13730000Y-61430000D03*
D20*
X12280000Y-58890000D03*
X17670000Y-58890000D03*
D21*
X16270000Y-58890000D03*
X13730000Y-58890000D03*
D20*
X12280000Y-56350000D03*
X17670000Y-56350000D03*
D21*
X16270000Y-56350000D03*
X13730000Y-56350000D03*
D20*
X12280000Y-53810000D03*
X17670000Y-53810000D03*
D21*
X16270000Y-53810000D03*
X13730000Y-53810000D03*
D20*
X12280000Y-51270000D03*
X17670000Y-51270000D03*
D21*
X16270000Y-51270000D03*
X13730000Y-51270000D03*
D20*
X12280000Y-48730000D03*
X17670000Y-48730000D03*
D21*
X16270000Y-48730000D03*
X13730000Y-48730000D03*
D20*
X12280000Y-46190000D03*
X17670000Y-46190000D03*
D21*
X16270000Y-46190000D03*
X13730000Y-46190000D03*
D20*
X12280000Y-43650000D03*
X17670000Y-43650000D03*
D21*
X16270000Y-43650000D03*
X13730000Y-43650000D03*
D20*
X12280000Y-41110000D03*
X17670000Y-41110000D03*
D21*
X16270000Y-41110000D03*
X13730000Y-41110000D03*
D20*
X12280000Y-38570000D03*
X17670000Y-38570000D03*
D21*
X16270000Y-38570000D03*
X13730000Y-38570000D03*
D20*
X12280000Y-36030000D03*
X17670000Y-36030000D03*
D21*
X16270000Y-36030000D03*
X13730000Y-36030000D03*
D20*
X12280000Y-33490000D03*
X17670000Y-33490000D03*
D21*
X16270000Y-33490000D03*
X13730000Y-33490000D03*
D20*
X12280000Y-30950000D03*
X17670000Y-30950000D03*
D21*
X16270000Y-30950000D03*
X13730000Y-30950000D03*
D20*
X12280000Y-28410000D03*
X17670000Y-28410000D03*
D21*
X16270000Y-28410000D03*
X13730000Y-28410000D03*
D20*
X12280000Y-25870000D03*
X17670000Y-25870000D03*
D21*
X16270000Y-25870000D03*
X13730000Y-25870000D03*
%TD*%
%TO.C,J2*%
X83730000Y-25870000D03*
X86270000Y-25870000D03*
D20*
X87670000Y-25870000D03*
X82280000Y-25870000D03*
D21*
X83730000Y-28410000D03*
X86270000Y-28410000D03*
D20*
X87670000Y-28410000D03*
X82280000Y-28410000D03*
D21*
X83730000Y-30950000D03*
X86270000Y-30950000D03*
D20*
X87670000Y-30950000D03*
X82280000Y-30950000D03*
D21*
X83730000Y-33490000D03*
X86270000Y-33490000D03*
D20*
X87670000Y-33490000D03*
X82280000Y-33490000D03*
D21*
X83730000Y-36030000D03*
X86270000Y-36030000D03*
D20*
X87670000Y-36030000D03*
X82280000Y-36030000D03*
D21*
X83730000Y-38570000D03*
X86270000Y-38570000D03*
D20*
X87670000Y-38570000D03*
X82280000Y-38570000D03*
D21*
X83730000Y-41110000D03*
X86270000Y-41110000D03*
D20*
X87670000Y-41110000D03*
X82280000Y-41110000D03*
D21*
X83730000Y-43650000D03*
X86270000Y-43650000D03*
D20*
X87670000Y-43650000D03*
X82280000Y-43650000D03*
D21*
X83730000Y-46190000D03*
X86270000Y-46190000D03*
D20*
X87670000Y-46190000D03*
X82280000Y-46190000D03*
D21*
X83730000Y-48730000D03*
X86270000Y-48730000D03*
D20*
X87670000Y-48730000D03*
X82280000Y-48730000D03*
D21*
X83730000Y-51270000D03*
X86270000Y-51270000D03*
D20*
X87670000Y-51270000D03*
X82280000Y-51270000D03*
D21*
X83730000Y-53810000D03*
X86270000Y-53810000D03*
D20*
X87670000Y-53810000D03*
X82280000Y-53810000D03*
D21*
X83730000Y-56350000D03*
X86270000Y-56350000D03*
D20*
X87670000Y-56350000D03*
X82280000Y-56350000D03*
D21*
X83730000Y-58890000D03*
X86270000Y-58890000D03*
D20*
X87670000Y-58890000D03*
X82280000Y-58890000D03*
D21*
X83730000Y-61430000D03*
X86270000Y-61430000D03*
D20*
X87670000Y-61430000D03*
X82280000Y-61430000D03*
D21*
X83730000Y-63970000D03*
X86270000Y-63970000D03*
D20*
X87670000Y-63970000D03*
X82280000Y-63970000D03*
D21*
X83730000Y-66510000D03*
X86270000Y-66510000D03*
D20*
X87670000Y-66510000D03*
X82280000Y-66510000D03*
D21*
X83730000Y-69050000D03*
X86270000Y-69050000D03*
D20*
X87670000Y-69050000D03*
X82280000Y-69050000D03*
D21*
X83730000Y-71590000D03*
X86270000Y-71590000D03*
D20*
X87670000Y-71590000D03*
X82280000Y-71590000D03*
D21*
X83730000Y-74130000D03*
X86270000Y-74130000D03*
D20*
X87700000Y-74130000D03*
X82300000Y-74130000D03*
%TD*%
%TO.C,C1*%
G36*
G01*
X46975000Y-75250000D02*
X46975000Y-75750000D01*
G75*
G02*
X46750000Y-75975000I-225000J0D01*
G01*
X46300000Y-75975000D01*
G75*
G02*
X46075000Y-75750000I0J225000D01*
G01*
X46075000Y-75250000D01*
G75*
G02*
X46300000Y-75025000I225000J0D01*
G01*
X46750000Y-75025000D01*
G75*
G02*
X46975000Y-75250000I0J-225000D01*
G01*
G37*
G36*
G01*
X45425000Y-75250000D02*
X45425000Y-75750000D01*
G75*
G02*
X45200000Y-75975000I-225000J0D01*
G01*
X44750000Y-75975000D01*
G75*
G02*
X44525000Y-75750000I0J225000D01*
G01*
X44525000Y-75250000D01*
G75*
G02*
X44750000Y-75025000I225000J0D01*
G01*
X45200000Y-75025000D01*
G75*
G02*
X45425000Y-75250000I0J-225000D01*
G01*
G37*
%TD*%
%TO.C,C2*%
G36*
G01*
X47200000Y-77275000D02*
X47200000Y-78225000D01*
G75*
G02*
X46950000Y-78475000I-250000J0D01*
G01*
X46450000Y-78475000D01*
G75*
G02*
X46200000Y-78225000I0J250000D01*
G01*
X46200000Y-77275000D01*
G75*
G02*
X46450000Y-77025000I250000J0D01*
G01*
X46950000Y-77025000D01*
G75*
G02*
X47200000Y-77275000I0J-250000D01*
G01*
G37*
G36*
G01*
X45300000Y-77275000D02*
X45300000Y-78225000D01*
G75*
G02*
X45050000Y-78475000I-250000J0D01*
G01*
X44550000Y-78475000D01*
G75*
G02*
X44300000Y-78225000I0J250000D01*
G01*
X44300000Y-77275000D01*
G75*
G02*
X44550000Y-77025000I250000J0D01*
G01*
X45050000Y-77025000D01*
G75*
G02*
X45300000Y-77275000I0J-250000D01*
G01*
G37*
%TD*%
%TO.C,ExtPower1*%
G36*
G01*
X69675000Y-3225000D02*
X69675000Y-3775000D01*
G75*
G02*
X69475000Y-3975000I-200000J0D01*
G01*
X69075000Y-3975000D01*
G75*
G02*
X68875000Y-3775000I0J200000D01*
G01*
X68875000Y-3225000D01*
G75*
G02*
X69075000Y-3025000I200000J0D01*
G01*
X69475000Y-3025000D01*
G75*
G02*
X69675000Y-3225000I0J-200000D01*
G01*
G37*
G36*
G01*
X71325000Y-3225000D02*
X71325000Y-3775000D01*
G75*
G02*
X71125000Y-3975000I-200000J0D01*
G01*
X70725000Y-3975000D01*
G75*
G02*
X70525000Y-3775000I0J200000D01*
G01*
X70525000Y-3225000D01*
G75*
G02*
X70725000Y-3025000I200000J0D01*
G01*
X71125000Y-3025000D01*
G75*
G02*
X71325000Y-3225000I0J-200000D01*
G01*
G37*
%TD*%
%TO.C,R2*%
G36*
G01*
X32725000Y-41975000D02*
X32725000Y-42525000D01*
G75*
G02*
X32525000Y-42725000I-200000J0D01*
G01*
X32125000Y-42725000D01*
G75*
G02*
X31925000Y-42525000I0J200000D01*
G01*
X31925000Y-41975000D01*
G75*
G02*
X32125000Y-41775000I200000J0D01*
G01*
X32525000Y-41775000D01*
G75*
G02*
X32725000Y-41975000I0J-200000D01*
G01*
G37*
G36*
G01*
X31075000Y-41975000D02*
X31075000Y-42525000D01*
G75*
G02*
X30875000Y-42725000I-200000J0D01*
G01*
X30475000Y-42725000D01*
G75*
G02*
X30275000Y-42525000I0J200000D01*
G01*
X30275000Y-41975000D01*
G75*
G02*
X30475000Y-41775000I200000J0D01*
G01*
X30875000Y-41775000D01*
G75*
G02*
X31075000Y-41975000I0J-200000D01*
G01*
G37*
%TD*%
%TO.C,R7*%
G36*
G01*
X72275000Y-39275000D02*
X72275000Y-38725000D01*
G75*
G02*
X72475000Y-38525000I200000J0D01*
G01*
X72875000Y-38525000D01*
G75*
G02*
X73075000Y-38725000I0J-200000D01*
G01*
X73075000Y-39275000D01*
G75*
G02*
X72875000Y-39475000I-200000J0D01*
G01*
X72475000Y-39475000D01*
G75*
G02*
X72275000Y-39275000I0J200000D01*
G01*
G37*
G36*
G01*
X73925000Y-39275000D02*
X73925000Y-38725000D01*
G75*
G02*
X74125000Y-38525000I200000J0D01*
G01*
X74525000Y-38525000D01*
G75*
G02*
X74725000Y-38725000I0J-200000D01*
G01*
X74725000Y-39275000D01*
G75*
G02*
X74525000Y-39475000I-200000J0D01*
G01*
X74125000Y-39475000D01*
G75*
G02*
X73925000Y-39275000I0J200000D01*
G01*
G37*
%TD*%
%TO.C,R6*%
G36*
G01*
X73925000Y-36775000D02*
X73925000Y-36225000D01*
G75*
G02*
X74125000Y-36025000I200000J0D01*
G01*
X74525000Y-36025000D01*
G75*
G02*
X74725000Y-36225000I0J-200000D01*
G01*
X74725000Y-36775000D01*
G75*
G02*
X74525000Y-36975000I-200000J0D01*
G01*
X74125000Y-36975000D01*
G75*
G02*
X73925000Y-36775000I0J200000D01*
G01*
G37*
G36*
G01*
X72275000Y-36775000D02*
X72275000Y-36225000D01*
G75*
G02*
X72475000Y-36025000I200000J0D01*
G01*
X72875000Y-36025000D01*
G75*
G02*
X73075000Y-36225000I0J-200000D01*
G01*
X73075000Y-36775000D01*
G75*
G02*
X72875000Y-36975000I-200000J0D01*
G01*
X72475000Y-36975000D01*
G75*
G02*
X72275000Y-36775000I0J200000D01*
G01*
G37*
%TD*%
%TO.C,R1*%
G36*
G01*
X31075000Y-34225000D02*
X31075000Y-34775000D01*
G75*
G02*
X30875000Y-34975000I-200000J0D01*
G01*
X30475000Y-34975000D01*
G75*
G02*
X30275000Y-34775000I0J200000D01*
G01*
X30275000Y-34225000D01*
G75*
G02*
X30475000Y-34025000I200000J0D01*
G01*
X30875000Y-34025000D01*
G75*
G02*
X31075000Y-34225000I0J-200000D01*
G01*
G37*
G36*
G01*
X32725000Y-34225000D02*
X32725000Y-34775000D01*
G75*
G02*
X32525000Y-34975000I-200000J0D01*
G01*
X32125000Y-34975000D01*
G75*
G02*
X31925000Y-34775000I0J200000D01*
G01*
X31925000Y-34225000D01*
G75*
G02*
X32125000Y-34025000I200000J0D01*
G01*
X32525000Y-34025000D01*
G75*
G02*
X32725000Y-34225000I0J-200000D01*
G01*
G37*
%TD*%
%TO.C,R5*%
G36*
G01*
X73925000Y-34275000D02*
X73925000Y-33725000D01*
G75*
G02*
X74125000Y-33525000I200000J0D01*
G01*
X74525000Y-33525000D01*
G75*
G02*
X74725000Y-33725000I0J-200000D01*
G01*
X74725000Y-34275000D01*
G75*
G02*
X74525000Y-34475000I-200000J0D01*
G01*
X74125000Y-34475000D01*
G75*
G02*
X73925000Y-34275000I0J200000D01*
G01*
G37*
G36*
G01*
X72275000Y-34275000D02*
X72275000Y-33725000D01*
G75*
G02*
X72475000Y-33525000I200000J0D01*
G01*
X72875000Y-33525000D01*
G75*
G02*
X73075000Y-33725000I0J-200000D01*
G01*
X73075000Y-34275000D01*
G75*
G02*
X72875000Y-34475000I-200000J0D01*
G01*
X72475000Y-34475000D01*
G75*
G02*
X72275000Y-34275000I0J200000D01*
G01*
G37*
%TD*%
%TO.C,R4*%
G36*
G01*
X72275000Y-32275000D02*
X72275000Y-31725000D01*
G75*
G02*
X72475000Y-31525000I200000J0D01*
G01*
X72875000Y-31525000D01*
G75*
G02*
X73075000Y-31725000I0J-200000D01*
G01*
X73075000Y-32275000D01*
G75*
G02*
X72875000Y-32475000I-200000J0D01*
G01*
X72475000Y-32475000D01*
G75*
G02*
X72275000Y-32275000I0J200000D01*
G01*
G37*
G36*
G01*
X73925000Y-32275000D02*
X73925000Y-31725000D01*
G75*
G02*
X74125000Y-31525000I200000J0D01*
G01*
X74525000Y-31525000D01*
G75*
G02*
X74725000Y-31725000I0J-200000D01*
G01*
X74725000Y-32275000D01*
G75*
G02*
X74525000Y-32475000I-200000J0D01*
G01*
X74125000Y-32475000D01*
G75*
G02*
X73925000Y-32275000I0J200000D01*
G01*
G37*
%TD*%
%TO.C,R3*%
G36*
G01*
X72275000Y-30275000D02*
X72275000Y-29725000D01*
G75*
G02*
X72475000Y-29525000I200000J0D01*
G01*
X72875000Y-29525000D01*
G75*
G02*
X73075000Y-29725000I0J-200000D01*
G01*
X73075000Y-30275000D01*
G75*
G02*
X72875000Y-30475000I-200000J0D01*
G01*
X72475000Y-30475000D01*
G75*
G02*
X72275000Y-30275000I0J200000D01*
G01*
G37*
G36*
G01*
X73925000Y-30275000D02*
X73925000Y-29725000D01*
G75*
G02*
X74125000Y-29525000I200000J0D01*
G01*
X74525000Y-29525000D01*
G75*
G02*
X74725000Y-29725000I0J-200000D01*
G01*
X74725000Y-30275000D01*
G75*
G02*
X74525000Y-30475000I-200000J0D01*
G01*
X74125000Y-30475000D01*
G75*
G02*
X73925000Y-30275000I0J200000D01*
G01*
G37*
%TD*%
%TO.C,SCL1*%
G36*
G01*
X36425000Y-67575000D02*
X36425000Y-67025000D01*
G75*
G02*
X36625000Y-66825000I200000J0D01*
G01*
X37025000Y-66825000D01*
G75*
G02*
X37225000Y-67025000I0J-200000D01*
G01*
X37225000Y-67575000D01*
G75*
G02*
X37025000Y-67775000I-200000J0D01*
G01*
X36625000Y-67775000D01*
G75*
G02*
X36425000Y-67575000I0J200000D01*
G01*
G37*
G36*
G01*
X34775000Y-67575000D02*
X34775000Y-67025000D01*
G75*
G02*
X34975000Y-66825000I200000J0D01*
G01*
X35375000Y-66825000D01*
G75*
G02*
X35575000Y-67025000I0J-200000D01*
G01*
X35575000Y-67575000D01*
G75*
G02*
X35375000Y-67775000I-200000J0D01*
G01*
X34975000Y-67775000D01*
G75*
G02*
X34775000Y-67575000I0J200000D01*
G01*
G37*
%TD*%
%TO.C,SCL_EXT1*%
G36*
G01*
X31425000Y-67575000D02*
X31425000Y-67025000D01*
G75*
G02*
X31625000Y-66825000I200000J0D01*
G01*
X32025000Y-66825000D01*
G75*
G02*
X32225000Y-67025000I0J-200000D01*
G01*
X32225000Y-67575000D01*
G75*
G02*
X32025000Y-67775000I-200000J0D01*
G01*
X31625000Y-67775000D01*
G75*
G02*
X31425000Y-67575000I0J200000D01*
G01*
G37*
G36*
G01*
X29775000Y-67575000D02*
X29775000Y-67025000D01*
G75*
G02*
X29975000Y-66825000I200000J0D01*
G01*
X30375000Y-66825000D01*
G75*
G02*
X30575000Y-67025000I0J-200000D01*
G01*
X30575000Y-67575000D01*
G75*
G02*
X30375000Y-67775000I-200000J0D01*
G01*
X29975000Y-67775000D01*
G75*
G02*
X29775000Y-67575000I0J200000D01*
G01*
G37*
%TD*%
%TO.C,SDA1*%
G36*
G01*
X34775000Y-70275000D02*
X34775000Y-69725000D01*
G75*
G02*
X34975000Y-69525000I200000J0D01*
G01*
X35375000Y-69525000D01*
G75*
G02*
X35575000Y-69725000I0J-200000D01*
G01*
X35575000Y-70275000D01*
G75*
G02*
X35375000Y-70475000I-200000J0D01*
G01*
X34975000Y-70475000D01*
G75*
G02*
X34775000Y-70275000I0J200000D01*
G01*
G37*
G36*
G01*
X36425000Y-70275000D02*
X36425000Y-69725000D01*
G75*
G02*
X36625000Y-69525000I200000J0D01*
G01*
X37025000Y-69525000D01*
G75*
G02*
X37225000Y-69725000I0J-200000D01*
G01*
X37225000Y-70275000D01*
G75*
G02*
X37025000Y-70475000I-200000J0D01*
G01*
X36625000Y-70475000D01*
G75*
G02*
X36425000Y-70275000I0J200000D01*
G01*
G37*
%TD*%
%TO.C,SDA_EXT1*%
G36*
G01*
X29775000Y-70275000D02*
X29775000Y-69725000D01*
G75*
G02*
X29975000Y-69525000I200000J0D01*
G01*
X30375000Y-69525000D01*
G75*
G02*
X30575000Y-69725000I0J-200000D01*
G01*
X30575000Y-70275000D01*
G75*
G02*
X30375000Y-70475000I-200000J0D01*
G01*
X29975000Y-70475000D01*
G75*
G02*
X29775000Y-70275000I0J200000D01*
G01*
G37*
G36*
G01*
X31425000Y-70275000D02*
X31425000Y-69725000D01*
G75*
G02*
X31625000Y-69525000I200000J0D01*
G01*
X32025000Y-69525000D01*
G75*
G02*
X32225000Y-69725000I0J-200000D01*
G01*
X32225000Y-70275000D01*
G75*
G02*
X32025000Y-70475000I-200000J0D01*
G01*
X31625000Y-70475000D01*
G75*
G02*
X31425000Y-70275000I0J200000D01*
G01*
G37*
%TD*%
D22*
%TO.C,U2*%
X42832500Y-68400000D03*
X42832500Y-69900000D03*
X42832500Y-69150000D03*
X42832500Y-70650000D03*
X42832500Y-71400000D03*
X46372500Y-68400000D03*
X46372500Y-69150000D03*
X46372500Y-69900000D03*
X46372500Y-70650000D03*
X46372500Y-71400000D03*
D23*
X44425000Y-68127500D03*
X44600000Y-71672500D03*
X43800000Y-71672500D03*
%TD*%
%TO.C,R8*%
G36*
G01*
X74771800Y-55494600D02*
X74771800Y-54944600D01*
G75*
G02*
X74971800Y-54744600I200000J0D01*
G01*
X75371800Y-54744600D01*
G75*
G02*
X75571800Y-54944600I0J-200000D01*
G01*
X75571800Y-55494600D01*
G75*
G02*
X75371800Y-55694600I-200000J0D01*
G01*
X74971800Y-55694600D01*
G75*
G02*
X74771800Y-55494600I0J200000D01*
G01*
G37*
G36*
G01*
X76421800Y-55494600D02*
X76421800Y-54944600D01*
G75*
G02*
X76621800Y-54744600I200000J0D01*
G01*
X77021800Y-54744600D01*
G75*
G02*
X77221800Y-54944600I0J-200000D01*
G01*
X77221800Y-55494600D01*
G75*
G02*
X77021800Y-55694600I-200000J0D01*
G01*
X76621800Y-55694600D01*
G75*
G02*
X76421800Y-55494600I0J200000D01*
G01*
G37*
%TD*%
%TO.C,R9*%
G36*
G01*
X76523400Y-68753400D02*
X76523400Y-68203400D01*
G75*
G02*
X76723400Y-68003400I200000J0D01*
G01*
X77123400Y-68003400D01*
G75*
G02*
X77323400Y-68203400I0J-200000D01*
G01*
X77323400Y-68753400D01*
G75*
G02*
X77123400Y-68953400I-200000J0D01*
G01*
X76723400Y-68953400D01*
G75*
G02*
X76523400Y-68753400I0J200000D01*
G01*
G37*
G36*
G01*
X74873400Y-68753400D02*
X74873400Y-68203400D01*
G75*
G02*
X75073400Y-68003400I200000J0D01*
G01*
X75473400Y-68003400D01*
G75*
G02*
X75673400Y-68203400I0J-200000D01*
G01*
X75673400Y-68753400D01*
G75*
G02*
X75473400Y-68953400I-200000J0D01*
G01*
X75073400Y-68953400D01*
G75*
G02*
X74873400Y-68753400I0J200000D01*
G01*
G37*
%TD*%
%TO.C,R10*%
G36*
G01*
X72308000Y-28342000D02*
X72308000Y-27792000D01*
G75*
G02*
X72508000Y-27592000I200000J0D01*
G01*
X72908000Y-27592000D01*
G75*
G02*
X73108000Y-27792000I0J-200000D01*
G01*
X73108000Y-28342000D01*
G75*
G02*
X72908000Y-28542000I-200000J0D01*
G01*
X72508000Y-28542000D01*
G75*
G02*
X72308000Y-28342000I0J200000D01*
G01*
G37*
G36*
G01*
X73958000Y-28342000D02*
X73958000Y-27792000D01*
G75*
G02*
X74158000Y-27592000I200000J0D01*
G01*
X74558000Y-27592000D01*
G75*
G02*
X74758000Y-27792000I0J-200000D01*
G01*
X74758000Y-28342000D01*
G75*
G02*
X74558000Y-28542000I-200000J0D01*
G01*
X74158000Y-28542000D01*
G75*
G02*
X73958000Y-28342000I0J200000D01*
G01*
G37*
%TD*%
D18*
%TO.C,S2*%
X75284400Y-72455400D03*
X75284400Y-74955400D03*
X75284400Y-77455400D03*
X68784400Y-72455400D03*
X68784400Y-74955400D03*
X68784400Y-77455400D03*
%TD*%
M02*
